/* XPM */
static char *_645110913812[] = {
/* columns rows colors chars-per-pixel */
"64 64 8 1 ",
"  c #322338",
". c #3B6373",
"X c #7AB55B",
"o c #439762",
"O c #AFDC65",
"+ c #B9CA91",
"@ c #DEE0C8",
"# c None",
/* pixels */
"################################################################",
"################################################################",
"################################################################",
"################################################################",
"################################################################",
"################################################################",
"################################################################",
"################################################################",
"################################################################",
"################################################################",
"################################################################",
"################################################################",
"################################################################",
"################################################################",
"################################################################",
"################################################################",
"################################################################",
"################################################################",
"################################################################",
"################################################################",
"################################################################",
"################################################################",
"################################################################",
"################################################################",
"################################################################",
"################################################################",
"################################################################",
"################################################################",
"################################################################",
"##############################oooo##############################",
"############################ooXXXXoo############################",
"###########################oXXOOOOXXo###########################",
"##########################oXXOOOOOOXXo##########################",
"##########################oXXXOOOOXXXo##########################",
"#########################.XXXXXXXXXXXX.#########################",
"#########################.XXXXXXXXXXXX.#########################",
"########################.oXXOOXXXXOOXXo.########################",
"########################.ooOXXXXXXXXOoo.########################",
"########################.ooo+.oXXo.+ooo.########################",
"########################.ooo@ +XX+ @ooo.########################",
"########################.oooX @XX@ Xooo.########################",
"########################.oXXooXXXXooXXo.########################",
"########################.oXXXooXXooXXXo.########################",
"########################.ooXXooXXooXXoo.########################",
"#######################..oooooXOOXooooo..#######################",
"######################.o.XoooX    XoooX.o.######################",
"#####################.o.oXXXo.    .oXXXo.o.#####################",
"#####################.oOooXXoo    ooXXooOo.#####################",
"##################### XXooXXoX.  .XoXXooXX #####################",
"##################### .o.XOOXXXOOXXXOOX.o. #####################",
"######################  .XXXXoOXXOoXXXX.  ######################",
"######################## .oo .XOOX. oo. ########################",
"#########################     .oo.     #########################",
"#############################      #############################",
"################################################################",
"################################################################",
"################################################################",
"################################################################",
"################################################################",
"################################################################",
"################################################################",
"################################################################",
"################################################################",
"################################################################"
};
