/* XPM */
static char *_645110899202[] = {
/* columns rows colors chars-per-pixel */
"64 64 8 1 ",
"  c #322338",
". c #3B6373",
"X c #7AB55B",
"o c #439762",
"O c #AFDC65",
"+ c #B9CA91",
"@ c #DEE0C8",
"# c None",
/* pixels */
"################################################################",
"################################################################",
"################################################################",
"################################################################",
"################################################################",
"################################################################",
"################################################################",
"################################################################",
"################################################################",
"################################################################",
"################################################################",
"################################################################",
"################################################################",
"################################################################",
"################################################################",
"################################################################",
"################################################################",
"################################################################",
"################################################################",
"################################################################",
"################################################################",
"################################################################",
"################################################################",
"################################################################",
"################################################################",
"################################################################",
"################################################################",
"################################################################",
"################################################################",
"################################################################",
"################################################################",
"##############################oooo##############################",
"############################ooXXXXoo############################",
"###########################oXXOOOOXXo###########################",
"##########################oXXOOOOOOXXo##########################",
"##########################oXXXOOOOXXXo##########################",
"#########################.XXXXXXXXXXXX.#########################",
"#########################.XXXXXXXXXXXX.#########################",
"########################.oXXOOXXXXOOXXo.########################",
"########################.ooXXXXXXXXXXoo.########################",
"########################.ooo+ oXXo +ooo.########################",
"########################.ooo@ +XX+ @ooo.########################",
"#######################..oooX@@XX@@Xooo..#######################",
"######################...oXXooXXXXooXXo...######################",
"#####################.oo.oXXXooXXooXXXo.oo.#####################",
"####################.oo.oooXXooXXooXXooo.oo.####################",
"#################### .XXXoooooXOOXoooooXXX. ####################",
"#################### OXXXooooX    XooooXXXO ####################",
"#################### OXXXXXXo.    .oXXXXXXO ####################",
"#################### oOoXXXXXoXOOXoXXXXXoOo ####################",
"#################### .o.OXXOXXXooXXXOXXO.o. ####################",
"#####################   oOOXXOXXXXOXXOOo   #####################",
"####################### .oo. .OOOO. .oo. #######################",
"########################    # .oo. #    ########################",
"##############################    ##############################",
"################################################################",
"################################################################",
"################################################################",
"################################################################",
"################################################################",
"################################################################",
"################################################################",
"################################################################",
"################################################################"
};
