/* XPM */
static char *_645111430473[] = {
/* columns rows colors chars-per-pixel */
"64 64 8 1 ",
"  c #322338",
". c #3B6373",
"X c #7AB55B",
"o c #439762",
"O c #AFDC65",
"+ c #B9CA91",
"@ c #DEE0C8",
"# c None",
/* pixels */
"################################################################",
"################################################################",
"################################################################",
"################################################################",
"################################################################",
"################################################################",
"################################################################",
"################################################################",
"################################################################",
"################################################################",
"################################################################",
"################################################################",
"################################################################",
"################################################################",
"################################################################",
"################################################################",
"################################################################",
"################################################################",
"################################################################",
"################################################################",
"################################################################",
"################################################################",
"################################################################",
"################################################################",
"################################################################",
"################################################################",
"################################################################",
"################################################################",
"################################################################",
"################################################################",
"#############################oooo###############################",
"###########################ooXXXXoo#############################",
"##########################oXXOOOOXXo############################",
"#########################oXXOOOOOOXXo###########################",
"#########################oXXXOOOOXXXo###########################",
"########################.XXXXXXXXXXXX.##########################",
"########################.XXXXXXXXXXXOO.#########################",
"#######################.oXXXXXXXOOXXXX.#########################",
"#######################.ooXXXXXOXXXXo.+#########################",
"#######################.ooooXXXX+.oX+ X#########################",
"#######################.oooooooo@ +XX .#########################",
"#######################.ooooooooX +XXX.#########################",
"#######################.ooooooXXooooXXX.########################",
"#######################.oooooXXXXooXOOX.########################",
"#######################.oooooXXXXoXO  o.########################",
"######################..ooooooXXXoo   o.########################",
"#####################.o.ooooooooooo   oo.#######################",
"####################.o.oooooooooooX  .O.o.######################",
"####################.oOXXoooooooooXXOOXOo.######################",
"#################### XXooXooooooooooXooXX ######################",
"#################### .o.XOOXooooooXOOX.o. ######################",
"#####################  .XXXXoOXXOoXXXX.  #######################",
"####################### .oo .XOOX. oo. #########################",
"########################     .oo.     ##########################",
"############################      ##############################",
"################################################################",
"################################################################",
"################################################################",
"################################################################",
"################################################################",
"################################################################",
"################################################################",
"################################################################",
"################################################################"
};
