/* XPM */
static char *_645111376576[] = {
/* columns rows colors chars-per-pixel */
"64 64 8 1 ",
"  c #322338",
". c #3B6373",
"X c #7AB55B",
"o c #439762",
"O c #AFDC65",
"+ c #B9CA91",
"@ c #DEE0C8",
"# c None",
/* pixels */
"################################################################",
"################################################################",
"################################################################",
"################################################################",
"################################################################",
"################################################################",
"################################################################",
"################################################################",
"################################################################",
"################################################################",
"################################################################",
"################################################################",
"################################################################",
"################################################################",
"################################################################",
"################################################################",
"################################################################",
"################################################################",
"################################################################",
"################################################################",
"################################################################",
"################################################################",
"################################################################",
"################################################################",
"################################################################",
"################################################################",
"################################################################",
"################################################################",
"################################################################",
"################################################################",
"################################################################",
"##############################oooo##############################",
"############################ooXXXXoo############################",
"###########################oXXOOOOXXo###########################",
"##########################oXXOOOOOOXXo##########################",
"##########################oXXXOOOOXXXo##########################",
"#########################.XXXXXXXXXXXX.#########################",
"#########################.XOXXOOXXXXXX.#########################",
"########################..XXXXXXOXXXXXo.########################",
"########################.o oXXXXXXXXXoo.########################",
"########################.o +Xo +XXXoooo.########################",
"########################..+XX+ @ooooooo.########################",
"#######################...XXX+@Xooooooo..#######################",
"######################...XXXooooXXooooo...######################",
"#####################.oo.XOOXooXXXXoooo.oo.#####################",
"####################.oo.o.  OXoXXXXooooo.oo.####################",
"#################### .XXo   .ooooooooooXXX. ####################",
"#################### OXXXOO  XoooooooooXXXO ####################",
"#################### OXXoXXXooooooooXXXXXXO ####################",
"#################### oOoXXXXXoXXXXoXXXXXoOo ####################",
"#################### .o.OXXOXXXXXXXXOXXO.o. ####################",
"#####################   oOOXXOXXXXOXXOOo   #####################",
"####################### .oo. .OOOO. .oo. #######################",
"########################    # .oo. #    ########################",
"##############################    ##############################",
"################################################################",
"################################################################",
"################################################################",
"################################################################",
"################################################################",
"################################################################",
"################################################################",
"################################################################",
"################################################################"
};
