/* XPM */
static char *_645111363084[] = {
/* columns rows colors chars-per-pixel */
"64 64 7 1 ",
"  c #322338",
". c #3B6373",
"X c #7AB55B",
"o c #439762",
"O c #AFDC65",
"+ c #B9CA91",
"@ c None",
/* pixels */
"@@@@@@@@@@@@@@@@@@@@@@@@@@@@@@@@@@@@@@@@@@@@@@@@@@@@@@@@@@@@@@@@",
"@@@@@@@@@@@@@@@@@@@@@@@@@@@@@@@@@@@@@@@@@@@@@@@@@@@@@@@@@@@@@@@@",
"@@@@@@@@@@@@@@@@@@@@@@@@@@@@@@@@@@@@@@@@@@@@@@@@@@@@@@@@@@@@@@@@",
"@@@@@@@@@@@@@@@@@@@@@@@@@@@@@@@@@@@@@@@@@@@@@@@@@@@@@@@@@@@@@@@@",
"@@@@@@@@@@@@@@@@@@@@@@@@@@@@@@@@@@@@@@@@@@@@@@@@@@@@@@@@@@@@@@@@",
"@@@@@@@@@@@@@@@@@@@@@@@@@@@@@@@@@@@@@@@@@@@@@@@@@@@@@@@@@@@@@@@@",
"@@@@@@@@@@@@@@@@@@@@@@@@@@@@@@@@@@@@@@@@@@@@@@@@@@@@@@@@@@@@@@@@",
"@@@@@@@@@@@@@@@@@@@@@@@@@@@@@@@@@@@@@@@@@@@@@@@@@@@@@@@@@@@@@@@@",
"@@@@@@@@@@@@@@@@@@@@@@@@@@@@@@@@@@@@@@@@@@@@@@@@@@@@@@@@@@@@@@@@",
"@@@@@@@@@@@@@@@@@@@@@@@@@@@@@@@@@@@@@@@@@@@@@@@@@@@@@@@@@@@@@@@@",
"@@@@@@@@@@@@@@@@@@@@@@@@@@@@@@@@@@@@@@@@@@@@@@@@@@@@@@@@@@@@@@@@",
"@@@@@@@@@@@@@@@@@@@@@@@@@@@@@@@@@@@@@@@@@@@@@@@@@@@@@@@@@@@@@@@@",
"@@@@@@@@@@@@@@@@@@@@@@@@@@@@@@@@@@@@@@@@@@@@@@@@@@@@@@@@@@@@@@@@",
"@@@@@@@@@@@@@@@@@@@@@@@@@@@@@@@@@@@@@@@@@@@@@@@@@@@@@@@@@@@@@@@@",
"@@@@@@@@@@@@@@@@@@@@@@@@@@@@@@@@@@@@@@@@@@@@@@@@@@@@@@@@@@@@@@@@",
"@@@@@@@@@@@@@@@@@@@@@@@@@@@@@@@@@@@@@@@@@@@@@@@@@@@@@@@@@@@@@@@@",
"@@@@@@@@@@@@@@@@@@@@@@@@@@@@@@@@@@@@@@@@@@@@@@@@@@@@@@@@@@@@@@@@",
"@@@@@@@@@@@@@@@@@@@@@@@@@@@@@@@@@@@@@@@@@@@@@@@@@@@@@@@@@@@@@@@@",
"@@@@@@@@@@@@@@@@@@@@@@@@@@@@@@@@@@@@@@@@@@@@@@@@@@@@@@@@@@@@@@@@",
"@@@@@@@@@@@@@@@@@@@@@@@@@@@@@@@@@@@@@@@@@@@@@@@@@@@@@@@@@@@@@@@@",
"@@@@@@@@@@@@@@@@@@@@@@@@@@@@@@@@@@@@@@@@@@@@@@@@@@@@@@@@@@@@@@@@",
"@@@@@@@@@@@@@@@@@@@@@@@@@@@@@@@@@@@@@@@@@@@@@@@@@@@@@@@@@@@@@@@@",
"@@@@@@@@@@@@@@@@@@@@@@@@@@@@@@@@@@@@@@@@@@@@@@@@@@@@@@@@@@@@@@@@",
"@@@@@@@@@@@@@@@@@@@@@@@@@@@@@@@@@@@@@@@@@@@@@@@@@@@@@@@@@@@@@@@@",
"@@@@@@@@@@@@@@@@@@@@@@@@@@@@@@@@@@@@@@@@@@@@@@@@@@@@@@@@@@@@@@@@",
"@@@@@@@@@@@@@@@@@@@@@@@@@@@@@@@@@@@@@@@@@@@@@@@@@@@@@@@@@@@@@@@@",
"@@@@@@@@@@@@@@@@@@@@@@@@@@@@@@@@@@@@@@@@@@@@@@@@@@@@@@@@@@@@@@@@",
"@@@@@@@@@@@@@@@@@@@@@@@@@@@@@@@@@@@@@@@@@@@@@@@@@@@@@@@@@@@@@@@@",
"@@@@@@@@@@@@@@@@@@@@@@@@@@@@@@@@@@@@@@@@@@@@@@@@@@@@@@@@@@@@@@@@",
"@@@@@@@@@@@@@@@@@@@@@@@@@@@@@@@@@@@@@@@@@@@@@@@@@@@@@@@@@@@@@@@@",
"@@@@@@@@@@@@@@@@@@@@@@@@@@@@@@@@@@@@@@@@@@@@@@@@@@@@@@@@@@@@@@@@",
"@@@@@@@@@@@@@@@@@@@@@@@@@@@@@@oooo@@@@@@@@@@@@@@@@@@@@@@@@@@@@@@",
"@@@@@@@@@@@@@@@@@@@@@@@@@@@@ooXXXXoo@@@@@@@@@@@@@@@@@@@@@@@@@@@@",
"@@@@@@@@@@@@@@@@@@@@@@@@@@@oXXOOOOXXo@@@@@@@@@@@@@@@@@@@@@@@@@@@",
"@@@@@@@@@@@@@@@@@@@@@@@@@@oXXOOOOOOXXo@@@@@@@@@@@@@@@@@@@@@@@@@@",
"@@@@@@@@@@@@@@@@@@@@@@@@@@oXXXOOOOXXXo@@@@@@@@@@@@@@@@@@@@@@@@@@",
"@@@@@@@@@@@@@@@@@@@@@@@@@.XXXXXXXXXXXX.@@@@@@@@@@@@@@@@@@@@@@@@@",
"@@@@@@@@@@@@@@@@@@@@@@@@@.XXXXXXXXXXXX.@@@@@@@@@@@@@@@@@@@@@@@@@",
"@@@@@@@@@@@@@@@@@@@@@@@@.oXXXXXXXXXXXXo.@@@@@@@@@@@@@@@@@@@@@@@@",
"@@@@@@@@@@@@@@@@@@@@@@@@ .oXXXXXXXXXXoo.@@@@@@@@@@@@@@@@@@@@@@@@",
"@@@@@@@@@@@@@@@@@@@@@@@@ +oooXXXXXXoooo.@@@@@@@@@@@@@@@@@@@@@@@@",
"@@@@@@@@@@@@@@@@@@@@@@@@X+ooooooooooooo.@@@@@@@@@@@@@@@@@@@@@@@@",
"@@@@@@@@@@@@@@@@@@@@@@@..ooXXoooooooooo..@@@@@@@@@@@@@@@@@@@@@@@",
"@@@@@@@@@@@@@@@@@@@@@@...oXXXXooooooooo...@@@@@@@@@@@@@@@@@@@@@@",
"@@@@@@@@@@@@@@@@@@@@@.oo.oXXXXooooooooo.oo.@@@@@@@@@@@@@@@@@@@@@",
"@@@@@@@@@@@@@@@@@@@@.oo.oooXXooooooooooo.oo.@@@@@@@@@@@@@@@@@@@@",
"@@@@@@@@@@@@@@@@@@@@ .XXXooooooooooooooXXX. @@@@@@@@@@@@@@@@@@@@",
"@@@@@@@@@@@@@@@@@@@@ OXXXooooooooooooooXXXO @@@@@@@@@@@@@@@@@@@@",
"@@@@@@@@@@@@@@@@@@@@ OXXXXXXooooooooXXXXXXO @@@@@@@@@@@@@@@@@@@@",
"@@@@@@@@@@@@@@@@@@@@ oOoXXXXXoXXXXoXXXXXoOo @@@@@@@@@@@@@@@@@@@@",
"@@@@@@@@@@@@@@@@@@@@ .o.OXXOXXXXXXXXOXXO.o. @@@@@@@@@@@@@@@@@@@@",
"@@@@@@@@@@@@@@@@@@@@@   oOOXXOXXXXOXXOOo   @@@@@@@@@@@@@@@@@@@@@",
"@@@@@@@@@@@@@@@@@@@@@@@ .oo. .OOOO. .oo. @@@@@@@@@@@@@@@@@@@@@@@",
"@@@@@@@@@@@@@@@@@@@@@@@@    @ .oo. @    @@@@@@@@@@@@@@@@@@@@@@@@",
"@@@@@@@@@@@@@@@@@@@@@@@@@@@@@@    @@@@@@@@@@@@@@@@@@@@@@@@@@@@@@",
"@@@@@@@@@@@@@@@@@@@@@@@@@@@@@@@@@@@@@@@@@@@@@@@@@@@@@@@@@@@@@@@@",
"@@@@@@@@@@@@@@@@@@@@@@@@@@@@@@@@@@@@@@@@@@@@@@@@@@@@@@@@@@@@@@@@",
"@@@@@@@@@@@@@@@@@@@@@@@@@@@@@@@@@@@@@@@@@@@@@@@@@@@@@@@@@@@@@@@@",
"@@@@@@@@@@@@@@@@@@@@@@@@@@@@@@@@@@@@@@@@@@@@@@@@@@@@@@@@@@@@@@@@",
"@@@@@@@@@@@@@@@@@@@@@@@@@@@@@@@@@@@@@@@@@@@@@@@@@@@@@@@@@@@@@@@@",
"@@@@@@@@@@@@@@@@@@@@@@@@@@@@@@@@@@@@@@@@@@@@@@@@@@@@@@@@@@@@@@@@",
"@@@@@@@@@@@@@@@@@@@@@@@@@@@@@@@@@@@@@@@@@@@@@@@@@@@@@@@@@@@@@@@@",
"@@@@@@@@@@@@@@@@@@@@@@@@@@@@@@@@@@@@@@@@@@@@@@@@@@@@@@@@@@@@@@@@",
"@@@@@@@@@@@@@@@@@@@@@@@@@@@@@@@@@@@@@@@@@@@@@@@@@@@@@@@@@@@@@@@@"
};
