/* XPM */
static char *_645111372721[] = {
/* columns rows colors chars-per-pixel */
"64 64 8 1 ",
"  c #322338",
". c #3B6373",
"X c #7AB55B",
"o c #439762",
"O c #AFDC65",
"+ c #B9CA91",
"@ c #DEE0C8",
"# c None",
/* pixels */
"################################################################",
"################################################################",
"################################################################",
"################################################################",
"################################################################",
"################################################################",
"################################################################",
"################################################################",
"################################################################",
"################################################################",
"################################################################",
"################################################################",
"################################################################",
"################################################################",
"################################################################",
"################################################################",
"################################################################",
"################################################################",
"################################################################",
"################################################################",
"################################################################",
"################################################################",
"################################################################",
"################################################################",
"################################################################",
"################################################################",
"################################################################",
"################################################################",
"################################################################",
"################################################################",
"################################################################",
"#############################oooo###############################",
"###########################ooXXXXoo#############################",
"##########################oXXOOOOXXo############################",
"#########################oXXOOOOOOXXo###########################",
"#########################oXXXOOOOXXXo###########################",
"########################.XXXXXXXXXXXX.##########################",
"########################.XXXXXXOOXXOX.##########################",
"#######################.oXXXXXOXXXXXX..#########################",
"#######################.ooXXXXXXXXXo o.#########################",
"#######################.ooooXXX+ oX+ o.#########################",
"#######################.ooooooo@ +XX+..#########################",
"######################..oooooooX@+XXX...########################",
"#####################...oooooXXooooXXX...#######################",
"####################.oo.ooooXXXXooXOOX.oo.######################",
"###################.oo.oooooXXXXoXO  .o.oo.#####################",
"################### .XXXoooooooooo.   oXX. #####################",
"################### OXXXoooooooooX  OOXXXO #####################",
"################### OXXXXXXooooooooXXXoXXO #####################",
"################### oOoXXXXXoXXXXoXXXXXoOo #####################",
"################### .o.OXXOXXXXXXXXOXXO.o. #####################",
"####################   oOOXXOXXXXOXXOOo   ######################",
"###################### .oo. .OOOO. .oo. ########################",
"#######################    # .oo. #    #########################",
"#############################    ###############################",
"################################################################",
"################################################################",
"################################################################",
"################################################################",
"################################################################",
"################################################################",
"################################################################",
"################################################################",
"################################################################"
};
