/* XPM */
static char *_645111434638[] = {
/* columns rows colors chars-per-pixel */
"64 64 8 1 ",
"  c #322338",
". c #3B6373",
"X c #7AB55B",
"o c #439762",
"O c #AFDC65",
"+ c #B9CA91",
"@ c #DEE0C8",
"# c None",
/* pixels */
"################################################################",
"################################################################",
"################################################################",
"################################################################",
"################################################################",
"################################################################",
"################################################################",
"################################################################",
"################################################################",
"################################################################",
"################################################################",
"################################################################",
"################################################################",
"################################################################",
"################################################################",
"################################################################",
"################################################################",
"################################################################",
"################################################################",
"################################################################",
"################################################################",
"################################################################",
"################################################################",
"################################################################",
"################################################################",
"################################################################",
"################################################################",
"################################################################",
"################################################################",
"################################################################",
"##############################oooo##############################",
"############################ooXXXXoo############################",
"###########################oXXOOOOXXo###########################",
"##########################oXXOOOOOOXXo##########################",
"##########################oXXXOOOOXXXo##########################",
"#########################.XXXXXXXXXXXX.#########################",
"########################.OOXXXXXXXXXXX.#########################",
"########################.XXXXOOXXXXXXXo.########################",
"########################+.oXXXXOXXXXXoo.########################",
"########################X +Xo.+XXXXoooo.########################",
"########################. XX+ @oooooooo.########################",
"########################.XXX+ Xoooooooo.########################",
"#######################.XXXooooXXoooooo.########################",
"#######################.XOOXooXXXXooooo.########################",
"#######################.o  OXoXXXXooooo.########################",
"#######################.o   ooXXXoooooo..#######################",
"######################.oo   ooooooooooo.o.######################",
"#####################.o.O.  Xooooooooooo.o.#####################",
"#####################.oOXOOXXoooooooooXXOo.#####################",
"##################### XXooXooooooooooXooXX #####################",
"##################### .o.XOOXooooooXOOX.o. #####################",
"######################  .XXXXoOXXOoXXXX.  ######################",
"######################## .oo .XOOX. oo. ########################",
"#########################     .oo.     #########################",
"#############################      #############################",
"################################################################",
"################################################################",
"################################################################",
"################################################################",
"################################################################",
"################################################################",
"################################################################",
"################################################################",
"################################################################"
};
