/* XPM */
static char *_645564705171[] = {
/* columns rows colors chars-per-pixel */
"64 64 20 1 ",
"  c #39314B",
". c #7A444A",
"X c #7B444A",
"o c #7A454A",
"O c #564064",
"+ c #574064",
"@ c #A05A53",
"# c #A05B53",
"$ c #BF7958",
"% c #EEA160",
"& c #8E478C",
"* c #8E478D",
"= c #CD6092",
"- c #CD6093",
"; c #CFC6B8",
": c #DFF6F4",
"> c #DEF6F5",
", c #DFF6F5",
"< c #DFF7F5",
"1 c None",
/* pixels */
"1111111111111111111111111111111111111111111111111111111111111111",
"1111111111111111111111111111111111111111111111111111111111111111",
"1111111111111111111111111111111111111111111111111111111111111111",
"1111111111111111111111111111111111111111111111111111111111111111",
"1111111111111111111111111111111111111111111111111111111111111111",
"1111111111111111111111111111111111111111111111111111111111111111",
"1111111111111111111111111111111111111111111111111111111111111111",
"1111111111111111111111111111111111111111111111111111111111111111",
"1111111111111111111111111111111111111111111111111111111111111111",
"1111111111111111111111111111111111111111111111111111111111111111",
"1111111111111111111111111111111111111111111111111111111111111111",
"1111111111111111111111111111111111111111111111111111111111111111",
"1111111111111111111111111111111111111111111111111111111111111111",
"1111111111111111111111111111111111111111111111111111111111111111",
"1111111111111111111111111111111111111111111111111111111111111111",
"1111111111111111111111111111111111111111111111111111111111111111",
"1111111111111111111111111111111111111111111111111111111111111111",
"1111111111111111111111111111111111111111111111111111111111111111",
"1111111111111111111111111111111111111111111111111111111111111111",
"1111111111111111111111111111111111111111111111111111111111111111",
"1111111111111111111111111111111111111111111111111111111111111111",
"1111111111111111111111111111111111111111111111111111111111111111",
"1111111111111111111111111111111111111111111111111111111111111111",
"1111111111111111111111111111111111111111111111111111111111111111",
"1111111111111111111111111111111111111111111111111111111111111111",
"1111111111111111111111111111111111111111111111111111111111111111",
"1111111111111111111111111111111111111111111111111111111111111111",
"1111111111111111111111111111111111111111111111111111111111111111",
"1111111111111111111111111111111111111111111111111111111111111111",
"1111111111111111111111111111111111111111111111111111111111111111",
"1111111111111111111111111111111111111111111111111111111111111111",
"1111111111111111111111111111%%%%%1111111111111111111111111111111",
"111111111111111111111111111%%%%%%$111111111111111111111111111111",
"111111111111111111111111111$%%%$$.111111111111111111111111111111",
"111111111111111111111111111$$#@@..111111111111111111111111111111",
"111111111111111111111111111#$#@@..111111111111111111111111111111",
"111111111111111111111111111####X..111111111111111111111111111111",
"11111111111111111111111111,####X..,11111111111111111111111111111",
"1111111111111111111111111,,,##...,,,1111111111111111111111111111",
"11111111111111111111111,,1,#<<<,,.,1,,11111111111111111111111111",
"111111111111111111111,,111,1##...1,111,,111111111111111111111111",
"11111111111111111111,111111,-...&,111111,11111111111111111111111",
"1111111111111111111,1,,11-------&&&&11,,1,1111111111111111111111",
"1111111111111111111,111,,--------&&&,,111,1111111111111111111111",
"1111111111111111111<11---,,------&,,&&&11,1111111111111111111111",
"1111111111111111111<1,,----,,---,,&&&&O,1,1111111111111111111111",
"1111111111111111111<1<,,O----,,,&&&&OO ,1,1111111111111111111111",
"1111111111111111111<11O,OOO--&&&&&OOO  11,1111111111111111111111",
"1111111111111111111,1,OOOOOO++,OOOOO   ,1,1111111111111111111111",
"1111111111111111111,1; , OOO++,OOOO  , ;1,1111111111111111111111",
"11111111111111111111,111   O++<OO    111,11111111111111111111111",
"111111111111111111111,,111,   <   ,111,,111111111111111111111111",
"11111111111111111111111,,111, ,  111,,11111111111111111111111111",
"1111111111111111111111111,,111,111,,1111111111111111111111111111",
"111111111111111111111111111,,111,,111111111111111111111111111111",
"11111111111111111111111111111,,,11111111111111111111111111111111",
"1111111111111111111111111111111111111111111111111111111111111111",
"1111111111111111111111111111111111111111111111111111111111111111",
"1111111111111111111111111111111111111111111111111111111111111111",
"1111111111111111111111111111111111111111111111111111111111111111",
"1111111111111111111111111111111111111111111111111111111111111111",
"1111111111111111111111111111111111111111111111111111111111111111",
"1111111111111111111111111111111111111111111111111111111111111111",
"1111111111111111111111111111111111111111111111111111111111111111"
};
