/* XPM */
static char *d70f471cac6246bacaf2766133be1592da6qxWHo2mAeOFeX[] = {
/* columns rows colors chars-per-pixel */
"64 64 10 1 ",
"  c None",
". c #3D2B45",
"X c #612F4D",
"o c #5B617F",
"O c #A63D4A",
"+ c #C4685E",
"@ c #DEB25B",
"# c #87A39E",
"$ c #D4A68A",
"% c #DEE0C8",
/* pixels */
"                                                                ",
"                                                                ",
"                                                                ",
"                                                                ",
"                                                                ",
"                                                                ",
"                                                                ",
"                                                                ",
"                                                                ",
"                                                                ",
"                                                                ",
"                                                                ",
"                                                                ",
"                                                                ",
"                                                                ",
"                                                                ",
"                             OOOOOO                             ",
"                            OOOOOOOO                            ",
"                           XOXXOOOOOO                           ",
"                           XXXXXOOOOX                           ",
"                           XXXOXXXXXX                           ",
"                           XXO$$OXXXO                           ",
"                           X$X$$$$$$O                           ",
"                           X$$$XO$$OX                           ",
"                            X$$%.$$.+                           ",
"                            XO$$$$$$O                           ",
"                             .O$OO$X                            ",
"                           o#o.....#o                           ",
"                          o###oo..oo#o                          ",
"                          o##oooo#oooo                          ",
"                          o#.oo@oooo.o                          ",
"                          ....ooo..o.                           ",
"                          O$.........                           ",
"                          $$...oo#o..                           ",
"                          $$........O                           ",
"                          $$$O..oo..OO                          ",
"                          O$$$O.....OO                          ",
"                           O$$O....OO                           ",
"                            OOoo.oo                             ",
"                            .oo .o.                             ",
"                            .o. ...                             ",
"                            ... ...                             ",
"                            ... .###                            ",
"                            .###.o#%#                           ",
"                            .o###oooo                           ",
"                             oooo                               ",
"                                                                ",
"                                                                ",
"                                                                ",
"                                                                ",
"                                                                ",
"                                                                ",
"                                                                ",
"                                                                ",
"                                                                ",
"                                                                ",
"                                                                ",
"                                                                ",
"                                                                ",
"                                                                ",
"                                                                ",
"                                                                ",
"                                                                ",
"                                                                "
};
