/* XPM */
static char *e75c2684233645a19f04260059abab13v7hqKJxmsdOr5NNQ[] = {
/* columns rows colors chars-per-pixel */
"64 64 8 1 ",
"  c None",
". c #3D2B45",
"X c #612F4D",
"o c #5B617F",
"O c #A63D4A",
"+ c #C4685E",
"@ c #87A39E",
"# c #D4A68A",
/* pixels */
"                                                                ",
"                                                                ",
"                                                                ",
"                                                                ",
"                                                                ",
"                                                                ",
"                                                                ",
"                                                                ",
"                                                                ",
"                                                                ",
"                                                                ",
"                                                                ",
"                                                                ",
"                                                                ",
"                                                                ",
"                                                                ",
"                                                                ",
"                            OOOOOOX                             ",
"                           OOOOOOOOX                            ",
"                           OOOOOOOOXX                           ",
"                          XOOXOOOOXXX                           ",
"                          XXOXXXXXXXX                           ",
"                           XXXXXXXXXX                           ",
"                           OOXXXXXXX.                           ",
"                           OOO#XXXXX.                           ",
"                           O#O+XXXX.                            ",
"                           XOXXXXXX.                            ",
"                            ..XXXX.                             ",
"                           o@o.XOO.@o                           ",
"                          o@@@@o..oo@o                          ",
"                          o@@@......oo                          ",
"                          o@@o.......o                          ",
"                          .o..........                          ",
"                          O.O........O                          ",
"                          OOO.......OO                          ",
"                         OO#O.......#O                          ",
"                         O##O.......##                          ",
"                         O##O......oO                           ",
"                         OOO.o....oo                            ",
"                            .oo  .o.                            ",
"                            ..o  ...                            ",
"                            ...oo...                            ",
"                          @@...oo...                            ",
"                          @@....o...                            ",
"                          o@o.. ....                            ",
"                           oooo                                 ",
"                                                                ",
"                                                                ",
"                                                                ",
"                                                                ",
"                                                                ",
"                                                                ",
"                                                                ",
"                                                                ",
"                                                                ",
"                                                                ",
"                                                                ",
"                                                                ",
"                                                                ",
"                                                                ",
"                                                                ",
"                                                                ",
"                                                                ",
"                                                                "
};
