/* XPM */
static char *_0c7a0ce1d204be2eb37b8f6a0046c93OKFopxVkRHdvtEqd[] = {
/* columns rows colors chars-per-pixel */
"64 64 9 1 ",
"  c None",
". c #3D2B45",
"X c #612F4D",
"o c #5B617F",
"O c #A63D4A",
"+ c #C4685E",
"@ c #87A39E",
"# c #D4A68A",
"$ c #DEE0C8",
/* pixels */
"                                                                ",
"                                                                ",
"                                                                ",
"                                                                ",
"                                                                ",
"                                                                ",
"                                                                ",
"                                                                ",
"                                                                ",
"                                                                ",
"                                                                ",
"                                                                ",
"                                                                ",
"                                                                ",
"                                                                ",
"                                                                ",
"                                                                ",
"                                                                ",
"                            XOOOOXX                             ",
"                           XOOOOOOXX                            ",
"                          XXOOOOOOXXX                           ",
"                          XXXOOOXXXXX                           ",
"                          XXXXXXX++XX                           ",
"                          XXXXXXX+#+                            ",
"                          .XXXXXXX#+                            ",
"                          .XXXXX#O##                            ",
"                           .XXXX+##+                            ",
"                           .XXXXXX+                             ",
"                            .XXXX..                             ",
"                          o@.OOX.ooo                            ",
"                         o@oo..o@@@@o                           ",
"                         oo......@$@o                           ",
"                         o.......o@@o                           ",
"                         ..........o.                           ",
"                         O........O.O                           ",
"                         OO.......OOO                           ",
"                         O#.......O#OO                          ",
"                         ##.......O##O                          ",
"                          Oo......O##O                          ",
"                           oo....o.OOO                          ",
"                           .o.  oo.                             ",
"                           ...  o..                             ",
"                           ...oo...                             ",
"                           ...oo...@@                           ",
"                           ...o....@@                           ",
"                           .... ..o@o                           ",
"                                oooo                            ",
"                                                                ",
"                                                                ",
"                                                                ",
"                                                                ",
"                                                                ",
"                                                                ",
"                                                                ",
"                                                                ",
"                                                                ",
"                                                                ",
"                                                                ",
"                                                                ",
"                                                                ",
"                                                                ",
"                                                                ",
"                                                                ",
"                                                                "
};
