/* XPM */
static char *_c8ac7e4d1984a28c45f5f89f67646c71Pr4fvLI9BYLpues[] = {
/* columns rows colors chars-per-pixel */
"64 64 10 1 ",
"  c None",
". c #3D2B45",
"X c #612F4D",
"o c #5B617F",
"O c #A63D4A",
"+ c #C4685E",
"@ c #DEB25B",
"# c #87A39E",
"$ c #D4A68A",
"% c #DEE0C8",
/* pixels */
"                                                                ",
"                                                                ",
"                                                                ",
"                                                                ",
"                                                                ",
"                                                                ",
"                                                                ",
"                                                                ",
"                                                                ",
"                                                                ",
"                                                                ",
"                                                                ",
"                                                                ",
"                                                                ",
"                                                                ",
"                                                                ",
"                                                                ",
"                           XXOOOOO                              ",
"                          XXOOOOXXO                             ",
"                          XXOOOOOXXO                            ",
"                          XXXOOOXXXX                            ",
"                          XOXXXXXXXX                            ",
"                          O$$XXXOXXX                            ",
"                          O$$$$$$X$X                            ",
"                          XO$$OX$$$X                            ",
"                          +.$$.%$$X                             ",
"                          O$$$$$$OX                             ",
"                           O$OO$O.                              ",
"                          o#.....o#o                            ",
"                         o#oo..oo#%#o                           ",
"                         ooooooooo##o                           ",
"                         o.@oooooo.#o                           ",
"                          .o..ooo....                           ",
"                          .........$O                           ",
"                          ..oooo...$$                           ",
"                          O........$$                           ",
"                         OO..oo..O$$$                           ",
"                         OO.....O$$$O                           ",
"                          OO....O$$O                            ",
"                            oo.ooOO                             ",
"                            .o. oo.                             ",
"                            ... .o.                             ",
"                            ... ...                             ",
"                           ###. ...                             ",
"                          ###o.###.                             ",
"                          oooo#%#o.                             ",
"                              oooo                              ",
"                                                                ",
"                                                                ",
"                                                                ",
"                                                                ",
"                                                                ",
"                                                                ",
"                                                                ",
"                                                                ",
"                                                                ",
"                                                                ",
"                                                                ",
"                                                                ",
"                                                                ",
"                                                                ",
"                                                                ",
"                                                                ",
"                                                                "
};
