/* XPM */
static char *__mini1646930053[] = {
/* columns rows colors chars-per-pixel */
"16 16 100 2 ",
"   c None",
".  c #854306",
"X  c #864407",
"o  c #96561C",
"O  c #A95404",
"+  c #A95405",
"@  c #BA5C06",
"#  c #BA5C07",
"$  c #BB5C07",
"%  c #BA5D07",
"&  c #BB5C08",
"*  c #BB5D08",
"=  c #BA5D09",
"-  c #BA600E",
";  c #BB600E",
":  c #BB600F",
">  c #BE600D",
",  c #BE610D",
"<  c #BF630E",
"1  c #BF620F",
"2  c #9F6025",
"3  c #B87236",
"4  c #BB7537",
"5  c #C06410",
"6  c #C16410",
"7  c #C16510",
"8  c #C26511",
"9  c #C36612",
"0  c #C16B1E",
"q  c #D57C2A",
"w  c #D57C2B",
"e  c #D67C2C",
"r  c #D77C2C",
"t  c #D67D2C",
"y  c #D77D2C",
"u  c #D67D2D",
"i  c #D77D2D",
"p  c #C97A30",
"a  c #D47F32",
"s  c #A4734E",
"d  c #D48033",
"f  c #DA8332",
"g  c #DB8233",
"h  c #DB8333",
"j  c #DC8433",
"k  c #DC8434",
"l  c #DD8434",
"z  c #DD8534",
"x  c #DD8435",
"c  c #DC8535",
"v  c #DD8535",
"b  c #D88538",
"n  c #D9853A",
"m  c #DB863A",
"M  c #DA873A",
"N  c #DC873B",
"B  c #DD873B",
"V  c #96827C",
"C  c #D4935B",
"Z  c #D59661",
"A  c #938383",
"S  c #9DA8B8",
"D  c #B7A5A0",
"F  c #ACA9B4",
"G  c #CEBCB2",
"H  c #ADB2C5",
"J  c #9FBEED",
"K  c #8BB5F0",
"L  c #8CB6F1",
"P  c #87BAFF",
"I  c #8DB8F8",
"U  c #8BBCFE",
"Y  c #8BBCFF",
"T  c #8BBDFF",
"R  c #8CBDFF",
"E  c #93C0FF",
"W  c #A3C8FF",
"Q  c #A2C9FF",
"!  c #BDD9FE",
"~  c #DAD7D8",
"^  c #DAD7D9",
"/  c #CCE2FF",
"(  c #CDE2FF",
")  c #D5E7FF",
"_  c #D9E6F8",
"`  c #D6E8FF",
"'  c #D7E8FF",
"]  c #D7E9FF",
"[  c #D9E8FE",
"{  c #D9E9FE",
"}  c #D8E8FF",
"|  c #D9E8FF",
" . c #D8E9FF",
".. c #D9E9FF",
"X. c #E2EEFE",
"o. c #E3EEFE",
"O. c #E3EFFE",
"+. c #E2EEFF",
"@. c #E3EEFF",
"#. c #E3EFFF",
/* pixels */
"              S S               ",
"          S ........S           ",
"      S ............[ ..S       ",
"  S ..` ..) ..[ ..) [ ) ....S   ",
"#.#...` [ ......) ..........) W ",
"....#.#...) ..[ ......` ) W U I ",
"H ` _ ..o.#...) ` ..` W U U L A ",
"C F J ( ~ ..o.#.) W U U P s * ; ",
"k B d b ! G ^ ..E U L V $ ; ; 8 ",
"e e e B k b D ( U A $ ; 4 @ @ * ",
"k e k B B M Z d 5 $ 0 $ 3 * * * ",
"k k i j k k k k ; 5 $ @ 1 @ @ 8 ",
"p k k k e e k k 1 @ 8 * * * * + ",
"    2 e e q k i ; * * * * +     ",
"        o k l q ; 9 8 X         ",
"              j 5 X             "
};
