/* XPM */
static char *_2_mini1646930053[] = {
/* columns rows colors chars-per-pixel */
"16 16 137 2 ",
"   c None",
".  c #272728",
"X  c #282828",
"o  c gray22",
"O  c #3D3E3E",
"+  c #3F3F3F",
"@  c gray27",
"#  c #454747",
"$  c gray28",
"%  c #484848",
"&  c #494948",
"*  c #4B4A4A",
"=  c #4C4C4C",
"-  c gray30",
";  c #4D4E4E",
":  c gray31",
">  c #515150",
",  c #505051",
"<  c #505151",
"1  c gray32",
"2  c #535252",
"3  c #535352",
"4  c #535253",
"5  c #545554",
"6  c #555455",
"7  c #555555",
"8  c #545657",
"9  c #555657",
"0  c #545658",
"q  c #55565A",
"w  c #595859",
"e  c gray35",
"r  c gray36",
"t  c #5C5D5C",
"y  c #5D5C5D",
"u  c #5D5D5D",
"i  c #5F5F5F",
"p  c #606061",
"a  c #646464",
"s  c #656565",
"d  c #676666",
"f  c #686968",
"g  c #686869",
"h  c #6B6A6A",
"j  c gray42",
"k  c #6F6E6E",
"l  c #6F6F6E",
"z  c #626972",
"x  c #717070",
"c  c #707171",
"v  c gray45",
"b  c #747474",
"n  c #747475",
"m  c #757475",
"M  c gray47",
"N  c #797878",
"B  c #787978",
"V  c #797978",
"C  c #7A7979",
"Z  c #7B7A7A",
"A  c #7B7B7A",
"S  c #7A7A7B",
"D  c #7B7A7B",
"F  c #7A7A7C",
"G  c #7B7B7C",
"H  c #7B7C7D",
"J  c #7C7C7C",
"K  c #7D7C7C",
"L  c #7C7C7D",
"P  c #7E7F7F",
"I  c #586A83",
"U  c #56729A",
"Y  c #7C848E",
"T  c #6280AC",
"R  c #6383AD",
"E  c #818081",
"W  c #808083",
"Q  c #808183",
"!  c #858484",
"~  c #858584",
"^  c gray52",
"/  c #848688",
"(  c #81868E",
")  c #87888A",
"_  c #88898B",
"`  c #8C8B8A",
"'  c #8D8D8C",
"]  c #8F8F8E",
"[  c #868C95",
"{  c #9DA6B7",
"}  c #9DA8B7",
"|  c #9DA6B8",
" . c #9DA8B8",
".. c #8CA5C5",
"X. c #88A7D0",
"o. c #95B2DD",
"O. c #AAB8CC",
"+. c #85B5F5",
"@. c #86B5F4",
"#. c #86BAFF",
"$. c #89B9FB",
"%. c #8BBDFE",
"&. c #8ABCFF",
"*. c #8BBCFF",
"=. c #8BBDFF",
"-. c #8DBCFE",
";. c #97BCF3",
":. c #92C0FF",
">. c #A2C9FE",
",. c #A2C8FF",
"<. c #A2C9FF",
"1. c #A3C9FF",
"2. c #BDD9FF",
"3. c #C7D4E6",
"4. c #CFDCEE",
"5. c #CDE3FE",
"6. c #CCE2FF",
"7. c #D7E6FB",
"8. c #D5E6FE",
"9. c #D4E7FE",
"0. c #D5E7FF",
"q. c #D7E8FE",
"w. c #D7E8FF",
"e. c #D9E8FE",
"r. c #D8E9FE",
"t. c #D9E9FE",
"y. c #D8E8FF",
"u. c #D9E8FF",
"i. c #D8E9FF",
"p. c #D9E9FF",
"a. c #E2EEFE",
"s. c #E3EEFE",
"d. c #E3EFFE",
"f. c #E2EEFF",
"g. c #E3EEFF",
"h. c #E2EFFF",
"j. c #E3EFFF",
/* pixels */
"              |  .              ",
"          } p.p.p.p. .          ",
"      } p.p.p.e.w.w.p.p.{       ",
"   .p.w.p.7.p.p.p.w.p.w.p.p.|   ",
"f.f.p.7.p.p.p.p.w.w.p.w.p.w.7.<.",
"p.p.f.f.p.p.w.e.p.p.p.w.7.<.%.#.",
"o.p.7.p.f.f.p.p.w.p.7.<.%.%.@.T ",
"[ X.;.6.3.e.f.d.7.>.&.%.#.I & 8 ",
"E K G ) 2.O.4.p.-.=.+.U u 7 ; 2 ",
"V n J K G ) ..5.=.R u 7 z : h 4 ",
"J x f E Y C Y ^ l 3 q s ( a = u ",
"j K ` K C v G B 7 3 e 2 * p 6 % ",
"i ^ x D ] n D ~ k 2 @ u 2 % s + ",
"    # ~ v D D P < 7 7 = u o     ",
"        O ` j G p * e X         ",
"              f 7 .             "
};
