/* XPM */
static char *_1_mini1646930053[] = {
/* columns rows colors chars-per-pixel */
"16 16 154 2 ",
"   c None",
".  c #272728",
"X  c #282828",
"o  c #383837",
"O  c #3D3E3E",
"+  c #3F3F3E",
"@  c #444545",
"#  c #474545",
"$  c gray28",
"%  c #484848",
"&  c #494949",
"*  c gray29",
"=  c #4B4A4A",
"-  c #4A4A4B",
";  c #4A4C4D",
":  c #4C4D4C",
">  c #4C4D4D",
",  c gray30",
"<  c #4F4E4E",
"1  c #4E4F4E",
"2  c #4F4E4F",
"3  c gray31",
"4  c #505050",
"5  c #505051",
"6  c #515051",
"7  c #505151",
"8  c #515151",
"9  c #525250",
"0  c #515052",
"q  c gray32",
"w  c #525352",
"e  c #525253",
"r  c #535253",
"t  c #525353",
"y  c #555454",
"u  c #545554",
"i  c #545455",
"p  c #555555",
"a  c #565756",
"s  c #585858",
"d  c #585959",
"f  c #59595B",
"g  c #5A595A",
"h  c #5B5B5B",
"j  c #5D5B5B",
"k  c #5B5B5D",
"l  c #5C5C5D",
"z  c #5D5C5D",
"x  c #5C5D5D",
"c  c #5D5D5D",
"v  c #5F5E5E",
"b  c #5F5F5E",
"n  c #5F5F5F",
"m  c #5F605F",
"M  c #606060",
"N  c #606160",
"B  c #616160",
"V  c #656465",
"C  c #646565",
"Z  c #676767",
"A  c #676768",
"S  c #686868",
"D  c DimGray",
"F  c #6B6B6A",
"G  c #6A6A6B",
"H  c #6B6A6B",
"J  c #6F6E6E",
"K  c #6E6F6E",
"L  c #707071",
"P  c #717171",
"I  c gray45",
"U  c #747474",
"Y  c #747574",
"T  c gray46",
"R  c #767776",
"E  c #767677",
"W  c #767777",
"Q  c gray47",
"!  c #797878",
"~  c #797879",
"^  c #787979",
"/  c #797979",
"(  c #7A7978",
")  c #7B7B7A",
"_  c #7B7B7B",
"`  c #7C7C7C",
"'  c #7D7C7C",
"]  c #7C7D7C",
"[  c #7C7D7D",
"{  c gray49",
"}  c #7E7E7E",
"|  c #7E7E7F",
" . c #7F7E7F",
".. c #818080",
"X. c #818081",
"o. c #838282",
"O. c #838383",
"+. c #848484",
"@. c #848485",
"#. c gray52",
"$. c #868686",
"%. c #868786",
"&. c #878786",
"*. c #878687",
"=. c #868787",
"-. c #888888",
";. c #888989",
":. c gray54",
">. c #8B8A8A",
",. c #8B8B8A",
"<. c #8B8B8B",
"1. c #8B8C8B",
"2. c #8C8C8D",
"3. c #8C8D8D",
"4. c #8D8D8D",
"5. c #8F8E8F",
"6. c #919190",
"7. c #909092",
"8. c #939392",
"9. c gray58",
"0. c #949594",
"q. c #959595",
"w. c #9A9A9B",
"e. c #9B9B9B",
"r. c #9C9D9C",
"t. c #9E9F9F",
"y. c #A09FA0",
"u. c #A2A3A2",
"i. c #A4A5A4",
"p. c #A5A5A4",
"a. c #A4A4A5",
"s. c #A5A4A5",
"d. c #A4A5A5",
"f. c #A5A5A5",
"g. c gray65",
"h. c #A6A7A6",
"j. c #A7A6A7",
"k. c #A9A8A8",
"l. c #A9A8A9",
"z. c #A9A9A9",
"x. c #AAAAAA",
"c. c #ABAAAB",
"v. c gray67",
"b. c #ACACAC",
"n. c #ADACAC",
"m. c #ADACAD",
"M. c gray68",
"N. c gray69",
"B. c #B4B5B4",
"V. c #B5B5B4",
"C. c #B5B4B5",
"Z. c gray71",
"A. c gray73",
"S. c gray75",
/* pixels */
"              x h               ",
"          x b.a.<.m.q           ",
"      j r.S.h.p.%.w.<.Z.q       ",
"  h 9.m.a.a.O.m.i.i.o.p.a.u.#   ",
"A.l.%.w.<.<.a.k.<.4.N.a.<.l.h.b ",
"' o.S.l.a.t.9.m.u.a.&.s.a.  x , ",
"E %.` <.l.Z.a.Z.7.b.y.h b q q a ",
"' %.E %.' 8.Z.9.l.A D q 4 = & w ",
"..( ^ &.' E [ 6.B q , & x r & 5 ",
"! Y ' ^ [ <.^ ^ q q k 5 q 2 F r ",
"' P A ' ' ^ G %.K q , V E C , x ",
"H _ 2.[ ^ I ' ^ i q d i & B y & ",
"B %.P ^ 5.E E %.K q @ h q # A + ",
"    # @.I _ ' ' 5 y u ; m o     ",
"        + 1.D _ x , h .         ",
"              D y X             "
};
