/* XPM */
static char *_3_mini1646930053[] = {
/* columns rows colors chars-per-pixel */
"16 16 141 2 ",
"   c None",
".  c #252727",
"X  c #282828",
"o  c gray22",
"O  c #3E3E3D",
"+  c #3F3F3E",
"@  c #366332",
"#  c #386635",
"$  c #3A6637",
"%  c #3A6737",
"&  c #454445",
"*  c #474647",
"=  c gray28",
"-  c #494849",
";  c gray29",
":  c #4B4A4B",
">  c #4C4C4B",
",  c #4D4D4C",
"<  c #4C4C4D",
"1  c gray31",
"2  c #505050",
"3  c #505051",
"4  c #515051",
"5  c #515251",
"6  c gray32",
"7  c #535252",
"8  c #525352",
"9  c #535253",
"0  c #555554",
"q  c #545455",
"w  c #555555",
"e  c #585858",
"r  c gray35",
"t  c #5A5A5A",
"y  c #5C5D5D",
"u  c #5D5D5D",
"i  c #5F5E5F",
"p  c #5F5F5F",
"a  c #605F5F",
"s  c #606061",
"d  c #646464",
"f  c #656565",
"g  c gray40",
"h  c #686868",
"j  c #686869",
"k  c #6A6B6A",
"l  c #6B6B6A",
"z  c #6B6A6B",
"x  c #6A6B6B",
"c  c gray43",
"v  c gray44",
"b  c #717171",
"n  c #737372",
"m  c #747574",
"M  c #747575",
"N  c #767676",
"B  c #767777",
"V  c gray47",
"C  c #797878",
"Z  c #787978",
"A  c #787979",
"S  c #797979",
"D  c #7B7A7B",
"F  c #7B7B7B",
"G  c #7C7C7B",
"H  c #7C7C7C",
"J  c #7C7C7D",
"K  c gray49",
"L  c #7E7E7E",
"P  c #7E7E7F",
"I  c gray50",
"U  c #1F9F0C",
"Y  c #1EA00C",
"T  c #1FA00C",
"R  c #29AE0E",
"E  c #2BB20F",
"W  c #28AD10",
"Q  c #29AD10",
"!  c #53B421",
"~  c #53B621",
"^  c #55B621",
"/  c #55B423",
"(  c #57B623",
")  c #59B823",
"_  c #5AB823",
"`  c #4ACA1E",
"'  c #4ACB1E",
"]  c #4ACA1F",
"[  c #52D620",
"{  c #53D620",
"}  c #52D720",
"|  c #53D720",
" . c #52D621",
".. c #53D621",
"X. c #52D721",
"o. c #56DA20",
"O. c #56DB20",
"+. c #56DA21",
"@. c #56DB21",
"#. c #56DA22",
"$. c #57DA22",
"%. c #5CE024",
"&. c #5DE124",
"*. c #5DE125",
"=. c #5CE325",
"-. c #64E828",
";. c #64E928",
":. c #66EA28",
">. c #66EB28",
",. c #67EB28",
"<. c #66EA29",
"1. c #69EB2A",
"2. c #77FA2F",
"3. c #77FB2F",
"4. c #79FD2F",
"5. c #7BFA30",
"6. c #7AFE30",
"7. c #7BFE30",
"8. c #7AFF30",
"9. c #7BFF30",
"0. c #7AFE31",
"q. c #7BFE31",
"w. c #7AFF31",
"e. c #7DFF32",
"r. c #7DFF33",
"t. c #7EFE32",
"y. c #7EFF32",
"u. c #73986A",
"i. c #799D70",
"p. c #7A9F73",
"a. c #7CA175",
"s. c #8BFD3C",
"d. c #818181",
"f. c #858584",
"g. c #858485",
"h. c #868686",
"j. c #868786",
"k. c #888889",
"l. c #8A8B8B",
"z. c #8D8C8D",
"x. c #8E8F8F",
/* pixels */
"              ~ ~               ",
"          ^ O.| | $.~           ",
"      ) 4.4.4.;.-.e.e.e.)       ",
"  ~ +.+.3.s.4.+.O.4.0.2.$.$./   ",
"*.-.+.| -.e.,.} +.-.0.1.} | -.| ",
"| | $.0.s.0.e.2.2.4.0.5.4.+.Q Q ",
"u.` | | =.4.+.} | +.2.[ Q Q U # ",
"H h.i.` } } *.;.-.| W W W # - 9 ",
"d.A V h.i.` | | E Q Y @ y 9 - 3 ",
"A N H V H k.a.' R % r 9 3 1 x 8 ",
"i.c h H P B x h.c 8 1 f N f , u ",
"z D z.J V N H V q 9 r 8 - s w - ",
"i k.b D x.N V h.c 9 = u 9 = f + ",
"    * g.n H G H 1 0 9 > p o     ",
"        + l.j H u , r .         ",
"              j w X             "
};
