/* XPM */
static char *_4_mini1646930053[] = {
/* columns rows colors chars-per-pixel */
"16 16 130 2 ",
"   c None",
".  c #272727",
"X  c #282828",
"o  c #383737",
"O  c #3D3E3D",
"+  c #3F3F3F",
"@  c #346332",
"#  c #396635",
"$  c #3A6737",
"%  c gray27",
"&  c #474547",
"*  c #474647",
"=  c #484848",
"-  c #484849",
";  c gray29",
":  c #4A4A4B",
">  c #4B4D4C",
",  c #4C4C4C",
"<  c gray30",
"1  c #4E4F4E",
"2  c #4F4F4E",
"3  c #505050",
"4  c #505150",
"5  c #505051",
"6  c #505151",
"7  c #515151",
"8  c gray32",
"9  c #535252",
"0  c #525352",
"q  c #535352",
"w  c #525253",
"e  c #545455",
"r  c #555455",
"t  c #555555",
"y  c #595957",
"u  c #585958",
"i  c #5B5A5B",
"p  c gray36",
"a  c #5C5D5D",
"s  c #5F5E5F",
"d  c #5F5F5F",
"f  c #5F6060",
"g  c #606160",
"h  c #646464",
"j  c #646565",
"k  c #676766",
"l  c #686868",
"z  c #686869",
"x  c #6A6A6A",
"c  c #6B6A6B",
"v  c gray42",
"b  c gray43",
"n  c #6E6E6F",
"m  c #717070",
"M  c #707170",
"N  c gray45",
"B  c #747474",
"V  c #757574",
"C  c #767676",
"Z  c #777777",
"A  c gray47",
"S  c #797878",
"D  c #787879",
"F  c #787979",
"G  c #787A79",
"H  c gray48",
"J  c #7B7A7A",
"K  c #7A7B7B",
"L  c #7B7B7B",
"P  c #7C7C7C",
"I  c #7C7D7C",
"U  c #7D7C7D",
"Y  c gray49",
"T  c #7E7E7E",
"R  c #7E7F7E",
"E  c #1F9E0C",
"W  c #1F9F0C",
"Q  c #1F9F0D",
"!  c #28AE0E",
"~  c #2BB20E",
"^  c #29AC10",
"/  c #28AD10",
"(  c #29AD10",
")  c #29AC11",
"_  c #59B821",
"`  c #5AB821",
"'  c #59B823",
"]  c #4BCB1E",
"[  c #4ACA1F",
"{  c #4ACB1F",
"}  c #52D620",
"|  c #53D620",
" . c #52D720",
".. c #52D621",
"X. c #52D721",
"o. c #53D721",
"O. c #5DE024",
"+. c #5DE124",
"@. c #5DE125",
"#. c #5EE024",
"$. c #7AFE30",
"%. c #7BFE30",
"&. c #7AFF30",
"*. c #7BFF30",
"=. c #7AFE31",
"-. c #7BFE31",
";. c #7AFF31",
":. c #7BFF31",
">. c #7EFE32",
",. c #7EFF32",
"<. c #7FFF32",
"1. c #7EFE33",
"2. c #7EFF33",
"3. c #7FFF33",
"4. c #73986A",
"5. c #799D71",
"6. c #7B9F72",
"7. c #7CA174",
"8. c #86FD3D",
"9. c #8AFD3C",
"0. c #8BFD3D",
"q. c #818181",
"w. c #858584",
"e. c gray52",
"r. c #868686",
"t. c gray53",
"y. c #888888",
"u. c #8D8B8C",
"i. c #8D8D8D",
"p. c gray56",
/* pixels */
"              ' '               ",
"          ' &.&.8.&.'           ",
"      ' &.3.%.%.&.$.*.*.'       ",
"  ' &.&.3.3.%.&.$.$.$.$.*.%.'   ",
"O.&.&.9.%.&.&.8.$.8.%.%.%.%.%.o.",
"| | O.$.0.%.3.%.$.%.%.&.%.o.) ) ",
"4.{ | } O.&.&.%.%.*.&.| ) ) ^ @ ",
"I r.5.{ | | O.&.*.} ! ) E $ & 5 ",
"q.A A t.7.[ | | ~ ! Q @ p w ; 2 ",
"A C P Z H y.7.[ ! $ u w w 2 v q ",
"I N l P I H x r.b w 2 j C h 2 p ",
"v H p.I A B H H r w u w ; g r = ",
"f r.M A p.C Z r.b w % p w * k + ",
"    % r.N H P I 4 r r 2 p o     ",
"        O u.x H p 2 u .         ",
"              l r X             "
};
