/* XPM */
static char *_6_mini1646930053[] = {
/* columns rows colors chars-per-pixel */
"16 16 56 1 ",
"  c None",
". c #854306",
"X c #864307",
"o c #A95405",
"O c #AA5404",
"+ c #BA5C06",
"@ c #BB5C06",
"# c #BA5C07",
"$ c #BB5C07",
"% c #BA5D07",
"& c #BE600C",
"* c #BE610C",
"= c #BE610D",
"- c #BF610D",
"; c #9E6025",
": c #9F6025",
"> c #C26612",
", c #C36612",
"< c #C36712",
"1 c #C26613",
"2 c #C36613",
"3 c #C66A17",
"4 c #C76A17",
"5 c #C66B17",
"6 c #CE7422",
"7 c #CF7422",
"8 c #CF7522",
"9 c #CF7423",
"0 c #C97A30",
"q c #DA8130",
"w c #DB8130",
"e c #DA8031",
"r c #DA8131",
"t c #DD8434",
"y c #DD8534",
"u c #DC8435",
"i c #DD8435",
"p c #DC8535",
"a c #DD8535",
"s c #B89677",
"d c #B89777",
"f c #DC9457",
"g c #DC9656",
"h c #DD9756",
"j c #E79A54",
"k c #E69A55",
"l c #FECCA1",
"z c #FECCA2",
"x c #FFCDA2",
"c c #FFCEA4",
"v c #FECFA4",
"b c #FFCFA4",
"n c #FECEA5",
"m c #FFCEA5",
"M c #FECFA5",
"N c #FFCFA5",
/* pixels */
"       ss       ",
"     sNNNNd     ",
"   sNNNlNNNld   ",
" sNNNNNNNlNNNNd ",
"klNNNNNNNNNNNNNg",
"yykzNNNNNlNNNh##",
"9yyiklNNNNNg###>",
"yr9yyuklNg###>>#",
"9tiw7iaa=#$><##>",
"tt8iit8a=><#@<>#",
"9tiw7iy03$$><##>",
"yw9iiw7y=>1##>>#",
"0yyr9yyr3@#<>#@O",
"  :yyr9i=<<##O  ",
"    :yyr4##.    ",
"       y=.      "
};
