/* XPM */
static char *_5_mini1646930053[] = {
/* columns rows colors chars-per-pixel */
"16 16 182 2 ",
"   c None",
".  c #20579E",
"X  c #20569F",
"o  c #235B9F",
"O  c #1C69B6",
"+  c #1E69B6",
"@  c #1F69B6",
"#  c #1E69B7",
"$  c #1E6AB7",
"%  c #1E6AB8",
"&  c #1F6AB8",
"*  c #1E6BB8",
"=  c #1F6BB8",
"-  c #1E6AB9",
";  c #1F6AB9",
":  c #1E6BB9",
">  c #1F6BB9",
",  c #1F6ABA",
"<  c #1E6BBA",
"1  c #1F6ABB",
"2  c #1F6BBB",
"3  c #1F6DBA",
"4  c #1F6DBD",
"5  c #246BA8",
"6  c #206BBB",
"7  c #206CBA",
"8  c #206ABC",
"9  c #206BBC",
"0  c #206CBC",
"q  c #206CBE",
"w  c #216CBE",
"e  c #206DBE",
"r  c #216DBE",
"t  c #206FBE",
"y  c #216FBE",
"u  c #206EBF",
"i  c #2070BD",
"p  c #2170BD",
"a  c #2171BD",
"s  c #226CC0",
"d  c #226CC1",
"f  c #236EC2",
"g  c #226FC2",
"h  c #236FC2",
"j  c #236FC4",
"k  c #236EC5",
"l  c #236FC5",
"z  c #256EC5",
"x  c #296CC8",
"c  c #286DC9",
"v  c #296DC9",
"b  c #2270C0",
"n  c #2271C0",
"m  c #2270C1",
"M  c #2372C3",
"N  c #2174C0",
"B  c #2371C6",
"V  c #2470C7",
"C  c #2570C7",
"Z  c #2275C5",
"A  c #2376C4",
"S  c #2476C5",
"D  c #2575C7",
"F  c #2571C9",
"G  c #2573C8",
"H  c #2770CA",
"J  c #2670CB",
"K  c #2671CB",
"L  c #2676CA",
"P  c #2776CB",
"I  c #2772CD",
"U  c #2772CE",
"Y  c #2773CE",
"T  c #2874CC",
"R  c #2975D0",
"E  c #2974D2",
"W  c #2976D3",
"Q  c #2A75D4",
"!  c #2A75D5",
"~  c #2B75D5",
"^  c #2B76D6",
"/  c #2A7AD0",
"(  c #2B7AD6",
")  c #2D79D5",
"_  c #2C78DB",
"`  c #2D78DB",
"'  c #2C78DC",
"]  c #2C79DC",
"[  c #2D79DC",
"{  c #2D78DD",
"}  c #2D79DD",
"|  c #2D7ADC",
" . c #2D7ADF",
".. c #2E7DDE",
"X. c #2A85B3",
"o. c #2B8DB6",
"O. c #2B90B7",
"+. c #2B92B7",
"@. c #2B93B7",
"#. c #2A93B8",
"$. c #2A94B8",
"%. c #2B94B8",
"&. c #2683CB",
"*. c #2783CB",
"=. c #2684CD",
"-. c #2C86CF",
";. c #2584D6",
":. c #278BD5",
">. c #2485D8",
",. c #2980DB",
"<. c #288EDA",
"1. c #3687D8",
"2. c #2A93D7",
"3. c #2C95D9",
"4. c #2D94DC",
"5. c #38A8DD",
"6. c #3DAADD",
"7. c #3DB1DE",
"8. c #2B8AE6",
"9. c #339AEA",
"0. c #339AEB",
"q. c #38ADE7",
"w. c #38B1EC",
"e. c #3FBBF6",
"r. c #459CE6",
"t. c #46A1E7",
"y. c #4DA8E9",
"u. c #4BAFED",
"i. c #4FBBE6",
"p. c #4CBCE6",
"a. c #44BCEA",
"s. c #4BBFEE",
"d. c #55B6ED",
"f. c #58B9ED",
"g. c #59BDEF",
"h. c #5BBFEE",
"j. c #46B9F0",
"k. c #46B9F3",
"l. c #41BAF5",
"z. c #49BDF1",
"x. c #3FC6FA",
"c. c #4CC0E7",
"v. c #4FC6EA",
"b. c #59D0ED",
"n. c #40C2FA",
"m. c #43CAFD",
"M. c #50C0F2",
"N. c #51CCF1",
"B. c #51C9F7",
"V. c #5DCFF0",
"C. c #4FD5FF",
"Z. c #4DD6FF",
"A. c #4FD7FE",
"S. c #57D0F0",
"D. c #5DD6F2",
"F. c #5CD2F5",
"G. c #5FD1F6",
"H. c #52D6FD",
"J. c #5AD3F9",
"K. c #5CD3F9",
"L. c #58D7FB",
"P. c #5FD7FA",
"I. c #5EDBF9",
"U. c #5DD9FA",
"Y. c #62D6F3",
"T. c #62D9F1",
"R. c #61DFFC",
"E. c #6BDEFA",
"W. c #5BE0FF",
"Q. c #5CE0FF",
"!. c #5EE0FF",
"~. c #65E0FB",
"^. c #62E3FC",
"/. c #60E4FE",
"(. c #66E6FD",
"). c #68E5FB",
"_. c #6CE6FC",
"`. c #6AE8FD",
"'. c #6EEBFD",
"]. c #72F0FF",
"[. c #8FD6E6",
"{. c #8ED4EB",
/* pixels */
"              O.%.              ",
"          %.n.^.H.!.%.          ",
"      #.n.K._.].U.{.K.l.o.      ",
"  X.L.l.j.i.b.E.G.s.D.w.L.m.%.  ",
"r.C.B.[.7.a.q.M.k.Y.v.5.p.s.H.d.",
"Q Y u.'.b.c.^.C.W.G.6.~.U.M.) ` ",
"f 2 D W t.).T.`.S.N.).f.P r r ~ ",
"1.=.w m j ( y.!.!.g.H r a 7 *.H ",
"Q -.* :.O w z G / A > > 7 2 ;.B ",
"0.w * w O 2.2 2 u :.O &.> 2 > ..",
"T B w 4 N w O 7 G 3.i m 2 2 4 | ",
"E G w w A 7 2 2 B <.4 2 2 G Q | ",
"x ' Y z 4.f z w D 7 6 9 j ' ' c ",
"    X ' 8.Y j f L m w H ' c     ",
"        o ' W Y | 0.' X         ",
"              | | 5             "
};
