/* XPM */
static char *_8_mini1646930054[] = {
/* columns rows colors chars-per-pixel */
"16 16 110 2 ",
"   c None",
".  c #5A3501",
"X  c #5A3601",
"o  c #2C4C07",
"O  c #2C4D07",
"+  c #2D4D07",
"@  c #704101",
"#  c #704200",
"$  c #704300",
"%  c #734200",
"&  c #764600",
"*  c #774600",
"=  c #7B4800",
"-  c #7B4900",
";  c #7A4801",
":  c #7B4801",
">  c #7B4901",
",  c #794802",
"<  c #7C4800",
"1  c #7D4800",
"2  c #7D4900",
"3  c #7C4901",
"4  c #7D4901",
"5  c #7E4A00",
"6  c #7F4A00",
"7  c #7E4A01",
"8  c #7C4902",
"9  c #7D4A02",
"0  c #7D4B02",
"q  c #7C4A03",
"w  c #7E4B02",
"e  c #604E1E",
"r  c #4B6011",
"t  c #4A6111",
"y  c #4B6111",
"u  c #604E20",
"i  c #775E21",
"p  c #765E22",
"a  c #786125",
"s  c #844E08",
"d  c #844F08",
"f  c #854F08",
"g  c #854E09",
"h  c #854F09",
"j  c #826828",
"k  c #826928",
"l  c #836928",
"z  c #826829",
"x  c #836929",
"c  c #846A28",
"v  c #856A28",
"b  c #846B28",
"n  c #856B28",
"m  c #846A29",
"M  c #856A29",
"N  c #846B29",
"B  c #856B29",
"V  c #8A6A2A",
"C  c #8B6B2A",
"Z  c #8A6A2B",
"A  c #8B6A2B",
"S  c #8A6B2B",
"D  c #1F9F0C",
"F  c #1F9F0D",
"G  c #1FA10C",
"H  c #28AE0E",
"J  c #2BB20F",
"K  c #29AC10",
"L  c #29AD10",
"P  c #29AD11",
"I  c #59B723",
"U  c #59B821",
"Y  c #5AB821",
"T  c #59B823",
"R  c #47C71A",
"E  c #47C61B",
"W  c #47C71B",
"Q  c #52D620",
"!  c #53D620",
"~  c #52D720",
"^  c #53D720",
"/  c #52D621",
"(  c #5DE024",
")  c #5DE025",
"_  c #5DE125",
"`  c #5CE225",
"'  c #68ED28",
"]  c #6AEF29",
"[  c #6BEF2A",
"{  c #6FF42C",
"}  c #70F42C",
"|  c #72F62C",
" . c #73F62C",
".. c #72F62D",
"X. c #73F62D",
"o. c #76FA2E",
"O. c #79FC2F",
"+. c #79FD2F",
"@. c #7AFE30",
"#. c #7BFE30",
"$. c #7AFF30",
"%. c #7BFF30",
"&. c #7AFE31",
"*. c #7BFE31",
"=. c #7AFF31",
"-. c #7BFF31",
";. c #7CFD31",
":. c #7EFE32",
">. c #8BFC3C",
",. c #8BFD3D",
/* pixels */
"              I I               ",
"          I %.%.,.%.I           ",
"      T %.&.' ' X.+.%.%.T       ",
"  T %.X.%.%.%.%.+.%.%.%.+.%.I   ",
"_ %.%.%.%.{ X.%.>.%.[ o.:.%.%.Q ",
"Q Q _ %.%.%.%.[ { %.%.X.%.Q P P ",
"t E Q Q ^ :.:.,.%.%.&.Q K K K o ",
"Z z t E ^ ^ _ %.%./ K K F o % s ",
"N N j z t E ^ Q P P D o & 3 3 3 ",
"A N b N N l t R H O & s % 3 = % ",
"N N N b N N p l , 3 3 3 3 f = g ",
"N b j A N p l b 3 3 3 3 3 , 3 < ",
"i Z Z N l S N b 0 f , % f 3 3 % ",
"    e i Z B B N 0 , 0 f % %     ",
"        u l S B 3 3 3 X         ",
"              N 3 X             "
};
