/* XPM */
static char *_7_mini1646930054[] = {
/* columns rows colors chars-per-pixel */
"16 16 106 2 ",
"   c None",
".  c #5A3500",
"X  c #5A3601",
"o  c #2C4C06",
"O  c #2C4D06",
"+  c #2D4D06",
"@  c #2C4D07",
"#  c #704100",
"$  c #704300",
"%  c #714300",
"&  c #724301",
"*  c #764600",
"=  c #774601",
"-  c #7B4800",
";  c #7A4801",
":  c #7B4801",
">  c #7B4901",
",  c #794902",
"<  c #7C4800",
"1  c #7C4900",
"2  c #7D4900",
"3  c #7D4801",
"4  c #7C4901",
"5  c #7D4901",
"6  c #7E4B00",
"7  c #7E4B01",
"8  c #7C4902",
"9  c #7C4A02",
"0  c #7D4A02",
"q  c #7D4B02",
"w  c #7E4A02",
"e  c #7F4B02",
"r  c #7E4A03",
"t  c #604E1E",
"y  c #604F1E",
"u  c #4B6111",
"i  c #4B6113",
"p  c #765E22",
"a  c #765F22",
"s  c #765E23",
"d  c #786126",
"f  c #844F08",
"g  c #854F08",
"h  c #854E09",
"j  c #844F09",
"k  c #854F09",
"l  c #826928",
"z  c #836928",
"x  c #856A28",
"c  c #846B28",
"v  c #856B28",
"b  c #846A29",
"n  c #846B29",
"m  c #856B29",
"M  c #8B6A2A",
"N  c #8B6B2A",
"B  c #8A6A2B",
"V  c #8A6B2B",
"C  c #8B6B2B",
"Z  c #1EA00C",
"A  c #1FA00C",
"S  c #1EA00D",
"D  c #28AF0E",
"F  c #2BB20F",
"G  c #29AC10",
"H  c #28AD10",
"J  c #29AD10",
"K  c #28AD11",
"L  c #29AD11",
"P  c #59B723",
"I  c #5AB723",
"U  c #5AB821",
"Y  c #59B823",
"T  c #47C61A",
"R  c #47C61B",
"E  c #47C71B",
"W  c #52D620",
"Q  c #53D620",
"!  c #52D720",
"~  c #53D720",
"^  c #52D621",
"/  c #52D721",
"(  c #5DE024",
")  c #5DE124",
"_  c #5DE125",
"`  c #7AFE30",
"'  c #7BFE30",
"]  c #7AFF30",
"[  c #7BFF30",
"{  c #7BFE31",
"}  c #7BFF31",
"|  c #7DFF32",
" . c #7EFE32",
".. c #7FFF32",
"X. c #7EFF33",
"o. c #7FFE36",
"O. c #7FFE37",
"+. c #83FF3C",
"@. c #86FC3C",
"#. c #86FE3E",
"$. c #8BFC3C",
"%. c #9CFE5C",
"&. c #9DFE5D",
"*. c #ACFD70",
"=. c #D0F984",
"-. c #D2FEB1",
/* pixels */
"              U I               ",
"          U } +...} U           ",
"      U ' ..+.%.} ] o.} P       ",
"  I } -.@.' ] ' ] ] &.} } } Y   ",
"_ } } *.] ] ' @.] ..} ..o.} ] Q ",
"Q Q ) ] $.' =.' } ] ] } ] Q G D ",
"u E Q W ) ] ] ' ..} } W K K Z + ",
"V l u E Q Q _ ] ] Q G G Z + = h ",
"n x l n u E W W F D A o = 0 < < ",
"V x n n n n u R G o & f # 0 - # ",
"n n n l n n p l = 0 = 0 0 g 0 f ",
"x x l M n p x n 0 0 0 0 0 = 0 - ",
"d n V n l V n n 0 j - # g 0 f # ",
"    y a V n n n 0 - e f # &     ",
"        y l V n e e 0 .         ",
"              l 9 .             "
};
