/* XPM */
static char *_9_mini1646930054[] = {
/* columns rows colors chars-per-pixel */
"16 16 101 2 ",
"   c None",
".  c #593500",
"X  c #5A3500",
"o  c #2D4C06",
"O  c #2D4C07",
"+  c #2C4D07",
"@  c #5E4E1E",
"#  c #704001",
"$  c #714200",
"%  c #704300",
"&  c #724200",
"*  c #764600",
"=  c #774600",
"-  c #774601",
";  c #7A4800",
":  c #7B4800",
">  c #7A4801",
",  c #794802",
"<  c #7D4800",
"1  c #7C4900",
"2  c #7D4900",
"3  c #7D4901",
"4  c #7E4A01",
"5  c #7F4A01",
"6  c #7E4B01",
"7  c #7C4902",
"8  c #7C4A02",
"9  c #7D4A02",
"0  c #604E1D",
"q  c #4B6110",
"w  c #4B6011",
"e  c #4A6111",
"r  c #4B6111",
"t  c #765E22",
"y  c #775E22",
"u  c #786125",
"i  c #854E08",
"p  c #844F08",
"a  c #854E09",
"s  c #854F09",
"d  c #836828",
"f  c #826928",
"g  c #836928",
"h  c #836829",
"j  c #826929",
"k  c #846A28",
"l  c #846B28",
"z  c #856B28",
"x  c #846A29",
"c  c #856A29",
"v  c #846B29",
"b  c #856B29",
"n  c #8A6A2A",
"m  c #8A6A2B",
"M  c #8A6B2B",
"N  c #8B6B2B",
"B  c #1F9F0C",
"V  c #1EA00C",
"C  c #1EA00D",
"Z  c #2EAD0F",
"A  c #29AC10",
"S  c #29AD10",
"D  c #32B010",
"F  c #47C71A",
"G  c #47C61B",
"H  c #47C71B",
"J  c #73CE14",
"K  c #70DD1E",
"L  c #52D620",
"P  c #53D620",
"I  c #52D720",
"U  c #52D621",
"Y  c #88AC11",
"T  c #89AC11",
"R  c #88AD11",
"E  c #88AC12",
"W  c #BEEE17",
"Q  c #BFEE17",
"!  c #BAEE18",
"~  c #BBEE18",
"^  c #BAEE19",
"/  c #BCEE18",
"(  c #BDEE18",
")  c #BCEF18",
"_  c #BDEF18",
"`  c #BCEF19",
"'  c #BDEF19",
"]  c #DCE70D",
"[  c #D8E80E",
"{  c #D8E90E",
"}  c #D8E80F",
"|  c #C1EE17",
" . c #CAEB12",
".. c #CBEB13",
"X. c #CCEA12",
"o. c #CCEB12",
"O. c #CDEB12",
"+. c #CCEB13",
"@. c #C8EC13",
"#. c #C9EC13",
"$. c #C8EC14",
/* pixels */
"              Y Y               ",
"          Y _ } _ _ Y           ",
"      Y _ _ $.X._ _ _ ^ Y       ",
"  Y _ _ _ W ) _ _ _ ] _ _ _ Y   ",
"K ^ W ) W #._ ] o._ $.} _ $.^ J ",
"I I K ^ ) W W X.o._ W X._ J S S ",
"w G I I K ^ _ | } | _ J S S C O ",
"N j w F I I K ^ _ J A S C O - a ",
"z d k k w F I I D S B o - 7 7 7 ",
"N v j v v v w F A + * i # 7 7 # ",
"l z l k d d y d 7 7 7 7 7 p 7 p ",
"j z k n d u v v 7 7 7 7 7 7 7 7 ",
"u z N v j n v v 7 p 7 # p 7 7 # ",
"    0 t N l v v 6 7 7 a # -     ",
"        @ j n k 7 p 7 X         ",
"              d 7 X             "
};
