/* XPM */
static char *__mini1646930051[] = {
/* columns rows colors chars-per-pixel */
"16 16 115 2 ",
"   c None",
".  c #5A3500",
"X  c #5A3600",
"o  c #2C4C07",
"O  c #2C4D07",
"+  c #5E4E1E",
"@  c #704100",
"#  c #704300",
"$  c #704201",
"%  c #704301",
"&  c #724300",
"*  c #764600",
"=  c #774600",
"-  c #7B4800",
";  c #7B4801",
":  c #794802",
">  c #7C4800",
",  c #7C4900",
"<  c #7D4900",
"1  c #7D4801",
"2  c #7C4901",
"3  c #7D4901",
"4  c #7F4A01",
"5  c #7E4B01",
"6  c #7F4B01",
"7  c #7C4802",
"8  c #7D4A02",
"9  c #7D4B02",
"0  c #7D4A03",
"q  c #7D4B03",
"w  c #7E4A02",
"e  c #7F4A02",
"r  c #604F1E",
"t  c #4B6110",
"y  c #4A6111",
"u  c #4B6111",
"i  c #765E22",
"p  c #765E23",
"a  c #786225",
"s  c #854F08",
"d  c #844E09",
"f  c #854E09",
"g  c #844F09",
"h  c #854F09",
"j  c #826828",
"k  c #836828",
"l  c #826928",
"z  c #836928",
"x  c #826829",
"c  c #836829",
"v  c #826929",
"b  c #846A28",
"n  c #856A28",
"m  c #846A29",
"M  c #856A29",
"N  c #846B29",
"B  c #856B29",
"V  c #8A6B2A",
"C  c #8A6A2B",
"Z  c #8A6B2B",
"A  c #8B6B2B",
"S  c #1F9F0D",
"D  c #1FA00C",
"F  c #29AE0E",
"G  c #2BB20E",
"H  c #28AD10",
"J  c #29AD10",
"K  c #28AC11",
"L  c #29AD11",
"P  c #53B423",
"I  c #55B421",
"U  c #55B621",
"Y  c #55B423",
"T  c #57B423",
"R  c #57B623",
"E  c #59B723",
"W  c #57B823",
"Q  c #47C71A",
"!  c #47C61B",
"~  c #47C71B",
"^  c #52D620",
"/  c #53D620",
"(  c #52D720",
")  c #53D720",
"_  c #52D621",
"`  c #52D721",
"'  c #56DA20",
"]  c #56DA21",
"[  c #57DA21",
"{  c #56DB21",
"}  c #57DA22",
"|  c #5CE024",
" . c #5DE024",
".. c #5DE124",
"X. c #5CE025",
"o. c #65E928",
"O. c #66EA28",
"+. c #67EA28",
"@. c #67EB28",
"#. c #67EA29",
"$. c #68EA2A",
"%. c #76FB2E",
"&. c #77FB2F",
"*. c #79FC2E",
"=. c #7AFB30",
"-. c #7AFE30",
";. c #7AFF30",
":. c #7BFF30",
">. c #7AFF31",
",. c #7BFF31",
"<. c #7FFE32",
"1. c #7EFF32",
"2. c #7EFE33",
"3. c #7EFF33",
"4. c #8AFD3D",
/* pixels */
"              Y P               ",
"          U { ^ / { R           ",
"      E :.4.>.o.O.:.4.*.W       ",
"  Y { { =.:.%.{ { %.%.%.{ { R   ",
" .o.^ ^ o.:.o.{ ^ @.>.$.( / o.^ ",
"^ ^  .>.4.:.3.*.*.*.>.>.>./ J J ",
"u ~ ^ ^  .>.{ ) ^ { >.^ J J D O ",
"C v u ~ ^ ^ } $.o.^ J J S O = s ",
"B b b v u ~ ^ / G J S O = 8 - 8 ",
"V b v b v v u ~ J O = 8 # 8 - # ",
"B B B b B N p v : 8 8 > 8 s > s ",
"N B v V b p B B q 8 8 > > > > > ",
"a b Z B v A b B 8 s > # s 8 8 @ ",
"    r p C b b b 8 > 8 s # #     ",
"        + v C b 0 d 8 .         ",
"              j : .             "
};
