/* XPM */
static char *_0_mini1646930054[] = {
/* columns rows colors chars-per-pixel */
"16 16 110 2 ",
"   c None",
".  c #5A3500",
"X  c #5A3501",
"o  c #2C4D06",
"O  c #2C4D07",
"+  c #704100",
"@  c #704200",
"#  c #704300",
"$  c #714300",
"%  c #704301",
"&  c #724300",
"*  c #774600",
"=  c #774700",
"-  c #7A4800",
";  c #7B4800",
":  c #7A4900",
">  c #7B4900",
",  c #794802",
"<  c #7C4800",
"1  c #7D4800",
"2  c #7C4900",
"3  c #7D4900",
"4  c #7D4901",
"5  c #7E4B00",
"6  c #7E4A01",
"7  c #7F4A01",
"8  c #7C4802",
"9  c #7D4902",
"0  c #7C4A02",
"q  c #7D4A02",
"w  c #7D4A03",
"e  c #604E1E",
"r  c #4A6011",
"t  c #4A6111",
"y  c #4B6111",
"u  c #604E20",
"i  c #765E22",
"p  c #765E23",
"a  c #786125",
"s  c #844F09",
"d  c #854F09",
"f  c #836828",
"g  c #826928",
"h  c #836829",
"j  c #826929",
"k  c #846B28",
"l  c #856B28",
"z  c #846A29",
"x  c #856A29",
"c  c #846B29",
"v  c #856B29",
"b  c #8B6B2A",
"n  c #8B6A2B",
"m  c #8A6B2B",
"M  c #8B6B2B",
"N  c #1F9E0C",
"B  c #1F9F0C",
"V  c #1FA10C",
"C  c #2FAD0F",
"Z  c #29AD10",
"A  c #29AC11",
"S  c #28AD11",
"D  c #32B110",
"F  c #47C61B",
"G  c #46C71B",
"H  c #47C71B",
"J  c #73CE14",
"K  c #72CF14",
"L  c #73CE15",
"P  c #70DC1E",
"I  c #70DD1E",
"U  c #70DD1F",
"Y  c #52D620",
"T  c #53D620",
"R  c #52D720",
"E  c #53D621",
"W  c #52D721",
"Q  c #88AC11",
"!  c #89AD11",
"~  c #88AC12",
"^  c #8BAC12",
"/  c #BEEE16",
"(  c #BFEE16",
")  c #BFEF16",
"_  c #BFEE17",
"`  c #BEEF17",
"'  c #BAEE18",
"]  c #BAEF19",
"[  c #BDEE18",
"{  c #BDEF18",
"}  c #BDEE19",
"|  c #BCEF19",
" . c #BDEF19",
".. c #DEE70C",
"X. c #D9E80F",
"o. c #C2ED16",
"O. c #C3EC17",
"+. c #C0EE17",
"@. c #C1EE17",
"#. c #C0EF17",
"$. c #CBEB13",
"%. c #CCEB12",
"&. c #CCEA13",
"*. c #CCEB13",
"=. c #CAEC13",
"-. c #C1EF1F",
";. c #DCE814",
":. c #C1F026",
">. c #CAF14B",
",. c #CFF24A",
/* pixels */
"              Q Q               ",
"          ^ %.[ #.[ Q           ",
"      Q ` #.X.#.` ` ` [ Q       ",
"  Q ` [ :.#.[ %.#.#.&.[ { [ Q   ",
"P ] { { ` [ [ ..O.#.;.,.{ [ { K ",
"W W P ' { [ ` [ [ =.[ =.{ L Z Z ",
"r F W R U ' ` -.#.&.] L Z Z N O ",
"m h r F W W P >.[ L Z Z B O * d ",
"c c h g r F W R D Z V o * 4 , 4 ",
"m k v k h g r F C O , 4 # 4 , $ ",
"c c k h k v a g , 4 4 1 4 d 4 d ",
"c c g b g a v v w 4 4 1 4 , 4 4 ",
"a c m c h b k v , s , @ s 4 4 @ ",
"    e i b k k v 4 - s d $ $     ",
"        u h b v 4 4 4 .         ",
"              h 4 .             "
};
