/* XPM */
static char *_1_mini1646930054[] = {
/* columns rows colors chars-per-pixel */
"16 16 106 2 ",
"   c None",
".  c #5A3500",
"X  c #663F06",
"o  c #2C4C07",
"O  c #2C4D07",
"+  c #2D4D07",
"@  c #714001",
"#  c #704300",
"$  c #704201",
"%  c #724201",
"&  c #764600",
"*  c #764700",
"=  c #7A4800",
"-  c #7B4800",
";  c #7A4900",
":  c #7B4801",
">  c #784902",
",  c #7C4800",
"<  c #7D4800",
"1  c #7C4900",
"2  c #7D4900",
"3  c #7C4901",
"4  c #7D4901",
"5  c #7E4A01",
"6  c #7F4A01",
"7  c #7D4903",
"8  c #7D4A02",
"9  c #7C4A03",
"0  c #7D4A03",
"q  c #7E4A02",
"w  c #604E1E",
"e  c #604F1E",
"r  c #4B6011",
"t  c #4A6111",
"y  c #4B6111",
"u  c #6E7917",
"i  c #765E22",
"p  c #786126",
"a  c #854F08",
"s  c #854E09",
"d  c #844F09",
"f  c #854F09",
"g  c #826928",
"h  c #836928",
"j  c #826929",
"k  c #846A28",
"l  c #846B28",
"z  c #856B28",
"x  c #846A29",
"c  c #856A29",
"v  c #846B29",
"b  c #856B29",
"n  c #8A6B2A",
"m  c #8B6B2A",
"M  c #8A6A2B",
"N  c #8A6B2B",
"B  c #956C2A",
"V  c #A3682F",
"C  c #B37F53",
"Z  c #1F9E0D",
"A  c #1FA00C",
"S  c #28AE0E",
"D  c #2BB30F",
"F  c #28AD10",
"G  c #29AD10",
"H  c #29AD11",
"J  c #5A8618",
"K  c #7CA51B",
"L  c #7EA61A",
"P  c #59B721",
"I  c #59B723",
"U  c #5AB821",
"Y  c #59B823",
"T  c #5AB823",
"R  c #47C61B",
"E  c #47C71B",
"W  c #52D620",
"Q  c #53D620",
"!  c #52D720",
"~  c #52D621",
"^  c #52D721",
"/  c #5DE124",
"(  c #5DE125",
")  c #5EE024",
"_  c #7BF52C",
"`  c #7CF52F",
"'  c #7AF92F",
"]  c #7BFB2F",
"[  c #7CF831",
"{  c #7AFE30",
"}  c #7BFE30",
"|  c #7AFF30",
" . c #7BFF30",
".. c #7AFE31",
"X. c #7BFE31",
"o. c #7AFF31",
"O. c #7BFF31",
"+. c #7EFE32",
"@. c #7EFF32",
"#. c #7FFF32",
"$. c #7EFE33",
"%. c #7EFF33",
"&. c #87FC3C",
"*. c #8AFC3C",
"=. c #CEF882",
"-. c #CFF982",
/* pixels */
"              T T               ",
"          T ....%.] T           ",
"      J ..%.] ....] %.%.T       ",
"  T ] V L L _ ] ] ....] ....T   ",
"( ..` B X C u &...%.=...%.] %.W ",
"Q Q / ..&.] [ -.] ....] ] ! F S ",
"r E Q Q ( ..] ..%.%.' W F F A O ",
"M j r E W W ( ..] W F F F O * f ",
"l c j c r E Q ^ D S Z O * 8 , , ",
"m l j l v j r E S O * 8 $ 8 , $ ",
"c l l j l c i j > 8 8 8 8 s 8 s ",
"l c j n l i c l 8 3 8 3 , , 8 , ",
"p l N l g n c l , s , $ s 8 8 X ",
"    e i M c l l 8 & a s $ $     ",
"        e j M c 8 8 a .         ",
"              h 8 .             "
};
