/* XPM */
static char *_2_mini1646930054[] = {
/* columns rows colors chars-per-pixel */
"16 16 115 2 ",
"   c None",
".  c #593500",
"X  c #5A3500",
"o  c #673F01",
"O  c #2C4D06",
"+  c #2C4D07",
"@  c #5E4E1E",
"#  c #684403",
"$  c #714100",
"%  c #704300",
"&  c #714300",
"*  c #704301",
"=  c #724300",
"-  c #774600",
";  c #7B4800",
":  c #7A4801",
">  c #7B4801",
",  c #794802",
"<  c #7D4800",
"1  c #7C4900",
"2  c #7D4900",
"3  c #7C4801",
"4  c #7D4901",
"5  c #7E4A00",
"6  c #7E4A01",
"7  c #7E4B01",
"8  c #7C4902",
"9  c #7C4A02",
"0  c #7D4A02",
"q  c #7C4A03",
"w  c #7D4A03",
"e  c #604E1C",
"r  c #4B6010",
"t  c #4B6110",
"y  c #4B6011",
"u  c #4B6111",
"i  c #7A6207",
"p  c #6C740E",
"a  c #765E22",
"s  c #765F22",
"d  c #765E23",
"f  c #776125",
"g  c #854E08",
"h  c #844F08",
"j  c #854F08",
"k  c #854E09",
"l  c #854F09",
"z  c #855417",
"x  c #826828",
"c  c #826928",
"v  c #836928",
"b  c #826929",
"n  c #846A28",
"m  c #846B28",
"M  c #846A29",
"N  c #856A29",
"B  c #846B29",
"V  c #856B29",
"C  c #8A6A2A",
"Z  c #8A6B2A",
"A  c #8B6A2B",
"S  c #8A6B2B",
"D  c #8B6B2B",
"F  c #1EA00C",
"G  c #1FA00C",
"H  c #1FA00D",
"J  c #28AE0E",
"K  c #2BB30F",
"L  c #28AC10",
"P  c #29AC10",
"I  c #28AD10",
"U  c #29AD10",
"Y  c #70A51A",
"T  c #59B723",
"R  c #58B527",
"E  c #57B821",
"W  c #59B821",
"Q  c #5AB821",
"!  c #59B823",
"~  c #5AB823",
"^  c #5CBA26",
"/  c #47C61B",
"(  c #46C71B",
")  c #47C71B",
"_  c #52D620",
"`  c #53D620",
"'  c #52D720",
"]  c #53D720",
"[  c #52D621",
"{  c #72CE25",
"}  c #76D427",
"|  c #5DE124",
" . c #5CE025",
".. c #5CE125",
"X. c #5DE125",
"o. c #72EF2E",
"O. c #7BF92F",
"+. c #7AFE30",
"@. c #7BFE30",
"#. c #7AFF30",
"$. c #7BFF30",
"%. c #7BFE31",
"&. c #7BFF31",
"*. c #7EFE32",
"=. c #7EFF32",
"-. c #7EFF33",
";. c #86981E",
":. c #85FD2E",
">. c #8BFB2A",
",. c #9AF625",
"<. c #9DF724",
"1. c #93F927",
"2. c #94F927",
"3. c #88F53C",
"4. c #8AFD3C",
/* pixels */
"              E T               ",
"          T $.$.:.R W           ",
"      W $.-.$.$.1.2.^ $.~       ",
"  T $.$.-.-.$.;.>.<.,.{ o.$.~   ",
" .$.$.4.$.$.$.3.z # o # i $.$._ ",
"_ _  .$.4.$.-.$.O.} Y p $._ P P ",
"t / _ _  .$.$.$.-.O.$._ P L H + ",
"A v t ) _ _  .$.$.' P L H + - l ",
"B B v v t ( _ _ K L G O = 9 < 9 ",
"S m v N v v t / J + = g = < ; = ",
"m m N v v B f v , 9 9 9 < l 9 l ",
"B B v A N f B v 9 9 < 9 9 < < < ",
"f B A N v S N m 9 l < = g 9 9 o ",
"    @ d A N m m 9 < 9 g = =     ",
"        e v A N 9 9 g X         ",
"              x 9 X             "
};
