/* XPM */
static char *_3_mini1646930054[] = {
/* columns rows colors chars-per-pixel */
"16 16 85 1 ",
"  c None",
". c #A80604",
"X c #A80A06",
"o c #B82F00",
"O c #B83100",
"+ c #D10000",
"@ c #E60000",
"# c #E70000",
"$ c #E60100",
"% c #E70100",
"& c #E60001",
"* c #E70001",
"= c #E60101",
"- c #E70906",
"; c #E90806",
": c #E80906",
"> c #E90906",
", c #E80A06",
"< c #E90A06",
"1 c #E80B06",
"2 c #E80B07",
"3 c #EC2B18",
"4 c #EC2A19",
"5 c #ED2A19",
"6 c #EC2B19",
"7 c #ED2E1C",
"8 c #EC2F1C",
"9 c #ED2F1C",
"0 c #ED301C",
"q c #ED311C",
"w c #ED301D",
"e c #EE361F",
"r c #E7460D",
"t c #FF4200",
"y c #FE4300",
"u c #FF4300",
"i c #FE4201",
"p c #FF4201",
"a c #FF4301",
"s c #FE4C0D",
"d c #FF4C0D",
"f c #FE5214",
"g c #FF5214",
"h c #FE5314",
"j c #FF5314",
"k c #FF5215",
"l c #FD571B",
"z c #FE561A",
"x c #F04C2C",
"c c #F14C2C",
"v c #F14C2D",
"b c #F2512F",
"n c #FE682E",
"m c #FF692E",
"M c #FF6A2E",
"N c #F67241",
"B c #F26852",
"V c #F26853",
"C c #F36953",
"Z c #F26D55",
"A c #B89677",
"S c #B89777",
"D c #B79679",
"F c #B89779",
"G c #FA8958",
"H c #FA8859",
"J c #FB8959",
"K c #FA895B",
"L c #FA8E60",
"P c #FB8F60",
"I c #FA8E61",
"U c #FB8F61",
"Y c #FA9366",
"T c #F9996D",
"R c #F9AF89",
"E c #FECAA0",
"W c #FFCBA0",
"Q c #FECEA4",
"! c #FFCEA4",
"~ c #FECFA4",
"^ c #FFCFA4",
"/ c #FECEA5",
"( c #FFCEA5",
") c #FECFA5",
"_ c #FFCFA5",
/* pixels */
"       DD       ",
"     D____F     ",
"   D_W___W~~A   ",
" A________~___F ",
"mW~_~~__W______Z",
"tsmW~~_______V&x",
"GsttmW_____C&1&N",
"skGttInW_C1&&e3&",
"IttlGItt-&133&1q",
"akIsakGa-331*33v",
"GtIhGtsk8&&qN&&b",
"skRatTYa133&v3b&",
"rttlGItk71&33&c+",
"  ostkIt1031&+  ",
"    OtIk71&.    ",
"       t1.      "
};
