/* XPM */
static char *_4_mini1646930055[] = {
/* columns rows colors chars-per-pixel */
"16 16 94 2 ",
"   c None",
".  c #514C40",
"X  c #5E574B",
"o  c #5D584B",
"O  c #737065",
"+  c #77736E",
"@  c #7B776D",
"#  c #7B7771",
"$  c #858484",
"%  c #898988",
"&  c #898889",
"*  c #898989",
"=  c #8A8889",
"-  c #888A89",
";  c #89898A",
":  c #898B8A",
">  c #8B8B8B",
",  c #8D8D8C",
"<  c #8C8D8D",
"1  c #8E8E8E",
"2  c #8F8E8E",
"3  c #8E8E8F",
"4  c gray56",
"5  c #909090",
"6  c #909190",
"7  c #919190",
"8  c #909091",
"9  c #929292",
"0  c #929392",
"q  c #939392",
"w  c #939293",
"e  c #929393",
"r  c #939393",
"t  c gray58",
"y  c #959494",
"u  c #949594",
"i  c #959594",
"p  c #959495",
"a  c #949595",
"s  c #959595",
"d  c #A4A29D",
"f  c #A1B596",
"g  c #A3B696",
"h  c #A4BA97",
"j  c #A3B698",
"k  c #A3B798",
"l  c #A3B799",
"z  c #A4B798",
"x  c #B1B1B1",
"c  c gray72",
"v  c #B8BBBB",
"b  c gray73",
"n  c #BABBBA",
"m  c #BBBBBA",
"M  c #BABABB",
"N  c #BBBABB",
"B  c #BBBBBB",
"V  c #BFBEBF",
"C  c #C0C0C0",
"Z  c #C0C0C1",
"A  c #C1C0C1",
"S  c #C0C1C1",
"D  c #C1C1C1",
"F  c gray76",
"G  c #C3C2C2",
"H  c #C2C2C3",
"J  c #C4C5C4",
"K  c #C8C8C8",
"L  c #C9C9C8",
"P  c #C8C8C9",
"I  c gray79",
"U  c #CACACA",
"Y  c #CBCACA",
"T  c #CBCBCA",
"R  c #CACACB",
"E  c #CBCACB",
"W  c #CBCBCB",
"Q  c gray80",
"!  c #CDCCCC",
"~  c #CCCDCC",
"^  c #CDCDCC",
"/  c #CCCCCD",
"(  c #CDCCCD",
")  c gray99",
"_  c #FCFDFC",
"`  c #FDFCFD",
"'  c #FEFEFE",
"]  c #FFFEFE",
"[  c #FEFFFE",
"{  c #FFFFFE",
"}  c #FEFEFF",
"|  c #FFFEFF",
" . c #FEFFFF",
".. c white",
/* pixels */
"              f f               ",
"          g  . . . .g           ",
"      j  . . .`  . . . .h       ",
"  g  . . .`  . . . . . . . .z   ",
"K  . . . . . . . . . . . . . .V ",
"G K K  . . . . . . . . . .V 9 2 ",
"Y ( B K K )  . . . . .C 9 % u 9 ",
"C C B ( ! N K  .` A 8 t t % 2 2 ",
"T T N C T N ( C 2 w 9 w 2 $ w t ",
"P ( n ( C N ( R 9 w < 8 u % u q ",
"K n M ( ~ B J C % 8 9 u w > % q ",
"T ( n M ~ n ( K 9 w t 9 % % u w ",
"d ( n ( ~ x K ~ 8 9 % u u & t # ",
"    O T ~ n K B % t t u u #     ",
"        @ N ( K 9 a 9 o         ",
"            . J 2 X             "
};
