/* XPM */
static char *_5_mini1646930055[] = {
/* columns rows colors chars-per-pixel */
"16 16 102 2 ",
"   c None",
".  c black",
"X  c #020000",
"o  c #000200",
"O  c #020200",
"+  c #000002",
"@  c #000202",
"#  c #0A0604",
"$  c #080707",
"%  c #070708",
"&  c #1E4B4B",
"*  c #375941",
"=  c #10765F",
"-  c #246645",
";  c #2B6E5E",
":  c #0C6061",
">  c #006A69",
",  c #016B69",
"<  c #00686A",
"1  c #01686A",
"2  c #00696A",
"3  c #01696A",
"4  c #00686B",
"5  c #01696B",
"6  c #006A6A",
"7  c #016A6A",
"8  c #016A6B",
"9  c #016C68",
"0  c #047767",
"q  c #266460",
"w  c #7FB334",
"e  c #7FB335",
"r  c #068165",
"t  c #068264",
"y  c #068364",
"u  c #078265",
"i  c #068365",
"p  c #078365",
"a  c #098D62",
"s  c #088D63",
"d  c #098E63",
"f  c #0C9761",
"g  c #0C9961",
"h  c #0D9961",
"j  c #0D9B61",
"k  c #0C9C60",
"l  c #0D9C60",
"z  c #0D9D60",
"x  c #0C9C61",
"c  c #0D9D61",
"v  c #2DB87E",
"b  c #47A760",
"n  c #59CA61",
"m  c #61DD60",
"M  c #61DC61",
"N  c #82BF32",
"B  c #B6B62C",
"V  c #B7B62C",
"C  c #B6B72C",
"Z  c #87CD30",
"A  c #F7FB04",
"S  c #FFFE00",
"D  c #FEFF00",
"F  c yellow",
"G  c #FEFE01",
"H  c #FFFE01",
"J  c #FEFF01",
"K  c #FFFF01",
"L  c #F8FE04",
"P  c #F8FF04",
"I  c #F9FF04",
"U  c #008486",
"Y  c #018486",
"T  c #018487",
"R  c #008587",
"E  c #018587",
"W  c #018686",
"Q  c #028986",
"!  c #028987",
"~  c #038B87",
"^  c #0A9886",
"/  c #0A9986",
"(  c #0B9986",
")  c #11A786",
"_  c #12A886",
"`  c #12A986",
"'  c #12A887",
"]  c #13A887",
"[  c #12A987",
"{  c #12AA87",
"}  c #19BA86",
"|  c #20C887",
" . c #20CA87",
".. c #21CA87",
"X. c #23CC86",
"o. c #22CD87",
"O. c #22CF86",
"+. c #23CF86",
"@. c #22CE87",
"#. c #23CE87",
"$. c #22CF87",
"%. c #23CF87",
/* pixels */
"            o C V o             ",
"        + C F F F F C o         ",
"    o C F F F F H H F F C +     ",
"o C F F F F F F F F F H F F C + ",
"M L F F F F F F F F F F F F F e ",
"#.#.n A F F F F F F F F F N 4 4 ",
"#.#.] U b L F F F F F Z l y 4 4 ",
"^ #.] U U ..m L F e , l l y , f ",
"U U ] ^ U ..%.%.4 4 4 h s y h l ",
"U U ] O.#...#.%.4 4 , , , y l l ",
"..~ ] +.%.! ( #., a h , 4 y s 4 ",
"+.+.] } #.! U U h h h , 0 y , 4 ",
"v +.] U W ] U U z z a j h p 1 : ",
"  # ; U U ..#.] d 7 7 z l 0 #   ",
"      o q ..#.#.4 4 7 - $       ",
"            * #.4 & o           "
};
