/* XPM */
static char *_6_mini1646930055[] = {
/* columns rows colors chars-per-pixel */
"16 16 89 1 ",
"  c None",
". c black",
"X c #020000",
"o c #000200",
"O c #020200",
"+ c #000002",
"@ c #020002",
"# c #070705",
"$ c #0A0803",
"% c #1E6F1E",
"& c #1F761C",
"* c #306128",
"= c #229817",
"- c #2BB30E",
"; c #2AB20F",
": c #2BB20F",
"> c #2AB30F",
", c #2BB30F",
"< c #28AC10",
"1 c #29AC10",
"2 c #28AD10",
"3 c #29AD10",
"4 c #29AC11",
"5 c #28AD11",
"6 c #29AD11",
"7 c #2AAF10",
"8 c #2BAF10",
"9 c #2AAE11",
"0 c #2BAE11",
"q c #2AAF11",
"w c #32A91A",
"e c #33B714",
"r c #32B615",
"t c #36BC13",
"y c #35B915",
"u c #36BA14",
"i c #3BBF16",
"p c #3BBE17",
"a c #3ABF17",
"s c #3BBF17",
"d c #2A8226",
"f c #368A2C",
"g c #5CB80C",
"h c #5DB80C",
"j c #5DB90C",
"k c #5DB80D",
"l c #3CD608",
"z c #3DD608",
"x c #3CC316",
"c c #3CC118",
"v c #3DC118",
"b c #3DC019",
"n c #3EC119",
"m c #3EC319",
"M c #47DF0C",
"N c #40C418",
"B c #41C518",
"V c #40C419",
"C c #41C419",
"Z c #40C519",
"A c #44C81B",
"S c #48CC1C",
"D c #49CC1C",
"F c #49CD1C",
"G c #48CC1D",
"H c #48D914",
"J c #50FC00",
"K c #50FE00",
"L c #51FE00",
"P c #50FF00",
"I c #51FF00",
"U c #50FE01",
"Y c #51FE01",
"T c #50FF01",
"R c #51FF01",
"E c #52E016",
"W c #52E116",
"Q c #53E216",
"! c #48C225",
"~ c #51D420",
"^ c #51D520",
"/ c #51D421",
"( c #51D521",
") c #52D620",
"_ c #53D620",
"` c #52D720",
"' c #53D720",
"] c #52D621",
"[ c #52D721",
/* pixels */
"      Xkj+      ",
"    XkYIIYjX    ",
"  XjIYIYIUUIkX  ",
"XjIIYYYIIIIIUIjX",
"EIIIIIIYIIIIIIIl",
"((HIIIIIIIIIUM22",
"([Z(EIIIIYIz2p22",
"FFZ'(ZEYIz022per",
"_'bF_N_(:402eA22",
"([Z[Sb__:4yy2s20",
"_Nb'_mSSte223is0",
"__xC(Z__:428ib30",
"!(N((t/_,2b02s4=",
" $d''Z(Cx8q22w# ",
"   XfZ[',22&#   ",
"      *(,%X     "
};
