/* XPM */
static char *__mini1646930052[] = {
/* columns rows colors chars-per-pixel */
"16 16 92 1 ",
"  c None",
". c #5A3501",
"X c #2C4C07",
"o c #2C4D07",
"O c #2D4D07",
"+ c #714100",
"@ c #704300",
"# c #704301",
"$ c #724201",
"% c #764600",
"& c #774600",
"* c #7B4800",
"= c #7B4900",
"- c #7B4801",
"; c #794903",
": c #7D4800",
"> c #7C4900",
", c #7D4900",
"< c #7C4901",
"1 c #7D4901",
"2 c #7F4A00",
"3 c #7E4A01",
"4 c #7F4B01",
"5 c #7C4902",
"6 c #7C4A02",
"7 c #7D4A02",
"8 c #7D4B02",
"9 c #7D4A03",
"0 c #7E4A02",
"q c #7E4B02",
"w c #4B6011",
"e c #4B6111",
"r c #604E20",
"t c #765E22",
"y c #765E23",
"u c #786126",
"i c #854E09",
"p c #844F09",
"a c #854F09",
"s c #826828",
"d c #826928",
"f c #826829",
"g c #826929",
"h c #836929",
"j c #846A28",
"k c #846B28",
"l c #856B28",
"z c #846A29",
"x c #856A29",
"c c #846B29",
"v c #856B29",
"b c #8A6A2A",
"n c #8A6B2A",
"m c #8A6A2B",
"M c #8A6B2B",
"N c #8B6B2B",
"B c #1EA00C",
"V c #1EA10C",
"C c #1FA00D",
"Z c #28AE0E",
"A c #2BB20F",
"S c #29AC10",
"D c #29AD10",
"F c #29AD11",
"G c #57B721",
"H c #56B723",
"J c #59B723",
"K c #59B821",
"L c #59B823",
"P c #46C71B",
"I c #47C71B",
"U c #52D620",
"Y c #53D620",
"T c #52D720",
"R c #53D720",
"E c #53D621",
"W c #5DE124",
"Q c #5DE224",
"! c #7BFE30",
"~ c #7AFF30",
"^ c #7BFF30",
"/ c #7AFE31",
"( c #7BFE31",
") c #7AFF31",
"_ c #7BFF31",
"` c #7EFE32",
"' c #7EFF32",
"] c #7FFF32",
"[ c #7EFF33",
"{ c #86FD3D",
"} c #8AFD3C",
"| c #8BFD3C",
/* pixels */
"       GL       ",
"     K_!__K     ",
"   J~!!!__{~J   ",
" L~~{_!!__~~~~L ",
"Q~~}~__{~{____~T",
"EEW~|~__~__~_TSS",
"wIETQ~~_!~~ESSCX",
"NgwPEEQ~!TSSVO&i",
"vljjwITEAZBX%>>>",
"nggvjswIZO%p+=>+",
"vvvggktv=>>>>i>i",
"vggNktgv>>>>>>>>",
"uvnggnvj>a>#i>p+",
"  rtnvvvq>>i++  ",
"    rgng9p>.    ",
"       g=.      "
};
