/* XPM */
static char *__mini1646930052[] = {
/* columns rows colors chars-per-pixel */
"16 16 64 1 ",
"  c None",
". c #6585B8",
"X c #6B8CB8",
"o c #7EABE8",
"O c #7EADE8",
"+ c #9DA6B7",
"@ c #9DA8B7",
"# c #9DA6B8",
"$ c #9BA8B8",
"% c #9DA8B8",
"& c #8ABCFE",
"* c #8BBCFE",
"= c #8ABDFE",
"- c #8BBDFE",
"; c #8ABCFF",
": c #8BBCFF",
"> c #8ABDFF",
", c #8BBDFF",
"< c #8CBDFE",
"1 c #8CBCFF",
"2 c #8CBDFF",
"3 c #8DBDFF",
"4 c #92C0FE",
"5 c #92C1FE",
"6 c #92C0FF",
"7 c #93C0FF",
"8 c #92C1FF",
"9 c #93C1FF",
"0 c #94C1FE",
"q c #95C1FF",
"w c #A2C9FE",
"e c #A2C8FF",
"r c #A3C9FF",
"t c #C5D4E8",
"y c #CFE3FF",
"u c #D1E5FE",
"i c #D1E4FF",
"p c #D1E5FF",
"a c #D2E5FE",
"s c #D3E5FE",
"d c #D2E4FF",
"f c #D2E5FF",
"g c #D4E6FE",
"h c #D5E7FE",
"j c #D5E7FF",
"k c #D6E9FE",
"l c #D7E9FE",
"z c #D6E8FF",
"x c #D7E8FF",
"c c #D7E9FF",
"v c #D8E8FE",
"b c #D9E8FE",
"n c #D8E9FE",
"m c #D9E9FE",
"M c #D8E8FF",
"N c #D9E8FF",
"B c #D8E9FF",
"V c #D9E9FF",
"C c #E1EEFF",
"Z c #E2EFFE",
"A c #E2EEFF",
"S c #E3EEFF",
"D c #E2EFFF",
"F c #E3EFFF",
/* pixels */
"       @%       ",
"     +VVVV$     ",
"   @VVvVVVVV@   ",
" %VxVjVVVVVxVV% ",
"AAVxVvxVVVVVVjjw",
"VVAAVVVVVvVvjw11",
"viVxAAVVjVjw33::",
"iVvVVvAFjw34*3:3",
"VxiVViiV0:**4***",
"iVmxVVVV3:4*46**",
"VVxxxViV0*0*4**>",
"ymgVxgVx0*3*****",
"tVxVViVV6*6****O",
"  +VVVVV6*>0*O  ",
"    %VVx4**.    ",
"       c8X      "
};
