/* XPM */
static char *__mini1646930052[] = {
/* columns rows colors chars-per-pixel */
"16 16 52 1 ",
"  c None",
". c #1E7E0B",
"X c #1D7D0C",
"o c #259D0F",
"O c #269C0F",
"+ c #3A9A16",
"@ c #3C9A18",
"# c #2BB20E",
"$ c #2BB20F",
"% c #2AB30F",
"& c #2BB30F",
"* c #28AC10",
"= c #29AC10",
"- c #28AD10",
"; c #29AD10",
": c #29AC11",
"> c #28AD11",
", c #29AD11",
"< c #57B723",
"1 c #59B723",
"2 c #59B821",
"3 c #5AB821",
"4 c #59B823",
"5 c #5AB823",
"6 c #4BC11D",
"7 c #52D620",
"8 c #53D620",
"9 c #52D720",
"0 c #53D720",
"q c #52D621",
"w c #53D621",
"e c #52D721",
"r c #53D721",
"t c #5CE024",
"y c #5DE124",
"u c #5DE025",
"i c #5DE125",
"p c #7AFE30",
"a c #7BFE30",
"s c #7AFF30",
"d c #7BFF30",
"f c #7AFE31",
"g c #7BFE31",
"h c #7BFF31",
"j c #7CFE32",
"k c #7EFE32",
"l c #7EFF32",
"z c #7FFF32",
"x c #7EFE33",
"c c #86FD3C",
"v c #8AFD3C",
"b c #8BFD3C",
/* pixels */
"       11       ",
"     4ddxd5     ",
"   5djddddxd4   ",
" 5ddxxdddddddd< ",
"tdjvdddcjjdjxdd7",
"77tdvdxddaaad7>>",
"7707tdddjda0>;>>",
"777700tdd8;;;;;;",
"00r7r777&;;;=>==",
"70rr7777&;>;=>;;",
"70777777&>;;==>>",
"7777rrrr&;=;====",
"6777777r#;;;=&>O",
"  @77770#;;;=O  ",
"    +700#>>.    ",
"       0#X      "
};
