/* XPM */
static char *__mini1646930052[] = {
/* columns rows colors chars-per-pixel */
"16 16 39 1 ",
"  c None",
". c #19191A",
"X c gray10",
"o c #222221",
"O c #222122",
"+ c gray14",
"@ c #252424",
"# c #242524",
"$ c #252524",
"% c #242425",
"& c #252425",
"* c #242525",
"= c #252525",
"- c #2C2A2C",
"; c #2B2D2C",
": c #2C2C2C",
"> c #2D2C2D",
", c #2E2C2C",
"< c #2E2C2E",
"1 c #2C2E2E",
"2 c gray18",
"3 c #323232",
"4 c #333232",
"5 c #323332",
"6 c #333332",
"7 c #323233",
"8 c #333233",
"9 c #323333",
"0 c gray20",
"q c #363736",
"w c #373736",
"e c #373737",
"r c gray25",
"t c #414040",
"y c #404140",
"u c #414140",
"i c #404041",
"p c #404141",
"a c #414141",
/* pixels */
"       <,       ",
"     ,iyyi2     ",
"   <ytyyyyyi2   ",
" <iiyyiyyitiii< ",
"eiiyytiyyaaiyyt4",
"44eiiyyiyiaiy6++",
"4400eiiyyyi0+=++",
"990444wii4===+++",
"99004609,#+=====",
"00499604<+==+===",
"66040404<#+++===",
"00046960;++++===",
"<e440000<+++=*++",
"  *49909<=++=+  ",
"    +999<=+X    ",
"       9;X      "
};
