/* XPM */
static char *__mini1646930052[] = {
/* columns rows colors chars-per-pixel */
"16 16 145 2 ",
"   c None",
".  c gray14",
"X  c #252524",
"o  c #252425",
"O  c #242525",
"+  c #252525",
"@  c #2C2424",
"#  c #2C2524",
"$  c #2D2524",
"%  c #2C2C25",
"&  c #2C2C26",
"*  c #2C2C2B",
"=  c #2C2C2C",
"-  c #2D2C2C",
";  c #2C2C2D",
":  c #2E2E2C",
">  c #2C2C2E",
",  c gray18",
"<  c #322C2A",
"1  c #323226",
"2  c #333226",
"3  c #333227",
"4  c #3F3E28",
"5  c #3F3F29",
"6  c #39392D",
"7  c #323232",
"8  c #333232",
"9  c #323332",
"0  c #333332",
"q  c #323233",
"w  c #333233",
"e  c #323333",
"r  c gray20",
"t  c #373736",
"y  c #373737",
"u  c #383130",
"i  c #393932",
"p  c #393833",
"a  c #3F3A32",
"s  c #3F3F33",
"d  c #551D1D",
"f  c #69190E",
"g  c #741512",
"h  c #7B1415",
"j  c #56250E",
"k  c #7F3C1C",
"l  c #5A392A",
"z  c #5B382D",
"x  c #5B392D",
"c  c #463332",
"v  c #453630",
"b  c #463F3A",
"n  c #473F3A",
"m  c #443E3C",
"M  c #443F3C",
"N  c #4E3A3B",
"B  c #4F3A3B",
"V  c #4F3C3A",
"C  c #673620",
"Z  c #6A3420",
"A  c #6A3520",
"S  c #6F3E26",
"D  c #6C3428",
"F  c #42403F",
"G  c #45403E",
"H  c #49413D",
"J  c #514A3E",
"K  c #74652B",
"L  c #7E7F2E",
"P  c #746E3C",
"I  c gray25",
"U  c #414040",
"Y  c #404140",
"T  c #404041",
"R  c #414041",
"E  c #A2100E",
"W  c #B11904",
"Q  c #B31905",
"!  c #9B2014",
"~  c #992D14",
"^  c #AF2406",
"/  c #B12808",
"(  c #A5271A",
")  c #932020",
"_  c #952E22",
"`  c #D50802",
"'  c #DF0E02",
"]  c #DC0F05",
"[  c #CF1E0D",
"{  c #DB1609",
"}  c #F80703",
"|  c #F30C06",
" . c #F80B05",
".. c #EC190A",
"X. c #F11907",
"o. c #E42F0F",
"O. c #FE260D",
"+. c #FE3E14",
"@. c #F03919",
"#. c #965029",
"$. c #E7751D",
"%. c #FF7A12",
"&. c #FF761B",
"*. c #F2791D",
"=. c #FE791D",
"-. c #EA5A22",
";. c #B79F01",
":. c #B89F00",
">. c #B89F01",
",. c #8B8B2E",
"<. c #8B8B2F",
"1. c #878736",
"2. c #8C8D37",
"3. c #939336",
"4. c #999830",
"5. c #999937",
"6. c #FF841D",
"7. c #FF871F",
"8. c #FEBB1B",
"9. c #FEBD19",
"0. c #F9BD1E",
"q. c #FFBE1C",
"w. c #CD8528",
"e. c #F88427",
"r. c #FF9A24",
"t. c #FFA025",
"y. c #FEA228",
"u. c #FEBE33",
"i. c #E8CA00",
"p. c #E8CB00",
"a. c #FFC50F",
"s. c #FFCC0D",
"d. c #FFCF0C",
"f. c #FFDE00",
"g. c #FFDF00",
"h. c #FFD10A",
"j. c #FFD00C",
"k. c #FFD30C",
"l. c #FED20E",
"z. c #FFC219",
"x. c #FFD11F",
"c. c #FFE30F",
"v. c #FED827",
"b. c #FED52C",
"n. c #FED928",
/* pixels */
"              , ,               ",
"          f F I k H ,           ",
"      < F T ~ ^ M I I G j       ",
"  g l -.A H ` R _ / ' N I I ,   ",
"y I z Q N ) ! T T A { A A M T r ",
"r r c s T z Q o.] V F F T E O . ",
"r r a r y #.*.e.$.F R 0 O h O . ",
"r r s r s e y P J K X O O 2 O . ",
"r r 5.r r s r r ; L O O % % X X ",
"} 3.1.r s i r r ; ,.O O O v % S ",
"x.( D u 2.1.r r * 5 1 O X X.%.r.",
"j.a.6.| w.v i r * 1 ,.# O.6.v.d.",
"p.c.h.9.y.+...r 6 d 4.&.9.9.c.i.",
"    :.f.j.b.=. ., [ u.9.d.i.    ",
"        :.k.v.r.@.z.j.:.        ",
"              h.0.;.            "
};
