/* XPM */
static char *__mini1646930052[] = {
/* columns rows colors chars-per-pixel */
"16 16 110 2 ",
"   c None",
".  c #864306",
"X  c #864406",
"o  c #97571C",
"O  c #A95405",
"+  c #BB5C06",
"@  c #BA5C07",
"#  c #BB5C07",
"$  c #BA5D07",
"%  c #BB5D07",
"&  c #BB5C08",
"*  c #BA5D08",
"=  c #BB5D08",
"-  c #BA5C09",
";  c #BB5C09",
":  c #BA5D09",
">  c #BB5D09",
",  c #BE600C",
"<  c #BF600D",
"1  c #BE610D",
"2  c #BF610D",
"3  c #BE620E",
"4  c #BF630E",
"5  c #9E5E25",
"6  c #C16410",
"7  c #C06411",
"8  c #C26511",
"9  c #C36511",
"0  c #C36612",
"q  c #D47C2B",
"w  c #D57C2B",
"e  c #D67C2C",
"r  c #D77C2C",
"t  c #D67D2C",
"y  c #D77D2C",
"u  c #D67C2D",
"i  c #D67D2D",
"p  c #C97931",
"a  c #DB8332",
"s  c #DA8233",
"d  c #DB8233",
"f  c #DB8333",
"g  c #DC8432",
"h  c #DD8433",
"j  c #DC8434",
"k  c #DD8434",
"l  c #DC8534",
"z  c #DD8534",
"x  c #DC8435",
"c  c #DD8435",
"v  c #DD8535",
"b  c #B79272",
"n  c #B79372",
"m  c #B89273",
"M  c #B89474",
"N  c #B89677",
"B  c #B89777",
"V  c #DC9554",
"C  c #DC9656",
"Z  c #DD9757",
"A  c #DF985B",
"S  c #E0934C",
"D  c #E69A54",
"F  c #E79A54",
"G  c #E79B55",
"H  c #FEAD62",
"J  c #FFAD62",
"K  c #FEAC63",
"L  c #FEAD63",
"P  c #FFAD63",
"I  c #FFAE64",
"U  c #FEAE66",
"Y  c #FFAE66",
"T  c #FEAE67",
"R  c #FEAF67",
"E  c #F8AF6B",
"W  c #F8AF6D",
"Q  c #FEB069",
"!  c #FFB069",
"~  c #FFB169",
"^  c #FEB775",
"/  c #F2B27A",
"(  c #F9B67B",
")  c #F6BB87",
"_  c #FEBD80",
"`  c #FEBC81",
"'  c #FFBD82",
"]  c #F8BB85",
"[  c #FFBE84",
"{  c #FFBE85",
"}  c #FFBF85",
"|  c #F6BC88",
" . c #F9BF8C",
".. c #F9C191",
"X. c #FDC390",
"o. c #FFC593",
"O. c #FEC897",
"+. c #FCCA9D",
"@. c #FDCA9D",
"#. c #FECB9C",
"$. c #FFCB9D",
"%. c #FECC9F",
"&. c #FFCC9F",
"*. c #FECCA0",
"=. c #FFCCA0",
"-. c #FECDA1",
";. c #FFCDA1",
":. c #FECDA2",
">. c #FFCEA3",
",. c #FFCFA4",
/* pixels */
"              M b               ",
"          M ! K K U M           ",
"      N ..-...} [ X.) -.N       ",
"  b ! ! o.+.] U U %.-.#.U ! b   ",
"G W K K ^ %.Q U K [ +.[ K K X.S ",
"z z S ) o.+.>.( %.-./ -.>.V $ 6 ",
"q u z x G +.! Y K Y O.Z $ = $ $ ",
"z r z x z z G ( X.A = = = = $ $ ",
"z f u x x r x j 6 6 + + = $ $ 8 ",
"u t u x x x z z , + + $ = = $ = ",
"f t f z x x z r , + 6 $ @ = = $ ",
"z z u s x x z z , 6 $ + 6 @ $ 8 ",
"p s z z r u z z 4 @ 8 = = = & O ",
"    5 u r q z u > & @ = = O     ",
"        o z j q 6 8 8 .         ",
"              j 6 .             "
};
