/* XPM */
static char *__mini1646930052[] = {
/* columns rows colors chars-per-pixel */
"16 16 108 2 ",
"   c None",
".  c #864306",
"X  c #864406",
"o  c #97571D",
"O  c #A95404",
"+  c #AA5404",
"@  c #BA5C06",
"#  c #BA5D06",
"$  c #BA5C07",
"%  c #BB5C07",
"&  c #BA5D07",
"*  c #BB5D07",
"=  c #BA5C08",
"-  c #BB5C08",
";  c #BA5D08",
":  c #BB5D08",
">  c #BB5C09",
",  c #BB5D09",
"<  c #BE600C",
"1  c #BE610C",
"2  c #BF600D",
"3  c #BF630E",
"4  c #BF620F",
"5  c #9F6025",
"6  c #C06410",
"7  c #C16410",
"8  c #C16510",
"9  c #C06511",
"0  c #C26511",
"q  c #C36511",
"w  c #C36613",
"e  c #D47C2B",
"r  c #D47D2B",
"t  c #D57D2B",
"y  c #D67C2C",
"u  c #D67D2C",
"i  c #D77D2C",
"p  c #D67C2D",
"a  c #D67D2D",
"s  c #D77D2D",
"d  c #C97930",
"f  c #DB8232",
"g  c #DB8332",
"h  c #DA8333",
"j  c #DB8333",
"k  c #DC8433",
"l  c #DC8434",
"z  c #DD8434",
"x  c #DC8534",
"c  c #DD8534",
"v  c #DC8435",
"b  c #DC8535",
"n  c #DD8535",
"m  c #B79373",
"M  c #B89474",
"N  c #B89476",
"B  c #B89677",
"V  c #B89777",
"C  c #B79679",
"Z  c #B89679",
"A  c #DC9555",
"S  c #DC9656",
"D  c #DF995A",
"F  c #E0934B",
"G  c #E69A54",
"H  c #E79A54",
"J  c #F2B27A",
"K  c #F6BB86",
"L  c #F6BB87",
"P  c #F8B981",
"I  c #F7BC88",
"U  c #F6BC89",
"Y  c #F9BF8C",
"T  c #F9BF8D",
"R  c #F9C18E",
"E  c #F9C08F",
"W  c #F9C090",
"Q  c #F9C190",
"!  c #FDC290",
"~  c #FDC390",
"^  c #FEC490",
"/  c #FEC493",
"(  c #FFC593",
")  c #FFC796",
"_  c #FFC996",
"`  c #FFC897",
"'  c #FEC898",
"]  c #FFC998",
"[  c #FDC89B",
"{  c #FCCB9D",
"}  c #FCCA9E",
"|  c #FDCB9F",
" . c #FECB9F",
".. c #FECCA0",
"X. c #FFCCA0",
"o. c #FECDA0",
"O. c #FFCDA0",
"+. c #FECCA1",
"@. c #FECCA2",
"#. c #FECDA2",
"$. c #FFCDA3",
"%. c #FECEA2",
"&. c #FFCEA2",
"*. c #FECEA3",
"=. c #FFCEA3",
"-. c #FFCFA3",
";. c #FFCEA5",
":. c #FECFA5",
/* pixels */
"              V m               ",
"          C ;./ Y _ B           ",
"      V Q X.R X.;.! L X.V       ",
"  V ;. ._  .K X.R X.X.-.X.X.V   ",
"H Y ;.' / X.Q _ X.X.X. .X.! X.S ",
"x x F I /  .;.P @.X.J X.:.S , 9 ",
"t y x z H  .' X.[ @.` S & & , & ",
"x s x x k x H I Q D & , , , , , ",
"x x y v z s x x 1 4 & , & @ @ 9 ",
"y y y v z z n x 3 & , & , & & - ",
"j y x z z z n s 3 & 4 , @ , - @ ",
"x x e v z v n n 3 4 , & 9 & & 7 ",
"d v l l s e x x 6 - q - - , @ + ",
"    5 y e e z s 1 - & & , +     ",
"        o x x t 3 9 9 .         ",
"              z 2 .             "
};
