/* XPM */
static char *_0_mini1646930053[] = {
/* columns rows colors chars-per-pixel */
"16 16 119 2 ",
"   c None",
".  c #2C2C2C",
"X  c #373937",
"o  c #3B3B3C",
"O  c #3F403F",
"+  c #414040",
"@  c #444544",
"#  c #454445",
"$  c #444545",
"%  c #454547",
"&  c #474646",
"*  c gray28",
"=  c #4F4F4E",
"-  c #4E4E4F",
";  c #4F4E4F",
":  c gray31",
">  c #4F504F",
",  c #505050",
"<  c #515050",
"1  c #515150",
"2  c gray32",
"3  c #535252",
"4  c #525352",
"5  c #535352",
"6  c #525253",
"7  c #535253",
"8  c #525353",
"9  c #535353",
"0  c gray33",
"q  c #545554",
"w  c #555555",
"e  c #565656",
"r  c #575656",
"t  c #5B5B5B",
"y  c #5E5E5F",
"u  c #605F5F",
"i  c #6A6A6A",
"p  c #6A6B6A",
"a  c #6B6A6B",
"s  c #6A6B6B",
"d  c gray42",
"f  c #6D6D6C",
"g  c gray44",
"h  c #717170",
"j  c #717171",
"k  c #717270",
"l  c #707271",
"z  c #717273",
"x  c #727272",
"c  c #727273",
"v  c #747475",
"b  c gray46",
"n  c #797979",
"m  c #7A7979",
"M  c #78797A",
"N  c #7A7B7A",
"B  c #7B7B7A",
"V  c #7B7A7B",
"C  c #7A7B7B",
"Z  c #7B7B7B",
"A  c #7C7C7C",
"S  c #7D7C7C",
"D  c #7D7D7C",
"F  c #7C7C7D",
"G  c #7D7C7D",
"H  c #7C7D7D",
"J  c gray49",
"K  c #7F7E7E",
"L  c #818081",
"P  c gray51",
"I  c #828382",
"U  c #828283",
"Y  c #828383",
"T  c #848482",
"R  c gray52",
"E  c #868686",
"W  c gray53",
"Q  c #898786",
"!  c #888888",
"~  c #888988",
"^  c #898889",
"/  c #898989",
"(  c #8A8B8A",
")  c #8B8B8A",
"_  c gray55",
"`  c #8E8E8E",
"'  c #8E8E8F",
"]  c #909090",
"[  c #909190",
"{  c #919190",
"}  c #909091",
"|  c #909191",
" . c gray57",
".. c #929393",
"X. c gray58",
"o. c #9A9A9A",
"O. c #9E9F9E",
"+. c #A0A0A0",
"@. c #A0A1A0",
"#. c #A0A1A1",
"$. c #A2A2A2",
"%. c #A3A2A2",
"&. c #A2A3A2",
"*. c #A3A2A3",
"=. c #A2A3A3",
"-. c gray64",
";. c #A5A4A4",
":. c #A4A5A4",
">. c #A5A5A4",
",. c #A4A4A5",
"<. c #A5A4A5",
"1. c #A4A5A5",
"2. c #A5A5A5",
"3. c gray65",
"4. c #A7A6A6",
"5. c #AAAAAB",
"6. c #ACADAD",
"7. c #ADAEAF",
"8. c #AFAEAE",
/* pixels */
"              ^ ~               ",
"          ^ >.>.&.W _           ",
"      ^ >.U ..^ ` &.>.,.T       ",
"  ^ >.>.&.W ^ &.,.,.&.W ` &.W   ",
" .8.=.( ` &.>.P o.T ` %.>.&. .^ ",
"J J Q 5.>.>.,.,.<.W O.&...^ 8 8 ",
"Z J a P  .7.>.>.>.&. .^ 8 8 8 8 ",
"l l a P A J } 6.] W < = < 8 = @ ",
"A A x l A A A A r 8 < < < + 8 8 ",
"V A A A f l A A r 8 = & 8 # < < ",
"A a V A x K l l 8 @ 8 < 6 * < # ",
"A A n f v A A A 8 8 8 < : # < t ",
"u Z Z P Z a Z A < 8 > # 8 8 = o ",
"    # L A J l a < @ 8 y 8 o     ",
"        * Z b W r 0 < X         ",
"              J < .             "
};
