/* XPM */
static char *end_mini1646929940[] = {
/* columns rows colors chars-per-pixel */
"16 16 66 1 ",
"  c None",
". c #181816",
"X c #1E1D1D",
"o c #1D1E1D",
"O c #202020",
"+ c #212020",
"@ c #202120",
"# c #212120",
"$ c #202021",
"% c #212021",
"& c #202121",
"* c gray13",
"= c #232121",
"- c #232323",
"; c #272726",
": c #272627",
"> c #262727",
", c #272727",
"< c #2C2C2C",
"1 c #2C2D2C",
"2 c #2E2C2C",
"3 c #2F2E2F",
"4 c #2F2F2F",
"5 c #3C2727",
"6 c #3C2827",
"7 c #3C2728",
"8 c #332A2B",
"9 c #322B2B",
"0 c gray19",
"q c #313030",
"w c #303130",
"e c #313130",
"r c #303031",
"t c #303131",
"y c #313131",
"u c #343434",
"i c #343534",
"p c #353534",
"a c #343435",
"s c #3E3E3E",
"d c #3F3E3E",
"f c #3E3F3E",
"g c #3F3F3E",
"h c #3E3E3F",
"j c #3E3F3F",
"k c #3F3F3F",
"l c #433C3C",
"z c #433D3C",
"x c #4C3838",
"c c #4D3838",
"v c #4D3938",
"b c #921F1E",
"n c #931F1E",
"m c #931E1F",
"M c #921F1F",
"N c #931F1F",
"B c #D80606",
"V c #D90606",
"C c #D80706",
"Z c #D90706",
"A c #D80607",
"S c #E60000",
"D c #E70000",
"F c #E70100",
"G c #E60001",
"H c #E70101",
/* pixels */
"       76       ",
"     9BSSC8     ",
"   <sssNNjjs<   ",
" 7BBcjcBBcscBB7 ",
"pNSSNjNSDmjmDSnw",
"00pjjjscckjjs0OO",
"0000ilBDDAzrOOOO",
"0000wwinnrOOOOOO",
"0000000y:%OOOOOO",
"000ry000:OOOOOOO",
"00ur0000:OOO-O-O",
"000000yy,OOOOOOO",
"<0000000:OO$OOOX",
"  ,00000,OO-OX  ",
"    -000,OO.    ",
"       0,.      "
};
