/* XPM */
static char *player_mini1646929940[] = {
/* columns rows colors chars-per-pixel */
"16 16 14 1 ",
"  c None",
". c #4A3854",
"X c #4A3955",
"o c #742F4B",
"O c #7B3445",
"+ c #7C3445",
"@ c #565A79",
"# c #706A73",
"$ c #963C4E",
"% c #A55455",
"& c #855F68",
"* c #845F69",
"= c #B2736E",
"- c #B37671",
/* pixels */
"                ",
"                ",
"                ",
"                ",
"                ",
"       $o       ",
"       -=       ",
"       &&       ",
"      O#@O      ",
"      %..%      ",
"                ",
"                ",
"                ",
"                ",
"                ",
"                "
};
