/* XPM */
static char *popo_mini1646929939[] = {
/* columns rows colors chars-per-pixel */
"16 16 18 1 ",
"  c None",
". c #493B5A",
"X c #4A3C5C",
"o c #6F3C53",
"O c #474752",
"+ c #565659",
"@ c #664772",
"# c #9A5E5A",
"$ c #A85371",
"% c #C77E59",
"& c #7D5B82",
"* c #A271A6",
"= c #C56A99",
"- c #929F9C",
"; c #928FA3",
": c #B2AFB1",
"> c #D2A1BE",
", c #C0C9CD",
/* pixels */
"                ",
"                ",
"                ",
"                ",
"                ",
"                ",
"                ",
"                ",
"       %        ",
"      -#:       ",
"      o$&       ",
"     ,=>*@      ",
"     +.;XO      ",
"                ",
"                ",
"                "
};
