/* XPM */
static char *slime_mini1646929940[] = {
/* columns rows colors chars-per-pixel */
"16 16 23 1 ",
"  c None",
". c #262B36",
"X c #262D36",
"o c #549F5E",
"O c #559F5F",
"+ c #6DAA5D",
"@ c #6DAB5D",
"# c #568E60",
"$ c #578E61",
"% c #508F64",
"& c #518F64",
"* c #429663",
"= c #469B60",
"- c #469B61",
"; c #579460",
": c #589460",
"> c #81BB5C",
", c #81BB5D",
"< c #87BE5D",
"1 c #87BF5D",
"2 c #9CCF62",
"3 c #9BA88B",
"4 c #9AA98B",
/* pixels */
"                ",
"                ",
"                ",
"                ",
"                ",
"                ",
"                ",
"                ",
"       22       ",
"      ;11:      ",
"      *44*      ",
"     %-Oo=%     ",
"     $>++>$     ",
"       .X       ",
"                ",
"                "
};
