/* XPM */
static char *wall_2_mini1646930055[] = {
/* columns rows colors chars-per-pixel */
"16 16 59 1 ",
"  c None",
". c #1C620E",
"X c #1E6D0C",
"o c #22660C",
"O c #2BB20F",
"+ c #2BB30F",
"@ c #2CB50E",
"# c #2DB50E",
"$ c #2EB70E",
"% c #28AD10",
"& c #29AD10",
"* c #29AD11",
"= c #2BAE11",
"- c #2BAF11",
"; c #2EAC12",
": c #2EAD12",
"> c #2EAE12",
", c #38B716",
"< c #3BBF16",
"1 c #3EC615",
"2 c #3CC118",
"3 c #40C418",
"4 c #41C419",
"5 c #40C519",
"6 c #42C718",
"7 c #48C51C",
"8 c #48C71C",
"9 c #49CB1D",
"0 c #53D71F",
"q c #52D81E",
"w c #44E206",
"e c #45E605",
"r c #47E706",
"t c #46E805",
"y c #4BEC00",
"u c #4BED00",
"i c #4BEC01",
"p c #4BEF00",
"a c #4CEE00",
"s c #4CEF00",
"d c #46E10B",
"f c #51EC0F",
"g c #51ED0F",
"h c #4CF100",
"j c #50FE00",
"k c #51FE00",
"l c #50FF00",
"z c #51FF00",
"x c #50FE01",
"c c #51FE01",
"v c #50FF01",
"b c #51FF01",
"n c #52EA10",
"m c #52D620",
"M c #53D620",
"N c #52D720",
"B c #52D621",
"V c #53D621",
"C c #53D721",
/* pixels */
"                ",
"                ",
"                ",
"                ",
"                ",
"       pp       ",
"     abjbbp     ",
"   pbbbbbbbba   ",
" hbbjbbbbkbjjbh ",
"qgbbjbbbkkbbjbr$",
"BB3njjbbkjjbr1%%",
"9B3Bqdbbbbr@%<%>",
" .,BB30nw$>%%2o ",
"    73NCO%%>    ",
"     X7BO>      ",
"                "
};
