/* XPM */
static char *wall_6_mini1646930055[] = {
/* columns rows colors chars-per-pixel */
"16 16 43 1 ",
"  c None",
". c #131313",
"X c gray8",
"o c #191917",
"O c #222221",
"+ c #252424",
"@ c #252524",
"# c #252425",
"$ c #242525",
"% c #252525",
"& c #272727",
"* c #2A2B2A",
"= c #2B2B2A",
"- c #2B2A2B",
"; c #2A2B2B",
": c gray17",
"> c #2C2C2C",
", c #323232",
"< c #323332",
"1 c #333332",
"2 c #323233",
"3 c #333233",
"4 c #323333",
"5 c gray20",
"6 c #343434",
"7 c #343435",
"8 c #3C3C3C",
"9 c gray24",
"0 c #3D3E3D",
"q c #3D3D3E",
"w c #3E3E3E",
"e c #3F3E3E",
"r c #3E3E3F",
"t c #3F3E3F",
"y c #3E3F3F",
"u c gray25",
"i c #414040",
"p c #404140",
"a c #414140",
"s c #404041",
"d c #414041",
"f c #404141",
"g c #414141",
/* pixels */
"                ",
"                ",
"                ",
"                ",
"                ",
"                ",
"       0t       ",
"     0ssas0     ",
"   0ssssaisuu   ",
" 8sa0iasiiasuu0 ",
"70aassissassss0=",
"<36assiissuus;++",
"3<<37ssisss;@+++",
"  <63<<0s;+&@+  ",
"   o5<<5;+++X   ",
"     &55;$X     "
};
