/* XPM */
static char *wall_4_mini1646930055[] = {
/* columns rows colors chars-per-pixel */
"16 16 57 1 ",
"  c None",
". c #A7550B",
"X c #AA560C",
"o c #AD590D",
"O c #BA5C06",
"+ c #BA5C07",
"@ c #BB5C07",
"# c #BA5D07",
"$ c #B35F12",
"% c #BF610C",
"& c #BE600D",
"* c #C66B17",
"= c #C76B18",
"- c #C86C19",
"; c #C96D19",
": c #CC721F",
"> c #C77024",
", c #CC7220",
"< c #CD7220",
"1 c #CD7320",
"2 c #C0732F",
"3 c #C87428",
"4 c #CA762B",
"5 c #CC792F",
"6 c #C37630",
"7 c #CA7931",
"8 c #DC8434",
"9 c #DD8534",
"0 c #DC8435",
"q c #DD8435",
"w c #DC8535",
"e c #DD8535",
"r c #DF8A3D",
"t c #E08B3F",
"y c #E18C40",
"u c #E18D41",
"i c #EFC29B",
"p c #F9C291",
"a c #FBC494",
"s c #FAC595",
"d c #FBC697",
"f c #F2C49C",
"g c #F2C59C",
"h c #F4C49D",
"j c #F4C69E",
"k c #F6C89F",
"l c #FCCCA1",
"z c #FECDA2",
"x c #FECEA2",
"c c #FECEA3",
"v c #FFCEA4",
"b c #FECFA4",
"n c #FFCFA4",
"m c #FECEA5",
"M c #FFCEA5",
"N c #FECFA5",
"B c #FFCFA5",
/* pixels */
"                ",
"                ",
"                ",
"                ",
"                ",
"       kl       ",
"     hMnNMf     ",
"   fMMMbnMnMf   ",
" iMMnnBnNNMNnNi ",
"rpnMBnBBnNNnMnc>",
"88ysBBBnMNNNl4OO",
"1e88ydnnnnc4OO#-",
" 6,888udl7#OO-. ",
"   6<888*++=X   ",
"     8<8@*o     ",
"       7$       "
};
