/* XPM */
static char *_6caffbd261d460ea5498c3a168c6850hoHLTu97Rjxn7fmK[] = {
/* columns rows colors chars-per-pixel */
"16 16 88 1 ",
"  c None",
". c #444444",
"X c #444545",
"o c #494948",
"O c #484849",
"+ c #4B4C4B",
"@ c #4E4E4E",
"# c #4E4F4E",
"$ c #515150",
"% c #505151",
"& c #515151",
"* c #515252",
"= c gray32",
"- c #555554",
"; c #595A59",
": c #5A5A59",
"> c #5A5A5A",
", c #5B5B5B",
"< c #5D5B5B",
"1 c #5B5B5D",
"2 c #5E5F5E",
"3 c #6A6968",
"4 c #6B6A6B",
"5 c #6C6C6C",
"6 c gray43",
"7 c #727372",
"8 c gray46",
"9 c #767676",
"0 c #797879",
"q c #797979",
"w c #7D7D7C",
"e c gray49",
"r c #7E7E7F",
"t c #808181",
"y c gray51",
"u c #838383",
"i c #858483",
"p c #848584",
"a c #848585",
"s c #868787",
"d c gray53",
"f c #888889",
"g c #898989",
"h c #8B8A8A",
"j c #8A8A8B",
"k c #8B8A8B",
"l c gray55",
"z c #8D8C8C",
"x c #8C8C8D",
"c c #8D8D8D",
"v c #909391",
"b c #929292",
"n c #939393",
"m c gray58",
"M c #959495",
"N c #9A9B9B",
"B c #9D9D9C",
"V c #9C9D9D",
"C c gray62",
"Z c #A2A3A2",
"A c #A3A3A2",
"S c #A4A4A4",
"D c gray65",
"F c #A7A6A6",
"G c #A6A7A6",
"H c #A7A7A6",
"J c #A6A6A7",
"K c #A7A6A7",
"L c #A6A7A7",
"P c #A7A7A7",
"I c #A9A8A8",
"U c #A8A8A9",
"Y c #A8A9AA",
"T c #AAAAAA",
"R c gray67",
"E c #ACACAC",
"W c #ACADAC",
"Q c gray68",
"! c #AEAEAE",
"~ c #AFAEAE",
"^ c #AFB0AF",
"/ c #B0B1B1",
"( c #B5B5B4",
") c #B6B6B6",
"_ c #B6B6B7",
"` c #BBBABB",
"' c #BFBFC0",
"] c #C0C1C0",
/* pixels */
"                ",
"                ",
"                ",
"                ",
"                ",
"       ,,       ",
"     1EPjE=     ",
"   <V'PPdVx)=   ",
" ,mRPPpEPPtPPA. ",
"`RiNjlPRjl/PjIHV",
"rt]RSVmEPPaAPZ3+",
"9arlR)G(vRP63$=-",
" i8jrn)n^l2%@oX ",
"   ar0wn7=@o,   ",
"     j00=@,     ",
"       i5       "
};
