/* XPM */
static char *wall_3_mini1646930055[] = {
/* columns rows colors chars-per-pixel */
"16 16 53 1 ",
"  c None",
". c #E60000",
"X c #E70100",
"o c #E60101",
"O c #E90906",
"+ c #E80907",
"@ c #E80A06",
"# c #E52B19",
"$ c #E52B1A",
"% c #E62F1C",
"& c #EC2A18",
"* c #EC2B19",
"= c #EF361F",
"- c #FE4200",
"; c #FF4200",
": c #FF4300",
"> c #FF4201",
", c #FF4301",
"< c #FE4C0D",
"1 c #FE4D0D",
"2 c #F74F13",
"3 c #F64E14",
"4 c #FF5314",
"5 c #F6551A",
"6 c #F14C2C",
"7 c #FE692E",
"8 c #FF692E",
"9 c #FE6B2E",
"0 c #F77240",
"q c #F36653",
"w c #F26852",
"e c #F36D57",
"r c #B79677",
"t c #B79777",
"y c #B89777",
"u c #B79679",
"i c #B89679",
"p c #B89779",
"a c #FB8859",
"s c #FA8959",
"d c #FA885A",
"f c #FA8E60",
"g c #FB8E60",
"h c #FECBA0",
"j c #FFCBA0",
"k c #FFCAA1",
"l c #FFCEA4",
"z c #FECFA4",
"x c #FFCFA4",
"c c #FECEA5",
"v c #FFCEA5",
"b c #FECFA5",
"n c #FFCFA5",
/* pixels */
"                ",
"                ",
"                ",
"                ",
"                ",
"       pu       ",
"     pvvvvp     ",
"   yvvxxxxxvt   ",
" uvvxxxxvxbbbbp ",
"9jxvxxxvxvbbbbxe",
";<9jvxxxxbvbxqo6",
"d<;;9hvvxxxwo+o0",
" 3s;;f8jxq@oo=$ ",
"   5sf;;@o@*$   ",
"     4s;@*$     ",
"       2%       "
};
