/* XPM */
static char *wall_mini1646929939[] = {
/* columns rows colors chars-per-pixel */
"16 16 69 1 ",
"  c None",
". c #4E4E4E",
"X c #4F4E4F",
"o c #4E4F4F",
"O c gray31",
"+ c gray32",
"@ c #535252",
"# c #525352",
"$ c #535352",
"% c #525253",
"& c #535253",
"* c #565656",
"= c #575657",
"- c #6B6B6A",
"; c #6B6A6B",
": c #6D6E6D",
"> c #6E6D6E",
", c gray43",
"< c #7C7C7C",
"1 c #7D7C7C",
"2 c #7C7D7C",
"3 c #7D7D7C",
"4 c #838282",
"5 c #828382",
"6 c #828283",
"7 c #838383",
"8 c #848284",
"9 c #848484",
"0 c gray52",
"q c #868686",
"w c #868787",
"e c #888787",
"r c #888888",
"t c #898888",
"y c #888988",
"u c #888889",
"i c #898889",
"p c gray54",
"a c #8B8A8A",
"s c #8A8A8B",
"d c gray55",
"f c #8E8E8E",
"g c #8E8F8F",
"h c #909090",
"j c #909091",
"k c #919091",
"l c #909191",
"z c #939393",
"x c #959494",
"c c #9A9B9B",
"v c #9F9E9E",
"b c #A0A0A0",
"n c #A1A0A0",
"m c #A0A1A1",
"M c #A2A2A2",
"N c #A3A3A2",
"B c gray64",
"V c #A5A4A4",
"C c #A4A5A4",
"Z c #A5A5A4",
"A c #A4A4A5",
"S c #A4A5A5",
"D c #A5A5A5",
"F c gray65",
"G c #A6A7A6",
"H c gray67",
"J c #ADACAD",
"K c #AEAEAC",
"L c #AEAEAD",
/* pixels */
"                ",
"                ",
"                ",
"                ",
"                ",
"       yy       ",
"     yFFnry     ",
"   yF7zygnFF8   ",
" yFFnuynFFF9gB9 ",
"lKnsgnF7c8gnVnld",
"339KFAFFF9vnxy%%",
"33;7hKVVAmhy%$%%",
" >;8<<jJly%.%%. ",
"   :33<<*$&O.   ",
"     :11=%O     ",
"       :%       "
};
