/* XPM */
static char *wall_1_mini1646930055[] = {
/* columns rows colors chars-per-pixel */
"16 16 58 1 ",
"  c None",
". c #868686",
"X c #898988",
"o c #8B8989",
"O c gray54",
"+ c #8A8B8A",
"@ c #8F8E8E",
"# c #8E8F8F",
"$ c #909090",
"% c #919090",
"& c #929292",
"* c #929293",
"= c #939393",
"- c gray58",
"; c #949594",
": c #949495",
"> c #B6B4B6",
", c #B6B6B6",
"< c #B8B8B7",
"1 c #B7B7B8",
"2 c #B8B7B8",
"3 c gray72",
"4 c #B8B8B9",
"5 c #BABBB9",
"6 c #BBBABA",
"7 c #BABABB",
"8 c #BBBABB",
"9 c #BABBBB",
"0 c #BCBCBC",
"q c #BDBCBD",
"w c gray75",
"e c #C0C0C0",
"r c #C1C1C0",
"t c #C1C1C1",
"y c gray76",
"u c #C8C8C8",
"i c #C9C8C8",
"p c #C9C8C9",
"a c gray79",
"s c #CBCACA",
"d c #CBCACB",
"f c #CACBCB",
"g c #CBCBCB",
"h c gray80",
"j c #CCCCCD",
"k c #CDCCCD",
"l c gray99",
"z c #FDFCFC",
"x c #FCFDFC",
"c c #FDFDFD",
"v c #FEFEFE",
"b c #FFFEFE",
"n c #FEFFFE",
"m c #FFFFFE",
"M c #FEFEFF",
"N c #FFFEFF",
"B c #FEFFFF",
"V c white",
/* pixels */
"                ",
"                ",
"                ",
"                ",
"                ",
"       >,       ",
"     3mmmm1     ",
"   1mmmmmmmm2   ",
" 1mmmcmmmmmmmm1 ",
"almmmmmmmmmmmmmw",
"tdulmmmmmmmmme*@",
"dh8dpcmmmmme&o:*",
" w3hh9ammt&;*oo ",
"   wh8ht@;&;o   ",
"     3hh#:o     ",
"       3.       "
};
