/* XPM */
static char *_1646851424[] = {
/* columns rows colors chars-per-pixel */
"64 64 10 1 ",
"  c None",
". c #BA5C07",
"X c #DD8535",
"o c #FFAD63",
"O c #64A5FF",
"+ c #8BBCFF",
"@ c #B2D2FF",
"# c #D1E5FF",
"$ c #D9E9FF",
"% c white",
/* pixels */
"                                                                ",
"                              $$$$                              ",
"                            $$$$$$$$                            ",
"                          $$$$$$$$$$$$                          ",
"                        $$$$$$$$$$$$$#$$                        ",
"                      $$$$$$$$$$$$$$$$$$$$                      ",
"                    $$$$$$$$$$$$$$$$$$$$$$$$                    ",
"                  $$$$$$$$$$$$$$$$$$$$$$$$$$$$                  ",
"                $$$$$$$$$$$$$$$$$$$$$$$$$$$$$$$$                ",
"              $$$$$$$$$$$$$$$$$$$$$$$$$$$$$$$$$$$$              ",
"            $$$$#$$$$$$$$$$$$$$$$$$$$$$$$$$$$$$$$$$$            ",
"          $$$$$$$$$$$$$#$$$$$$$$$$$$$$$$$$$$$$#$#$$$$$          ",
"        $$$$$$$$$$$$$$$$$$$$$$$$$$$$$$$$$$$$$#$#$$$$$$$$        ",
"      $$$$$$$$#$$$$$$$$$$$$$$$$$$$$$$$#$$$$$$$$$$$$$$$$$$$      ",
"    $$$$$$$$$$$$$$$$$$#$$$$$$$$$$$$$$$$$$$$$$#$$$$$$$$$#$$$$    ",
"  $$$$$$$$$$$$$$$$$$$$$$$$$$$$$$$$$$$$$$$$$$$$$$$$#$$$$$$$$$$$  ",
"%%$$$$$$$$$$$$$$$$$#$$$$$$$$$$$$$$$$$$$$$$$$$$#$$$$$$$$$$$$$$$$@",
"$$%%$$$$$$$$$$$$$$$$$$$$$$$$$$$$$$$$$$$$$$$$#$$$$$$$$$$$$$$$$@@+",
"$$$$%%$$$$$$$#$$$$$$$$$$$$$$$$$$$#$$$$$$$$$$$$$$$$$$$$$$$$$@@+++",
"$$$$$$%%$$##$$$$$$$$$$$$$$$$$$$$$$$$$$$$$#$$$$$$$$$$$$$$$@@+++++",
"$$$$$$$$%%$$$$$$#$##$$$#$$$$$$$$$$$$$$$$$$$$$$$$$$$$$$$@@+++++++",
"$$$$$$$$$$%%$$$#$$$$$$$$$$$$$$$$$$$$$$$$$$$$$$$$$$$$$@@+++++++++",
"$$$$$$$$$$$$%%$$$$$$$$$$$$$$$$$$$$$$#$$$$$$$$$#$$$$@@+++++++++++",
"$$$$$$$$$$$$$$%%$$$$$$$$$#$$$$$$$$$$$$$$$$$$$$$$$@@+++++++++++.+",
"@@$$$$$$$$$$$$$$%%$$$$$$$$$$$$$$$$$$$$$$$$$$$$$@@++++++++++++++O",
"++@@$$$$X$$$$$$$$$%%$$$$$$$$$$$$#$$$$$$$$$$$$@@++++++++++++++OO.",
"XX++@$$$$$$$$$$$$$$$%%$$$$$$$$#$$$#$$$$#$$$@@++++++++++++++.O...",
"X.XX+$$$$$$$$$$$$$$$$$%%$$$$$$$$$$$$$$$$$@@++++++++++++++O..X...",
"XXXXX+$+@@$$$$$$$$$$$$$$%%$#$$$$$$$$$$$@@++++++++++++.+.........",
"XXXXX++X++@@$$$$$$$$$$$$$$%%$$$$$$$$$@@++++++++++++++O.X........",
"XX@XXX+XX+++@@$$$X$$$$$$$$$$%%$$$$$@@++++++++++++++OO...........",
"XXXX.XXXXXXX++@@$$$$$$$$$$$$$$%%@@@++++++++++++++OO.......X...@.",
"XX.XXXX.XXXXXX++@$$$$$$$$$$$$$$$%++++++++++++++OO.........@.....",
"XXXXXXX@X.XXXXXX+$$@$XX$$$$$$$$$%++++++++++.+OO....X............",
"XXXXXXXXXXXX.XXX+$++@@$$$X$$$$$$%++++++++++.................X.X.",
"XXX@XXXX.@XXXXXX+++X++@@$$$$$$$$%++++++++OO..X..X.....@X...@....",
"XXXXXXXXXXXXX@XXXXXXXX++@@$$$$$$%++++++OO.......................",
"XX.XXXXXXXXXXXXXXXXX.XX.+++@$$$$%++++OO...........@X............",
"XXXXX.XXX.XX.XXXXXXXXXXXXXX+@@$$@++OO......X...@............X...",
"XXXXXXXXXXXXXXX.XXXXXXXXXXXX++@@@OO.........@..........X.......X",
"XXXXXXX@XXXXX@XXX@XX.XXXXXX.XX+++...............................",
".XX.XX.XXXXXXXXXXXXX@XX.XXXXXXXXo........X.@...X.@..............",
"XXXXXXXXXXX.XXXXXXXXXXXX@X@XX.XXo..X....@..................X....",
"XXXX.XXX.XXXXXXXXX.XXXXXXXXXXXXXo.....................X.........",
"XXXXXXXXXXXX.XXXXXXXXXXX.XXXXXXXo...............................",
"XXXXXXXXX.XXXXX.XXXXXXXXXXXXXXXXo.....X..........X..............",
"XXXXXXXXXXXXXXXXXXXXXXXXXXXXXXXXo.............................X.",
"XX.XXXXXXXXXX.XXXXXXX.XXXXX.XX.Xo..........X...........X........",
"XXXXXX.XXXXXXXXXXXXXXXXX.XXXXXXXo................X.........X....",
"XXXX.XXXXXX.XXXXX.XXX.XXXXXXXXXXo..X....X.......................",
" XXXXXXXXXXXXXXXXXXXXXXXXXXXXXXXo.........X....X............... ",
"   XXXX.XXXXXXXX.XXXXXXXXXXXXXXXo.....................X......   ",
"     XXXXXXXXXXXXXXXXXXXXX.XXXXXo....X.....................     ",
"        XXX.XXXXXX.XXXXXXXXXXX.Xo........................       ",
"          XXX.XXXXXXX.X.XXXXXXXXo..................X...         ",
"            XXXXXXXXXXXXXXXXXXX.o............X.......           ",
"              XXXXX.XXXX.XXXXX.Xo..................             ",
"                XX.XXXXXXXXXXXXXo.....X...X......               ",
"                  X.XXXXXXXXX.XXo...X.........                  ",
"                    XX.XXXXXXXXXo....X......                    ",
"                       XXXXXXXXXo.........                      ",
"                         XX.XXXXo.......                        ",
"                           XXXXXo.....                          ",
"                             XXXo...                            "
};
