/* XPM */
static char *__h1646852822[] = {
/* columns rows colors chars-per-pixel */
"64 64 30 1 ",
"  c None",
". c #FE3434",
"X c #FF3434",
"o c #FF3534",
"O c #FE3435",
"+ c #FF3435",
"@ c #BA5C06",
"# c #BA5C07",
"$ c #BB5C07",
"% c #BA5D07",
"& c #DD8534",
"* c #DC8435",
"= c #DD8435",
"- c #DC8535",
"; c #DD8535",
": c #64A5FE",
"> c #64A5FF",
", c #8BBCFE",
"< c #8ABCFF",
"1 c #8BBCFF",
"2 c #8BBDFF",
"3 c #B2D2FE",
"4 c #B2D2FF",
"5 c #B3D2FF",
"6 c #D0E5FF",
"7 c #D1E5FF",
"8 c #D9E9FE",
"9 c #D9E8FF",
"0 c #D8E9FF",
"q c #D9E9FF",
/* pixels */
"                                                                ",
"                              XXXX                              ",
"                            XXXqqXXX                            ",
"                          XXXqqqqqqXXX                          ",
"                        XXXqqq0qqqqqqXXX                        ",
"                      XXXqqqqqqqqqqqqqqXXX                      ",
"                    XXXqqqqqqqqqqqqqqqqqqXXX                    ",
"                  XXXqqqqqqqqqqqqqqqqqqqqqqXXX                  ",
"                XXXqqqqqqqqqqqqqqqq0qqqqqqqqqXXX                ",
"              XXXqqqqqqqqqqqqqqqqqqqqqqqqqqqqqqXXX              ",
"            XXXq6qqqqq9qqqqqqqqqqqqqqqqqqqqqqqqqqXXX            ",
"          XXXqqqqqqqqqq69qqqqqqqqqqqqqqqqqqqqq6q6qqXXX          ",
"        XXXqqqqqqq0qqqqqqqqqqqqqqqqqqqqqqqqqq6q6qqqqqXXX        ",
"      XXXqqqqq6q9qqqqqqqqqqqqqqqqqqqqq6qqqqqqqqqqqqqqqqXXX      ",
"    XXXqqqqqqqqqqqqqqq6qq9qqqqqqqqqqqqqqqqqqq6qqqqqqqqq6qXXX    ",
"  XXXqqqqqqqqqqqqqqqqq9qqqqqqqqqqqqqqqqqqqq0qqqqqq6qqqqqqqqXXX  ",
"XX.qqqq9qqqqqqqqqqq6qqqqqqqqqqqq888888888888qq6qqqqqqqqqqqqqqXXX",
"Xq...qqqqqqqqqqqqqqqqq9qqqqqqqqq8888888888986qqqqqqqqqqqqqqqXXXX",
"Xqqq...qqqqqq6qqqqqqqqqqqqqqqqqqq6888888888888qqqqqqqqqqqqX..1,.",
"Xqqqqq..Xq66qqqqqqqqqqqqqqqqqq9q88888888878888qqqqqqqqqqXXX,111.",
"Xqqqqqqq...qqqqq6q66qqq6qqqqqqqq8qqq88888888qqqqqqqqqq...,,,111X",
"Xqqqqqqqqq...qq68qqqqqqqqqqqqqqq8qqq88888888qqqqqqqq...11,,,11,X",
"Xqqqqqqqqqqq...q89qq9qqqqqqqqqqqqqqq78888888qq6qqqX..11111,,,,,.",
"Xqqqqqqqqqqqqq...8qqqqqqq69qqqqqqqqq88888888qqqqXXX2111111,,,,$.",
"X3qqqqqqqqqqqqqq...qqqqqqqqqqqqqqqqqqqqqqqqqqq..O,,,,,,,11,,,,,.",
"X,33qqqq=qqqq0qqqq..Xqqqqqqqqqqq6qqqqqqqq9qq...1,,,,,,,,11,,,>>.",
"X=,,3qqqqqqqqqqqqqqqXXXqqqqqqq6qqq6qqqq6qq...111,,<,,,,,111$>$$.",
"X#==2qqqqqqqqqqqqqqqqqXXXqqqqqqqqqqq9qqq...,1111,,,,,,,<1>$$=$$.",
"X=;;;2q233qqqqqqqqqqqqqqX.X6qqqqqqqqqqXX.,,,,,,,,,,,,#,$####%$#.",
"X=;;=22;2233qqqqqqqqqqq9qqXXXqqqqqqqXX.,,,,,,,,,,,,,2>#-####$$$.",
"X=4;=;2;=22233qqq=qqqqqqqqq9XXXqqq..X111,,,,2,2,,,,>>#####%$##$X",
"X=;;%==;====2233qqqqq9qqqqqqqqXX...,,111,,,,,,,,,>>#######-###4X",
"X;%;;-=%;=;;;;223qqqqqqqqqqqqqqX..111111,,,,,,2>>###%$$###4####.",
"X;=;;;;4;%;;;==;2qq3q==qqqqqqqqX..111111,,,#,>>###$*%#$#######$.",
"X;;;;;;;=;;;%-;;2q2244qqq=qqqqqX..111111,,,##$##########%###-$-.",
"X;;4;;;;%4;;;=;=,,2=2233qqqqqqqX..111111,>>##-##-#####3-%$#4$$$.",
"X;;;=;;;=;;;;4;;=====;2243qqqqqX..,,111>>#######$###########$##.",
"X;%;;=;;;;;;;;;;==;;%;=%2223qqqX..,,1>>%##########3-##########$.",
"X;=;;%;;=%;;%=;=;;;-;;;;===233qX..,>>$%$##%*###4############-#$.",
"X;;;;;;;=;;;;;;%;;;;;;;;;===224X..>$$$$$##$#4##$#######-####$$$.",
"X;;;;;;4;;;;=4;;;4;;%=;;;;;%=;2X..$$#####$#####%###############.",
"X;=%;;%;;;;;;;;;-;;;4==%;;;;;;;X..$$#####-#4###*#4########$%##$.",
"X;;;;;===;=%;;;;;;;;;;;;4=4;;%=X..$-####4#############%$###-##$.",
"X;;-%;;;%;;-;;;;;;%=;;-;;;;;;;;X..$$##################-######$$.",
"X;;;=;;;;;;;%-;=;;;;;;;;%=;;;;;X..$###$##########$#############.",
"X;;;;-;;=%;;=;;%;;;;;;;;;&;;;;;X..$$##-##########-############$.",
"X;=;;;;&;;;;=;;;;;;;;=;;;;;=;;=X..$$#######$###########$####$$-.",
"X;%;;;;;;;;;=%;;;;;;;%;;;;;%;=%X..$$#######-###########-###$#$$.",
"X;;;=;%;;;=;;;;;;;;;;;;;%;;;;;;XXX%%###########$#-$#######%-$##.",
"XX;;%;==;;&%;;;;=%;;=%;;=;;;;;;X.X$*###$-######%############$#X.",
" XXX;;;=;=;;;;;==;;;;;;;;;;;;;;XXX######$#-$###-####$#$$####XXX ",
"   XXX;%;;;;;;;;%;;;;;;;;;;;;;;oXX##################$$-$##.XX   ",
"     XXXX;==;;;;;;;;;;;;;;%=;;=XXX###-$###############%$XXX     ",
"        XXX%;;;;;;%=;;;=;;;;;;%XXX################$%##XXX       ",
"          XXX%;;;;;;;%;%;;;;;;;XXX############$$###*XXX         ",
"            XXX;;;;;;=;;;;;;;;;XXX##########$-#$##XXX           ",
"              XXX;;#;;;;%;;;;;#XXX######$$####%$XXX             ",
"                XXX;;;;;=;;;;;;XXX####-#$$-$$.XXX               ",
"                  XXX;;;;;;;;%;XXX##-$%%$$%XXX                  ",
"                    XXXo;;;;;=;XXX##$-%%$..X                    ",
"                       XXX;;===X..$$$##XXX                      ",
"                         XXX==;X..$$#XX.                        ",
"                           XXX=...%.XX                          ",
"                             XX...XX                            "
};
