/* XPM */
static char *_21646851424[] = {
/* columns rows colors chars-per-pixel */
"64 64 12 1 ",
"  c None",
". c gray20",
"X c gray32",
"o c #7C7C7C",
"O c #64A5FF",
"+ c gray58",
"@ c #A5A5A5",
"# c #8BBCFF",
"$ c #B2D2FF",
"% c #D1E5FF",
"& c #D9E9FF",
"* c white",
/* pixels */
"                                                                ",
"                              &&&&                              ",
"                            &&&&&&&&                            ",
"                          &&&&&&&&&&&&                          ",
"                        &&&&&&&&&&&&&%&&                        ",
"                      &&&&&&&&&&&&&&&&&&&&                      ",
"                    &&&&&&&&&&&&&&&&&&&&&&&&                    ",
"                  &&&&&&&&&&&&&&&&&&&&&&&&&&&&                  ",
"                &&&&&&&&&&&&&&&&&&&&&&&&&&&&&&&&                ",
"              &&&&&&&&&&&&&&&&&&&&&&&&&&&&&&&&&&&&              ",
"            &&&&%&&&&&&&&&&&&&&&&&&&&&&&&&&&&&&&&&&&            ",
"          &&&&&&&&&&&&&%&&&&&&&&&&&&&&&&&&&&&&%&%&&&&&          ",
"        &&&&&&&&&&&&&&&&&&&&&&&&&&&&&&&&&&&&&%&%&&&&&&&&        ",
"      &&&&&&&&%&&&&&&&&&&&&&&&&&&&&&&&%&&&&&&&&&&&&&&&&&&&      ",
"    &&&&&&&&&&&&&&&&&&%&&&&&&&&&&&&&&&&&&&&&&%&&&&&&&&&%&&&&    ",
"  &&&&&&&&&&&&&&&&&&&&&&&&&&&&&&&&&&&&&&&&&&&&&&&&%&&&&&&&&&&&  ",
"**&&&&&&&&&&&&&&&&&%&&&&&&&&&&&&&&&&&&&&&&&&&&%&&&&&&&&&&&&&&&&$",
"&&**&&&&&&&&&&&&&&&&&&&&&&&&&&&&&&&&&&&&&&&&%&&&&&&&&&&&&&&&&$$#",
"&&&&**&&&&&&&%&&&&&&&&&&&&&&&&&&&%&&&&&&&&&&&&&&&&&&&&&&&&&$$###",
"&&&&&&**&&%%&&&&&&&&&&&&&&&&&&&&&&&&&&&&&%&&&&&&&&&&&&&&&$$#####",
"&&&&&&&&**&&&&&&%&%%&&&%&&&&&&&&&&&&&&&&&&&&&&&&&&&&&&&$$#######",
"&&&&&&&&&&**&&&%&&&&&&&&&&&&&&&&&&&&&&&&&&&&&&&&&&&&&$$#########",
"&&&&&&&&&&&&**&&&&&&&&&&&&&&&&&&&&&&%&&&&&&&&&%&&&&$$###########",
"&&&&&&&&&&&&&&**&&&&&&&&&%&&&&&&&&&&&&&&&&&&&&&&&$$###########X#",
"$$&&&&&&&&&&&&&&**&&&&&&&&&&&&&&&&&&&&&&&&&&&&&$$##############O",
"##$$&&&&o&&&&&&&&&**&&&&&&&&&&&&%&&&&&&&&&&&&$$##############OO.",
"@o##$&&&&&&&&&&&&&&&**&&&&&&&&%&&&%&&&&%&&&$$##############XO.oo",
"@@o@#&&&&&&&&&&&&&&&&&**&&&&&&&&&&&&&&&&&$$##############OX.ooXX",
"ooo@@#&#$$&&&&&&&&&&&&&&**&%&&&&&&&&&&&$$############X#X.XXoXXXX",
"ooooo##@##$$&&&&&&&&&&&&&&**&&&&&&&&&$$##############O..o..oXXXX",
"oo$ooo#o@###$$&&&o&&&&&&&&&&**&&&&&$$##############OO.oooXX.XXXX",
"ooooooooooXo##$$&&&&&&&&&&&&&&**$$$##############OOXoooXXXX.XX$X",
"XooooooooooX@@##$&&&&&&&&&&&&&&&*##############OO.ooXXXXXX$.XXXX",
"@XXXooo$oooXoo@@#&&$&oo&&&&&&&&&*##########X#OO.ooXXXXXXXXX.XX..",
"@@@@XooooooXoooo#&##$$&&&@&&&&&&*##########X..X.oXXXXXXXXX.X..oo",
"o@@$@XXoo$oXoooo###X##$$&&&&&&&&*########OO.oo.ooXXXXX$XXX.$oooX",
"ooo@@X@XXoXoo$oooo@X@@##$$&&&&&&*######OO.ooooX.XXXXXXXXX.ooooXX",
"oooo@X@@@X@XoooooooX@o@@###$&&&&*####OO.ooXXXXX.XX$XXX.X.ooXXXXX",
"XooooXoooX@@XooooooXoooo@@X#$$&&$##OO.ooXXXXXXX$XXXX..o.ooXXXXXX",
"@XXooXoooX@@@XXooooXooooo@@X##$$$OO.oooXXXXX$XX.XX..ooo.oXXXXXXX",
"@@@XXoo$oXoo@$@XX$oXooooooX@@@###.oooXXXXXXXXX.X..ooooo.oXXXXX..",
"o@X@@XXooXoo@X@@@XXo$oooooXooo@@+ooXXXXXXXX$X.o.o$ooooX.oXXX..oo",
"o@X@@ooXXXoooX@o@@@XXooo$o$ooooX+oXXXXXX$XX..ooooooXXoX.XX..oXoX",
"ooXoo@@@oXoooXoooo@@@XXoooXooooo+XXXXXXXX..XoooooXXXXXX.X.oo.XXX",
"ooXoooo@@oXXoXooooo@o@XXXoXoooooXXXXXXX..XoooXXXXXXXX..X.ooX.XXX",
"XXooooooo@@@XoXoooooo@X@@XXooooooXXXXX.oo.ooXXXXXXXX.XooXXXX.XX.",
"@oXXooooooo@@@oXXoooooXo@@@XXooooXXX..ooX.oXXXXXXX..XoXXXXXXX..o",
"o@ooXXooooooo@@X@XXoooXoooo@oXXoXX..oooXX.XXXXXX..XooXXXXXX..ooX",
"ooo@@@XXXooooo@X@@@XXoXoooo@X@@X+.oXoXXXX.XXXX..ooXXXXXXX..XoXXX",
"XXoooo@@oXoooooX@@@o@XXoooooX@o@+ooXXXXXX.XX..oo.XXXXX...oo.oXX.",
" oXXooo@X@XXoooXoooooo@XXoooXooo+oXXXXXXXX..ooXX.XXXX.XoooX.X.. ",
"   oXXooXoo@XXoXoooooo@@@XXoooooXXXXXXXX..oooXXX.XX..o.XXXX..   ",
"     oXXXooo@@Xooooooooo@XoXXooooXXXXXX.XXoXXXXXX..oXo.XX..     ",
"        XXoooo@@XXoooooo@X@@@XXoXXXXX...oXXXXXXX.XoXXX...       ",
"          XXooo@@@XXoooooX@o@@@XoXX..oo.XXXXXX..XoXXX..         ",
"            XXoooX@@XXoooXoooo@@+..oooX.XXXX..ooXXX..           ",
"              XXXX@o@oXXoXoooooo+ooXXXX.X...X.XXX..             ",
"                XXXo@@@@XXooooooooXXXXXX.oXXX....               ",
"                  XXooo@@oXXoooooXXXXX..oXXX..                  ",
"                    XXXooo@@XXoooXXX..oXXX..                    ",
"                       XXoo@@oXX+X..o.oX..                      ",
"                         XXo@XooX.XoX...                        ",
"                           XXXoo+oXX..                          ",
"                             XXXX...                            "
};
