/* XPM */
static char *_2_h1646852822[] = {
/* columns rows colors chars-per-pixel */
"64 64 41 1 ",
"  c None",
". c #333332",
"X c #333233",
"o c #323333",
"O c gray20",
"+ c gray32",
"@ c #535252",
"# c #525352",
"$ c #525253",
"% c #535253",
"& c #7C7C7C",
"* c #7D7C7C",
"= c #7C7D7C",
"- c #7C7C7D",
"; c #FE3434",
": c #FF3434",
"> c #FE3534",
", c #FF3534",
"< c #FF3435",
"1 c #64A4FF",
"2 c #64A5FF",
"3 c #65A5FF",
"4 c #A5A5A4",
"5 c #A5A4A5",
"6 c #A4A5A5",
"7 c #A5A5A5",
"8 c #8BBCFE",
"9 c #8ABCFF",
"0 c #8BBCFF",
"q c #8ABDFF",
"w c #8BBDFF",
"e c #B2D2FF",
"r c #B2D3FF",
"t c #D1E5FE",
"y c #D0E5FF",
"u c #D1E5FF",
"i c #D9E9FE",
"p c #D8E8FF",
"a c #D9E8FF",
"s c #D8E9FF",
"d c #D9E9FF",
/* pixels */
"                                                                ",
"                              ,,:,                              ",
"                            ,,,dp,,,                            ",
"                          :,,dpdppp,,,                          ",
"                        ,:,pddddddddp,,,                        ",
"                      ,,,pddddddddddppp,,,                      ",
"                    ,,,ppppdddddddddddppp,,,                    ",
"                  ,,,pddppddddddddddddppppp,,,                  ",
"                ,,,ppdddddddddddddddddddddddd,,,                ",
"              :,,dppddddddddddddddddddddddddddp,,,              ",
"            ,,:ptdddddddddddddddddddddddddddddddp,,,            ",
"          ,,,pppdddddddtddddddddddddddddddddddudupp,,,          ",
"        ,,,dpppddddddddddddddddddddddddddddddtduppddd,,,        ",
"      ,,,dpdppudddddddddddddddddddddddtdddddddpdppddddp,,,      ",
"    ,,,dppddddddddddddtddddddddddpdddddddddddtddddddddpup,,:    ",
"  :,,dpddpddddddpddddddddddddddddddddddddddddddpddtddpppppp:,,  ",
",:,pppdddddddddddddtdddddddddpddddddddddddddddtddppdddddddppd,,,",
",p,,,pddddddddddddddddddddddddddddddddddddddtdddddddddddddpp,,,,",
":ppp,,,pppppdtdddddddddddddddddddtddddddddddddddddddddppdp,,:00:",
":ppppp,,,puudddddddddddddddddddddddddddddtdddddddddddppp,,,8000:",
",dddpddd,,,pddpptdttdddtddddddddddddddddddddddddddppdd,,:000000:",
",dddpddddd,,,ppuddddddddddddddddddddddddddddddddddpp,,,80000000:",
",pddddddddpp,,:pddddddddddddddddddddtdddddddppupdp,,,8880000000:",
",pdddddddddppp::,ddddddddtddddddddddddddddddpppp,,,88888000000+:",
",eppdddddddddddd,,,pppddddddddddddddddddpppddd,,:88888880088888,",
",8eedddd*pdddddapp,,,pddddddddddtdddddddppdd,,,8088888w88088822,",
",*wwrdppddddaaddpdpp,,,pddddddtdddtdddptpp::,888008888w8888+2X-:",
":4*4wpppddddddddddpppp,,,ddddddddddddddd:::088880088888w82$o*-+:",
":-&440a0rrpppddddddddddd,,,upppdddppdp,,:000000000008+8@o++*+++,",
":-&&-0048weedddaddddddddpp,,,pppdppp,,,800000000000082oO*XX*+++:",
":&e&-&0&5w88rrdad*ddddddpddd,,,pdd::,8880000000000012X===++.+++:",
":&&&&&&&**@-wwrrddddddddddddpp,,,,,8888800000000022+&&&++++X++e:",
":&&&&&&&&&&+4400rddpppppddddppp,,,000000888888w22.-&++++++r.+++,",
":+$$&&&e&&&+&&458ddrd**pdddddpp,:,000000888+822O--+++++++++.++o,",
":444+&&&&&&+&&&&8d88rraad5ddddp,::008800888+oo+o*+++++++++o+XX*,",
":44e4+$=&e&$&&&&w88@wwrrddddddp,::008000822X*=o**+++++e+++oe*--:",
":&&44$4$+&+&&e&&-&5@4488rrddppd,::0080022X==**+.+++++++++X&&*=+,",
":&&&4+454+4$&&&&-&&@4&45wwwrppd,::00822X==++#++o++e+++o+X&&++++,",
":&&&&+&&=$44$&&&&&&@&&--44@weep:::822X=&+++++++e++++oo*X*=+++++,",
":$$&&$&&=$554$$=&&&+&&&--44@8we:::2X=&&+++++e+#o++XX**=X=++++++:",
":44$$&&e=+&&4e5$+e-+***=&&+4440:,:&&=+++++++++X+XX&&=**O&+++++o,",
":4$44$+&*+&&4+444++-e*&&&&+&&&4:::&++++++++e+X=X=e&&=*+O&+++XX*,",
":5$44&&+++&=&+4&444++-&&e&e-&--:::++++++e++XX*&-=&&++&+O++XX&+=:",
":&$=&444-+&*&+&&--444++&&&+&&--:::+++++++oX+&&&-&++++++o+X==X++:",
":&+&&&&54*+$&+&&&&-4-4++$&$&&=&:::+++++Xo+=&&++++++++oo+o==+X++,",
":+&&=&==*444+&+-&&&&-4+44$+&&&&:::++++X&=X=*++++++++o+**++++X++,",
":&$+&&&&&*-444-++&&&&-+-464$$&&:::++oo&&+o*+++++++XX+*+++++++XX,",
":4&&$$&&&&---44+4++&&-+-&&&4&+$:::XX==&++o++++++oX+**++++++XX&&,",
":&&444+$+-&&&&4+445$$=$&&&&5$44:::-+-++++O++++.o**+++++++.o+*++,",
"::&&--44-+--&&-+444*4$$=&&&&$4&:::-++++++O++OO**o+++++ooO**o*+::",
" ,::---4+4++&&&+&-&&&&4$+&&&$&&:::++++++++oo*=++o++++X+-**+o:,: ",
"   :::--+--4++&+&&&&&&454++&&&&,::++++++OO&==$++o++oX*X+++,,:   ",
"     ,,::&*&44@-&&&&&&&&4$*$$=&::,+++++O++-++++++.o*+=o+:,,     ",
"        ::,--&44$$&&&&&&4$444+$:::+++...-++@++++.+*+++:,:       ",
"          ,::--444+$&&&&-+4-454::,+X.--.+@+@++XX+*++:,:         ",
"            :::-=$44+$&=*+=-&&5,:,X*--+.++++oX*-++,,:           ",
"              ,::+4-4-$$&+&-&&&:::-++++X+XXX+o++:,,             ",
"                :,:-4444++&-&&&:::++++++X-+++,,,:               ",
"                  :,:&&44-++&&&:::++++XX-++:,,                  ",
"                    ,::,&&44++-:::++oo*++::,                    ",
"                       ,::-44-+::,XX*X*,,:                      ",
"                         ,::4+-::,+-+,,,                        ",
"                           ,,:-:::+::,                          ",
"                             ::::::,                            "
};
