/* XPM */
static char *_11646851424[] = {
/* columns rows colors chars-per-pixel */
"64 64 7 1 ",
"  c None",
". c gray20",
"X c gray32",
"o c #7C7C7C",
"O c gray58",
"+ c #A5A5A5",
"@ c gray80",
/* pixels */
"                                                                ",
"                              XXXX                              ",
"                            XX@@+@XX                            ",
"                          XX@@++++++XX                          ",
"                        XX@@++++++++X@XX                        ",
"                      XX@@X@@+++++XX@@++XX                      ",
"                    XX@@@@@XX@++XX@@++++++XX                    ",
"                  XX@@+@@++++XXX@@++++++++++XX                  ",
"                XX@@@@+++++++++XX@@@++++++++X@XX                ",
"              XX@@X@@@@+@++++++++XX@++++++XX@@++XX              ",
"            XX@@@++XX@@@+++++++++++XX++XXX@@@@++++XX            ",
"          XX@@+++++++XX@@++++++++++++XX@@@@@++++++++XX          ",
"        XX@@@++++++++++XX@@@+++++++++++XX@++++++++++++XX        ",
"      XX@X@@+++++++++++++XXX@++++++++++++XX@++++++++++++XX      ",
"    XX@@@@XX@@++++++++++++++X@@++++++++++++XX@+++++++++++XXX    ",
"  XX@@++++++XX@@++++++++++XX@XX@@++++++++XX@@XX++++++++XX@@@XX  ",
"XX@@+++++++++@XX@@++++++XX+++@@XX@@+++++X@@++++XXX++XXX@@@++@@XX",
"X@@@+++++++XXX@+XX@@@+XX@+++++++@XX@@@XX@@++++++++XX@@@++++++++.",
"++@@@+++XXX@@+++++XX@X@@+++++++++++XXX@@+++++++++X@@X++++++++  o",
"o+++@@@X@@@+++++++++XX@@+++++++++++++XX@@+++++++X@@++XX++++  ooX",
"oooo++@o@@++++++++++++X@@@+++++++++++++XX@@@++XX@++++++X+  o.oXX",
"ooooo+X+@@@++++++++++++X@@@@@++++++++++++XX@XX@@++++++   oooo.XX",
"ooooo+X+++@@@+++++++++++XXXX@@+++++++++++++X@@@+++++   ooXXX.XXX",
"ooooo+Xoo+++@@@@++++++XX@@@@XX@@++++++++++++XXX@@++ oooXXXXXo.XX",
"Xoooo+Xooooo++@@++XXXX@@@++@@@XX@@+++++++++++++X@  oXXXXXXXXo.XX",
"+XXoo++Xoooooo++@o@@@@@++++++@@@XX@@+++++++++++ ooo.XXXXXXXXXo..",
"+o+XX+Xoooooooo+X+@@++++++++++++@@XX@@++++++   ooXXo.XXXXXXX..oo",
"++o++XXooooooo+Xo+++@@+++++++++++X@@XX@@++   ooXXXXo.XXXXXX.ooXX",
"ooo++o+XXooooo+Xooo+++@@+++++++XX@++@@X+   ooXXXXXXo.XXX.XXoXXXX",
"oooooo+++Xoooo+Xooooo+++@@++XXX@@@+++++XooooXXXXXXX.X...o..oXXXX",
"oooooooo++Xooo+Xooooooo+++@@+@@+++++  X.ooXXXXXXXXX...oooXX.XXXX",
"ooooooooooXoXXXooooooooooo+++@++++  ooo.XXXXXXXXXX.XoooXXXX.XXXX",
"XooooooooooX+++XXooooooooo+X++@@  oooXXo.XXXXXXX..ooXXXXXXX.XXXX",
"+XXXoooooooXoo+++XXoooooo+Xoo+++ ooXXXXo.XXXXXX.ooXXXXXXXXX.XX..",
"++++XooooooXooooo++oXoooo+XoooooOXXXXXXX.XXX..X.oXXXXXXXXX.X..oo",
"o++++XXooooXoooooo+X+XXoo+XooooooXXXXXX.XX..oo.ooXXXXXXXXX..oooX",
"ooo++X+XXoXooooooo+X+++XX+XooooooXXXXXX...ooooX.XXXXXXXXX.ooooXX",
"oooo+X+++X+XoooooooX+o+++XoooooooXXXXX..ooXXXXX.XXXXXX.X.ooXXXXX",
"XooooXoooX++XooooooXoooo++XoXoooXXXX..ooXXXXXXX.XXXX..o.ooXXXXXX",
"+XXooXoooX+++XXooooXooooo++X+XXooX..oooXXXXXXXX.XX..ooo.oXXXXXXX",
"+++XXooooXoo+X+XXooXooooooX++++XO.oooXXXXXXXXX.X..ooooo.oXXXXX..",
"o+X++XXooXoo+X+++XXoXoooooXooo++OooXXXXXXXXXX.o.ooooooX.oXXX..oo",
"o+X++ooXXXoooX+o+++XXoooooXooooXOoXXXXXXXXX..ooooooXXoX.XX..oXoX",
"ooXoo+++oXoooXoooo+++XXoooXoooooOXXXXXXXX..XoooooXXXXXX.X.oo.XXX",
"ooXoooo++oXXoXooooo+o+XXXoXoooooXXXXXXX..XoooXXXXXXXX..X.ooX.XXX",
"XXooooooo+++XoXoooooo+X++XXooooooXXXXX.oo.ooXXXXXXXX.XooXXXX.XX.",
"+oXXooooooo+++oXXoooooXo+++XXooooXXX..ooX.oXXXXXXX..XoXXXXXXX..o",
"o+ooXXooooooo++X+XXoooXoooo+oXXoXX..oooXX.XXXXXX..XooXXXXXX..ooX",
"ooo+++XXXooooo+X+++XXoXoooo+X++XO.oXoXXXX.XXXX..ooXXXXXXX..XoXXX",
"XXoooo++oXoooooX+++o+XXoooooX+o+OooXXXXXX.XX..oo.XXXXX...oo.oXX.",
" oXXooo+X+XXoooXoooooo+XXoooXoooOoXXXXXXXX..ooXX.XXXX.XoooX.X.. ",
"   oXXooXoo+XXoXoooooo+++XXoooooXXXXXXXX..oooXXX.XX..o.XXXX..   ",
"     oXXXooo++Xooooooooo+XoXXooooXXXXXX.XXoXXXXXX..oXo.XX..     ",
"        XXoooo++XXoooooo+X+++XXoXXXXX...oXXXXXXX.XoXXX...       ",
"          XXooo+++XXoooooX+o+++XoXX..oo.XXXXXX..XoXXX..         ",
"            XXoooX++XXoooXoooo++O..oooX.XXXX..ooXXX..           ",
"              XXXX+o+oXXoXooooooOooXXXX.X...X.XXX..             ",
"                XXXo++++XXooooooooXXXXXX.oXXX....               ",
"                  XXooo++oXXoooooXXXXX..oXXX..                  ",
"                    XXXooo++XXoooXXX..oXXX..                    ",
"                       XXoo++oXXOX..o.oX..                      ",
"                         XXo+XooX.XoX...                        ",
"                           XXXooOoXX..                          ",
"                             XXXX...                            "
};
