/* XPM */
static char *_1_h1646852822[] = {
/* columns rows colors chars-per-pixel */
"64 64 27 1 ",
"  c None",
". c #333332",
"X c #333233",
"o c #323333",
"O c gray20",
"+ c gray32",
"@ c #535252",
"# c #525352",
"$ c #525253",
"% c #7C7C7C",
"& c #7D7C7C",
"* c #7C7D7C",
"= c #7C7C7D",
"- c #FE3434",
"; c #FF3434",
": c #FE3534",
"> c #FF3534",
", c #FF3435",
"< c #A5A5A4",
"1 c #A5A4A5",
"2 c #A4A5A5",
"3 c #A5A5A5",
"4 c gray80",
"5 c #CDCCCC",
"6 c #CCCDCC",
"7 c #CDCDCC",
"8 c #CCCCCD",
/* pixels */
"                                                                ",
"                              ;;;;                              ",
"                            ;;;43;;;                            ",
"                          ;;;433332;;;                          ",
"                        ;;;433333333+;;;                        ",
"                      ;-;6+4433133++643;;;                      ",
"                    ;;-5644++433++6633333;;;                    ",
"                  ;;;63443333+++46333333333;;;                  ",
"                ---556333333333++44433333333+;;;                ",
"              ;;-4+54443433333333++4333333++443;;;              ",
"            ;;;6433++44433323333333++33+++4444333;;;            ",
"          ;;;63333333++44333333331331++544443333333;;;          ",
"        ;;;6433331<3333++44433333333333++433333133333;;;        ",
"      ;;;+443333333333333+++4333333333333++433333333333;;;      ",
"    ;;;444++4433333333333333+44233333333333++433333333333;;;    ",
"  ;;;4333333++44333333<133++4++4413333333++44++33333333++66;;;  ",
";;-53333333334++44333333++33344++4433333+443333+#+33+++444336;;;",
";6---333233+++43++4443++433333334++444++6433333333+#46433333;;;;",
";364---3+++4433333++4+4433333333333+++44333333333+56+33333;;;  ;",
";33355--;44333333333++643333333333333++443333333+4633++3;;;  %%;",
";%%%335%;;;33333333333+4443333333333333++44433++433333;;;  %O%$;",
";%%%%3+344;;-3333333333+44444333333333333++4++443333;;;  %%%%O$;",
";%%%%3+33345---333333333++++443333333333333+446333;;;  %%+++O++;",
";%%%%3+%%33355--;33333++4444++44333333333333+++6;;; %%%+++++%O+;",
";%%%%3+%%%%%2366;;;+++44433444++44333333333333;;;  %++++++++%O+;",
";++%%33+%%%%%%334%;;;44333333444++4433333333;;; %%%O+++++++++%O;",
"-%3++3+%%&%%%%%3+344;;;33333333346++443333;;;  %%++%O+++++++OO%;",
"-3%33++%%%%%%%3+%33344;;;33333333+44++44;;;  %%$+++%O++++++O%%+;",
"-%%33%3++%%%%%3+%%%33364;;;3333++43344;;;  %%++++++%O+++O++%+++;",
"-%%%%%333+%%%%3+%%%%%33344;;;++64433;;;+%%%%+++++++O$OOO%OO%$++;",
"-%%%%&&%33+%%%3+%%%%%%%33344;;;333;;; +O%%++@++++++OOO%%%++O+++;",
"-%%%%&%%%%+%+++%%%%%%%%%%%3334;;;;; %%%O++++++++++O+%%%++++O+++;",
";%%%%%%%%%%+333++%%%%%%%%%3+334;;;%%%++%O+++++++OO%%+++++++O+++;",
";+++%%%%%%%+%%333++%%%%%%3+%%33;;;%++++%O++++++O%%+++++++++O++O;",
";333#%%%%%%+%%%%%33%#%%%%3#%%%%;;;$+++++O+++OO+O%+++++++++O+OO%;",
";3333++%%%%+%%%%%%3+3++%%3#%%%%;;;$++++O++OO%%O%%+++++++++OO%%%;",
";%%33+3++%+%%%%%%%3+333++3+%%%%;;;+++++OOO%%%%+O+++++++++O%%%%+;",
";%%%3+333+3+%%%%%%%+3%333+%%%%%;;;++++OO%%+++++O++++++O+O%%++++;",
";%%%%$%%%+33+%%%%%%+%%%%33+%+%%;;;++OO%%+++++++O++++OO%O%%+++++;",
";++%%+%%%+333++%%%%+%%%%%33+3+#;;;OO%%%++++++++O++OO%%%O%++++$+;",
";33++%%%%+%%3+3++%%+%%%%%%+3333;;;%%%+++++++++O$OO%%%%%O%+++++O;",
";3+33++%%+%%3+333++%+%%%%%+%%%3;;;%++++++++++O%O%%%%%%+O%+++OO%;",
";3+33%%+#+%%%+3%333++%%%%%+%%%%;;;++++$++++OO%%%%%%++%+O++OO%+%;",
";%+%%333%+%%%$%%%%332+$%%%+%%%%;;;+++++++OO+%%%%%++++++O+O%%O++;",
";%+%%%%33%++%+%%%%%3%3+++%$%%%%;;;+++++OO$%%%++++++++OO+O%%+O++;",
";+%%%%%%%333+%+%%%%%%3+33++%%%%;;;++++O%%O%%++++++++O+%%++++O++;",
";%++%%%%%%%333%+#%%%%%+%333++%%;;;++OO%%+O%+++++++OO+%+++++++OO;",
";3%%++%%%%%%%33+3#+%%%+%%%%3%$+;;;OO%%%++O++++++OO+%%++++++OO%%;",
";%%333$++%%%%%3$333++%+%%%%3+33;;;%+%+@$+O++++OO%%+++++++OO#%++;",
";;%%%%33%+%%%%%$333%3++%%%%%+3%;;;%++++++O++OO%%O+++++OOO%%O%+;;",
" ;;;%%%3+3++%%%+%%%%%%3+$%%%#%%;;;++++++++OO%%++O++#+O+%%%+O;;; ",
"   ;;;%%+%%3++%+%%%%%%333+#%%%%;;;++++++OO%%%++#O++OO%O++$;;;   ",
"     ;;;;%%%33+%%%%%%%%%3+%++%%;;;#++++O++%$+++++OO%+%O+;;;     ",
"        ;;;%%%33++%%%%%%3+333++;;;+++ooO%+++++++O+%+++;;;       ",
"          ;;;%%333+$%%%%%+3%333;;;+OO%%O++++++OO+%++;;;         ",
"            ;;;%%+33++%%%+%%%%3;;;O%%%+O++++OO%%++;;;           ",
"              ;;;+3%3%#+%+%%%%%;;;%++++O+OOO+O++;;;             ",
"                ;;;%3333$$%%%%%;;;+++$++O%+++;;;;               ",
"                  ;;;%%33%++%%%;;;++++OO%+#;;;                  ",
"                    ;;;;%%33+$%;;;++OO%++;;;                    ",
"                       ;;;%33%$;;;OO%O%;;;                      ",
"                         ;;;3$%;;;+%+;;;                        ",
"                           ;;;%;;;+;;;                          ",
"                             ;;;;;;;                            "
};
