/* XPM */
static char *_3_h1646852822[] = {
/* columns rows colors chars-per-pixel */
"64 64 44 1 ",
"  c None",
". c #333332",
"X c #333233",
"o c #323333",
"O c gray20",
"+ c #234A18",
"@ c gray32",
"# c #535252",
"$ c #525352",
"% c #525253",
"& c gray36",
"* c #5D5C5C",
"= c #7C7C7C",
"- c #7D7C7C",
"; c #7C7D7C",
": c #7C7C7D",
"> c #FE3434",
", c #FF3434",
"< c #FE3534",
"1 c #FF3534",
"2 c #FF3435",
"3 c #008300",
"4 c #008301",
"5 c #29AC10",
"6 c #28AD10",
"7 c #29AD10",
"8 c #29AD11",
"9 c #52D620",
"0 c #53D620",
"q c #52D720",
"w c #52D621",
"e c #53D621",
"r c #7BFE30",
"t c #7AFF30",
"y c #7BFF30",
"u c #7BFF31",
"i c #D1F270",
"p c gray58",
"a c #959494",
"s c #949594",
"d c #A5A5A4",
"f c #A5A4A5",
"g c #A4A5A5",
"h c #A5A5A5",
/* pixels */
"                                                                ",
"                              ,,,2                              ",
"                            ,,,99,,2                            ",
"                          ,,,999999,,,                          ",
"                        ,2,9999999999,,,                        ",
"                      ,,,9999999999999q,,,                      ",
"                    ,,,999999999999999999,,,                    ",
"                  ,,,yyyy9999999e99q999yyyy,,,                  ",
"                ,,,yyyyyyyy9999999q99uyyyyyyy,,,                ",
"              ,,,yyyyyyiyyyyy999999uyyyyyyyyyyr,,,              ",
"            ,,,yyyyyyyyyyyyyyyy9qyuuyyyyyyyyyyyyy,,,            ",
"          ,,,yyyyyyyyyyyuyyyiyyyyyuuyyyyyiyyyyyyyyy,,,          ",
"        ,,,99yyyyiyyyyyyyuyyyyy9qyyyyyyyyyyyyyyyyyy99,,,        ",
"      ,,,999999yyyyyyyyyyyyyy999qq9yyyyyyyyyyyyuy999999,,,      ",
"    ,,,999999999wyyyyyyyyyy99999q99q9yuyyyyyyyy9999999999,,,    ",
"  ,,,99999999999999yyyiyy99999999990999yyyyyy99999999999999,,,  ",
",,,999999999999999999yy9999999999999qqqq9yyq9qqq9999999999q99,,,",
",9,,,99999999999999yyyyyy99999999099qqqryyyyiqqq99999999999y,,,,",
",999,,,q999999999yyyyyyyyyy9999999999yrryyyyyyrq999999999y,,,58,",
",99999,,,999999yyyyyyyyyyyyyyw99999yuyrryyyyyrrry9999q9y,,,8558,",
",9999999,,,99yyyyyyyyyyyuyyyyyy99rrrrrrryyyrrrrryyrqqr,,,777577,",
",999999999,,,yyyyiyyyyyyyyyyyyyyyyrrrrrryyrrrrrryyrr,,,77777777<",
",99999999999,,,yyyyyyyyyiyuyyyy9qrrrrrrrrrrrrrrryy,,,5557777777,",
",9999999999999,,,yyyyyyyyyyyy999qqqrrrrrrrrrrrrr,,,885557777777,",
",899qqq999999999,,,yyyyyyyyw9999qq999yyyiyyyyy,,,77777777777773,",
",s88qqq99q99999999,,,uyyy9999999qq99999yyyyy,,,577777775777733+,",
",=ss5599999999999999,,,99999999999999999qy,,,885777777557733+&&,",
",g=gaa8899999999999999,,,999999w9999999y,1,788857777775533+&&;$,",
",==gg=aa55qqqq9999999999,2,999w9qqqq9r,,,777777777775544+&&;$@@,",
",=====ggpp55qqqq9999999999,,,999qqqr,,,577777777777744+&&OO;@@@,",
",=======fgap55qq999999999999,,,9qr,,,555777777777733+&*;;@@O@$@,",
",=========@=pp5599999999999999,,,,,855557777777733+&*==@@@$O@@@,",
",=;;======;@ggaa86qq99qqq999999,,,55577755577733+&&;@@@@@@@O@%@,",
",###=======@==ggpp5599qq9999999,,,555577557733+&&;@@@@@@@@@O@@O,",
",gff#=;====#=====gpp55qq9999999,,,5577775544+&&O;@@@@@@@@@O@OO=,",
",gggg##;===#=====-f@aa55999999q,,,85777744+&&;o;;@@@@@@@@@OO===,",
",==gg#g#@=@=====:=g@ggaa55qqqq9,,,557733+&&:==@O#@@@@@@@@O====@,",
",===g@gfg#g@=======@g=ggpp55qq9,,,5833+&*;@@@@@O@@@@@@O@O==@@@@,",
",====@==;#gg#======@===-ggpp889,,,83+&&;@@%@@%@O@@@@OO=O==%@@@@,",
",@@==#==;#ffg##;===@===--gf@aa8,,,3&&;;$@@@@@@@O@@OO;==O=@@@@@@,",
",gg#@====@==g#f#@==@======@ggga,,,&;;@@@@@@@@@O@OO=====O=@@@@@O,",
",g@gg#@==@==g@ggg@#=@=====@===g,,,;$@@@@@%@@@O;O=====;%O=@%@OO;,",
",g@gf==@#@=;=#g=ggg#@;====%==-=,,,@@@@@@@@@OO======@@=@O@@OO;@;,",
",=@=;ggg;#=;=#;===ggg@@===@====,,,@@@@@@@OO@===;=@@@@@@O@O==O@%,",
",=@====ff;##=@=====f=g###=#====,,,@@@@@OO@===@@@@@@@@OO@O==@O@@,",
",%=====;-fgf@=@======g#gg#@====,,,@@@@O==O==@@@@@@@@O@==@@@@O@%,",
",=#@======;fgg=#@=====#=ggg@@==,,,@@oO;=@O=@@@@@@@OO@=@@@@@@@OO,",
",g==##=======gg#g@@===@====g=@@,,,oo;;;@@O@@@@@@OO@==@@@@@@OO==,",
",==ggg%##=====g#gff##;#====g@gg,,,-@-@@@@O@@@@OO==@@@@@%@OO@=@@,",
",,====gg=%=====%ggf;g##;====@g=,,,=@@#@@@O@@OO=;O@@@@@OOO=:O=@,,",
" ,,,===g#g##===@====;=g#@===@=;,,,@@@@@@@@OO==@@O@@@@O@;::@O,,, ",
"   ,,,=;@==g@@=@======gfg@#===;,,,@@@@@@OO===@@@O@@OO=O%@@,,,   ",
"     ,,,,===gg#=========g#=##=;,,,@@@@@O@@=@@@@@@OO=@=O%,,,     ",
"        ,,,;==gg##;=====g#ggg#@,,,@@@OOO=@@@@@@@O@=@@@,,,       ",
"          ,,,==ggg%#=====@g=ggf,,,@OO==O@@@@@@OO@=@@,,,         ",
"            ,,,==#gg@@=;=#;;==f,,,O;==@O@@@@OO=;%@,,,           ",
"              ,,,@g;g=#@=@=====,,,:@@@@O@OOO@O@@,,,             ",
"                ,,,;gggg@@=====,,,@@@@@@O=@@@,,,,               ",
"                  ,,,==gg=@@===,,,@@@@OO;@@,,,                  ",
"                    ,,,,==fg@@=,,,@@OO:@@,,,                    ",
"                       ,,,;fg;@,,,OO=O=,,,                      ",
"                         ,,,g@=,,,@;@,,,                        ",
"                           ,,,:,,,@,,,                          ",
"                             ,,,,,,,                            "
};
