/* XPM */
static char *_41646851424[] = {
/* columns rows colors chars-per-pixel */
"64 64 15 1 ",
"  c None",
". c gray20",
"X c #234A18",
"o c gray32",
"O c gray36",
"+ c #7C7C7C",
"@ c #008300",
"# c #29AD10",
"$ c #51FF00",
"% c #52D620",
"& c #7BFF30",
"* c #B3F270",
"= c #D1F270",
"- c gray58",
"; c #A5A5A5",
/* pixels */
"                                                                ",
"                              &&&&                              ",
"                            &&&&&&&&                            ",
"                          &&&&&&&&&&&&                          ",
"                        &&&&&&&&&&&&&&&&                        ",
"                      &&&&&&&&&&=&&&&&&&&&                      ",
"                    &&&&&&&&&&&&&&&&&&&&&&&&                    ",
"                  &&&&&&&&&&&&&&&&&&&&&&&&&&&&                  ",
"                &&&&&&&&&&&&&&&&&&&&&&&&&&&&&&&&                ",
"              &&&&&&&&&=&&&&&&&&&&&&&&&&&&&&&&&&&&              ",
"            &&&&&&&&&&&&&&&&&&&&&&&&&&&&&&&&&&&&&&&&            ",
"          &&&&&&&&&&&&&&&&&&=&&&&&&&&&&&&=&&&&&&&&&&&&          ",
"        &&&&&&&&&=&&&&&&&&&&&&&&&&&&&&&&&&&&&&&&&&&&&&&&        ",
"      &&&&&&&&&&&&&&&&&&&&&&&&&&&&&&&&&&&&&&&&&&&&&&&&&&&&      ",
"    &&&&&&&&&&&&&&&&&&&&&&&&&&&&&&&&&&&&&&&&&&&&&&&&&&&&&&&&    ",
"  &&&&&&&&&&&&&&&&&&&&=&&&&&&&&&&&&&&&&&&&&&&&&&&&&&&&&&&&&&&&  ",
"&&&&&&&&&&&&&&&&&&&&&&&&&&&&&&&&&&&&&&&&&&&&&&&&&&&&&&&&&&&&&&&&",
"%%&&&&&&&&&&&&=&&&&&&&&&&&&&&*&&&&&&&&&&&&&&=&&&=&&&&&&&&&&&&&&#",
"%%%%&&&&&&&&&&&&&&&&&&&&&&&&&&&&&&&&=&&&&&&&&&&&&&&&&&&&&&&&&###",
"%%%%%%&&&&&&&&&&&&&&&&&&&&&&&&&&&&&&&&&&&&&&&&&&&&&&&&&&&&&#####",
"%%%%%%%%&&&&&&&&&&&&&&&&&&&&&&&&&&&&&&&&&&&&&&&&&&&&&&&&&#######",
"%%%%%%%%%%&&&&&&&=&&&&&&&&&&&&&&&&&&&&&&&&&&&&&&&&&&&&&#########",
"%%%%%%%%%%%%&&&&&&&&&&&&=&&&&&&&&&&&&&&&&&&&&&&&&&&&&###########",
"%%%%%%%%%%%%%%&&&&&&&&&&&&&&&&&&&&&&&&&&&&&&&&&&&&&#############",
"##%%%%%%%%%%%%%%&&&&&&&&&&&&&&&&&&&&&&&&=&&&&&&&&#############@@",
"--##%%%%%%%%%%%%%%&&&&&&&&&&&&&&&&&&&&&&&&&&&&&#############@@XO",
";+--##%%%%%%%%%%%%%%&&&&&&&&&&&&=&&&&&&&&&&&&#############@@XOO+",
";;+;--##%%%%%%%%%%%%%%&&&&&&&&&&&&&&&&&&&&&#############@@XOO+oo",
"+++;;+--##%%%%%%%%%%%%%%&&&&&&&&&&&&&&&&&#############@@XOO+oooo",
"++++++;;--##%%%%%%%%%%%%%%&&&&&&&&&&&&&#############@@XOO..+oooo",
"++++++++;;--##%%%%%%%%%%%%%%&&&&&&&&&#############@@XOO++oo.oooo",
"++++++++++o+--##%%%%%%%%%%%%%%&&&&&#############@@XOO++oooo.oooo",
"o++++++++++o;;--##%%%%%%%%%%%%%%$#############@@XOO+ooooooo.oooo",
";ooo+++++++o++;;--##%%%%%%%%%%%%$###########@@XOO+ooooooooo.oo..",
";;;;o++++++o+++++;--##%%%%%%%%%%$#########@@XOO.+ooooooooo.o..++",
"+;;;;oo++++o++++++;o--##%%%%%%%%$#######@@XOO+.++ooooooooo..+++o",
"+++;;o;oo+o+++++++;o;;--##%%%%%%$#####@@XOO+++o.ooooooooo.++++oo",
"++++;o;;;o;o+++++++o;+;;--##%%%%$###@@XOO+ooooo.oooooo.o.++ooooo",
"o++++o+++o;;o++++++o++++;;--##%%$##@XOO+ooooooo.oooo..+.++oooooo",
";oo++o+++o;;;oo++++o+++++;;o--##$@@OO++oooooooo.oo..+++.+ooooooo",
";;;oo++++o++;o;oo++o++++++o;;;---OO++ooooooooo.o..+++++.+ooooo..",
"+;o;;oo++o++;o;;;oo+o+++++o+++;;-++oooooooooo.+.++++++o.+ooo..++",
"+;o;;++ooo+++o;+;;;oo+++++o++++o-+ooooooooo..++++++oo+o.oo..+o+o",
"++o++;;;+o+++o++++;;;oo+++o+++++-oooooooo..o+++++oooooo.o.++.ooo",
"++o++++;;+oo+o+++++;+;ooo+o+++++ooooooo..o+++oooooooo..o.++o.ooo",
"oo+++++++;;;o+o++++++;o;;oo++++++ooooo.++.++oooooooo.o++oooo.oo.",
";+oo+++++++;;;+oo+++++o+;;;oo++++ooo..++o.+ooooooo..o+ooooooo..+",
"+;++oo+++++++;;o;oo+++o++++;+oo+oo..+++oo.oooooo..o++oooooo..++o",
"+++;;;ooo+++++;o;;;oo+o++++;o;;o-.+o+oooo.oooo..++ooooooo..o+ooo",
"oo++++;;+o+++++o;;;+;oo+++++o;+;-++oooooo.oo..++.ooooo...++.+oo.",
" +oo+++;o;oo+++o++++++;oo+++o+++-+oooooooo..++oo.oooo.o+++o.o.. ",
"   +oo++o++;oo+o++++++;;;oo+++++oooooooo..+++ooo.oo..+.oooo..   ",
"     +ooo+++;;o+++++++++;o+oo++++oooooo.oo+oooooo..+o+.oo..     ",
"        oo++++;;oo++++++;o;;;oo+ooooo...+ooooooo.o+ooo...       ",
"          oo+++;;;oo+++++o;+;;;o+oo..++.oooooo..o+ooo..         ",
"            oo+++o;;oo+++o++++;;-..+++o.oooo..++ooo..           ",
"              oooo;+;+oo+o++++++-++oooo.o...o.ooo..             ",
"                ooo+;;;;oo++++++++oooooo.+ooo....               ",
"                  oo+++;;+oo+++++ooooo..+ooo..                  ",
"                    ooo+++;;oo+++ooo..+ooo..                    ",
"                       oo++;;+oo-o..+.+o..                      ",
"                         oo+;o++o.o+o...                        ",
"                           ooo++-+oo..                          ",
"                             oooo...                            "
};
