/* XPM */
static char *_4_h1646852823[] = {
/* columns rows colors chars-per-pixel */
"64 64 51 1 ",
"  c None",
". c #333332",
"X c #333233",
"o c #323333",
"O c gray20",
"+ c #224A18",
"@ c #234A18",
"# c #234B18",
"$ c gray32",
"% c #535252",
"& c #525352",
"* c #525253",
"= c gray36",
"- c #5D5C5C",
"; c #7C7C7C",
": c #7D7C7C",
"> c #7C7D7C",
", c #7D7D7C",
"< c #7C7C7D",
"1 c #7D7C7D",
"2 c #FE3434",
"3 c #FF3434",
"4 c #FF3534",
"5 c #FF3435",
"6 c #008200",
"7 c #008300",
"8 c #018300",
"9 c #008301",
"0 c #29AC10",
"q c #28AD10",
"w c #29AD10",
"e c #29AC11",
"r c #29AD11",
"t c #52D620",
"y c #53D620",
"u c #52D720",
"i c #53D720",
"p c #52D621",
"a c #7BFE30",
"s c #7AFF30",
"d c #7BFF30",
"f c #7AFF31",
"g c #7BFF31",
"h c #B3F270",
"j c #D1F270",
"k c gray58",
"l c #949595",
"z c #A5A5A4",
"x c #A5A4A5",
"c c #A4A5A5",
"v c #A5A5A5",
/* pixels */
"                                                                ",
"                              3333                              ",
"                            333dd333                            ",
"                          333dddddd333                          ",
"                        353dddddddddd333                        ",
"                      333daaddddjdddddd333                      ",
"                    333ddddaddddddddddddd333                    ",
"                  333daadddfddddddddddddddd333                  ",
"                222aaaaadaddddddddddddddddddd333                ",
"              332aaaaaajddddddddddddddddddfdddd333              ",
"            333dddddaaaaddddddddddddfdddaaaaddddd333            ",
"          333dddddddaagadaddjdddddddddddajaaddddddd333          ",
"        333ddddddjdddfddddddddddddddddddaaaaaaddddddd333        ",
"      333ddddddddddaddddddddddddddddddddaaaaaaddddddddd335      ",
"    333dddddddddddddddddddddddadddddddddaaaaagadddddddagd333    ",
"  333dddddddddddddddddjdddddddddddddddddaaaaaaaddddddddgafd333  ",
"333dddddddddddddddddddddddddddddddddddddddddddddddddddddddddd333",
"3t333dddddddddjddddddddddddddhddddddddddddddjdddjddddddddddd3333",
"3ttt333dddaaddddddddddddddddddddddddjddddddddddddddddddddd332qq3",
"3ttttt333aaadddddddddddddddddddddddddddddddddddddddddddd333qqqq3",
"3ttttttt222adddddddddddddddddddddddddddddddddddddddddd333wr0qqr2",
"3ttttttttt222ddddjdddddddddddddddddddddddddddddddddd333rw000qeq2",
"3ttttttttttt222dddddddddjdddddddddddddddddddddddda335qqrww00rqq2",
"3ttttttttttttt222ddddddddddddddddddddddddddddddd223qqqqrwwrrrqq2",
"3qttiitttttttttt222addddddddddddddddddddjddddd333www00rqwwqqqq83",
"3kqqiitttttttttttt223adddddddddddddddddddddd333rwwww000qwwqq88#3",
"3<kkwwiitttttttttttt222dddddddddjddddddddd333qqrwwwwwwqqww88#==3",
"3v<vkkwwtttttttttttttt233ddddddddddddddd333wqqqqww0rwwqq88#==<$3",
"3;;vv;kkqqiiittttttttttt333dddddaaaadd223www00rrwwwwqq86+==;$$$3",
"3;;;;;vvkkwqtttttttttttttt333dddaaaa222qwwwww0rqwwww88#==OO<$$$3",
"3;;;;;;;xxkkqqtitttttttttttt333daa222rqqwwwwwwqqqq88+==;;$$O$$$3",
"3;;;;;;;;;$;kkq0tttytttttttttt33332qqrqqwwwwwwqq88#==;;$$$$O$$$3",
"3;;;;;;;;;;$vvkk0ettttttttttttt233rrr00wqqr00w88#==;$$$$$$$O$$$3",
"3$$$;;;;;;;$;<vvkkqqtttittttttt233rqr00wqqr088#==<$$%$$$$$$O$$O3",
"3vvv$;<;;;;$;;;;;vkkqqiittttiti233qqwwwwqq88#==.<$$$$$$$$$O$.o<3",
"3vvvv$$;;;;$;;;;;;x*kkwwtttttti233qqwwww86#==<.<;$$$$$$$$$OO<<<3",
"3;;vv$v$$;$;;;;;;;v$vvkk0eiiiit233qqww88@==<<<$O$%$$$$$%$O<<;;$3",
"3;;;v$vvv$v$;;;;;;;$v;vvkkqqiit233qq88#==<$$$$$O$$$$$$.$O;<$$$$3",
"3;;;;$;;;$vv$;;;;;;$;;;;vvkkwwi333q8#==<$$$$$$$O$$$$..<.;;$$$$$3",
"3$$;;$;;;$vvv$$;;;;$;;;;;xx$kkw3338==;;&$$$$$$$.$$..<<<.;$$$$$$3",
"3vv$$;;;;$;;v$v$$;;$;;;;;;$vvvk333=<;$$$$$$$$$.$..;;;<<O;$$%$$O3",
"3v$vv$$;;$;;v$vvv$$;$;;;;;$;;;v333;&$$$$$$$$$.<.<;;;;<$O;$$&..<3",
"3v$vv;;$$$;;;$v;vvv$$;;;;;$;;;;333$$$$$$$$$..<;;<;;$$;$.$$O.<$<3",
"3;$;;vvv;$;;;$;;;;vvv$$;;;$<;;;333$$$$$$$..$;;;<;$$$$$$.$O;;O$&3",
"2;$;;;;vv;$$;$;;;;;v;v$$$;$;;;;333$$$$$oO$;;;$$$$$$$$..$O;;$O$$3",
"2$;;;;;;;vvv$;$;;;;<;v$vz$$;;;;333$$$$o;<O<<$$$$$$$$.$<<$$$$O$$3",
"2;$$;;;;<<;vvv;$$;;;;;$;vvv$&;;333$$Oo<;$O<$$$$$$$..$;$$$$$$$OO3",
"2z;;$%;;;;;;;vv$v$$;;;$;;;;v;&$333OO>>;$*.$$$$$$O.$<;$$$$$$OO;<3",
"2;;vvv$$$;;;;;v$vvv&$;$;;;;v$vv333<$<$$$$O$&$$OO<<$$$$$$$OO$;$$3",
"22;;;;vv;$;;;;;$vvv;z%$;;;;;$v;333;$$$$$$O$$OO;;.$$$$$OOO;;O;$33",
" 322<;<v$v$$;;;$;;;;;;v$&;;;$;;333$$$$$$$$OO<;$$O$$$$O$<;;$O333 ",
"   233;<$;;v$$;$;;;;<;vvv$&;;;;333$$$$$$OO;;;$$$O$$.O;O$$$333   ",
"     3333;;;vv$;;;;;;;;;v$;$$;<333&&$$$O$$;$$$$$$OO<$;O&333     ",
"        333<;;vv$$;;;;;;v$vvv$$333$$$O..;$$$$&$$O$<$$$333       ",
"          333;;vvv$$;;<;;$v;vvv333$oO;<O$$$$$$OO$<$$333         ",
"            333;;$vv$$;;;$;;;;v333.<;;$O$$$$OO;<$$333           ",
"              333$v;v<$$;$;;;;;333<$$$$O$OOO$O$$333             ",
"                333<vvvv$$;;;;;333$$$$$$O;$$$3333               ",
"                  333;;vv;$$;;<333$$$$OO<$$333                  ",
"                    3333;;vv$$<333$$O.<$$333                    ",
"                       333<vv<$333.o<o<333                      ",
"                         333v$<333$<$333                        ",
"                           333<333$333                          ",
"                             3333333                            "
};
