/* XPM */
static char *_61646851424[] = {
/* columns rows colors chars-per-pixel */
"64 64 5 1 ",
"  c None",
". c #BA5C07",
"X c #DD8535",
"o c #FFAD63",
"O c #FFCFA5",
/* pixels */
"                                                                ",
"                              OOOO                              ",
"                            OOOOOOOO                            ",
"                          OOOOOOOOOOOO                          ",
"                        OOOOOOOOOOOOOOOO                        ",
"                      OOOOOOOOOOOOOOOOOOOO                      ",
"                    OOOOOOOOOOOOOOOOOOOOOOOO                    ",
"                  OOOOOOOOOOOOOOOOOOOOOOOOOOOO                  ",
"                OOOOOOOOOOOOOOOOOOOOOOOOOOOOOOOO                ",
"              OOOOOOOOOOOOOOOOOOOOOOOOOOOOOOOOOOOO              ",
"            OOOOOOOOOOOOOOOOOOOOOOOOOOOOOOOOOOOOOOOO            ",
"          OOOOOOOOOOOOOOOOOOOOOOOOOOOOOOOOOOOOOOOOOOOO          ",
"        OOOOOOOOOOOOOOOOOOOOOOOOOOOOOOOOOOOOOOOOOOOOOOOO        ",
"      OOOOOOOOOOOOOOOOOOOOOOOOOOOOOOOOOOOOOOOOOOOOOOOOOOOO      ",
"    OOOOOOOOOOOOOOOOOOOOOOOOOOOOOOOOOOOOOOOOOOOOOOOOOOOOOOOO    ",
"  OOOOOOOOOOOOOOOOOOOOOOOOOOOOOOOOOOOOOOOOOOOOOOOOOOOOOOOOOOOO  ",
"OOOOOOOOOOOOOOOOOOOOOOOOOOOOOOOOOOOOOOOOOOOOOOOOOOOOOOOOOOOOOOOO",
"XXOOOOOOOOOOOOOOOOOOOOOOOOOOOOOOOOOOOOOOOOOOOOOOOOOOOOOOOOOOOOO.",
"XXXXOOOOOOOOOOOOOOOOOOOOOOOOOOOOOOOOOOOOOOOOOOOOOOOOOOOOOOOOO...",
"XXXXXXOOOOOOOOOOOOOOOOOOOOOOOOOOOOOOOOOOOOOOOOOOOOOOOOOOOOO.....",
"XXXXXXXXOOOOOOOOOOOOOOOOOOOOOOOOOOOOOOOOOOOOOOOOOOOOOOOOO.......",
"XXXXXXXXXXOOOOOOOOOOOOOOOOOOOOOOOOOOOOOOOOOOOOOOOOOOOOO.........",
"XXXXXXXXXXXXOOOOOOOOOOOOOOOOOOOOOOOOOOOOOOOOOOOOOOOOO...........",
"XXXXXXXXXXXXXXOOOOOOOOOOOOOOOOOOOOOOOOOOOOOOOOOOOOO.............",
"XXXXXXXXXXXXXXXXOOOOOOOOOOOOOOOOOOOOOOOOOOOOOOOOO...............",
".XXXXXXXXXXXXXXXXXOOOOOOOOOOOOOOOOOOOOOOOOOOOOO.................",
"X..XXXXXXXXXXXXXXXXXOOOOOOOOOOOOOOOOOOOOOOOOO.................XX",
"XXX..XXXXXXXXXXXXXXXXXOOOOOOOOOOOOOOOOOOOOO.................XX..",
"XXXXX..XXXXXXXXXXXXXXXXXOOOOOOOOOOOOOOOOO.................XX....",
"XXXXXXX..XXXXXXXXXXXXXXXXXOOOOOOOOOOOOO.................XX......",
"XXXXXXXXX..XXXXXXXXXXXXXXXXXOOOOOOOOO.................XX........",
"XXXXXXXXXXX..XXXXXXXXXXXXXXXXXOOOOO.................XX..........",
"XXXXXXXXXXXXX..XXXXXXXXXXXXXXXXXo.................XX............",
".XXXXXXXXXXXXXX..XXXXXXXXXXXXXXXo...............XX..............",
"X..XXXXXXXXXXXXXX..XXXXXXXXXXXXXo.............XX..............XX",
"XXX..XXXXXXXXXXXXXX..XXXXXXXXXXXo...........XX..............XX..",
"XXXXX..XXXXXXXXXXXXXX..XXXXXXXXXo.........XX..............XX....",
"XXXXXXX..XXXXXXXXXXXXXX..XXXXXXXo.......XX..............XX......",
"XXXXXXXXX..XXXXXXXXXXXXXX..XXXXXo.....XX..............XX........",
"XXXXXXXXXXX..XXXXXXXXXXXXXX..XXXo...XX..............XX..........",
"XXXXXXXXXXXXX..XXXXXXXXXXXXXX..Xo.XX..............XX............",
".XXXXXXXXXXXXXX..XXXXXXXXXXXXXX.oX..............XX..............",
"X..XXXXXXXXXXXXXX..XXXXXXXXXXXXXo.............XX..............XX",
"XXX..XXXXXXXXXXXXXX..XXXXXXXXXXXo...........XX..............XX..",
"XXXXX..XXXXXXXXXXXXXX..XXXXXXXXXo.........XX..............XX....",
"XXXXXXX..XXXXXXXXXXXXXX..XXXXXXXo.......XX..............XX......",
"XXXXXXXXX..XXXXXXXXXXXXXX..XXXXXo.....XX..............XX........",
"XXXXXXXXXXX..XXXXXXXXXXXXXX..XXXo...XX..............XX..........",
"XXXXXXXXXXXXX..XXXXXXXXXXXXXX..Xo.XX..............XX............",
"XXXXXXXXXXXXXXX..XXXXXXXXXXXXXX.oX..............XX..............",
" XXXXXXXXXXXXXXXX..XXXXXXXXXXXXXo.............XX............... ",
"   XXXXXXXXXXXXXXXX..XXXXXXXXXXXo...........XX...............   ",
"     XXXXXXXXXXXXXXXX..XXXXXXXXXo.........XX...............     ",
"        XXXXXXXXXXXXXXX..XXXXXXXo.......XX...............       ",
"          XXXXXXXXXXXXXXX..XXXXXo.....XX...............         ",
"            XXXXXXXXXXXXXXX..XXXo...XX...............           ",
"              XXXXXXXXXXXXXXX..Xo.XX...............             ",
"                XXXXXXXXXXXXXXX.oX...............               ",
"                  XXXXXXXXXXXXXXo.............                  ",
"                    XXXXXXXXXXXXo...........                    ",
"                       XXXXXXXXXo.........                      ",
"                         XXXXXXXo.......                        ",
"                           XXXXXo.....                          ",
"                             XXXo...                            "
};
