/* XPM */
static char *_6_h1646852823[] = {
/* columns rows colors chars-per-pixel */
"64 64 21 1 ",
"  c None",
". c #FE3434",
"X c #FF3434",
"o c #FE3534",
"O c #FF3534",
"+ c #FE3435",
"@ c #FF3435",
"# c #FF3535",
"$ c #BA5C06",
"% c #BA5C07",
"& c #BB5C07",
"* c #BA5D07",
"= c #BB5D07",
"- c #DD8534",
"; c #DD8435",
": c #DC8535",
"> c #DD8535",
", c #FFCFA4",
"< c #FFCEA5",
"1 c #FECFA5",
"2 c #FFCFA5",
/* pixels */
"                                                                ",
"                              XXXX                              ",
"                            XXX22XXX                            ",
"                          XXX222222XXX                          ",
"                        XXX1222222222XXX                        ",
"                      XXX22222222222222XXX                      ",
"                    XXX222222222222222222XXX                    ",
"                  XXX2222222222,22222222222XXX                  ",
"                XXX22222111111112222222222222XXX                ",
"              XXX222222211111111222222222222222XXX              ",
"            XXX12222222211111111222222,2222222,22XXX            ",
"          XXX1112222222211111111222222222222222,222XXX          ",
"        XXX1111122222222111<1111222222222222222122222XXX        ",
"      XXX11111112222222211<<1111212222,2222222222122222XXX      ",
"    XXX11111111122222222,,<,11112222222222222222222222222XXX    ",
"  XXX11111111111222222,,,,,,1111222222222222222222222122222XXX  ",
"XXX111111111111111111111111111111122222,222211112222222222222XXX",
"X>XXX11111111111111111111111111111122222222,1111222222222222XXXX",
"X>>>XXX11111111111111<111111<1111122222222,,<,112222222222X+X%%X",
"X>::>>XX.111111111111111111111111122222222,,,,1122222222XXX%%%%X",
"X>>>>>>>...11111111111111111111111112222222211<1221111XXX%%%%%%X",
"X>>>>>>>>>...111111111111111111111112222222211111111XXX%%%%%%%%X",
"X>>>>>>;>>>>...11111111111111111111122222222111111XX+%%%%%%%%%%X",
"X>>>;>>>>>>>>>...1111111111111111111222222221111XXX%%%%%%%%%%%%X",
"X>>>>;>>>>>>>>->...111111111111111111111111111..X%%%=%%%%%%%%%%X",
"X>>>>>>>>>>>>>>>;>..X11111111111111111111111...%%%%%%%%%%%%%%%%X",
"X%%>>>>>>>>>>>>>;>>>...1111111111111111111...%%%%%%%%%%%%%%%%%>X",
"X>>%%>>>>>>>>>>>>>>>>>...111111111111111...%%%%%%%%%%%%%%%%%>>%X",
"X>>>>*%>:>>>>>>>>>>>>>>>.X.11111111111XXX%%%%%%%%%%%%%%%%%>>%%%X",
"X>>>>>>*%:>>>>>>>>>>->>>>>...1111111XXX%%%%%%%%*%%%%%%%%>>%%%%%X",
"X>>>>>>>>%%>>>>>>>>>>>>>>>>>...111XXX%%%%%**%%%%%%%%%%>>%%%%%%%X",
"X>>>>>>>>>>%%>>>>->>>>>>>>>>->X.XXX%%%%%%***%%%%%%%%>>%%%%%%%%%X",
".>>>>>>>>>>>>%%>>>>>>>>>>;>>>>>XXX%%%%%%%%%%%%%%%%>>%%%%%%*%%*%X",
".>>>>>>>>>>>;>>%%>>>>>>>>>>>>>>XXX%%%%%%%%%%%%%%>>%%%%%%%%%%%%%X",
".%%;>>>>>>>>>>>>>%%>>>>;>>>>>>>XXX%%%%%%%%%%%%>>%%%*%%%%%%%%%%>X",
"X>>%%>>>>>>>>>>>>>;%%>>>>>>>>>>XXX%%%%%%%%%%>>%%%%%%%%%%%%%%>>%X",
"X>>>>%%>>>>>>>>:>>>>>%%>>>>>>>>XXX%%%%%%%%>>%%%%%=%%%%%%*%>>%%%X",
"X>>>>>>%%>>>>>:>>>>>>>>*%>>>>>>XXX%&%%%%>>%%%%%%%%%%%%%*;>%%%%%X",
"X>>>>>>->%%>>;>>>>>>>>;>>%%>>>>XXX%%%%;>%%%%%%%%%%%%%%>>%%%%%%%X",
"X>>>>>>>>>>%%>>>>>>>>>>>>>>%%>>XXX%%>>%%%%%%%%%%%%%%>>%%%%%%%%%X",
"X>>>>>>>>>>>>%%>>>>->>>>>>>>>%%XXX>>%%%%%%%%%%%%%*>>%%%%%%%%%%%.",
"X>>>>>>>>>;>>>>%%>>>>>>>>>>>>;>XX+%%%%%%%%%%%%%%>>%%%*%%%%%%%%%.",
"X*%>>>>>>>>>>>>>>%%>>>>;>>>>>>>XXX%%%%%%%%%%%%>>%%%%%%%%%%%%%%>.",
"X>>%%>>>>-;>>>>>->>%%>>>>>>>>>>XXX%%%%%%%%%%>>%%%%%%%%%%%%%%>>%.",
".>>>>%%>>>>>>>->>>>>>%%>>>>>>>>XXX%%%%%%%%>>%%%%%%%%%%%%%%>>%%%.",
".:>>>>>%%>>>>>>>>>:>>>>%%>>>>>>XXX%%%%%%>;%%%%%%%%%%%%%%>>%%%%%.",
".>>>:>>>-%%>>>;>>>>>>>>>>%%>>>>XXX%%%%>>%%%%%%%%%*%%%%>>%%%%%%*.",
".>>>>>>>>>>%%>>>>:>>>>>>>>>%%>>XXX%%>>%%%%%%%%%%%%%%>>%%%%%%%%%.",
".>>>>>>>>>>>>%%>>>>>>>>>>>>>>*%XXX>>%%%%%%%%%%%%%%>>%%%%%*%%%%%.",
"..->>>>>>>>>>>>%%>>>>>>>>>>>>>>XXX%%%%%%%%%%%%%%>>%%%%%%%%%%%%..",
" X..>>>>>>>>>>>>>%%>>>>>>>>>>>>XXX%%%%%%%%%%%%>>%%%%%%%%%%%%XX. ",
"   XXX>>>>>>>>>>>>>%*>>>>>>>>>>XXX%%%%%%%%%%>;%%%%%%%%%%%%..X   ",
"     XXXX>>>>>>>>>>>>%%>>>>>>>>XXX*%%%%%%%>>%%%%%%%%%%*%XXX     ",
"        XXX>>>>>>>>>>>>%*>>>>>>XXX%%%%%%;>%%%%%%%%%%%%XXX       ",
"          XXX>>>>>>>>>>>>%%>>>>XXX%%%%>>%%%%%%%%%%%%.XX         ",
"            XXX>>>>>>>>>:>>%%>>XXX%%>>%%*%%%%%%%%%..X           ",
"              XXX>>>>>>>>>>>>%%XXX:>%%%%%%%%%%*%XXX             ",
"                XXX>>>>>>>>>>>>XXX%%%%%%%%%%%XXXX               ",
"                  XXX>>>>>>>>>>XXX%%%%%%%%*XXX                  ",
"                    XXXX>>>>>>>XXX%%%%%%*XXX                    ",
"                       XXX>>>>>XXX%%%%%XXX                      ",
"                         XXX>>>XXX%%%XXX                        ",
"                           XXX>XXX%XXX                          ",
"                             XXXXXXX                            "
};
