/* XPM */
static char *_51646851424[] = {
/* columns rows colors chars-per-pixel */
"64 64 79 1 ",
"  c None",
". c #1D69B6",
"X c #1E69B6",
"o c #1E69B7",
"O c #1E6AB8",
"+ c #1F6AB9",
"@ c #1F6BBB",
"# c #216CBE",
"$ c #216CBF",
"% c #216DBF",
"& c #226DC0",
"* c #226DC2",
"= c #236EC4",
"- c #236FC4",
"; c #2A79C3",
": c #2671CC",
"> c #2672CD",
", c #2772CD",
"< c #2A75D5",
"1 c #2F7ED1",
"2 c #2D78DC",
"3 c #3584DF",
"4 c #3F96D4",
"5 c #309DD5",
"6 c #2DA0DB",
"7 c #2FA1DB",
"8 c #2EA6DE",
"9 c #35A4D7",
"0 c #33A0DA",
"q c #37A6DC",
"w c #31A8DE",
"e c #3DB1DE",
"r c #309FE2",
"t c #2A9CF8",
"y c #32A1E2",
"u c #31A3E3",
"i c #36A3E2",
"p c #37A7E3",
"a c #35A5E4",
"s c #32AAE6",
"d c #34ABE6",
"f c #3AA9E3",
"g c #38AEE6",
"h c #3BA8EF",
"j c #32B1E7",
"k c #34B5EB",
"l c #2AA5FF",
"z c #36A8F0",
"x c #37AFF3",
"c c #3FAFF1",
"v c #3DB3F3",
"b c #3EB4F3",
"n c #39BAF8",
"m c #3DBDF8",
"M c #4298DA",
"N c #48A3D5",
"B c #4AA6DA",
"V c #4195E3",
"C c #4DA8E0",
"Z c #40B4E6",
"A c #5ABCE0",
"S c #40B6F3",
"D c #46B9F3",
"F c #3CCCFF",
"G c #4DC6EA",
"H c #43C1F8",
"J c #45C3F8",
"K c #49C5F8",
"L c #4BC6F8",
"P c #4CC7F8",
"I c #52CBF8",
"U c #43D0FF",
"Y c #49D4FF",
"T c #4DD7FF",
"R c #57DEFF",
"E c #60C2EF",
"W c #67E8FF",
"Q c #8AFFFF",
"! c #F4EFDA",
/* pixels */
"                                                                ",
"                              FFFF                              ",
"                            FFFFFFFF                            ",
"                          FFFnnnFFFFFF                          ",
"                        FQQQQnnvnFFFFFFQ                        ",
"                      FFFFFnnQQvJFFFFQQFFF                      ",
"                    FFFFFnnnnTJQQnQQQFFFFFFF                    ",
"                  FFFFFFnnJJYTIIQQTFFnnFFFnnFF                  ",
"                FQQQQnnnnJJIRTFQWWQQnnnnFnnnnQQF                ",
"              FFFFnnnQxDPWQQQQQWWWID!!!QxnQQQnnnnF              ",
"            FFFFFnnDJDQIQQIIWWWWWWIDDIxxQQxnxxxnnnFF            ",
"          FFFFFFnJJJWSDQDDIFFWWWWIIQQIIxxzQxnnxxxnnFFF          ",
"        QFFnnnnvJDWIfDDQppKTFWWWWIQIDQQIxxQnxnnnnxnnFQQF        ",
"      nFFQnnInvvhDDifff!fQQaJDIIIQbKIIDQQsQuuunnnnxQQFFFFF      ",
"    FnnnFnQIIIxcDDiiiZG!QiuQQQQ!!IIZZfZZGQkwssunnQQxxnFFFFFF    ",
"  FFFnnnxnDQDDDIIQQfZQQIQDiuuiSvDDgZZZZGGGQQQQQ!!DxxxxFFFFFFFF  ",
"QQFFFFnxxDDDQDIQQG0QQZIIQZurpSvvSDSffZGG!QGZZmWIDQDzxxxnFFFFFFFQ",
"22QQFFFnxDDDn!!GGeqqZGZZQsrpKKSSSSDDfZG!GGGeqeqqqqQZSDDnnFFFFQQ2",
"2222QQFFWDWWQGGGeeeqqGkQuugvSKDDSDDxIWQGGGGGeq55qqqQqfIIWWFQQ222",
"222222QQWWQQWGGGGGGqsssQnnQQQ!!!QQUUWWQQWGGGq555570qQQQWWQQ22222",
"22222222QQWWWWGGGGGGZsQsQQUUWWWWWYQWIQWWQQ!!!dqqgZZZGGWQQE222222",
"22,-,,,222QQWWWGGGeQQQssGWWUUWUUJUUQIQIZZqqqsQQZIIGWWQQEE,<<2222",
"2,2,,,,,2F2EQQWWGGQeee9eGWWWWUUWWWWWQIZgqq66snWQWWWQQ23F,<<=:222",
"22,-##-,F2222EQQWQGGeeeeeeGGGGGGWWQQWII066kkWWWQWQQEE22F,,==::22",
"2,-##@@#F,,,222EQQFGGeee8eeGGGGQ!QWWFFwk88FWWWWQQ322222F=##=,,<2",
"2-##@@@oF=,,,222F2QQFWWGGeGGQQQkGGQQkkk0GWWWWQQ2F2---#-F####,,22",
",-#@@@#oF##=,-,j222EQQWWWQQQWWFWGGkkQQGWWWWQQ222F####OOOF####,22",
",,;N@@o@F##-#-,F&,,222QQQFFWWWWWWkGGGGQWWQQ222&-F#@O#O#OF####,22",
",14NA@@F@@-###,F--,,2222QQFWWWWWWWGWWWWQQ22,-###F@o#ooOoFoX#=,,2",
"2MMB#@@F#&#@@#@F--,,,22F2VQQWWFWWWWWWQQ22,&,--#@Fooo#oOoFoX##,,2",
"22,C-#F--#@@@#@F##&--,,F22VVQQFFWWFQQ22F--,--##oFOOOoooOoF#X#-,2",
"222,--F,-#@@o#oF@@@o@-,F2222VEQ!!QQE222F#####OOOFOOOoooOoF###-,2",
"222,VF##OO@@#OFoOOOOX#@F,22222EEQVVV22,F@#@oO#OOFXooXXOooFO#O>,2",
"22,,,R##OOOOoOF#OOOooOOF#-,,-,,2T2<,--#FOOO@ooOOF#OOOoO#X#l##-,2",
"22,,l####XoOool#ooXooOOF@###--,,F,####@FOOOOOXoF#o@OoOXoo@l##--2",
"22,l####oooXoool#oXXooOF#@@o@@--l####oFoooooO#OFXo#OOOo##O@F#--2",
"22F,####OooXoOOlXoXX..FO@@O#@@O@l###@oFooo.XX#@FoO#X#OOo@@#F---2",
"22F2,####ooO@#OlXXoX..Foo@ooOOOOlO@#@@loO...Xo@F#OoO@@#oO@Oll-,2",
"2F222-###OoOoOolOoX.XXFXOO#oOOOOlo@@@ol@X.ooXoF#Ooo@@ooO@@##-l22",
"F22,>##@##@Oo#OFOOXOOlXXXooooOO@n##oooloooOOo@F#O##OO#O#@@##-F22",
"F2,,--###--@oO@FOOooOl#XoooOXOo#n##&@oFoooo@#FO@##O##o@@O#@@-2FF",
"2,,---###@#@@##@FOoXlOoXoo.Xoo&#n#-@#F@X@oo@Fo@-OOOOo@@@@O@#>222",
"2,,----#@@#@#@@#FoolOoooOOOO.o@#n:,@#Fo@o#@F#O,-@OOOo#@@@#--,222",
"2-,----#@@@-#-@OF@F#Ooooo@#oXo-#L,,-#F@oooFoo#@##OOOOo#O----2222",
",,,----#####,-#oFFO#oO#o@@oooo&&n>:*n.o@FFO###O@OOO####,---22222",
"2,,,---###@#-##@F##o@@#@o@ooo@-&n#*-n@@l@oo#@o#ooO@@##,,,,222222",
"22,22,,--###-##@F##@@@##@@ooo@@&t&--llF@@#o@oOoooo@##-,222222222",
"222222,,###--###F##@@###@oo@@@#@t&&-F@@&@o@@#oOoO@##--2222222222",
"2222222,-#--#-##F##@#@@#-###@##oFO#F--##O@@@OoOo@#@--22222222222",
"22222222,,-----##F--###------#@@Fo#F-#oo#@@o#@O#-#->222222222222",
" 22222222,,,,,---F---#--,,#--##@l##F#O#Oooo#@##--,,222222222222 ",
"   2222222,,,,-,,F---,,,,,,#-##@l%#Fo#o@@#o#-----,,2222222222   ",
"     2222222222,,l,,,,,,,,--@@@@F--#FO#@@oO-,----,222222222     ",
"        22222222,,l,,,,,,---#---F---FoO@#@#,,,---22222222       ",
"          22222222ll,,,,----#---F-,,F####@-,,,,,2222222         ",
"            2222222F22,,---#--,-l,22F-###,,,,,,222222           ",
"              22222F2222---,-,,,l,22F2,,,22,,,22222             ",
"                222F22222,,,,,,,F2222F22222222222               ",
"                  2F222222,,,,,,F2222F22222222                  ",
"                    222222222222F22222F22222                    ",
"                       222222222F22222F222                      ",
"                         2222222l22222F2                        ",
"                           22222l22222                          ",
"                             222l222                            "
};
