/* XPM */
static char *_5_h1646852823[] = {
/* columns rows colors chars-per-pixel */
"64 64 141 2 ",
"   c None",
".  c #FE3434",
"X  c #FF3434",
"o  c #FE3534",
"O  c #FF3534",
"+  c #FE3435",
"@  c #FF3435",
"#  c #1C69B6",
"$  c #1D69B6",
"%  c #1D69B7",
"&  c #1E69B6",
"*  c #1F69B6",
"=  c #1E69B7",
"-  c #1F69B7",
";  c #1E6AB8",
":  c #1F6AB8",
">  c #1E6BB8",
",  c #1E6AB9",
"<  c #1F6AB9",
"1  c #1F6BB9",
"2  c #1F6BBA",
"3  c #1F6ABB",
"4  c #1E6BBB",
"5  c #1F6BBB",
"6  c #206CBE",
"7  c #216CBE",
"8  c #216DBE",
"9  c #216CBF",
"0  c #216DBF",
"q  c #226DC0",
"w  c #226DC2",
"e  c #236DC2",
"r  c #236EC4",
"t  c #226FC4",
"y  c #236FC4",
"u  c #236FC5",
"i  c #2B79C3",
"p  c #2671CC",
"a  c #2772CC",
"s  c #2672CD",
"d  c #2772CD",
"f  c #2773CD",
"g  c #2A75D4",
"h  c #2A75D5",
"j  c #2F7ED1",
"k  c #2C78DC",
"l  c #2D78DC",
"z  c #2D79DC",
"x  c #2D78DD",
"c  c #3584DF",
"v  c #3F96D4",
"b  c #309DD5",
"n  c #2CA0DB",
"m  c #2DA0DB",
"M  c #2FA1DB",
"N  c #2EA6DE",
"B  c #35A4D7",
"V  c #33A0DA",
"C  c #36A6DC",
"Z  c #37A6DC",
"A  c #37A7DC",
"S  c #37A6DD",
"D  c #31A8DE",
"F  c #3CB1DE",
"G  c #3DB1DE",
"H  c #309FE2",
"J  c #32A1E2",
"K  c #31A3E3",
"L  c #36A3E2",
"P  c #37A7E3",
"I  c #35A5E4",
"U  c #32AAE6",
"Y  c #32ABE6",
"T  c #34ABE6",
"R  c #3AA9E3",
"E  c #39AEE6",
"W  c #3BA8EF",
"Q  c #33B1E7",
"!  c #34B5EB",
"~  c #2AA5FE",
"^  c #2AA4FF",
"/  c #2AA5FF",
"(  c #36A8F0",
")  c #37AEF3",
"_  c #36AFF3",
"`  c #37AFF3",
"'  c #3FAFF1",
"]  c #3DB3F3",
"[  c #3EB4F3",
"{  c #38BAF8",
"}  c #39BAF8",
"|  c #39BBF8",
" . c #39BAF9",
".. c #3DBDF8",
"X. c #4298DA",
"o. c #48A3D5",
"O. c #4AA6DA",
"+. c #4195E3",
"@. c #4DA8E1",
"#. c #40B4E6",
"$. c #40B5E6",
"%. c #5ABCE0",
"&. c #40B6F3",
"*. c #46B9F2",
"=. c #46B8F3",
"-. c #46B9F3",
";. c #3CCCFE",
":. c #3CCCFF",
">. c #3DCCFF",
",. c #3CCDFF",
"<. c #4CC6EA",
"1. c #4DC6EA",
"2. c #4DC7EA",
"3. c #4DC6EB",
"4. c #43C1F8",
"5. c #43C1F9",
"6. c #45C3F8",
"7. c #49C5F8",
"8. c #4BC6F8",
"9. c #52CAF8",
"0. c #52CBF8",
"q. c #53CBF8",
"w. c #52CBF9",
"e. c #43D0FF",
"r. c #49D4FF",
"t. c #4CD7FF",
"y. c #4DD7FF",
"u. c #57DEFF",
"i. c #60C2EF",
"p. c #61C2EF",
"a. c #67E8FE",
"s. c #66E8FF",
"d. c #67E8FF",
"f. c #67E9FF",
"g. c #8AFFFE",
"h. c #8AFEFF",
"j. c #8AFFFF",
"k. c #8BFFFF",
"l. c #F4EEDA",
"z. c #F4EFDA",
"x. c #F5EFDA",
/* pixels */
"                                                                                                                                ",
"                                                            X X X X                                                             ",
"                                                        X X X :.:.X X X                                                         ",
"                                                    X X X } } } :.:.:.X X X                                                     ",
"                                                X X X j.j.} } ] } :.:.:.:.X X X                                                 ",
"                                            X X X :.:.} } j.j.] 6.:.:.:.:.j.j.X X X                                             ",
"                                        X X X :.:.} } } } y.4.j.j.} j.j.j.:.:.:.:.X X X                                         ",
"                                    X X X :.:.:. . .4.4.t.y.0.0.j.j.y.:.:.}  .:.:.:. .X X X                                     ",
"                                X X X j.j.}  . . .4.4.0.u.y.;.j.a.a.j.j.{ {  . .;.} } } { X X X                                 ",
"                            X X X :.} } } j.) *.0.d.j.j.j.j.j.d.a.a.0.*.l.l.z.j.`  .j.j.j.{ { X X X                             ",
"                        X X X :.:. . .4.4.*.j.0.j.j.0.0.d.d.d.d.a.a.0.-.=.0.] ) j.j.` } ] ` _ }  .X X X                         ",
"                    X X X :.:.:. .4.4.4.f.*.*.j.*.*.0.;.;.d.d.d.a.0.0.j.j.0.0.) ` ( j.` } } _ _ ` }  .X X X                     ",
"                X X X  . .} } ] 6.*.a.w.R =.*.j.P L 7.y.;.d.d.d.a.0.j.0.*.j.k.0.` ` j. .` } } } } ` } } ;.@ @ X                 ",
"            X X X j.}  .0. .] ] W =.-.L R R E z.E h.j.P 4.4.0.0.0.j.[ 4.0.0.*.j.j.U j.J J J  . .} } ` j.j.;.;.@ X X             ",
"        X X X } :.} j.0.0.0.` ' =.=.L L L #.2.z.k.R H k.j.j.j.z.z.0.0.#.#.R #.#.2.j.! D U U J {  .j.j.` ` { :.:.:.X X X         ",
"    X X X } } } ` } *.j.-.*.*.0.q.k.k.L #.k.j.0.k.=.L H J L &.] =.*.#.#.#.#.#.2.2.2.j.j.j.j.j.z.l.*.` ` ] _ :.:.:.:.:.X X X     ",
"X X X :.:.:. .` ) -.-.-.j.*.0.j.j.1.b k.j.#.0.0.j.#.J H P [ ] ] ] =.' E L #.2.2.z.j.1.#.#...a.0.*.j.*.( ( ) )  .:.:.:.:.:.X X X ",
"X l X X X :.:. .) =.-.-. .z.z.1.1.G Z Z #.2.#.#.j.U H P 7.7.&.&.' ' =.*.R #.1.z.1.1.1.G Z G Z Z C A j.#.&.*.-. . .:.:.:.X X X X ",
"X l l l X X X :.a.*.a.a.j.2.2.1.G G G Z Z 2.! j.J K E ] &.8.*.-.=.=.=.] q.a.j.2.1.1.2.2.G Z b b C C C j.C R 0.0.a.f.X X X l l X ",
"X l l l k k X X @ a.j.j.f.2.2.1.1.1.1.Z U U U j.{ { j.j.j.z.z.z.j.j.e.e.a.a.j.j.d.1.2.2.Z b b b b m V Z j.j.j.f.X X X l l l l X ",
"@ k k k k l l l X X X f.a.a.2.2.1.1.1.1.#.U j.U j.j.e.e.a.a.a.a.a.r.j.a.0.j.f.a.j.j.z.z.z.T Z Z #.#.#.#.2.2.X X X q.l l l l l X ",
"@ k a u a a a l l l X X @ a.a.2.1.1.G j.j.j.U U 1.a.a.e.e.a.e.e.e.e.e.j.0.j.0.#.#.Z Z Z U j.j.#.w.w.2.f.@ @ X i.p.a h h l l l X ",
"@ a k a a a a a l :.k i.@ @ X f.1.1.j.G G G B G 1.a.a.a.a.e.e.a.a.a.a.a.j.0.#.#.C C m m U  .f.j.a.f.X X @ l c :.p g h u a l l X ",
"@ k a u q q u a :.k k k k i.X X @ j.2.2.G G G G G G 1.1.1.1.1.1.a.a.j.j.f.0.0.b m m ! ! a.a.a.j.X X X i.i.l l ;.p p u u a a l X ",
"@ d u 9 9 5 5 9 :.a a a k k k p.X @ X 1.2.G G G N G G 2.2.2.1.j.l.j.a.a.;.;.D ! N N ;.a.a.a.X X X c l l l l k ;.e 7 9 p p d l X ",
"X q 9 9 5 3 5 1 :.u a a a k k k ;.k X X X f.a.2.2.G 1.1.j.j.j.! 2.2.j.j.! ! ! m 2.a.a.a.@ @ X l :.l u u u 3 u ;.6 7 9 9 d d l X ",
"X q 9 6 3 3 1 1 :.q q u a u a Q k k l i.X X X a.a.j.j.j.a.a.;.a.2.2.! ! j.j.3.f.f.f.X X @ l l l :.9 q 5 3 5 3 3 e.- 9 9 9 a l X ",
"X a i o.3 1 1 1 :.5 3 u 9 u a :.u d p l k k X X @ ;.;.a.a.a.a.a.a.! 1.1.2.2.j.f.X X X l l l q u :.9 5 5 3 1 - 1 ;.& - 9 9 a l X ",
"X j v o.%.5 1 :.1 3 u 9 9 9 f :.r r d d l l k k @ @ X a.a.a.a.a.a.a.2.a.a.a.@ X X l l a u q q 3 :.1 1 1 1 - 1 % ;.1 1 9 q a a @ ",
"X X.X.O.q 5 5 :.9 u 9 5 5 9 5 :.r r d a d l k :.k +.X @ @ a.;.a.a.a.a.a.@ @ X l l a u a u u 3 3 :.1 1 1 1 % % - ;.1 * 3 q a a @ ",
"X l a @.u 9 :.u u 9 5 1 5 9 5 :.6 6 8 8 r a a :.k k +.+.@ @ X ;.a.a.X X @ k l ;.u q a q u 9 3 1 ;.% * % - - - % - ;.1 3 9 u a @ ",
"X l l a u q :.a u 5 5 5 * 5 * :.6 6 6 * 6 r a :.k k l l +.i.X X @ @ @ i.k k k ;.9 9 9 9 1 1 1 1 ;.1 % 1 # - % - 1 ;.1 1 9 u a @ ",
"X k k d +.:.9 9 1 1 3 3 1 1 :.5 1 1 % - % 1 3 ;.d k k k k k i.@ @ X +.+.l l d ;.3 9 3 1 - 1 1 % ;.1 % - % - - 1 1 ;.1 5 5 a a X ",
"X k d d a u.6 9 % % 1 - 1 1 :.5 1 % 1 % 1 - 1 ;.9 u a a u a a @ X X g a q u 9 ;.% 1 1 1 % - 1 % ;.1 % 1 1 % % 3 1 - ^ q 5 u s X ",
"X k a a ^ 9 9 9 1 - # 1 1 * ^ 5 % - & - % 1 1 ;.6 9 9 9 u q a @ X X 9 9 9 9 6 ;.% 1 - 1 3 % 1 ;.3 - 3 1 % - % - - 3 ^ 5 9 u u X ",
"X k a ^ 6 6 9 9 1 % 1 % * # * ^ - % & & & % - ;.9 1 1 1 3 3 u @ X @ 9 9 9 * ;.* - % - - 1 1 - ;.1 1 1 % 1 % 1 1 3 3 3 :.9 u u X ",
"X k :.d 3 q q 9 - - - % * 1 * ^ - 1 # & * # ;.1 1 1 1 - 1 1 1 @ X X 5 9 1 1 ;.1 - % % & * 1 5 :.- % 1 % 9 3 3 1 * 6 6 :.u t y X ",
"X k :.k a q 3 q 3 1 - % * * 1 ^ % - - # # # ;.1 1 1 1 1 1 % - @ X X 3 9 1 1 ^ % - & # # * 1 5 :.1 3 - 1 3 3 - 1 * 6 6 ^ ^ t f X ",
"X :.k k l u 9 9 3 1 % 1 * * 6 ~ 1 % % # # * ;.* 3 % - 1 1 * * X X X 1 3 1 1 ^ 1 # # # # 1 1 :.9 3 1 1 3 3 1 1 3 > 5 6 6 y ^ k X ",
"X l l f a q 3 3 9 9 3 % * 6 * ;.- - & 1 1 ^ # % % - - - # 1 1 @ X X 3 - & 1 ^ # & & 1 1 % 1 :.5 3 1 3 3 1 1 1 1 5 5 6 9 y :.k X ",
"X k d d y y 9 9 6 8 8 6 6 6 * ;.1 - % 1 - ^ 1 # # # * 1 * % 1 @ X X 9 9 1 - ;.% 1 % 1 - 1 ;.3 3 3 1 3 1 1 * * 6 > 6 > 6 q k :.X ",
"X d d y y y 6 9 6 * 7 6 * 6 6 6 ;.% 1 % ^ 1 - & 1 # # * % * 5 @ X X 9 9 9 ;.1 - % 1 - 1 ;.1 3 u 3 1 1 1 1 * * 6 6 > 6 9 d k k X ",
"X d d y y y y 6 6 6 6 6 6 6 6 6 ;.1 - ^ % 1 - % 1 % % 1 # # 3 @ X + a 9 9 ;.1 1 - 1 3 ;.1 3 a u 3 1 * 1 1 1 6 6 * 9 y y d k k X ",
"X t d y y y y 6 6 6 6 r 6 8 6 * ;.1 ;.- 1 - % - 1 3 3 * * 1 u @ X X f 9 9 ;.1 1 % % ;.1 1 9 3 9 9 1 1 1 * 1 6 6 t y y y k k k X ",
"X d d y y y y 6 8 7 7 7 a t 5 * :.:.5 1 - 1 1 1 1 1 1 % * * 6 X X X p 9 { 1 1 1 ;.;.1 1 3 9 3 3 % 1 1 3 6 6 6 a y y y l k l l X ",
"X d d d y y y 6 8 8 6 6 t 9 9 5 :.9 q 5 3 3 3 3 1 1 1 * * 6 9 X X X u q { 1 1 ^ 1 1 1 9 3 1 - - 1 % 3 3 9 9 a a d d l l l k k X ",
"X k d l l f a y y 8 6 9 y 9 6 5 :.9 5 5 3 3 9 9 5 5 # * * * 6 X X X u u ^ ^ :.* 3 1 3 3 1 - - % 1 1 3 5 9 y d l l l l l k k k X ",
"X k l l k l a a 6 6 6 y y 9 9 9 :.9 9 5 3 q 3 9 5 * 5 * 5 5 6 X X X 9 u :.5 9 9 3 1 3 3 3 1 1 - 1 3 9 9 y y l l l l l l k k k X ",
"X k k k l l l f u 9 u u 9 t 9 9 :.9 9 5 9 5 6 6 y 6 6 9 6 6 8 X X X 9 :.q u 9 3 1 3 3 3 1 1 1 1 1 9 3 u u l l l l l l l l l l X ",
"X X k k l l l l a f u u u t t 9 5 :.t t 9 9 9 y y y y y y 8 6 X X X 9 :.u 9 1 1 1 3 3 1 1 1 1 3 u 3 u a l l l l l l l l l l X X ",
"  X X X l l l l l a a a d d y y u :.u u t 9 y y a a 6 y y 8 6 X X X 9 :.9 5 1 3 1 1 1 3 1 3 9 q u a a k l l l l l l l l X X X   ",
"      X X X l l l l a a d a y a a :.u u y a a a f a a 6 0 6 6 X X X 9 :.* 5 1 3 3 3 1 9 u u u u u a a l l l l l l l X X X       ",
"          X X X X l l l k k l d a ^ a a a a a f d d y y 6 6 6 X X X t 6 :.1 1 3 3 1 1 u a u u u u a l l l l l l X X X           ",
"                X X X l k k l l a a ^ f a g s a d y r y 6 r t X X X y t :.1 1 3 9 1 3 a a a q u u l l l l l X X X               ",
"                    X X X k l l l l ^ ^ a a a a y y y y 6 y y X X X a a :.9 9 9 q 3 u a s g a a l l l l X X X                   ",
"                        X X X l l l l :.l l a f y y y 8 r y a X X X k k :.q 9 9 9 a a a a a a l l l X X X                       ",
"                            X X X l l :.l l l l u u q g u a f X X X l l :.l a a a l l s g a l l X X X                           ",
"                                X X X :.l l l l l a a s a a f X X X l k l :.l l l l l l l @ X X X                               ",
"                                    X X X l l l l l s s a a f X X X k k l :.l l l l l X X X                                     ",
"                                        X X X X l l l l l l l X X X k k l l :.l l X X X                                         ",
"                                              X X X l l l l l X X X l l l k :.X X X                                             ",
"                                                  X X X l l l X X X l l l X X X                                                 ",
"                                                      X X X l X X X l X X X                                                     ",
"                                                          X X X X X X X                                                         "
};
