/* XPM */
static char *_8_h1646852823[] = {
/* columns rows colors chars-per-pixel */
"64 64 43 1 ",
"  c None",
". c #3A2802",
"X c #3B2802",
"o c #3A2902",
"O c #3A2803",
"+ c #234A18",
"@ c #234A19",
"# c #7C4800",
"$ c #7D4800",
"% c #7C4900",
"& c #7D4900",
"* c #7D4801",
"= c #7C4901",
"- c #7D4901",
"; c #FE3434",
": c #FF3434",
"> c #FF3534",
", c #FE3435",
"< c #FF3435",
"1 c #846B28",
"2 c #846A29",
"3 c #856A29",
"4 c #846B29",
"5 c #856B29",
"6 c #A56B30",
"7 c #A56B31",
"8 c #008300",
"9 c #018300",
"0 c #29AC10",
"q c #28AD10",
"w c #29AD10",
"e c #29AD11",
"r c #52D620",
"t c #53D620",
"y c #52D720",
"u c #52D621",
"i c #53D621",
"p c #7AFE30",
"a c #7BFE30",
"s c #7AFF30",
"d c #7BFF30",
"f c #7BFF31",
"g c #D1F270",
/* pixels */
"                                                                ",
"                              ::::                              ",
"                            :::dd:::                            ",
"                          :::dddddd:::                          ",
"                        :::dddddddddd:::                        ",
"                      :::dddrddddgddddd:::                      ",
"                    :::dddddrdddddddddddd:::                    ",
"                  :::dddddrdrdddddddddddddd:::                  ",
"                :::dddddddrdrddrddddddddgdddp:::                ",
"              :::dddddddddrdrdrdddddrdddddddddd:::              ",
"            :::dddddddddddrdrprddrddrdddddddddddd:::            ",
"          :::dddddpdgdddddrdrdrddrddrdddddddddddddd:::          ",
"        :::dddddddddddddddddddddddddddddddpddddddrdpd:::        ",
"      :::dddddddddddddddddddddddddddddddddddddddddafddd:::      ",
"    :::ddddddrddddddddddddddddddddddddddddddddddaaarddddd:::    ",
"  :::ddddddrdrdddddrddddddddddddddddddddddddddddaaaadddrddd:::  ",
":::ddddddddtpyddddddtpdddddddddddddddddddpddydddaaaadddrddddd:::",
":r:::dddddddddddddddtpdddrdddddddgdddddddtddydddaaagdddddddd::::",
":rrr:::ddddddddgddddtdydrdddddddddddddddddydtddyaaaadddddd:::qq:",
":rrrrr::;ddddddddaddtdydrdddddddddddddddapptdtdyaaaadddd:::qqqq:",
":rrrrrrr;;;ddpppddddtdrdrdddddddrdddddddaaardypyaadddd::;wwwqqe:",
":rrrrrrrtt;;;dapddpdddddddddddrprdddddddaaardyddaadd:::eqwweeqq:",
":rrrrrrrttyt;;;pddddddddddddddrdrdrdddddddaaddddad::<qqeqweeqqq:",
":rrrrrrrtyyyyy;;:dddddddddddddrdrdrdddddddaadddd:::qqqqewweeqqq:",
":qrryyttttrrrrrr:::ddddddddddddddddddddddddddd;;:wwwwwwwwwqewq9:",
":Oqqyyttttrrrrrrrr:::ddddddddddddddddddddddd::;ewwwwwwwwwwqq99+:",
";2OOqqyyrrrrrrttrrrr:::dddddddgddddddddddd:::qqewwwwwwwwwq99+O.:",
";255..qqrrrrrrttrrrrrr:::ddddddddddddddd:::wqqqqwwwwwwww99+XO$$:",
";14444OOqqyyyyytrrrrrrrr:::ddddddddddd:::wwwwwwwwwwwww88+OO&$$&:",
";5444444..qqyyyyrrrrrrrrrr:::ddddddd:::qwwwwwwwwwwww88+OO&&&$$&:",
";564444422.O00yyrrrrrrrrrrrr:::ddd:::qqqwwwwwwwwww88+OO&&&&&&&6:",
";55542442222..00rrrrrrrrrrrrrr:::::qqqqqwwwwwwww88+OO&&&&&&&&&&:",
";4444444444414OOqqrrrirrrrrrrrr:::eeewwwqeeeww88+OO&&&&&&&O&&&&:",
";444542644444514X.qqrrrrrrrrrrr:::eqe0wwqqee88+XO&&&&&&&$=&&&&&:",
";54424444444444455..qqrrrrrrrrr:::qqwwwwqq88+XX&&&&&&&&$&&&&&&&>",
";54O44441O2444445555oXqqrrrrrrr:::qqwwww88+oX$&&&&&&&&6&&&&6&&&:",
";554444444442644244424ooqqrrrrr:;;eqwq99+oo$&&&&&&&&&&&&&&&&&&&:",
";54444444444441424445424OOqqrrr:;;wq99+.o&$$&&&&&&O&&&&&&&&&&&&:",
";6444444444444444444444225XX0qr:;;q8+O.$&&&&&&&6&&&&&&&&O&&&&&O:",
";444442444442444244244425555OOq:;;8OO$$$&&&&&&&&&&&&&&&&&&&&&&&:",
";545446444444O4444444444444544O:;;O$&&&&&&&&&&&&&&&&&&&&&&&&&&&:",
";544444444444444444464444444444:;;$$&&&&&&$o=&&&&$&&&&&=&&&&&&&:",
";5544454444444444444444444o4444:::&&$&&&6&&&&&&=&&&&&6&&&&&&&&6:",
";54O444444444444444444444444444:::&&o&&&&&&&&&&&&&&&$&&&$&$O&&&:",
":444444414444444444444444444444:::&&&&&&&&&&7&&&o&&&&&&&&&&$&&&:",
":444444444444644444444444444444:::&&&&&&&&&&&&&&$&&&&&&&&&&&=&&:",
":4444444O4444444444444O44444744:::&&&&&&&&&&&&&&&&&&&&&&&&&$&&&:",
":446444444454444444444444444444:::&&&&&&&&&&&&&&&&&&&&O&&&&&&&&:",
":4444445444444444o4444444444444:<:=o&&&&$o&&&&&&&&&&&&&&&6&&&o=:",
"::44444444444444444444444444444:::$&&$7&&&&&&&&&&&6&&&&&&&&&&&::",
" :::444444644444444444744444444:::&&&&&&&&=&&o&&&&&&&&&&&&&&::: ",
"   :::4544444524444444444444444:::&&&&&&&&&&&$&&&&&&&&&&&&:::   ",
"     ::::444454444444444444o544::>&&&o$&&7&&&&&&&&$&&&&&:::     ",
"        :::54O44444444444444444:::&&&&&&&&&&&&&&&&o&&&:::       ",
"          :::444447444444444444:::&&&&&&&&&&&&6&&&&&:::         ",
"            :::4444444444544444:::&&&&&&&&$o&&&&=&:::           ",
"              :::4444o444444444:::&7&&&&&&&&&&&&:::             ",
"                :::444444464444:<:&&&&&=&&&&&::::               ",
"                  <::4444444444:>:&&&&&7&&$:::                  ",
"                    ::::4444444:::&&&&&$&:::                    ",
"                       :::444o4:<:$o&&&:::                      ",
"                         :::444:::&&&:::                        ",
"                           :::4:::&:::                          ",
"                             ::::<::                            "
};
