/* XPM */
static char *_7_h1646852823[] = {
/* columns rows colors chars-per-pixel */
"64 64 44 1 ",
"  c None",
". c #3A2802",
"X c #3B2802",
"o c #3A2902",
"O c #234A18",
"+ c #7D4800",
"@ c #7C4900",
"# c #7D4900",
"$ c #7D4901",
"% c #FE3434",
"& c #FF3434",
"* c #FF3534",
"= c #FE3435",
"- c #FF3435",
"; c #846A28",
": c #846B28",
"> c #846A29",
", c #856A29",
"< c #846B29",
"1 c #856B29",
"2 c #A56B30",
"3 c #A56A31",
"4 c #A46B31",
"5 c #A56B31",
"6 c #008200",
"7 c #008300",
"8 c #008301",
"9 c #29AC10",
"0 c #28AD10",
"q c #29AD10",
"w c #29AD11",
"e c #52D620",
"r c #53D620",
"t c #52D720",
"y c #52D621",
"u c #7BFE30",
"i c #7AFF30",
"p c #7BFF30",
"a c #7BFF31",
"s c #FFDE00",
"d c #FFDF00",
"f c #B3F270",
"g c #D1F270",
"h c white",
/* pixels */
"                                                                ",
"                              &&&&                              ",
"                            &&&pp&&&                            ",
"                          &&&pphppp&&&                          ",
"                        &&&ppphshpppp&&&                        ",
"                      &&&pppppphgpppppp&&&                      ",
"                    &&&pppppppppppppppppp&&&                    ",
"                  &&&pppppppppppppppppppppp&&&                  ",
"                &&&pppppppppppppppppppppppppp&&&                ",
"              &&&ppppppgpppphpppppppppppppppppp&&&              ",
"            &&&pppppppppppphshppppppppppppppppppp&&&            ",
"          &&&pppppphpppppppphpppppppppppphppppppppp&&&          ",
"        &&&ppppppghshppppppppppppppppppphshpppppppppp&&&        ",
"      &&&pppphppppphppppppppppppppppppppphppppppppppppp&&&      ",
"    &&&ppppphhhpppppppppppppppppppppppppppppppppppppppppp&&&    ",
"  &&&pppppphhshhppppppgpppppppppppppppppppppppppppppppppppp&&&  ",
"&&&ppppppppphhhpppppppppppppppppuuuuuuuuuuuuuuuuppppppppppppp&&&",
"&e&&&pppppppphgppppppppppppppfppuuuuuuuuuuuuguuugppppppppppp&&&&",
"&eee&&&pppppppppppppppppppppppppuuuuguuuuuuuuuuupppppppppp&&&00&",
"&eeeee&&&pppppppppppppppppppppppuuuuuuuuuuuuuuuupppppppp&&&00w0&",
"&eeeeeee&&&ppppppppppppppphpppppuuuuuuuuuuuuuuuupppppp&&*9990ww&",
"&eeeeeeeee&&&ppppgppppppphshppppuuuuuuuuuuuuuuuupppp&&&wq99w000&",
"&eeeeeeeeeee&&&pppppppppgphpppppuuuuuuuuuuuiuuuupp&&-00wq0ww000&",
"&eteeeeeeeeeee&&&pppppppppppppppuuuuuuuuuuuuuuuu&&&0000w00ww000&",
"&0eeeeeeeeeeeeee&&&pppppppppppppuuuiuuuuguuuuu&&*qqqqq9ww99qqq7&",
"&o00rreeeeeeeeeeee&&&ppppappppppuuuuuuuuuuuu**&qqqqqqqqwq9w077O&",
"&<o.00eeeeeeeeeeeeee&&&pppppppppguuuppuuuu&**qqqqqqqqq0wqw77Ooo&",
"&<>>..00eeeeeeeeeeeeee&&&pppppppuuuupppp&&&qqqqqqqqqqq0077OXo##&",
"&<<<<<oo00rrreeeeeeeeeee&-&ppppppppppp%&*qqqqqqqqqqq0077Ooo####&",
"&<<<<<<>XX00eeereeeeeeeeee&&&pappppp&&&0w0qqqqqqqqqq66OX.######&",
"&>5<><<<><oo00rreeeeeeeeeeee&&&ppp&&&000q0qqqqqq0067O..#######5&",
"&<<<<<<<><><Xo00eeeeeeeeeeeeee&&&&&00000qqqqqqw076Oo.##########&",
"*<<<<<<<<<<<><oX00ereeeeeeeeeee&&&ww99990wwww967OXo#######.####&",
"*<<<<<<5<<<:<<<<X.00eeeeeeeetee&&&w099qq00ww77Ooo##############&",
"&><<<<<<<:<<<<<<>>oo00rreeeeeee&&&00qqqq0066OXo################&",
"*>>o<<<<<X<<<<<<<<>>XX00eeeeeee&&&009qqq77OXX#########4###+4###&",
"*><<<<<<<<<<<5<<<<<<<<XX00eeeee&**w0qq77OXX##+#################&",
"&><<<<<<<<<<<<<<<<<<<<<<oo00eee&**9077OXX#########.############&",
"*5<<<<<<<<<<<<<<<<<<<<<<<<XXqqe&*&07OXX######+#4########.#####.&",
"*<<<<<<<<<<<<<<<<<<<<<<<<<>>..q&&&7oo######+#############+####+&",
"&><<<<5<<<<<<X<<<<<<<<<<<<<<<<o&&&.######################+#####&",
"*><<<<<<<<<<<<<<<<<<5<<<<<<<<<>&&&###++####.###################&",
"*><><<<<<<<<<:<<<<<<<<<<<<o<<<<*&&######4############4##@#+###4&",
"&><o<<<<<<<:<<<<<<<<<1<<<<><<<<*&&##.###+##+###############.###&",
"*<<<<<<<<<<<<<<<<<<<<<<<<<<<<<;&&&##########4###.#####+########&",
"*<<<:<<<<<<<<5<<<<<<<<<<<<<<<<;*&&#####+#+#########+#+#########&",
"&><<<<<<X<<<<<<<<<<<<<X<<<<<5<>*&&#@######+####+###############&",
"*><5<<<<<<<<<<<<<<<<<<<<<<<<<<>&&&####################.########&",
"*;;<<<<<<<<<<<<<<o<<<<<<<<<<<<<*&&#X####@X####+##########4###.#&",
"&&<<<<<<<<<<<<<<<<<<<<<<<<<<<<<*&&####4###########4###########&&",
" &&&<<<<<<5<<<<<<<<<<<5<<:<<<<>*&&###########X##+###########&&& ",
"   &&&<<<<<<<<<<<<<<<<<<<><<<<>*&&##@#####################&&&   ",
"     &&&&<<<<<<<<<<<<<<<<<<X<<>*&&###X@##4##############&&&     ",
"        &&&<<o<<<<<<<<<<<<<<<>>&&&#####@##########.+##&&&       ",
"          &&&<<<<>5<<<<<<<<<<<<*&&@#####@#####4#####&&&         ",
"            &&&<<<<<<<><<<<<<<<*&&########@X######&&&           ",
"              &&&<<<<o<<<<<<<<<&&&#4############&&&             ",
"                &&&<<><<<<5<<<<&-&###########&&&&               ",
"                  &&&<<<<<<<<<<&&&#####4###&&&                  ",
"                    &&&&<<<<<<<&&&#######&&&                    ",
"                       &&&<<<.<&-&#.###&&&                      ",
"                         &&&<<<&&&###&&&                        ",
"                           &&&<&-&#&&&                          ",
"                             &-&&&&&                            "
};
