/* XPM */
static char *_01646851425[] = {
/* columns rows colors chars-per-pixel */
"64 64 13 1 ",
"  c None",
". c #3A2802",
"X c #234A18",
"o c #7D4900",
"O c #855224",
"+ c #846B29",
"@ c #A56B31",
"# c #008300",
"$ c #29AD10",
"% c #52D620",
"& c #BDEF18",
"* c #FFDE00",
"= c white",
/* pixels */
"                                                                ",
"                              &&&&                              ",
"                            &&&&&&&&                            ",
"                          &&&&&&&&&&&&                          ",
"                        &&&&&&&&&*&&&&&&                        ",
"                      &&&&&&&&&&&&&&&&&&&&                      ",
"                    &&&&&&*&&&&&&&&&&&&&&&&&                    ",
"                  &&&&*&&&*&&&&&&&&&&&&&&&&&&&                  ",
"                &&&&&&&*&&*&&&&&&&&&&&&&&&&&&&&&                ",
"              &&&&&&&&&*&&*&*&&&*&&&&&&&&&&&&&&&&&              ",
"            &&&&&&&*&&&*&&*&*&&&&&&&&&&&&&&&&&&&&&&&            ",
"          &&&&&&&&&&&&&&&&&&&&&&&&&&&&&&&&&&&&&&&&&&&&          ",
"        &&&&&&&&*&&&&&&&&&&&&&&&&*&&&&*&&&&*&&&&&&&&&&&&        ",
"      &&&&&&&&&&&&&&&&&*&&&&&&&&*&&&&&&&&&&&&&&&&&&&&&&&&&      ",
"    &&&&&&&&&&&&&&&=&&&&&&&&&&*&*&&&&&&&&*&&&&&&&&&&&&&&&&&&    ",
"  &&&&&&&&*&&&&&&&=*=&&&*&&&&&*&*&&&&&&&&*&&&&&&&&&&&&&&&&&&&&  ",
"&&&&&&&&&&&&&&&&&&&=&&&&&&&*&&*&*&&&&&&*&*&&&&&&&&&&&&&&&&&&&&&&",
"%%&&&&&&&&&&&&&&&&&&&&&&&&&&*&*&*&&*&&&*&*&&=&&&&&&&&&&&&&&&&&&$",
"%%%%&&&&&&&&&&&&*&&&&&&&&&&&*&*&*&&&&&&*&*&=*=&&&&&&&&&&&&&&&$$$",
"%%%%%%&&&&&&&&&&*&&&&&&&&&&&*&*&*&&&&&&*&*&&=&&&&&&&&&&&&&&$$$$$",
"%%%%%%%%&&&&&&&&&&&&&&&&&&&&&&&&&&&&&&&&&&&&&&&&&&&&&&&&&$$$$$$$",
"%%%%%%%%%%&&&&&&&&&&&&&&*&&&&&&&&&&&&*&&&&&&&&&&&&&&&&&$$$$$$$$$",
"%%%%%%%%%%%%&&&&&&&&&&&&&&&&&&&&&&&&&&&&&&&&&*&&&&&&&$$$$$$$$$$$",
"%%%%%%%%%%%%%%&&&&&&&&&&&&&&&&&&&&&&&&&&&&&&&&&&&&&$$$$$$$$$$$$$",
"$$%%%%%%%%%%%%%%&&&&&&&&&&&&&&&&&&&*&&&&&&&&&&&&&$$$$$$$$$$$$$##",
"..$$%%%%%%%%%%%%%%&&&&&&&&&&*&&&&&&*&&&&&&&&&&&$$$$$$$$$$$$$##X.",
"++..$$%%%%%%%%%%%%%%&&&&&&&&&&&&&&&*&*&&&&&&&$$$$$$$$$$$$$##X..o",
"++++..$$%%%%%%%%%%%%%%&&&&&&&&=&&&&*&*&&&&&$$$$$$$$$$$$$##X..ooo",
"++++++..$$%%%%%%%%%%%%%%&&&&&=*=&&&&&&&&&$$$$$$$$$$$$$##X..ooooo",
"++++++++..$$%%%%%%%%%%%%%%&&&&=&&&&&&&&$$$$$$$$$$$$$##X..ooooooo",
"++@+++++++..$$%%%%%%%%%%%%%%&&&&&&&&&$$$$$$$$$$$$$##X..ooooooo@o",
"++++++++++++..$$%%%%%%%%%%%%%%&&&&&$$$$$$$$$$$$$##X..ooooooooooo",
"++++++++++++++..$$%%%%%%%%%%%%%%&$$$$$$$$$$$$$##X..ooooooo.ooooo",
"+++++++@++++++++..$$%%%%%%%%%%%%&$$$$$$$$$$$##X..ooooooooooooooo",
"++++++++++++++++++..$$%%%%%%%%%%&$$$$$$$$$##X..ooooooooooooooooo",
"+++.+++++.++++++++++..$$%%%%%%%%&$$$$$$$##X..ooooooooo@oooo@oooo",
"+++++++++++++@++++++++..$$%%%%%%&$$$$$##X..ooooooooooooooooooooo",
"++++++++++++++++++++++++..$$%%%%&$$$##X..ooooooooo.ooooooooooooo",
"+@++++++++++++++++++++++++..$$%%&$$#X..oooooooo@oooooooo.ooooo.o",
"++++++++++++++++++++++++++++..$$&##..ooooooooooooooooooooooooooo",
"++++++@++++++.++++++++++++++++..O..ooooooooooooooooooooooooooooo",
"++++++++++++++++++++@+++++++++++Ooooooooooo.oooooooooooooooooooo",
"++++++++++++++++++++++++++.+++++Oooooooo@oooooooooooo@oooooooo@o",
"+++.++++++++++++++++++++++++++++Oooo.oooooooooooooooooooooo.oooo",
"++++++++++++++++++++++++++++++++Oooooooooooo@ooo.ooooooooooooooo",
"+++++++++++++@++++++++++++++++++Oooooooooooooooooooooooooooooooo",
"++++++++.+++++++++++++.+++++@+++Oooooooooooooooooooooooooooooooo",
"+++@++++++++++++++++++++++++++++Oooooooooooooooooooooo.ooooooooo",
"+++++++++++++++++.++++++++++++++Ooo.ooooo.ooooooooooooooo@ooo.oo",
"++++++++++++++++++++++++++++++++Oooooo@ooooooooooo@ooooooooooooo",
" +++++++++@+++++++++++@+++++++++Ooooooooooooo.ooooooooooooooooo ",
"   +++++++++++++++++++++++++++++Ooooooooooooooooooooooooooooo   ",
"     ++++++++++++++++++++++.++++Ooooo.ooo@ooooooooooooooooo     ",
"        +++++.++++++++++++++++++Oooooooooooooooooo.oooooo       ",
"          ++++++++@+++++++++++++Oooooooooooooo@oooooooo         ",
"            ++++++++++++++++++++Ooooooooooo.ooooooooo           ",
"              +++++++.++++++++++Ooo@ooooooooooooooo             ",
"                ++++++++++@+++++Ooooooooooooooooo               ",
"                  ++++++++++++++Ooooooo@oooooo                  ",
"                    ++++++++++++Oooooooooooo                    ",
"                       ++++++.++Ooo.oooooo                      ",
"                         +++++++Oooooooo                        ",
"                           +++++Oooooo                          ",
"                             +++Oooo                            "
};
