/* XPM */
static char *_0_h1646852823[] = {
/* columns rows colors chars-per-pixel */
"64 64 42 1 ",
"  c None",
". c #3A2802",
"X c #3A2902",
"o c #234A18",
"O c #234B18",
"+ c #7D4800",
"@ c #7C4900",
"# c #7D4900",
"$ c #7D4801",
"% c #7D4901",
"& c #FE3434",
"* c #FF3434",
"= c #FF3534",
"- c #FF3435",
"; c #846B28",
": c #846A29",
"> c #856A29",
", c #846B29",
"< c #856B29",
"1 c #A56B30",
"2 c #A56A31",
"3 c #A56B31",
"4 c #008200",
"5 c #008300",
"6 c #008301",
"7 c #29AC10",
"8 c #28AD10",
"9 c #29AD10",
"0 c #29AD11",
"q c #52D620",
"w c #53D620",
"e c #52D720",
"r c #52D621",
"t c #BDEE18",
"y c #BCEF18",
"u c #BDEF18",
"i c #BDEF19",
"p c #FFDE00",
"a c #FFDF00",
"s c #FFDE01",
"d c #FEFFFF",
"f c white",
/* pixels */
"                                                                ",
"                              &&&&                              ",
"                            ***uu&&&                            ",
"                          &&*uuuuuu&&&                          ",
"                        &&&uuuuuusuuu&&&                        ",
"                      **&uuuuuuuuuuuuuy&**                      ",
"                    &&*uuusuuuuuuuuuuuyyi*&&                    ",
"                  &&&upuuusuuuuuuuuuuiiiyyy&&&                  ",
"                ***uuuupuusuuuuuuuuuuuuuuuuuu***                ",
"              &&*uuuuuupuususuuusuuuuuuuuuuuuuu*&&              ",
"            &&&uuuupuuupuususuuuuuuuuuuuuuuuuuuuy&&&            ",
"          &&&uuuuuuuuuuuuuuuuuuuuuuuuuuuuuuuuuuuyyy&&&          ",
"        ***uuuuupuuuuuuuuuuuuuuuusuuuusuuuusuuuuyuuuu***        ",
"      &&*uuuuuuuuuuuuuupuuuuuuuusuuuuuuuuuuuuuuuiuuuuuu*&&      ",
"    ***uuuuuuuuuuuuduuuuuuuuuususuuuuuuuusuuuuuuuuuuuuuiy&&&    ",
"  &&*uuuuusuuuuuuudpduuupuuuuususuuuuuuuusuuuuuuuuuuuuuyyyy&&&  ",
"&&&yyyyyuuuuuuuuuuuduuuuuuusuusupuuuuuupusuuuuuuuuuuuuuuuuuuu***",
"&w&&&yuuuuuuuuuuuuuuuuuuuuuususupuupuuupusuuduuuuuuuuuuuuuuu****",
"&www&&&uuuuuuuuusuuuuuuuuuuususupuuuuuupusudsduuuuuuuuyyuu&**88*",
"&wwwww&&*uuuuuuusuuuuuuuuuuususupuuuuuupusuuduuuuuuuuuiy&&&0888*",
"&qqqwwww***uuuuuyuuuuuuuuuuuuuuuuuuuuuuuuuuuuuuuuuuuuu&&*999899*",
"&qqqwwrrqq**&uuuuuuuuuuusuuuuuuuuuuuusuuuuuuuuuuuuuu&&*98999888*",
"&qqqeereqqqq&&*uuuuuuuuuuuuuuuuuuuuuuuuuuuuuusuuuu**&8898899888*",
"&qqqqeeeqqqqqq***uuuuuuuuuuuuuuuuuuuuuuuuuuuuuuu***800889998888*",
"&7qqrreeeqqqqqqq***yuuuuuuuuuuuutuupuuuuuuuuuu***99999999999995&",
"&.77wweeqqqqqqqqww**&uuuuuuusuuuuuupuuuuuuuu***909999998999955O&",
"&;..00wwrwqqqqqqeeww&&&tuuuuuuuuuuupupuuuu***889889999889955OXX&",
"&:::..00rwqqqqqqeerwqq&&*uuuuuduuuupuptu***988899899998855OX.##&",
"&;,,,,XX88qqqqqqqqqqqqqq***yydsduuuuuu***889999999990066o..####*",
"&;,<,<,,..80qqqqqqqqqqqqqq***uduuuuu***799899999999966o..######*",
"&;3<,<,,::XX88qqqqqqqqqqqqww***yuu&&&877999999999966oX.#######2*",
"&;;<,,,,:::,X.88qqqqqqqqqqwwww*&&&&888009999999966o..##########*",
"&,,,,,,,,,,,,,XX88qwqqqqqqeqeer*&&89999988799966O..%######X####*",
"&,,,,,,3,,,,,::,..88qqqqqqeqeer*&*889997808866X..%%%##########$*",
"&;,,,,,,,,,,,,,,::XX88qqqqqqqqr*&*0899990066o..+%%%%#########$#&",
"&;:X,,,,:X,,,,,,;:::XX88qqqqqqr*&*88999966o..;++%%%%##2####2###&",
"&;<<,,,,,,,,,3,,;;;;,,XX77qqwww*--009966o..@##@#@%#############&",
"&;,<,,,,,,,,:,,,;;<<,,:,..87www*--0066o..#######@@.############&",
"&3,,,,,:,,,,,:::,<<<,,,,,:..00w&-*06X.X;#######2########X#####X&",
"&,,,,,,,,,,,,,,:,<<<,,,,,:::XX0&-&6XX+++#######################&",
"&<,,,,2,,,,,,X,,,,,,,,,,,,,,,,X&**.@#$##$#$###############$####*",
"&<,,,,,,,,,,,,,,,,,,2,,,,,,,,,;&*&@@#######.@##################*",
"&<<,,,,,<,,,,,,,,,,,,,,,,,X,,,,&**@#####2############2########2&",
"&<,X,,,,,,,,,,,,,,,,:,,,,,,,,,,&**##.######$###############.###&",
"&,,,,,,,,,,,:,,,,,,,,,,,,,,,,,<&**#########@2###X##############&",
"&,,,,,,,,,,,;3,,,,,,,,,,,<,,,<<&**#############################&",
"&<,,,,,,X,,,<,,,,,<,,,X:,;,,3,<&**@############################&",
"-<,3,,,,,,,,,,,<,,;;;,,,,,,,,,<&**#####$######@#######X########&",
"&<<,,,,,,,,,,:,,,X:,,:,,,,,,,,,&**#X#####X######$##@#####2###.#*",
"&-,,,,,,,,,,,,,,,,,,,,,,,,,,,,,&**####2###########2###########**",
" &&&<,<<,,2,,,,,,,,,,,3,,,,,,,<&**####$####$#X##############&&* ",
"   &&-,<,,,,,,,,,,,,,,,,,,,,,<<&**###############$########**&   ",
"     &&&&<<<,:,,,,,,,,,,,,,X:,;&*&###.###2##############&&&     ",
"        &&&<,X,,,,,,,,,,,,,,,,;&**################.###&&&       ",
"          &&&;,,,,3,,,,,,,,,,,,&&&############2#####*&&         ",
"            &&&,,,,,,,,,,,,,,,,&&&#########.######***           ",
"              &&&<<<,X,,,,,,,,<&&&#2############&&&             ",
"                &&&<,,,<,,2,,<<&-&###########&&&&               ",
"                  &&&<<<,,,,,,<&&&#####3###&&&                  ",
"                    &&&&,,,,<,<&&&#$#####&&&                    ",
"                       &&&<<<X,&-&#X###&&&                      ",
"                         &&&<<,&&-###&&&                        ",
"                           &&&<&&&#&&&                          ",
"                             &&&&&&&                            "
};
