/* XPM */
static char *__h1646852820[] = {
/* columns rows colors chars-per-pixel */
"64 64 40 1 ",
"  c None",
". c #3A2802",
"X c #3B2802",
"o c #3A2902",
"O c #3A2803",
"+ c #224A18",
"@ c #234A18",
"# c #234B18",
"$ c #7D4800",
"% c #7C4900",
"& c #7D4900",
"* c #7D4901",
"= c #FE3434",
"- c #FF3434",
"; c #FF3534",
": c #FF3435",
"> c #846B28",
", c #856B28",
"< c #846A29",
"1 c #846B29",
"2 c #856B29",
"3 c #A56B31",
"4 c #008200",
"5 c #008300",
"6 c #018300",
"7 c #29AC10",
"8 c #28AD10",
"9 c #29AD10",
"0 c #29AD11",
"q c #52D620",
"w c #53D620",
"e c #52D720",
"r c #52D621",
"t c #53D621",
"y c #7BFE30",
"u c #7AFF30",
"i c #7BFF30",
"p c #7BFE31",
"a c #7BFF31",
"s c #D1F270",
/* pixels */
"                                                                ",
"                              ----                              ",
"                            ---qw---                            ",
"                          ---qqqwww---                          ",
"                        --=qqqqqqqqqw---                        ",
"                      -=-wqqqqqqqqqqwww---                      ",
"                    --=qwwwqqqqqqqqqqqwqq---                    ",
"                  ---aiiawqqqqqqqqqqqwqaiia---                  ",
"                ===iiiiiiiaqqqqqqqqqqiiiiiiii===                ",
"              --=iiiiiisiiiiiqqqqqqaiiiiiiiiiui=--              ",
"            ---aiiiiiiiiiiiiiiiqquaaiiiiiiiiiiiia---            ",
"          ---iaaiuiiiiiiiiiisaiiiiiiiiiiisiiiiiiiaa---          ",
"        ---wqiiiisiiiiiiiiiiiiiqqiiiiiiiiaiiiiiiiiiqq---        ",
"      ---qwwqqqiiiiiiiiiiiiiiqqqqqqaiiiiiaiiiiiiiqqqqqq---      ",
"    ---qqqwwqqqqquiiiiiiiiiqqqqqqqqwqiuiiiiuiaiqqqqqqqqww---    ",
"  ---qqqqqwqqqqqqqqiiisiiqqqqqqqqqqqqqqiiuiiiqqqqqqqqqqwwww---  ",
"---qqqqqqqqqqqqqqqqqqaiqqqqqqqqqqqqqqqqqwiiwqqqqqqqqqqqwwwqqq---",
"-w---qqqqqqqqqqqqqqiiiiiiqqqqqqqqqqqqqqiaiiisqqqqqqqqqqqwwqa----",
"-wwq--=qqqqqqqqqqiiiiiiiiiiqqqqqqqqqqiiiaiiiyyyqwwqwqqqqwa---88-",
"-wqqqq---qqqqqqaiaiiiiiiiiiiiqqqqqqiiaiiiiiiyyyyawwwqqqa=--8888-",
"-qqqqqqq=--wqiiiiiiiiiiiiiiiiiiqqiiiiiiiiiiiyyyyiiiqqi---998888-",
"-qqqqqqqww--=iiiisiiiiiiiiiiiiiiiiiiiiiiiiiiyyyyiiii---80999888-",
"-qqqqqqqqwqq==-aiiiiiiiisiiiuiaqqiiiiiiiiiiiyyyyii---0888899888-",
"-qqqqqqqqqqqqq---iiiaiiiiiiiiqqqqqqiiiiiiaiiyyyy---888889899888-",
"-8wqwqqqqqqqwqwq---iiiiiiiiqqqqqqqqqqiiisiiiii==-99999999988806=",
"-O88wwqqqqqqqqqqqq---aiiiqqqqqqqqqqqqqqiiiii===989999998998066@=",
"->OO80wwqqqqqqqwqqqq---qqqqqqqqqqqqqqqqqqi--=089889999888066#OX=",
"->>>OO80qqqwqqqqqqeqqq---qqqqqqqqqqqqqqi---988899899998066@XO$$=",
"->1111OO88wwwqqqqqqqwqqq--=qqqqqqqqqqi---089999999990855#OO&$$$-",
"->111111OO08qqwwqqqeqqqqqw=--qqqqqqi---899889999999955#OO&&&$$&-",
"-1311111>>OO88wwqqqqqqqqqqqq-=-qqy---888999999998055#OO&$&&&$&3-",
"-1111111>>>>OO88qqqqqqqqqqwqqq-----888889999999955@XO&&&&&&&&&&-",
"=1111111111111OO88qwqqqwqqqqqqq---99999988899955#OO&&&&&&&O&&&&-",
"=1111113111<1>>1XX88qqqwqqqqqqq---889999889955#oO$&&&&&&&&&&&&&-",
"=111111111111111>>OO88wwqqqqqqq---0899990855#XX&&&&&&&&&&&&&&&&-",
"=1,O1<11>O1111111>>>XX00qqqqqqq---88999955#OX$$$&&&&&&3&&&&3&&&-",
"=111111111111311111111OO88qqqqq---889955#OO&&&&&&&&&&&&&&&&&&&&-",
"=111111111111111111111>1OO88qqq---8055@XO&$&&&&&&&O&&&&&&&&&&&&-",
"=31111111111111111111111>>XX00w---05#XX$&&&&&&&3&&&&&&&&O&&&&&O-",
"=<111111111111111111111>>,,,OO0---5OO$$$&&&%&&&&&$&&&&&&&&&&&&&-",
"=111113111111O111111111111111>O---O&&&&&&&&&$&&&&&&&&&&&&&&&&&&-",
"=111111111111>1111113111111>111---&&&$&&&&&O&&&&&%&&&&&$&&&&&&&-",
"=11,111,11111111>111111111O1>11---&&&&&&3&&&&&&&&&&&&3&&&&$&&&3-",
"=11O1111111111111111111111>1111---$&O&&&&&%&&&&&&&&&&&&&&&&O&&&-",
"=11111,11111111111111111111>111---&&&&&&&&&&3&&%O&&&&&&&&&%&&&&-",
"=1111<11111<1311111111<11111111---&&&&&&&&&&&&&&&&&&&&&%&&&&&&&-",
"=1111111O>1111111>1111O>,111311---&&&&&&%&&&&&&&&&&&&&&&$&&&&&&-",
"=11311111<111111111<11111111111---&&&&&&&&&&&&&&&%&&&&O&&&&&&&&-",
"=1111111111111111O1111111111>11---&O&&&&&O&&&&&&&&&&&&&&&3&&&O&-",
"==11111111111111111111111111111---&&&&3&&&&&&&&&&&3&&&&&&&&&%&--",
" ===1111113,1111111111311111>>,---&&&&&%&&&&&O&&&&&&&&&&&&&&--- ",
"   =-:1111111111111111111111>>>---&&&&&&$&&&&&&&&&&&&&&&%&---   ",
"     ----1,11,11>1111111111O>11-;;&&$O&&&3&&&$&&&&&&&&&&---     ",
"        ---11O111111111111111,1---&&&&&&&&&&&&&&&$O&&&---       ",
"          ---111113111111111111---&&&&&&&&&&&&3&&&&&---         ",
"            ---1111111111111111---&&&&&&&&&O&&&&&&---           ",
"              ---1111O111111111---&3&&%&&&&&&&&&---             ",
"                ---111111131111---&&&&&&&&&&&----               ",
"                  ---1111111111--;&&&&&3&&&---                  ",
"                    ---;1111111---&&&&&&&---                    ",
"                       ---111O1---&O&&&---                      ",
"                         ---111---&&&---                        ",
"                           ---1---&---                          ",
"                             -------                            "
};
