/* XPM */
static char *_9_h1646852823[] = {
/* columns rows colors chars-per-pixel */
"64 64 37 1 ",
"  c None",
". c #3A2802",
"X c #3B2802",
"o c #3A2803",
"O c #234A18",
"+ c #7D4800",
"@ c #7C4900",
"# c #7D4900",
"$ c #7D4901",
"% c #FE3434",
"& c #FF3434",
"* c #FF3534",
"= c #FF3435",
"- c #846B28",
"; c #846A29",
": c #846B29",
"> c #856B29",
", c #A56B30",
"< c #A56B31",
"1 c #008300",
"2 c #018300",
"3 c #29AC10",
"4 c #28AD10",
"5 c #29AD10",
"6 c #29AD11",
"7 c #52D620",
"8 c #53D620",
"9 c #52D720",
"0 c #52D621",
"q c #BDEE18",
"w c #BCEF18",
"e c #BDEF18",
"r c #BDEF19",
"t c #FEDE00",
"y c #FFDE00",
"u c #FFDF00",
"i c #FFDE01",
/* pixels */
"                                                                ",
"                              &&&&                              ",
"                            &&=ee&&&                            ",
"                          &&&eeeeee&&&                          ",
"                        &&=eeeeeeeeee&&&                        ",
"                      &=&eeeeyeeeeeeeee&&&                      ",
"                    &&=eeeeeeyeeeeeeeeeew&&&                    ",
"                  &&&eeeeeeeeyeyeeeeeeeeeee&&&                  ",
"                ===eeeeeeeeeeyeyeeeeeeeeeeeee===                ",
"              &&=eeeeeeeeeyeeyeyyeeeeeeeeeeeeee=&&              ",
"            &&&eeeeeeeeeeeeeeeeeeeeeeeeeeeeeeeeee&&&            ",
"          &&&eeeeeeeeeeeeeeeeeeeeeeeeeeeeeeeeeeeeee&&&          ",
"        &&&eeeeeyeeeeeweeeeeeeeeeeeeeeeeeeeyeeeeeeeee&&&        ",
"      &&&eweeeeeeeeeeeeeeeeeeeeeeeeeeeeeeeyeeeeeeeeeeee&&&      ",
"    &&&eeeeeeeeeeeeeeeeeeeeeeeeeeeeeeeeeeeyeeeeeeeeeeeeee&&&    ",
"  &&&eeeeeeeeeeeeeeeeyewyeeeeeeyeeeeeeeeeeyeeeeeeeeeeeeeeee&&&  ",
"&&%eeeeeeeeeeeeeeeeeeyeeeeeeyeeyeeeeeeeeyeyeeeeeeeeeeeeeeeeee%%%",
"&0%%%eeeeeeeeeeeeeeeeeyeeeeeeyeyeeeyeeeeyeeyeueeeeeeeyeeeeee%%%%",
"&777%%%eeeeeeeeeyeeeeeeeeeeeeyeyeyeeeeeeyeeyeyeeeeeeeeeeee&%%55&",
"&07777%%%eeeeeeeyeeeeeeeeeeeeyeyeyeeeeeeeyeyeyeeeeeeeeee&&&6556&",
"%7777777%%%eeeeeeeeeeeeeeeeeeyeyeyeeeeeeeyeyeueeeeeeee&&%555555%",
"%777777777%%&eeeeeeeeeeeeeeeeyeyeyeeeeeeeeeeeeeeeeee&&%55555555%",
"%07777777707&&%eeeeeeeeeeeeeeeeeeeeeeeeeeeeeeueeee&&&6655555565%",
"%7777778777770%%=eeeeeeeeeeeeeeeeeeyeeeeeeeeeeee&&&646665555655%",
"%577777777777770=&&eeeeeeeeeeeeeeeweyeeeeeeeee%%*55566665555562=",
"%X5577777777777700&&%eeeeeeeyeeeeeyeyeeeeeee&&%565546666555622O&",
"&-XX5500777777777077%%%eeeeeeeeeeeyeyeeeee%%&445644466665622OX.&",
"&---XX6677777777777777%%%eeeeeeeeeywyeee%%%564446444446622OXX++&",
"&-::-:oo5500077777777777%&%eeeeeeeeeee&&&645555545556611o..+@+@&",
"&-::::::XX6477777777777709%%%eeeeeee&&&655445555555511Ooo++++++&",
"&:<:::::--oo5477777777777777%%%eee%%%566555555444622Ooo@@@@-@@<&",
"&:::::::----XX4577777777707777%%&%%555565555554622OXo@@@@@@@@@+&",
"=::::::::::::-oo440070707707777%&&55555544555522OXX@-+++++.++++=",
"=::::::<::::::-:XX4477707777777%&&555555445522OXX@@@@@+++++++++&",
"=:::::::::::::::--Xo55007777777%&&6555556422OXX@++@@@@@@+++++++=",
"=::o::::-o::::::----XX667777777%&&66555522OXX@@@++-@@@<++++<+@+&",
"=:;:::::-:::-<::-:::::oo5677777%%%555622OXX@@+++++++++++++++++@&",
"&:;;::::::::::::::::::--XX55097%%%5622OXX@@@++++++.+++++++++++@&",
"%<;;::::::::::::::::::::--XX669&%%42OXX@@@+++++<++++++@+.+++@@X&",
"%::-::::::::::::::::::::----Xo6&%%2XX+++@@@+++++++++++@+++-@@@@&",
"%:::::<::::::o::::::::::::::::o&%%X+++@@-++++++++++++++++++@+++&",
"%::::::::::::-:::-::<::::::::::=%%@@++@@+++.+++++++++++++++++++&",
"%:::::::::::::::::::::::-:X::::&%%@@++++<++++++++++++<@-++++@@<&",
"%::X::::::::::::::::::::---::::&%%+-.+++++++++++++++++@@+++.@+@&",
"%::::::::::::-:::::::::::::::::&%%++++++++++<+++.++++++@++++@@-%",
"%:-:::::-::::<:::::::::::::::::&%%++++++++++++-@+++++++@++++@@+%",
"%:::::::o-::::::::::::o-::::<::&%%+++++++++++@@@@@+@+++++++++++&",
"%::<:::::::::::::::::::::::::::&%%+++++++++++@@@+@@@++.++++++++&",
"%::::::::::::::::X:::::::::::::&&&@X+++++.++++++@++++++++<+++.+=",
"%%:::::::::::::::::::::::::::::&&&@@@+<+++++++++-+,++-++++++++&&",
" &%%::::::<:::::::::::<::::::::&&&+++++++++++.++++++@@@+++++&&& ",
"   %&&:::::::::::::::::::::::::&&&++++++++++++++++++@@@+++%%&   ",
"     &&&&::::::::::::::::::X:::&&*@++.++@<@@@@@+++++++++&&&     ",
"        &&&::X:::::::::::::::::&&&+@++++++@@@@-+++.+++&&&       ",
"          &&&:::::<::::::::::::&&&@@+++++-@@++<+++++&&&         ",
"            &&&::::::::::::::::&&&@@+++++@@X++++++==&           ",
"              &&&::::o:::::::::&&&+,++++@@@+++++&&&             ",
"                &&&:::::::<::::&&&-@++++@+@-+%&&&               ",
"                  &&&::::::::::&&&@@+++<+++&%=                  ",
"                    &&&&::::::-&&&@@+++++&&&                    ",
"                       &&&:::X-&&&+X+++=&&                      ",
"                         &&&::-&&&+++%&&                        ",
"                           &&&-&&&+&&&                          ",
"                             &&&&&&&                            "
};
