/* XPM */
static char *_11646851425[] = {
/* columns rows colors chars-per-pixel */
"64 64 19 1 ",
"  c None",
". c #3A2802",
"X c #503302",
"o c #663E01",
"O c #234A18",
"+ c #7D4900",
"@ c #855224",
"# c #846B29",
"$ c #A56B31",
"% c #008300",
"& c #29AD10",
"* c #51FF00",
"= c #52D620",
"- c #7BFF30",
"; c #FFDE00",
": c #B3F270",
"> c #D1F270",
", c #CE9C85",
"< c white",
/* pixels */
"                                                                ",
"                              ----                              ",
"                            --------                            ",
"                          ------------                          ",
"                        ----------------                        ",
"                      ---------->---------                      ",
"                    ------------------------                    ",
"                  ----------------------------                  ",
"                --------------------------------                ",
"              --------->--------------------------              ",
"            --++------------------------------------            ",
"          ---+$$+----------->------------>------------          ",
"        -----+$$$+--------------------------------------        ",
"      ------+$$$$+----------------------------------------      ",
"    -------+$$$$$+--+++++-----------------------------------    ",
"  ---------X,$$$,X-X$$$$$+------------------------------------  ",
"----------o$$,,,ooX$$$$$$,+--------------<----------------------",
"==---------$$$oooXo,,$$$,oX--:----------<;<->--->--------------&",
"====--------$$$oXoo$$,,,oo---------->----<-------------------&&&",
"======-----------oo$$ooooX---------------------------------&&&&&",
"========------------$o-o-X-------------------------------&&&&&&&",
"==========------->------------<------------------------&&&&&&&&&",
"============------------>----<;<---------------------&&&&&&&&&&&",
"==============----------------<--------------------&&&&&&&&&&&&&",
"&&==============------------------------>--------&&&&&&&&&&&&&%%",
"..&&==============-----------------------------&&&&&&&&&&&&&%%O.",
"##..&&==============------------>------------&&&&&&&&&&&&&%%O..+",
"####..&&==============---------------------&&&&&&&&&&&&&%%O..+++",
"######..&&==============-----------------&&&&&&&&&&&&&%%O..+++++",
"########..&&==============-------------&&&&&&&&&&&&&%%O..+++++++",
"##$#######..&&==============---------&&&&&&&&&&&&&%%O..+++++++$+",
"############..&&==============-----&&&&&&&&&&&&&%%O..+++++++++++",
"##############..&&==============*&&&&&&&&&&&&&%%O..+++++++.+++++",
"#######$########..&&============*&&&&&&&&&&&%%O..+++++++++++++++",
"##################..&&==========*&&&&&&&&&%%O..+++++++++++++++++",
"###.#####.##########..&&========*&&&&&&&%%O..+++++++++$++++$++++",
"#############$########..&&======*&&&&&%%O..+++++++++++++++++++++",
"########################..&&====*&&&%%O..+++++++++.+++++++++++++",
"#$########################..&&==*&&%O..++++++++$++++++++.+++++.+",
"############################..&&*%%..+++++++++++++++++++++++++++",
"######$######.################..@..+++++++++++++++++++++++++++++",
"####################$###########@++++++++++.++++++++++++++++++++",
"##########################.#####@+++++++$++++++++++++$++++++++$+",
"###.############################@+++.++++++++++++++++++++++.++++",
"################################@+++++++++++$+++.+++++++++++++++",
"#############$##################@+++++++++++++++++++++++++++++++",
"########.#############.#####$###@+++++++++++++++++++++++++++++++",
"###$############################@+++++++++++++++++++++.+++++++++",
"#################.##############@++.+++++.+++++++++++++++$+++.++",
"################################@+++++$+++++++++++$+++++++++++++",
" #########$###########$#########@++++++++++++.+++++++++++++++++ ",
"   #############################@++++++++++++++++++++++++++++   ",
"     ######################.####@++++.+++$+++++++++++++++++     ",
"        #####.##################@+++++++++++++++++.++++++       ",
"          ########$#############@+++++++++++++$++++++++         ",
"            ####################@++++++++++.+++++++++           ",
"              #######.##########@++$+++++++++++++++             ",
"                ##########$#####@++++++++++++++++               ",
"                  ##############@++++++$++++++                  ",
"                    ############@+++++++++++                    ",
"                       ######.##@++.++++++                      ",
"                         #######@+++++++                        ",
"                           #####@+++++                          ",
"                             ###@+++                            "
};
