/* XPM */
static char *_1_h1646852823[] = {
/* columns rows colors chars-per-pixel */
"64 64 46 1 ",
"  c None",
". c #3A2802",
"X c #3B2802",
"o c #3A2902",
"O c #3A2803",
"+ c #503302",
"@ c #663E01",
"# c #673E01",
"$ c #234A18",
"% c #7C4800",
"& c #7D4800",
"* c #7C4900",
"= c #7D4900",
"- c #7D4801",
"; c #7C4901",
": c #7D4901",
"> c #FE3434",
", c #FF3434",
"< c #FF3534",
"1 c #FF3435",
"2 c #846B28",
"3 c #846A29",
"4 c #846B29",
"5 c #856B29",
"6 c #A46B31",
"7 c #A56B31",
"8 c #008300",
"9 c #29AC10",
"0 c #28AD10",
"q c #29AD10",
"w c #29AD11",
"e c #52D620",
"r c #53D620",
"t c #52D720",
"y c #7AFE30",
"u c #7BFE30",
"i c #7AFF30",
"p c #7BFF30",
"a c #7AFF31",
"s c #7BFF31",
"d c #FFDE00",
"f c #B3F270",
"g c #D1F270",
"h c #CE9C85",
"j c #CE9D85",
"k c white",
/* pixels */
"                                                                ",
"                              ,,,,                              ",
"                            ,,,pp,,,                            ",
"                          ,,,pppppp,,,                          ",
"                        ,,,pppppspppp,,,                        ",
"                      ,,,pppppppgpppppp,,,                      ",
"                    ,,,pppppppppppppppppp,,,                    ",
"                  ,,,pppppppppppppppppppppp,,,                  ",
"                ,,,pppppppppppppppppppppppppp>1>                ",
"              ,,,ppppppgppppppppppppppppppppppp>,,              ",
"            ,,,=ppppppppppppppppppppppppppppppppp,,,            ",
"          ,,,=77=pppppppppppgppppppppppspgppppppppp,,,          ",
"        ,,,pp=777=pppppppppppppppppppppppppppppppsppp>>,        ",
"      ,,,ppp=7777=pppppppppppppppsppppppppppppppppppppp>,,      ",
"    ,,,pppp=77777=pp====;pppppppppppspppppppppppppppppppp1,,    ",
"  ,,,pppppp+h777h+p+77776;ppppppppppppppppppppppppppppppppp,,,  ",
",,,ppppppp#77hhh##+666666h;ppppppppppppppkppppppppppppppppppp,,,",
",e,,,ppppyy777###+#hh666j#+ppfppppppppppkdkpgpppgppppppppppy<,,,",
",eee>>>pyppp777#+#@67hjj##ppppppppppgppppkpppppppppppppppp>,,qq,",
",eeeee>>,pppppppy#@67####+pppppppppppppppppppppppppppppp>>>wqqq,",
",eeeeeee,,,ypppppppp7#y#p+pppppppppppppppppppppppppppp>>,qqqqqq,",
",eeeeeeeee,,<ppypgpppppyppppppkppppppppppppppppppppp>>,wqqqqqqw>",
",eeeeeeeeeee,,<yppppppppgppppkdkppppppppppppyppppp>>>wwwqqqqqqq,",
",eeeeeeeeeeeee<<,pppppppppppppkppppppppppppppppy>>>wwwwwqqqqqqw>",
",weeeeeeeeeeeeee,,,pppppppppppppppppppppgppppp,,,qqqqqqqqqq99w8>",
",Oqweeeeeeeeeeeeee,,,ppppppppppppppppppppppp,<,qqqqqqqqqqqqw88$>",
",2OOqqeeeeeeeeeeeeee,,,pppppppppgpppppppyp,,,qqwqqq9qqqqqw88$..>",
",222OOwweeeeeeeeeeeeee,,>ppppppppppppppp,,,qqqqqqqqqqqqw88$..==>",
",24444OOqqeeeeeeeeeeeeee>>>ppppppppppp>>,qqqqqqqqqqwww88$.X====>",
",2444444OOwweeeeeeeeeeeeee>>>ppppppy>>>9qqqqqqqqqqq988$..=&====>",
",274444452OOqqeeeeeeeeeeeeee>>>ppp,,,q99qqqwqqqwqw88$..=======7>",
",24444445222OOqqeeeeeeeereeeee,,<,,qqwwwqqqqqqqw88$..==========>",
">4444444444244OOqqeeeeeeeeeeree,<,qqqqqqqqqqqq88$..=&=====O====>",
">444444744444224OOqqeeeeeeeeeee,,,qqqqqqqqqq88$..==============>",
">44444444444444422OOwweeeeeeeee,,>wqqqqqwq88$OO================>",
">42O44444O4444442222OOwwereeeee<,>9qqqqq88$OO====&====7====7===>",
">444444444444744222444OOqqeeeee<,,qqqw88$OO============&=======>",
">44444444444424422444424OOqqeee<,,qw88$..=========.============>",
">7444444444443244444422222OOwwt,,,w8$..========7========O=====O>",
">444444444444444444422222222OOw,,,8..==========================>",
">444247444444O4444444444444444O,,,.============================>",
">442444442444244444474444444444,,,=========.===================>",
">4424444444424444444444444O4444,>>=;====7============7========7>",
">24O444244444444444444444424444,>>==.======================.===>",
">444444444444444444444444444444,>>==========7===.=====&========>",
">444444444444744444444442444444,>>=============================>",
">4444444O2444444444444O24444724,>>=============================>",
">447444444444444444444424444444,>,====================.========>",
">4444444444444244O5444445444444,>>=O=====O===============7===O=,",
">>44444444444444445244442444444,>>====7===========7===========,,",
" >>>444444744444444444744444444,>>===========O==============,,, ",
"   >,12444444444444444444444444,>>========================,,,   ",
"     ,,,,444424444444444444O244,>,===.&==7==============,,,     ",
"        ,,,44O44444444444444444,>>================O===,,,       ",
"          ,,>444447444444444444,>>=======&====7=====>,,         ",
"            >>>4444444444444444,>>=========O======>>>           ",
"              ,,,4444O444444444>>>=7============,,,             ",
"                ,,,442444474444>>>===========,,,,               ",
"                  ,,,4444444444>>>=====7===,,,                  ",
"                    ,,,,4444444>>>=======,,,                    ",
"                       ,>,444O2>,,=O===>,,                      ",
"                         ,,,444>,,=;=>>>                        ",
"                           ,,,4,,,=,,,                          ",
"                             ,,,,,,,                            "
};
