/* XPM */
static char *_21646851425[] = {
/* columns rows colors chars-per-pixel */
"64 64 17 1 ",
"  c None",
". c #3A2802",
"X c #663E01",
"o c #234A18",
"O c #7D4900",
"+ c #855224",
"@ c #846B29",
"# c #A56B31",
"$ c #008300",
"% c #29AD10",
"& c #51FF00",
"* c #52D620",
"= c #7BFF30",
"- c #BDEF18",
"; c #9CF724",
": c #B3F270",
"> c #D1F270",
/* pixels */
"                                                                ",
"                              ====                              ",
"                            ========                            ",
"                          ============                          ",
"                        ================                        ",
"                      ==========>===oo====                      ",
"                    ==============;===o=====                    ",
"                  ================;;;;=o======                  ",
"                =================;=;;=;=o=======                ",
"              =========>========;=;=;;=;=o========              ",
"            ====================;;;;;;;;;=o=========            ",
"          ==================>===;;=;;;;==;=oo=========          ",
"        =========>==============;=;;--;=;;;==o==========        ",
"      =======================O=;==;;;;;;;;;;==o===========      ",
"    =========================#O===;;;;;;;;;==;;oo===========    ",
"  ====================>=======#OO===;;;;;;======;oo===========  ",
"==============================###OOOOOOOOOOOOOOO;;;o============",
"**============>==============:=###XXXXXXXXXXXXXXOOO============%",
"****============================##XXXXXXXXXXXXXXXXO==========%%%",
"******===========================#X=X=X=XXXXXXXXXO=========%%%%%",
"********==========================X=X=X=XXXXXXXXO========%%%%%%%",
"**********=======>====================X=X=X=XXXO=======%%%%%%%%%",
"************============>=================X=XX=======%%%%%%%%%%%",
"**************=====================================%%%%%%%%%%%%%",
"%%**************========================>========%%%%%%%%%%%%%$$",
"..%%**************=============================%%%%%%%%%%%%%$$o.",
"@@..%%**************============>============%%%%%%%%%%%%%$$o..O",
"@@@@..%%**************=====================%%%%%%%%%%%%%$$o..OOO",
"@@@@@@..%%**************=================%%%%%%%%%%%%%$$o..OOOOO",
"@@@@@@@@..%%**************=============%%%%%%%%%%%%%$$o..OOOOOOO",
"@@#@@@@@@@..%%**************=========%%%%%%%%%%%%%$$o..OOOOOOO#O",
"@@@@@@@@@@@@..%%**************=====%%%%%%%%%%%%%$$o..OOOOOOOOOOO",
"@@@@@@@@@@@@@@..%%**************&%%%%%%%%%%%%%$$o..OOOOOOO.OOOOO",
"@@@@@@@#@@@@@@@@..%%************&%%%%%%%%%%%$$o..OOOOOOOOOOOOOOO",
"@@@@@@@@@@@@@@@@@@..%%**********&%%%%%%%%%$$o..OOOOOOOOOOOOOOOOO",
"@@@.@@@@@.@@@@@@@@@@..%%********&%%%%%%%$$o..OOOOOOOOO#OOOO#OOOO",
"@@@@@@@@@@@@@#@@@@@@@@..%%******&%%%%%$$o..OOOOOOOOOOOOOOOOOOOOO",
"@@@@@@@@@@@@@@@@@@@@@@@@..%%****&%%%$$o..OOOOOOOOO.OOOOOOOOOOOOO",
"@#@@@@@@@@@@@@@@@@@@@@@@@@..%%**&%%$o..OOOOOOOO#OOOOOOOO.OOOOO.O",
"@@@@@@@@@@@@@@@@@@@@@@@@@@@@..%%&$$..OOOOOOOOOOOOOOOOOOOOOOOOOOO",
"@@@@@@#@@@@@@.@@@@@@@@@@@@@@@@..+..OOOOOOOOOOOOOOOOOOOOOOOOOOOOO",
"@@@@@@@@@@@@@@@@@@@@#@@@@@@@@@@@+OOOOOOOOOO.OOOOOOOOOOOOOOOOOOOO",
"@@@@@@@@@@@@@@@@@@@@@@@@@@.@@@@@+OOOOOOO#OOOOOOOOOOOO#OOOOOOOO#O",
"@@@.@@@@@@@@@@@@@@@@@@@@@@@@@@@@+OOO.OOOOOOOOOOOOOOOOOOOOOO.OOOO",
"@@@@@@@@@@@@@@@@@@@@@@@@@@@@@@@@+OOOOOOOOOOO#OOO.OOOOOOOOOOOOOOO",
"@@@@@@@@@@@@@#@@@@@@@@@@@@@@@@@@+OOOOOOOOOOOOOOOOOOOOOOOOOOOOOOO",
"@@@@@@@@.@@@@@@@@@@@@@.@@@@@#@@@+OOOOOOOOOOOOOOOOOOOOOOOOOOOOOOO",
"@@@#@@@@@@@@@@@@@@@@@@@@@@@@@@@@+OOOOOOOOOOOOOOOOOOOOO.OOOOOOOOO",
"@@@@@@@@@@@@@@@@@.@@@@@@@@@@@@@@+OO.OOOOO.OOOOOOOOOOOOOOO#OOO.OO",
"@@@@@@@@@@@@@@@@@@@@@@@@@@@@@@@@+OOOOO#OOOOOOOOOOO#OOOOOOOOOOOOO",
" @@@@@@@@@#@@@@@@@@@@@#@@@@@@@@@+OOOOOOOOOOOO.OOOOOOOOOOOOOOOOO ",
"   @@@@@@@@@@@@@@@@@@@@@@@@@@@@@+OOOOOOOOOOOOOOOOOOOOOOOOOOOO   ",
"     @@@@@@@@@@@@@@@@@@@@@@.@@@@+OOOO.OOO#OOOOOOOOOOOOOOOOO     ",
"        @@@@@.@@@@@@@@@@@@@@@@@@+OOOOOOOOOOOOOOOOO.OOOOOO       ",
"          @@@@@@@@#@@@@@@@@@@@@@+OOOOOOOOOOOOO#OOOOOOOO         ",
"            @@@@@@@@@@@@@@@@@@@@+OOOOOOOOOO.OOOOOOOOO           ",
"              @@@@@@@.@@@@@@@@@@+OO#OOOOOOOOOOOOOOO             ",
"                @@@@@@@@@@#@@@@@+OOOOOOOOOOOOOOOO               ",
"                  @@@@@@@@@@@@@@+OOOOOO#OOOOOO                  ",
"                    @@@@@@@@@@@@+OOOOOOOOOOO                    ",
"                       @@@@@@.@@+OO.OOOOOO                      ",
"                         @@@@@@@+OOOOOOO                        ",
"                           @@@@@+OOOOO                          ",
"                             @@@+OOO                            "
};
