/* XPM */
static char *_2_h1646852824[] = {
/* columns rows colors chars-per-pixel */
"64 64 46 1 ",
"  c None",
". c #3A2802",
"X c #3B2802",
"o c #3A2902",
"O c #3A2803",
"+ c #663E00",
"@ c #663E01",
"# c #673E01",
"$ c #663F01",
"% c #234A18",
"& c #234B18",
"* c #7D4800",
"= c #7C4900",
"- c #7D4900",
"; c #7D4801",
": c #7D4901",
"> c #FE3434",
", c #FF3434",
"< c #FF3534",
"1 c #FF3435",
"2 c #846B28",
"3 c #846A29",
"4 c #846B29",
"5 c #856B29",
"6 c #A56A31",
"7 c #A56B31",
"8 c #008300",
"9 c #29AC10",
"0 c #28AD10",
"q c #29AD10",
"w c #29AD11",
"e c #52D620",
"r c #53D620",
"t c #52D720",
"y c #52D621",
"u c #7BFE30",
"i c #7AFF30",
"p c #7BFF30",
"a c #7BFF31",
"s c #BDEF18",
"d c #9CF724",
"f c #9DF724",
"g c #9CF725",
"h c #B3F270",
"j c #D1F270",
"k c #D1F271",
/* pixels */
"                                                                ",
"                              ,,,,                              ",
"                            1,1pp,,,                            ",
"                          ,,1pppppp,,,                          ",
"                        ,,,pppppppppp,,,                        ",
"                      ,>,pppppppkppp%%p,,,                      ",
"                    ,,>pppppppppppdppp%pp,,,                    ",
"                  ,,,puuppppppppppddddp%ppp,,,                  ",
"                >>>pppuuuuuupppppdpddpdp%pppp111                ",
"              ,,>uppppujpuuuppppdpdpddpdp%ppppp1,,              ",
"            ,,,puuuupppuppuuppppdddddddddp%pppppp,,,            ",
"          ,,,pppuuuuppppppuukpppddpddddppdp%%pppppp,,,          ",
"        ,,,pppppujuuuuuuppppppppdpddssdpdddpp%ppppppp,,,        ",
"      ,,,pppppppuuuuuuuuppppp-pdppddddddddddpp%pppppppp,,,      ",
"    ,,,pppppppppuuuuuuuuppppp6-pppdddddddddppdd%%pppppppp,,,    ",
"  ,,,pppppppppppuuuuuukppppppp6--pppddddddppppppg%%pppppppp,,,  ",
",,>ppppppppppppppppppppppppppp776---------------ggd%ppppppuuu>>>",
",y>>>pppppppppjpppppppppppppuhu776@@@@@@@@@@@@@@-==uppppppuu>>>>",
",eee,,,pppppppppppppppppppppuuuu67@@@@@@@@@@@@@@@@-ppppppp,>>qq>",
",yeeyy,,>pppppppppppppppppppuuuup7@p@p@p@@@@@#@@@-pppppp,,,wqqq>",
">eeeeeee>>>puuuupppppppppppppppppp@p@p@p@@@@@@@@-puuuu,,>qqqqqq>",
">eeeeeeeee>>>uuupkpppppppppppppppppppp@p@p@p@@@-ppuu>>>qqqqqqqq>",
",yeyeeeeeeee>>,uppppppppjppppppppppppppppp@p@@pppp,>,qqqqqqqqqq>",
">eeeeeeeeeeeee,,1ppppppppppppppppppppppppppppppp,,,wwqqqqqqqqqq>",
",wyeeeeeeeeeeeey,,,upppuuuuuppppppppppppjuuuuu>>,qqqqqqqqqqqqw8,",
",oqqeeeeeeeeeeeeee,,>puuuuuuppppppppppppuuuu>>>qqqqqqqqqqqqw88%,",
"12oXqqyyeeeeeeeeeeee>>>uuuuuppppkpppppppuu,,>qqqqqqqqqqqqw88%oo,",
"1222Xowweeeeeeeeeeeeee>,>uuupppppppppppp,,,qqqqq9qqqqqqw88%oX--,",
"124444OOqqyyyyeeeeeeeeee>,>pppppuuuupu,,1qqqqqqqqqqqwq88%Xo----1",
"12424444XX00eeeeeeyeeyeeey>>>pppuuuu,,,qqqqqwqqqqqqq88%XX------1",
"1262444422OOq0eeeeyeeeeeeeee>>>pup,,,qqqqqqqqqqqqw88%XX-=-----6,",
"122244442222XX0qeeeeeeeeeeeeer>>,,,qqqqqqqqqqqqw88%XX-=--------,",
",4324444444444OO00yyteeeeeeeeee,,,qqqqqqqqqqqq88%Xo-------o----,",
"1444444744444454XX00eeeyeeeeeee,,,qqqqqqqwqq88%Xo--------------,",
",44444444444444422XXqqyyeeeeeee,,,wqqqqqww88%XX----------------,",
",45O44442o4444442222oowweeeeeee,,,wqqqqq88%XX-=-------6----6---,",
"1444444424444724233344OOqqeeeee,,,qqqw88%oX--------------------,",
"144444442344443422444444XXwqeye,1,qw88%oO-=-------X------------,",
",7444444444444454444443322XXwwy,,,w8%Xo--------6--------o-----O,",
",444444444444444444444422222oow,,,8XX--------------------------,",
",444427444444O4444444444444444O,,,X=---------------------------,",
",444444444444444444474444444444,,,--------=X-------------------,",
",4444444444444444444444444O4444,,,--=---6-;----------6--------6,",
",44O444444444444444444444444454,,1--X----------------------O---,",
",444444422344444444444444444444,,,----------6---o--------------,",
",444444422444744444444444444444,,,-----------------------------,",
",4444444o2444444444444O44444742,,,=------=--=------------------,",
",447444445444444444444444444444,,,=-------------------O--------,",
",4444452344444444O5444444444444,,1-X-----o---------------7---o-1",
",,44444444444444445444444444444,>1----6-----------6-----------11",
" ,,,444444744444444444644444454,>>-;---------O--------------,,, ",
"   ,,,4544444444444444444444444,>>------------------------,,,   ",
"     ,,,,444444444444444444O444,>>---X---6--------------,,,     ",
"        ,,,54O44444444444444444,>>----------------O---,,,       ",
"          ,,,444446444444444444,,,------------6--=--,,,         ",
"            ,,,4444444444444444,,,---------o------,,,           ",
"              ,,,4444O4444442221,,-7------------,,,             ",
"                ,1,4424444644221,,-----------,,,,               ",
"                  ,,,44444444421,,-----7---,,,                  ",
"                    ,,,,44444421,,-------,,,                    ",
"                       ,1,242o2111-o---,,,                      ",
"                         ,,,222111---,,,                        ",
"                           ,,,2,1,-,,,                          ",
"                             ,1,,,,,                            "
};
