/* XPM */
static char *_31646851425[] = {
/* columns rows colors chars-per-pixel */
"64 64 7 1 ",
"  c None",
". c #E60000",
"X c #FF4200",
"o c #FF8F68",
"O c #FFAD63",
"+ c #FFCFA5",
"@ c #F4EFDA",
/* pixels */
"                                                                ",
"                              ++++                              ",
"                            ++++++++                            ",
"                          ++++++++++++                          ",
"                        ++++++++++++++++                        ",
"                      ++++++++++++++++++++                      ",
"                    ++++++++++++++++++++++++                    ",
"                  ++++++++++++++++++++++++++++                  ",
"                ++++++++++++++++++++++++++++++++                ",
"              ++++++++++++++++++++++++++++++++++++              ",
"            ++++++++++++++++++++++++++++++++++++++++            ",
"          ++++++++++++++++++++++++++++++++++++++++++++          ",
"        ++++++++++++++++++++++++++++++++++++++++++++++++        ",
"      ++++++++++++++++++++++++++++++++++++++++++++++++++++      ",
"    ++++++++++++++++++++++++++++++++++++++++++++++++++++++++    ",
"  ++++++++++++++++++++++++++++++++++++++++++++++++++++++++++++  ",
"++++++++++++++++++++++++++++++++++++++++++++++++++++++++++++++++",
"XX+++++++++++++++++++++++++++++++++++++++++++++++++++++++++++++.",
"XXXX+++++++++++++++++++++++++++++++++++++++++++++++++++++++++...",
"XXXXXX+++++++++++++++++++++++++++++++++++++++++++++++++++++..O..",
"XXXXXXX@+++++++++++++++++++++++++++++++++++++++++++++++++....O..",
"XXXXXXX@XX+++++++++++++++++++++++++++++++++++++++++++++......O..",
"XXXXXXX@XXXX+++++++++++++++++++++++++++++++++++++++++........O..",
"XXXXXXX@XXXXXX+++++++++++++++++++++++++++++++++++++.O........O..",
"XXXXXXX@XXXXXXXX+++++++++++++++++++++++++++++++++...O........O..",
"@XXXXXX@XXXXXXXXXX+++++++++++++++++++++++++++++.....O........O..",
"X@@XXXX@XXXXXXXXXXXX+++++++++++++++++++++++++.......O........OOO",
"XXX@@XX@XXXXXXXXXXXXXX+++++++++++++++++++++.........O.......OO..",
"XXX@X@@@XXXXXXXXXXXXXX@X+++++++++++++++++...........O.....OO....",
"XXX@XXX@@XXXXXXXXXXXXX@XXX+++++++++++++.O...........O...OO......",
"XXX@XXXXX@@XXXXXXXXXXX@XXXXX+++++++++...O...........O.OO........",
"XXX@XXXXXXX@@XXXXXXXXX@XXXXXXX+++++.....O...........OO..O.......",
"XXX@XXXXXXXXX@@XXXXXXX@XXXXXXXXXo.......O.........OO....O.......",
"@XX@XXXXXXXXXXX@@XXXXX@XXXXXXXXXo.......O.......OO......O.......",
"X@@XXXXXXXXXXXX@X@@XXX@XXXXXXXXXo.......O.....OO........O.....OO",
"XXX@@XXXXXXXXXX@XXX@@X@XXXXXXXXXo.......O...OO.O........O...OOO.",
"XXXXX@@XXXXXXXX@XXXXX@@XXXXXXXXXo.......O.OO...O........O.OO..O.",
"XXXXXXX@@XXXXXX@XXXXXXX@@XXXXXXXo.......OO.....O........OO....O.",
"XXXXXXXXX@@XXXX@XXXXXXXXX@@XXXXXo.....OO.......O......OO......O.",
"XXXXXXXXX@X@@XX@XXXXXXXXXXX@@XXXo...OO.........O....OO........O.",
"XXXXXXXXX@XXX@@@XXXXXXXXXXX@X@@Xo.OO...........O..OO..........O.",
"@XXXXXXXX@XXXXX@@XXXXXXXXXX@XXX@oO.............OOOO...........O.",
"X@@XXXXXX@XXXXXXX@@XXXXXXXX@XXXXo.............OO..O...........OO",
"XXX@@XXXX@XXXXXXXXX@@XXXXXX@XXXXo...........OO....O.........OO..",
"XXX@X@@XX@XXXXXXXXXXX@@XXXX@XXXXo.........OO......O.......OO....",
"XXX@XXX@@@XXXXXXXXXXX@X@@XX@XXXXo.......OO........O.....OO......",
"XXX@XXXXX@@XXXXXXXXXX@XXX@@@XXXXo.....OO..........O...OO.O......",
"XXX@XXXXXXX@@XXXXXXXX@XXXXX@@XXXo...OO.O..........O.OO...O......",
"XXX@XXXXXXXXX@@XXXXXX@XXXXXXX@@Xo.OO...O..........OO.....O......",
"XXX@XXXXXXXXXXX@@XXXX@XXXXXXXXX@oO.....O........OO.......O......",
" XX@XXXXXXXXXXX@X@@XX@XXXXXXXXXXo......O......OO.........O..... ",
"   @XXXXXXXXXXX@XXX@@@XXXXXXXXXXo......O....OO.O.........O...   ",
"     XXXXXXXXXX@XXXXX@@XXXXXXXXXo......O..OO...O.........O.     ",
"        XXXXXXX@XXXXXXX@@XXXXXXXo......OOO.....O.........       ",
"          XXXXX@XXXXXXXXX@@XXXXXo.....OO.......O.......         ",
"            XXX@XXXXXXXXX@X@@XXXo...OO.........O.....           ",
"              X@XXXXXXXXX@XXX@@Xo.OOO..........O...             ",
"                XXXXXXXXX@XXXXX@oO..O..........O.               ",
"                  XXXXXXX@XXXXXXo...O.........                  ",
"                    XXXXX@XXXXXXo...O.......                    ",
"                       XX@XXXXXXo...O.....                      ",
"                         @XXXXXXo...O...                        ",
"                           XXXXXo...O.                          ",
"                             XXXo...                            "
};
