/* XPM */
static char *_3_h1646852824[] = {
/* columns rows colors chars-per-pixel */
"64 64 28 1 ",
"  c None",
". c #E60000",
"X c #E70000",
"o c #E60100",
"O c #E60001",
"+ c #FE3434",
"@ c #FF3434",
"# c #FE3534",
"$ c #FF3534",
"% c #FF3435",
"& c #FF3535",
"* c #FE4200",
"= c #FF4200",
"- c #FF4300",
"; c #FF4201",
": c #FFAD62",
"> c #FFAC63",
", c #FFAD63",
"< c #FECFA4",
"1 c #FFCFA4",
"2 c #FECEA5",
"3 c #FFCEA5",
"4 c #FECFA5",
"5 c #FFCFA5",
"6 c #F4EEDA",
"7 c #F4EFDA",
"8 c #F5EFDA",
"9 c #F4EFDB",
/* pixels */
"                                                                ",
"                              @@@@                              ",
"                            @@@55@@@                            ",
"                          @@@555555@@@                          ",
"                        @@@5555544445@@@                        ",
"                      @+@45555554444554@@@                      ",
"                    @@+544445555444444445@@@                    ",
"                  @@@5554444555544444444555@@@                  ",
"                @@@55555444444444444444444445@@@                ",
"              @@@555555544444444444444444444555@@@              ",
"            @@@5555555554444444444444444444455554@@@            ",
"          @@@55555555555444444444444444444445555444@@@          ",
"        +++555555555444444444444444444444455555544445@@@        ",
"      @@+5555555545544444444444444444444445555554444555@@@      ",
"    @@@55555555544444444444444444444444444445555444455555@@@    ",
"  @@@555555555554444444444444444544444444444555544445555555@@@  ",
"@@@4444444444444444444444444444455555555444444444444555555555@@@",
"@*@@@4444444444444444444444444445555555544444441444455555555@@@@",
"@***@@@444444444444444444444454455555555444444445545555555@@@OO@",
"@*****@@@44444444444444444444444555555554444444455555555@@@OO:O@",
"@******8@@@4444444444444444444445555555544444444555555@@@OOOO:O@",
"@******8**@@@444444444444444444455555555444444445555@@@OOOOOO:O@",
"@*****-8****@@@44444444444444444555555555544444455@@@OOOOOOOO:O@",
"@******7******@@@444444444444444<555555555444444@@@O,OOOOOOOO:O@",
"@******8******-*@@@444444444444455555555444444@@@OOO:OOOOOOOO:O@",
"@-*****8********-*@@@44444444444555555554444@@@OOOOO:OOOOOOOO:O@",
"@88****7************@@@444444444<555555544@@@OOOOOOO:OOOOOOOO::@",
"@**88**8**************@@@444444455555555@@@OOOOOOOOO:OOOOOOO::O@",
"@**8*888********-*****8*@@@44444555555@@@OOOOOOOOOOO:OOOOO::OOO@",
"@**8***88*************8***@@@4445555@@@O:OOOOOOOOOOO:OOO::OOOOO@",
"@**8*****88***********9*****@@@455@@@OOO:OOOOOOOOOOO,O::OOOOOOO@",
"@**8*******88*********8*******@@@@@OOOOO:OOOOOOOOOOO::OO:OOOOOO@",
"@**8*********88******-9********@@@OOOOOO:OOOOOOOOO::OOOO:OOOOOO@",
"@**8***********88*****8********@@@OOOOOO:OOOOOOO::OOOOOO:OOOOOO@",
"@98************8*88***8********@@@OOOOOO:OOOOO::OOOOOOOO:OOOOO:@",
"@**88**********8***88*8********@@@OOOOOO:OOO::O:OOOOOOOO:OOO:::@",
"@***-88********8*****98********@@@OOOOOO:O::OOO,OOOOOOOO:O::OO:@",
"@******88******8*******88******@@@OOOOOO::OOOOO:OOOOOOOO::OOOO:@",
"@***-****88****9*********88-***@@@OOOO::OOOOOOO:OOOOOO::OOOOOO:@",
"@********8*88**8***********88**@@@OO::OOOOOOOOO:OOOO::OOOOOOOO,@",
"@*****-**8***888***********8*88@@@::OOOOOOOOOOO:OO::OOOOOOOOOO:@",
"@*-******8*****98**********8***@@@OOOOOOOOOOOOO::,:OOOOOOOOOOO:@",
"@98******8*******88********7***@@@OOOOOOOOOOOO::OO:OOOOOOOOOOO:@",
"@**99****8*********88******8***@@@OOOOOOOOOO::OOOO:OoOOOOOOO::O@",
"@**8*88**8***********88****8***@@@OOOOOOOO::OOOOoO:OOOOOOO::OOO@",
"@*-8***988***********8*88**8***@@@OOOOOO::OOOOOOOO:OOoOO::OOOOO@",
"@**8*****88**********8***878***@@@OOOO::OOOOOOOOOO:OOO::O:OOOOO@",
"@**8*******89********8*-***88**@@@OO::O:OOOOOOOOOO:O::OOO:OOOOO@",
"@-*9*********98******8******-88@@@::OOO,OOOOOOOOOO::OOOOO:OOOOO@",
"@@*8***-*******88****8*********@@@OOOOO:OOOOOOOO::OOOOOOO:OOOO@@",
" @@@***********8*88**8*********@@@OOOOO:OOOOOO:,OOOOOOOOO:OO@@@ ",
"   @@@*-*******8***888*********@@@OOOOO:OOOO::O:OOOOOOOOO:@@@   ",
"     @@@@******8*****88********@@@OOOOO:OO::OOO:OOOOOOOO@@@     ",
"        @@@****8*******89******@@@OOOOO:::OOOOO:OOOOOO@@@       ",
"          @@@**8*********88****@@@OOOO::OOOOOOO,OOOO@@@         ",
"            @@@8*********8*89**@@@OO::OOOOOOOOO:OO@@@           ",
"              @@@********8***88@@@:::OOOOOOOOOO:@@@             ",
"                @@@******8*****@@@OO,OOOOOOOO@@@@               ",
"                  @@@**-*8*****@#@OO:OOOOOO@@@                  ",
"                    @@@@*8*****@@@OO:OOOO@@@                    ",
"                       @@@*****@@@OO:OO@@@                      ",
"                         @@@--*@@@OO,@@@                        ",
"                           @@@-@@@O@@@                          ",
"                             @@@@@@@                            "
};
