/* XPM */
static char *_41646851426[] = {
/* columns rows colors chars-per-pixel */
"64 64 6 1 ",
"  c None",
". c #7C7C7C",
"X c gray58",
"o c #A5A5A5",
"O c gray80",
"+ c white",
/* pixels */
"                                                                ",
"                              ++++                              ",
"                            +++OO+++                            ",
"                          ++++++++++++                          ",
"                        ++++++++++++++++                        ",
"                      ++++++++++++++++++++                      ",
"                    ++++++++++++++++++++++++                    ",
"                  ++++++++++++++++++++++++++++                  ",
"                ++++++++++++++++++++++++++++++++                ",
"              ++++++++++++++++++++++++++++++++++++              ",
"            ++++++++++++++++++++++++++++++++++++++++            ",
"          ++++++++++++++++++++++++++++++++++++++++++++          ",
"        ++++++++++++++++++++++++++++++++++++++++++++++++        ",
"      ++++++++++++++++++++++++++++++++++++++++++++++++++++      ",
"    ++++++++++++++++++++++++++++++++++++++++++++++++++++++++    ",
"  ++++++++++++++++++++++++++++++++++++++++++++++++++++++++++++  ",
"++++O+++++++++++++++++++++++++++++++++++++++++++++++++++++++O+++",
"oo+++++++++++++++++++++++++++++++++++++++++++++++++++++++++++++.",
"oOoo+++++++++++++++++++++++++++++++++++++++++++++++++++++++++...",
"oOOOoo+++++++++++++++++++++++++++++++++++++++++++++++++++++..XX.",
"oOOOOOoo+++++++++++++++++++++++++++++++++++++++++++++++++..XXXX.",
"oOoOOOOOoo+++++++++++++++++++++++++++++++++++++++++++++..XXXX.X.",
"oOOOOOOOOOoo+++++++++++++++++++++++++++++++++++++++++..XXXXXXXX.",
"oOOOOOOOOOoOoo+++++++++++++++++++++++++++++++++++++..X.XXXXXXXX.",
"oOOOOOOOOOoOOOoo+++++++++++++++++++++++++++++++++..XXX.XXXXXXXX.",
"oOOOOOOOOOoOOOOOoo+++++++++++++++++++++++++++++..XXXXX.XXXXXXXX.",
"oOOOOOOOOOoOOOOOOOoo+++++++++++++++++++++++++..XXXXXXX.XXXXXXXX.",
"oOOOOOOOOOoOOOOOOOOOoo+++++++++++++++++++++..XXXXXXXXX.XXXXXXXX.",
"ooOOOOOOOOoOOOOOOOOOOooo+++++++++++++++++...XXXXXXXXXX.XXXXXXX..",
"oOooOOOOOOoOOOOOOOOOOoOOoo+++++++++++++..XX.XXXXXXXXXX.XXXXX..X.",
"oOOOooOOOOoOOOOOOOOOOoOOOOoo++++O++++..XXXX.XXXXXXXXXX.XXX..XXX.",
"oOOOOOooOOoOOOOOOOOOOoOOOOOOoo+++++..XXXXXX.XXXXXXXXXX.X..XXXXX.",
"oOOOOOOOoooOOOOOOOOOOoOOOOOOOOoo+..XXXXXXXX.XXXXXXXXXX..XXXXXXX.",
"oOOOOOOOOOooOOOOOOOOOoOOOOOOOOOo+.XXXXXXXXX.XXXXXXXX...XXXXXXXX.",
"oOOOOOOOOOoOooOOOOOOOoOOOOOOOoOo+.X.XXXXXXX.XXXXXX..XX.XXXXXXXX.",
"oOOOOOOOOOoOOOooOOOOOoOOOOOOOOOo+.XXXXXXXXX.XXXX..XXXX.XXXXXXXX.",
"oOOOOOOOOOoOOOOOooOOOoOOOOOOOOOo+.XXXXXXXXX.XX..XXXXXX.XXXXXXXX.",
"oOOOOOOOOOoOOOOOOOooOoOOOOOOOOOo+.XXXXXXXXX...XXXXXXXX.XXXXXXXX.",
"oOOOOOOOOOoOOOOOOOOOooOOOOOOOOOo+.XXXXXXXX..XXXXXXXXXX.XXXXXXXX.",
"ooOOOOOOOOoOOOOOOOOOOoooOOOOOOOo+.XXXXXX..X.XXXXXXXXXX.XXXXXXX..",
"oOooOOOOOOoOOOOOOOOOOoOOooOOOOOo+.XXXX..XXX.XXXXXXXXXX.XXXXX..X.",
"oOOOooOOOOoOOOOOOOOOOoOOOOooOOOo+.XX..XXXXX.XXXXXXXXXX.XXX..XXX.",
"oOOOOOooOOoOOOOOOOOOOoOOOOOOooOo+...XXXXXXX.XXXXXXXXXX.X..XXXXX.",
"oOOOOOOOoooOOOOOOOOOOoOOOOOOOOoo+.XXXXXXXXX.XXXXXXXXXX..XXXXXXX.",
"oOOOOOOOOOooOOOOOOOOOoOOOOOOOOOo+.XXXXXXXXX.XXXXXXXX...XXXXXXXX.",
"oOOOOOOOOOoOooOOOOOOOoOOOOOOOOOo+.XXXXXXXXX.XXXXXX..XX.XXXXXXXX.",
"oOOOOOOOOOoOOOooOOOOOoOOOOOOOOOo+.XXXXXXXXX.XXXX..XXXX.XXXXXXXX.",
"oOOOOOOOOOoOOOOOooOOOoOOOOOOOOOo+.XXXXXXXXX.XX..XXXXXX.XXXXXXXX.",
"oOoOOOOOOOoOOOOOOOooOoOOOOOOOOOo+.XXXXXXXXX...XXXXXXXX.XXXXXX.X.",
"oOOOOOOOOOoOOOOOOOOOooOOOOOOOOOo+.XXXXXXXX..XXXXXXXXXX.XXXXXXXX.",
" ooOOOOOOOoOOOOOOOOOOoooOOOOOOOo+.XXXXXX..X.XXXXXXXXXX.XXXXXX.. ",
"   ooOOOOOoOOOOOOOOOOoOOooOOOOOo+.XXXX..XXX.XXXXXXXXXX.XXXX..   ",
"     oooOOoOOOOOOOOOOoOOOOooOOOo+.XX..XXXXX.XXXXXXXXXX.XX..     ",
"        oooOOOOOOOOOOoOOOOOOooOo+...XXXXXXX.XXXXXXXXXX...       ",
"          ooOOOOOOOOOoOOOOOOOOoo+.XXXXXXXXX.XXXXXXXXX..         ",
"            ooOOOOOOOoOOOOOOOOOo+.XXXXXXXXX.XXXXXXX..           ",
"              ooOOOOOoOOOOOOOOOo+.XXXXXXXXX.XXXXX..             ",
"                ooOOOoOOOOOOOOOo+.XXXXXXXXX.XX...               ",
"                  ooOoOOOOOOOOOo+.XXXXXXXXX...                  ",
"                    oooOOOOOOOOo+.XXXXXXXX..                    ",
"                       ooOOOOoOo+.X.XXXX..                      ",
"                         ooOOOOo+.XXXX..                        ",
"                           ooOOo+.XX..                          ",
"                             ooo+...                            "
};
