/* XPM */
static char *_4_h1646852824[] = {
/* columns rows colors chars-per-pixel */
"64 64 28 1 ",
"  c None",
". c #7C7C7C",
"X c #7D7C7C",
"o c #7C7D7C",
"O c #7C7C7D",
"+ c #7D7C7D",
"@ c #FE3434",
"# c #FF3434",
"$ c #FF3534",
"% c #FE3435",
"& c #FF3435",
"* c gray58",
"= c #959494",
"- c #949594",
"; c #949495",
": c #A5A5A4",
"> c #A4A5A5",
", c #A5A5A5",
"< c gray80",
"1 c #CDCCCC",
"2 c #CCCDCC",
"3 c #CCCCCD",
"4 c #CCCDCD",
"5 c #FEFFFE",
"6 c #FFFFFE",
"7 c #FFFEFF",
"8 c #FEFFFF",
"9 c white",
/* pixels */
"                                                                ",
"                              ####                              ",
"                            @@@<<###                            ",
"                          ##@999999###                          ",
"                        ##@9999999999###                        ",
"                      @@#99999999999999###                      ",
"                    ##@999999999999999999###                    ",
"                  ###9999999999999999999999###                  ",
"                @@@95999999999999999999999999@@@                ",
"              ##@999999999999999999999999999999@##              ",
"            ###9999999999999999999999999999999999###            ",
"          ###99999999999999999999999999999999999999###          ",
"        @@@999999999999999999999999999999999999999999###        ",
"      ##@9999999999999999999999999999999999999999999999###      ",
"    @@@99999999999999999999999999999999999999999999999999###    ",
"  ##@999999999999999999999999999999999999999999999999999999###  ",
"###9<99999999999999999999999999999999999999999999999999999992@@@",
"#,#@#9999999999999999999999999999999999999999999999999999999@@@@",
"#2,,###999999999999999999999999999999999999999999999999999###XX@",
"#22<,,##@99999999999999999999999999999999999999999999999###..==@",
"@<<<2<,,@@@9999999999999999999999999999999999999999999###XX*;**@",
"@<,<<<<<,,@@@999999999999999999999999999999999999999##@.X***;.*@",
"@1<<<<<<<<,,@@@99999999999999999999999999999999999@##..*;******@",
"@1<<<<<<11,1,,@@@9999999999999999999999999999999@@@XX;.;*******@",
"@11<<<<<<<,<<<,,@@@999999999999999999999999999@@@..***.*;******#",
"@1<<<<<<<<,1<<<<:,@@@99999999999999999999999@@@.X***;*.********#",
"@<2<<<<<<<,<<<<<<<,,@@@9999999999959999999@@@XX*******.********#",
"@<<<<<<<<<,<<<2<<111,,@@@999999999999999@@@.X*********.********#",
"@,<<<<<<<<,<<<<<<<<<<,,,@@@99999999999@@@X..**********.;*****;.@",
"@1,,1<<<<<,<<<<<<<<<<,<<,,@@@9999999@@@XX**X**********.****;X.*@",
"@111,,<<<<,<<<<<<<<<<,<<1<,,@@@919@@@XX****X********;*.***XX***#",
"@1<<<<,><<,1<<<<<<1<<,<<11<<,,##@@@.X******X**********.*..*****#",
"#<<<<<<<,,,<<<<<<<<<<,<<<<<<<<,@@@X********.**********..*******@",
"#<<<1<<<<2,,<<<<<<<<<,<<<<<<<<<@@@*********.********...;*******@",
"#<<<<<<<<<,<,,<<<<<<<,<<<<<<<,1@@@*X*******.******..**.********@",
"#<<<<<<<<<,<<4,,<<<<<,<<<<<<<<1@@@*********.****..****.********@",
"#<<<<<<<<<,<<<<<,,<<<,<<<<<<<<<@@@*********.**.X******.********@",
"#<<<<<<<<<,<<<<<<<,,<,<<<<<<<<2@@@*********XXX********.********@",
"#<<<<<<<<<,<<<<<<<<<,,<<<<<<<<1@@@********..**********.********$",
"#,<<<<<<<<,<<4<<<<<<<,,,<<<<<11@@@******..*X**********.*******X@",
"#<,,<<<<<<,<<<<<<<<<<,<<,,<<<<1@@@****XX***.**********.*****..*@",
"#<<<,,<<<<,<<<<<<<<<<,<<<<,,<<1@@@**XX*****.*******-**.;**..***@",
"#<<<<<,,<<,<<<<<<<<<<,<<<<<<,,<@@@XX*******.**********.;XX;****@",
"#<<<<<<<,,,<<<<<<<<<<,<<<<<<<<,@@@*********.**********..**;****@",
"#<<<<<<<<<,,<<<<<<<<<,<<<<<<<<1@@@*********.********XXX;*******#",
"#<<<<<<<<<,<,,<<<<<<<,<<<<<<<11@@@*********.******.X**.;*******#",
"#<<<<<<<<<,<<<,,<<<<<,<<2<<<<<1@@@*********.****..****X********#",
"#<<<<<<<<<,<<1<<,,<<<,<<<<<<<<1@@@*********X**..******o********#",
"#<,<<<<<<<,<<<<<<<,,<,<<<<<<<<2@@@*********.XX********.******X*@",
"##<<<<<<<<,<<<<<<<<<,,<<<<<<<<<@@@****;***.o;*-*******.*******@@",
" ###<<<<<<,<<<<<<<<<<,,,<<<<<<2#@@-*****.X*.;;********X;****##@ ",
"   ###<4<<,<<<<<<<<<<,<<,,<<222#@@****..-**.********;;.-**@@#   ",
"     ####<,<<<<<<<<4<,<<<<,,<<2#@$**..*****.**********X;###     ",
"        ###<<<<<<<<<<,<<<<<<,,2#@@XX******;.**********###       ",
"          ###<<<<<<<<,<<<<<<<<,#@@;******;*.********###         ",
"            ###<<<<<<,<<<<<<<<2#@@*********.******##$           ",
"              ###<<<<,<<<4<<<<<#@@*********X;***###             ",
"                #$#<<,<<<<<<<<<##@*********o*@###               ",
"                  ###,<<<<<<<<<###*********#@#                  ",
"                    ###$<<<<<<<###*******###                    ",
"                       ###4<<,<###*X***###                      ",
"                         #@@<<<###***###                        ",
"                           ###<###*###                          ",
"                             #######                            "
};
