/* XPM */
static char *_51646851426[] = {
/* columns rows colors chars-per-pixel */
"64 64 6 1 ",
"  c None",
". c #00686A",
"X c #0D9C60",
"o c yellow",
"O c #008486",
"+ c #23CF87",
/* pixels */
"                                                                ",
"                              oooo                              ",
"                            oooooooo                            ",
"                          oooooooooooo                          ",
"                        oooooooooooooooo                        ",
"                      oooooooooooooooooooo                      ",
"                    oooooooooooooooooooooooo                    ",
"                  oooooooooooooooooooooooooooo                  ",
"                oooooooooooooooooooooooooooooooo                ",
"              oooooooooooooooooooooooooooooooooooo              ",
"            oooooooooooooooooooooooooooooooooooooooo            ",
"          oooooooooooooooooooooooooooooooooooooooooooo          ",
"        oooooooooooooooooooooooooooooooooooooooooooooooo        ",
"      oooooooooooooooooooooooooooooooooooooooooooooooooooo      ",
"    oooooooooooooooooooooooooooooooooooooooooooooooooooooooo    ",
"  oooooooooooooooooooooooooooooooooooooooooooooooooooooooooooo  ",
"oooooooooooooooooooooooooooooooooooooooooooooooooooooooooooooooo",
"++ooooooooooooooooooooooooooooooooooooooooooooooooooooooooooooo.",
"++++ooooooooooooooooooooooooooooooooooooooooooooooooooooooooo...",
"++++++ooooooooooooooooooooooooooooooooooooooooooooooooooooo.....",
"++++++++ooooooooooooooooooooooooooooooooooooooooooooooooo.......",
"++++++++++ooooooooooooooooooooooooooooooooooooooooooooo.........",
"++++++++++OOoooooooooooooooooooooooooooooooooooooooooX..........",
"++++++++++OOOOoooooooooooooooooooooooooooooooooooooXXX..........",
"++++++++++OOOOOOoooooooooooooooooooooooooooooooooXXXXX..........",
"++++++++++OOOOOOOOoooooooooooooooooooooooooooooXXXXXXX..........",
"++++++++++OOOOOOOOOOoooooooooooooooooooooooooXXXXXXXXX..........",
"++++++++++OOOOOOOOOOO+oooooooooooooooooooooXXXXXXXXXXX..........",
"++++++++++OOOOOOOOOOO+++ooooooooooooooooo..XXXXXXXXXXX.........X",
"OO++++++++OOOOOOOOOOO+++++ooooooooooooo....XXXXXXXXXXX.......XXX",
"OOOO++++++OOOOOOOOOOO+++++++ooooooooo......XXXXXXXXXXX.....XXXXX",
"OOOOOO++++OOOOOOOOOOO+++++++++ooooo........XXXXXXXXXXX...XXXXXXX",
"OOOOOOOO++OOOOOOOOOOO+++++++++++o..........XXXXXXXXXXX.XXXXXXXXX",
"OOOOOOOOOO++OOOOOOOOO+++++++++++...........XXXXXXXXX..XXXXXXXXXX",
"OOOOOOOOOO++++OOOOOOO+++++++++++...........XXXXXXX....XXXXXXXXXX",
"OOOOOOOOOO++++++OOOOO+++++++++++...........XXXXX......XXXXXXXXXX",
"OOOOOOOOOO++++++++OOO+++++++++++...........XXX........XXXXXXXXXX",
"OOOOOOOOOO++++++++++O+++++++++++...........X..........XXXXXXXXXX",
"OOOOOOOOOO++++++++++++++++++++++......................XXXXXXXXXX",
"OOOOOOOOOO+++++++++++O++++++++++..........X...........XXXXXXXXXX",
"+OOOOOOOOO+++++++++++OOO++++++++........XXX...........XXXXXXXX..",
"+++OOOOOOO+++++++++++OOOOO++++++......XXXXX...........XXXXXX....",
"+++++OOOOO+++++++++++OOOOOOO++++....XXXXXXX...........XXXX......",
"+++++++OOO+++++++++++OOOOOOOOO++..XXXXXXXXX...........XX........",
"+++++++++O+++++++++++OOOOOOOOOOOXXXXXXXXXXX.....................",
"++++++++++OO+++++++++OOOOOOOOOOOXXXXXXXXXXX.........XX..........",
"++++++++++OOOO+++++++OOOOOOOOOOOXXXXXXXXXXX.......XXXX..........",
"++++++++++OOOOOO+++++OOOOOOOOOOOXXXXXXXXXXX.....XXXXXX..........",
"++++++++++OOOOOOOO+++OOOOOOOOOOOXXXXXXXXXXX...XXXXXXXX..........",
"++++++++++OOOOOOOOOO+OOOOOOOOOOOXXXXXXXXXXX.XXXXXXXXXX..........",
" +++++++++OOOOOOOOOOO++OOOOOOOOOXXXXXXXXXX.XXXXXXXXXXX......... ",
"   +++++++OOOOOOOOOOO++++OOOOOOOXXXXXXXX...XXXXXXXXXXX.......   ",
"     +++++OOOOOOOOOOO++++++OOOOOXXXXXX.....XXXXXXXXXXX.....     ",
"        ++OOOOOOOOOOO++++++++OOOXXXX.......XXXXXXXXXXX...       ",
"          OOOOOOOOOOO++++++++++OXX.........XXXXXXXXXXX.         ",
"            OOOOOOOOO+++++++++++...........XXXXXXXXXX           ",
"              OOOOOOO+++++++++++...........XXXXXXXX             ",
"                OOOOO+++++++++++...........XXXXXX               ",
"                  OOO+++++++++++...........XXX                  ",
"                    O+++++++++++...........X                    ",
"                       +++++++++..........                      ",
"                         +++++++........                        ",
"                           +++++......                          ",
"                             +++....                            "
};
