/* XPM */
static char *_5_h1646852824[] = {
/* columns rows colors chars-per-pixel */
"64 64 30 1 ",
"  c None",
". c #00686A",
"X c #01686A",
"o c #00696A",
"O c #00686B",
"+ c #01686B",
"@ c #FE3434",
"# c #FF3434",
"$ c #FE3534",
"% c #FF3534",
"& c #FE3435",
"* c #FF3435",
"= c #FF3535",
"- c #0C9C60",
"; c #0D9C60",
": c #0C9D60",
"> c #0D9D60",
", c #0D9C61",
"< c #FFFE00",
"1 c #FEFF00",
"2 c yellow",
"3 c #FFFF01",
"4 c #008486",
"5 c #018486",
"6 c #008586",
"7 c #008487",
"8 c #23CF86",
"9 c #23CE87",
"0 c #22CF87",
"q c #23CF87",
/* pixels */
"                                                                ",
"                              @@@@                              ",
"                            @@@22@@@                            ",
"                          @@@222222@@@                          ",
"                        @*@2222222222@@@                        ",
"                      @#@22222222222232@@@                      ",
"                    @@#222222222222222222@@@                    ",
"                  @@@2232222222222222222223@@@                  ",
"                ###22223222222222222222222222##@                ",
"              @@#222222222222222222222222233223@@@              ",
"            @@@2223222222222222222222222222222222@@@            ",
"          @@@22222222222222222222222222222222222222@@@          ",
"        @@@222222222222222222222222222222222222222222@@@        ",
"      @@@2222222222222222222222232222222222222222223222@@@      ",
"    @@@22222222222222322222222222222222222222222222322222@@@    ",
"  @@@222222222222222222222222222222222222222222222222222322@@@  ",
"@@@2222222222222222222222222222222222222222222222222222222222###",
"@q@@@2222222222222222222222222222222222222222222222222222222####",
"@qqq@@@222222222222222222222222222222222222222222222222222###OO#",
"@qqqqq@@@22222222222222222222222222222222222222232222222###OOOO#",
"#qqqqqqq@@@2222222222222222222222222222222222222222222###......#",
"#qqqqqqqqq@@@222222222222222222222222222222222222222###O.......#",
"#9qqqqqqqq44@@@22222222222222222222222222222222222###,OO.......#",
"@9qqqqqqqq4444@@#2222222222222222222222222222222###,,,OO.......#",
"@qqqqqqqqq444444###222222222222222222222222222##%;;;--XXO....O.#",
"@qqqqqqqqq44444477@##22222222222222222222222###;;;;;--XX.......#",
"%qqqqqqqqq4444444477%##2222222222222222222%%#;;;;;;;--XX.......#",
"%qqqqqqqqq444444477749###222222222232222###-,;;;;;;;;-XX..O....#",
"#9qqqqqqqq44444444444qqq##@22222222222###XX-;;;;;;;;;;XX.......#",
"%4q9qqqqqq44444444444qqqqq###2222222###O..X-;;;;;;;;;;XX.....;;#",
"#4449qqqqq44444444444qqqqqqq###222###OOO..O;;;;;;;;;;;....O;;;;#",
"#44444qqqq44444444444qqqqqqqqq@@###OOOOO..O;;;;;;;;;;;...;;;;;;#",
"%4444444qq44444444444qqqqqqqq99###O........;;;;;;;;;;;.;;;;;;;;#",
"%444444444qq444444444qqqqqqqq99%##OO.......;;;;;;;;;..;;;;;;;;;#",
"%444444444qqqq44444449qqqqqqqq9%##OOO......;;;;;;;....;;;;;;;;;#",
"%444444444qqqqqq44444qqqqqqqqq9%##OO.......;;;;;......;;;;;;;;;#",
"#744444444qqqqqqqq444qqqqqqqqqq%##.........;;;........;-;;;;;;;#",
"#744444444qqqqqqqqqq4qqqqqqqqqq%##.........;..........;;;;;;;;;#",
"%444444444qqqqqqqqqqqqqqqqqqqq9%##....................;;;;;;;;-#",
"#444444444qqqqqqqqqqq4qqqqqqq99%%#........;...........;;;;;;;;;#",
"#444444444qqqqqqqqqqq444qqqqqqq%##.O....;;;O..........--;;;;;;.#",
"%9q4444444qqqqqqqqqqq44444qqqq9%##....;;;;;...........;-;;;;...#",
"#99qq44444qqqqqqqqqqq4444444qqq%##..;;;;;;;...........--;;.....#",
"#899qqq444qqqqqqqqqqq444444444q%##;;;;;;;;;...........--O....XX#",
"%qqqqqqqq4qqqqqqqqqqq4444444444%##;;;;;;;;;.........XXXXXXXX...%",
"%qq9qqqqqq44qqqqqqqqq4444444444=##;;;;;;;;;.......X.--XXXXXX..O#",
"%9qqqqqqqq4444qqqqqqq4444444444@##;;;;;;;;;.......;;--XXXXXXXX.#",
"%99qqq8qqq444444q9qqq4444444444@##;;;;;;;;;.....;;;;--XXXXXXXX.#",
"%999qqqqqq44444444qqq4444444444@@@;;;;;;;;;...;;;;;;;;.........@",
"%#qqqqqqqq7744444444q4444444444@@@;;;;;;;;;.;;;;;;;;;;........@@",
" %%%qqqqqq77444444444qq44444444@@@;;;;;;;;.;;;;;;;;;;;......@@@ ",
"   %@@qqqq77444444444qqqq444444=@@;;;;;;.+.;;;;;;;;;;;....@@@   ",
"     @@@%977444446444qqqqqq4444@@@;;;;.....;;;;;;;;;;;..@@@     ",
"        ###7444444444qqqqqqqq44@@@;;.......;;;;;;;;;;;@@@       ",
"          %##44444444qqqqqqqqqq@@@++.......;;;;;;;;;#%#         ",
"            %#%444444qqqqqqqqqq@@@.+......+;;;;;;;%%#           ",
"              @@@4444qqqqqqqqqq@@@....+....;;;;;@@@             ",
"                @@=44qqqqqqqqqq@@=.........;;@@@@               ",
"                  @@@qqqqqqqqqq@@@.........@@@                  ",
"                    @@@=qqqqqqq@@@.......@@@                    ",
"                       @@=qqqqq@@@.....@@@                      ",
"                         @@@qqq@@=...@@@                        ",
"                           @@@q@@@.@@@                          ",
"                             @@@@@@@                            "
};
