/* XPM */
static char *_61646851426[] = {
/* columns rows colors chars-per-pixel */
"64 64 4 1 ",
"  c None",
". c #29AD10",
"X c #51FF00",
"o c #52D620",
/* pixels */
"                                                                ",
"                              XXXX                              ",
"                            XXXXXXXX                            ",
"                          XXXXXXXXXXXX                          ",
"                        XXXXXXXXXXXXXXXX                        ",
"                      XXXXXXXXXXXXXXXXXXXX                      ",
"                    XXXXXXXXXXXXXXXXXXXXXXXX                    ",
"                  XXXXXXXXXXXXXXXXXXXXXXXXXXXX                  ",
"                XXXXXXXXXXXXXXXXXXXXXXXXXXXXXXXX                ",
"              XXXXXXXXXXXXXXXXXXXXXXXXXXXXXXXXXXXX              ",
"            XXXXXXXXXXXXXXXXXXXXXXXXXXXXXXXXXXXXXXXX            ",
"          XXXXXXXXXXXXXXXXXXXXXXXXXXXXXXXXXXXXXXXXXXXX          ",
"        XXXXXXXXXXXXXXXXXXXXXXXXXXXXXXXXXXXXXXXXXXXXXXXX        ",
"      XXXXXXXXXXXXXXXXXXXXXXXXXXXXXXXXXXXXXXXXXXXXXXXXXXXX      ",
"    XXXXXXXXXXXXXXXXXXXXXXXXXXXXXXXXXXXXXXXXXXXXXXXXXXXXXXXX    ",
"  XXXXXXXXXXXXXXXXXXXXXXXXXXXXXXXXXXXXXXXXXXXXXXXXXXXXXXXXXXXX  ",
"XXXXXXXXXXXXXXXXXXXXXXXXXXXXXXXXXXXXXXXXXXXXXXXXXXXXXXXXXXXXXXXX",
"ooXXXXXXXXXXXXXXXXXXXXXXXXXXXXXXXXXXXXXXXXXXXXXXXXXXXXXXXXXXXXX.",
"ooooXXXXXXXXXXXXXXXXXXXXXXXXXXXXXXXXXXXXXXXXXXXXXXXXXXXXXXXXX...",
"ooooooXXXXXXXXXXXXXXXXXXXXXXXXXXXXXXXXXXXXXXXXXXXXXXXXXXXXX.....",
"ooooooooXXXXXXXXXXXXXXXXXXXXXXXXXXXXXXXXXXXXXXXXXXXXXXXXX.......",
"ooooooooooXXXXXXXXXXXXXXXXXXXXXXXXXXXXXXXXXXXXXXXXXXXXX.........",
"oooooooooo.oXXXXXXXXXXXXXXXXXXXXXXXXXXXXXXXXXXXXXXXXX.o.........",
"oooooooooo.oooXXXXXXXXXXXXXXXXXXXXXXXXXXXXXXXXXXXXX...o.........",
"oooooooooo.oooooXXXXXXXXXXXXXXXXXXXXXXXXXXXXXXXXX.....o.........",
"oooooooooo.oooooooXXXXXXXXXXXXXXXXXXXXXXXXXXXXX.......o.........",
"oooooooooo.oooooooooXXXXXXXXXXXXXXXXXXXXXXXXX.........o.........",
"oooooooooo.oooooooooo.XXXXXXXXXXXXXXXXXXXXXo..........o.........",
"..oooooooo.oooooooooo.ooXXXXXXXXXXXXXXXXX..o..........o.......oo",
"oo..oooooo.oooooooooo.ooooXXXXXXXXXXXXX....o..........o.....oo..",
"oooo..oooo.oooooooooo.ooooooXXXXXXXXX......o..........o...oo....",
"oooooo..oo.oooooooooo.ooooooooXXXXX........o..........o.oo......",
"oooooooo...oooooooooo.ooooooooooX..........o..........oo........",
"oooooooooo..ooooooooo.ooooooooooX..........o........ooo.........",
"oooooooooo.o..ooooooo.ooooooooooX..........o......oo..o.........",
"oooooooooo.ooo..ooooo.ooooooooooX..........o....oo....o.........",
"oooooooooo.ooooo..ooo.ooooooooooX..........o..oo......o.........",
"oooooooooo.ooooooo..o.ooooooooooX..........ooo........o.........",
"oooooooooo.ooooooooo..ooooooooooX.........oo..........o.........",
"..oooooooo.oooooooooo...ooooooooX.......oo.o..........o.......oo",
"oo..oooooo.oooooooooo.oo..ooooooX.....oo...o..........o.....oo..",
"oooo..oooo.oooooooooo.oooo..ooooX...oo.....o..........o...oo....",
"oooooo..oo.oooooooooo.oooooo..ooX.oo.......o..........o.oo......",
"oooooooo...oooooooooo.oooooooo..Xo.........o..........oo........",
"oooooooooo..ooooooooo.ooooooooooX..........o........ooo.........",
"oooooooooo.o..ooooooo.ooooooooooX..........o......oo..o.........",
"oooooooooo.ooo..ooooo.ooooooooooX..........o....oo....o.........",
"oooooooooo.ooooo..ooo.ooooooooooX..........o..oo......o.........",
"oooooooooo.ooooooo..o.ooooooooooX..........ooo........o.........",
"oooooooooo.ooooooooo..ooooooooooX.........oo..........o.........",
" ooooooooo.oooooooooo...ooooooooX.......oo.o..........o........ ",
"   ooooooo.oooooooooo.oo..ooooooX.....oo...o..........o......   ",
"     ooooo.oooooooooo.oooo..ooooX...oo.....o..........o....     ",
"        oo.oooooooooo.oooooo..ooX.oo.......o..........o..       ",
"          .oooooooooo.oooooooo..Xo.........o..........o         ",
"            ooooooooo.ooooooooooX..........o.........           ",
"              ooooooo.ooooooooooX..........o.......             ",
"                ooooo.ooooooooooX..........o.....               ",
"                  ooo.ooooooooooX..........o..                  ",
"                    o.ooooooooooX..........o                    ",
"                       oooooooooX.........                      ",
"                         oooooooX.......                        ",
"                           oooooX.....                          ",
"                             oooX...                            "
};
