/* XPM */
static char *_6_h1646852824[] = {
/* columns rows colors chars-per-pixel */
"64 64 21 1 ",
"  c None",
". c #FE3434",
"X c #FF3434",
"o c #FF3534",
"O c #FE3435",
"+ c #FF3435",
"@ c #28AC10",
"# c #29AC10",
"$ c #28AD10",
"% c #29AD10",
"& c #29AD11",
"* c #51FE00",
"= c #50FF00",
"- c #51FF00",
"; c #51FF01",
": c #52D620",
"> c #53D620",
", c #52D720",
"< c #53D720",
"1 c #52D621",
"2 c #53D621",
/* pixels */
"                                                                ",
"                              XXXX                              ",
"                            XXX--XXX                            ",
"                          XXX------XXX                          ",
"                        XXX----------XXX                        ",
"                      X.X--------------XXX                      ",
"                    XX.------;-----------XXX                    ",
"                  XXX----------------------XXX                  ",
"                ...--------=-------=---------...                ",
"              XX.------------------------------.XX              ",
"            XXX---------------------------;------XXX            ",
"          XXX--------------------------------=-----XXX          ",
"        XXX-----------------------------------=------XXX        ",
"      XXX=-----------------------------------;-------;-XXX      ",
"    XXX----------------------------------=---;------;-;--XXX    ",
"  XXX-------------------------------=----------------------XXX  ",
"XX.----------------------------------------------------------XXX",
"X1..X-------------------------------------------------------XXXX",
"X:::...----------------------------*----------------------XXX##X",
"X1::11..X-----------------------------------------------XXX####X",
"X:::::::...--------------------=----------------------XX.%%%&&$.",
"X:::::::::..X---------------------------------------XXX&$%%%&&$.",
"X:::::::::%1XX.-----------------*-----------------.X+#1&$%%%%$$.",
"X:>:::::::%::1...-------------------------------..X###1#%%%%%$$.",
".:::::::::%:::::.XX---------------------------XX.%%%%%:%%%%%%%%X",
".:::::::::%:::>:11...--------------*--------XXX&$%%$#%:%%%%%%%#X",
".:::::::::%::>::::1>XX.-------------------..X##&$%$$##:%%%%%$$&.",
".:::::::::%::>::::>:1#.X.---------------...:###&%%$$&#:%%%%%$$$.",
".%::::::::%::::::::::%::...-----------...%%:%%%%%%%%%%:%%%%%%%<.",
".:%%::::::%:::11::1::%::11..X-------...#%%%:%%%%%%%%%%:%%%%%<<%.",
".:::%%::::%::::::::::%>:::::X..---XXX###%%%<%%%%%%%%%%:%%%<:%%%.",
".:::::%%>1%:::::::::1%:::::>1:..XXX#####%%%<%%%%%%%%%%:%::%%%%%.",
".1::<:::%%%::::::::::%:::::::::.XX&&&$$$%%%:%%%%%%%%%%::%%$$$%%.",
".:::::::::%%:::::::::%::<::::::.XX&#&$%$%%%:%$%%%%%%:::%%%$&%%%.",
".::::<::<:%:%%:::::::%:::::::::.XX##%%%%%%%:%%%%%%::%%:%%%##%%%.",
".:::::::::%:::%%::<::%:::::::::.XX##%%$%%$%:%%%%::%%%%:%%%##%%%.",
".:::::::::%:::::%%:::%:::::::::.XX%%%%%%%%%:%%::%%%%%%:%%%%%%%%.",
".:::::1:::%:::::::%%:%:::1:::::.XX%%%%%%%%%:::%%%%%%%%:%%%%%%%%.",
".:::::::::%:::::::::%%:::<:::::.XX%%%%%%%%::%%%%%%%%%%:%%#%%%%%.",
".%::::::::%::::::::1:%%%:::::::.XX%%%%%%::%<%%$%%%%%%%:%&#%%%%<.",
".:%%::::::%::::::::::%::%%:::::.XX&$%%::%%%:%%%%%%%$%%:%$$%%::%.",
".:::%%::::%:::1::::::%::::%%:::.XX$$:<%%%%%:%%$%%%%$%%<%$$<<%%%.",
".:::::%%::%::::<:::::%::::::%%:...<<%%%%%%%:%%%%%%$$##:%<<%%%%%.",
".:::::::%%%::::<1::<:%::::::::%...%%%%%%%%%:%%%%%%&###::%%%%%%%.",
"X:::::::::%%:1:::::::%::::::<::...%%%%%%%%#1%%%%%%%%>:>%&#%%%%%.",
"X::::::::1%:%#:::::::%:::::::::...%%%%%%%%#1$#%%%%<<%%>%$##%%%%.",
"X1:::>::::%:::%%:::::%:::::::::...%%%%%%%%%:$$$%:<%%%%<%$$%%%%%.",
".:::::::::%:::::%%:::%:::::::::...%%%%%%%%%:#&<<%%%%%%>%%%%%%%%.",
"X1<:::::::%:::::::%%:%:::::::::...%%%%%$%%%:<<%%%%%%%%:%%%%%###X",
"XX::::::::%:::::::::%%:::::<:::...%%%%%%%%:<#%%%%%%%%%:%%%%%##XX",
" X..1:::::%::::::::::%%%:::::::...%%%%%%::%<##%%%%%%%%:%%%%%XXX ",
"   .XX:1::%<:::::::::%::%%:::<:...%%%%:<%%%<$&%%%%%%%%:%%%..X   ",
"     XXX.:%::::::1:::%::::%%:::...%%1<%%%%%:%%%%%%%%%%1%XXX     ",
"        ...1:::::::::%::::>:%%:...:<##%%%%%:%%%%%%%%%%XXX       ",
"          XX.:<::::::%::::::::%...%%%%%%%%%:%%$$%%%%XXX         ",
"            ...::::::%1::::::::...%%%%%%%%%:$$$&%%..X           ",
"              XXX1:<:%>:::::::1X..$$$%%%$%%<%%##XXX             ",
"                XX.::%:::::::::.X.$$$%%%$$%<%.XXX               ",
"                  XX.%:<:::::::.XX#&%%%%$$&X.X                  ",
"                    ....:::1:::.XX##%%%%&oXX                    ",
"                       X.X1:<<:.X.%$%#&.XX                      ",
"                         X..11:.X.%$%X..                        ",
"                           XXX1XXX&.XX                          ",
"                             ..XXXXX                            "
};
