/* XPM */
static char *__h1646852820[] = {
/* columns rows colors chars-per-pixel */
"64 64 41 1 ",
"  c None",
". c #3A2802",
"X c #3B2802",
"o c #3A2902",
"O c #234A18",
"+ c #7D4800",
"@ c #7C4900",
"# c #7D4900",
"$ c #7D4901",
"% c #FE3434",
"& c #FF3434",
"* c #FF3534",
"= c #FE3435",
"- c #FF3435",
"; c #FF3535",
": c #846B28",
"> c #846A29",
", c #856A29",
"< c #846B29",
"1 c #856B29",
"2 c #A56B30",
"3 c #A56B31",
"4 c #008200",
"5 c #008300",
"6 c #018300",
"7 c #008201",
"8 c #29AC10",
"9 c #28AD10",
"0 c #29AD10",
"q c #29AD11",
"w c #52D620",
"e c #53D620",
"r c #52D720",
"t c #52D621",
"y c #7BFE30",
"u c #7AFF30",
"i c #7BFF30",
"p c #7BFE31",
"a c #7BFF31",
"s c #B3F270",
"d c #D1F270",
/* pixels */
"                                                                ",
"                              &&&&                              ",
"                            &&&ii&&&                            ",
"                          &&&iiiiii&&&                          ",
"                        &;&iiiiiiiiii&&&                        ",
"                      &&&iiiiiiidiiiiii&&&                      ",
"                    &&&iiiiiiiiiiiiiiiiii&&&                    ",
"                  &&&iiiiiiiiiiiiiiiiiiiiii&&&                  ",
"                &&&iiiiiiiiiiiiiiiiiiiiiaiiii&&&                ",
"              &&&iiiiiidiiiiiiiiiiiiiiiiiiiiiii&&&              ",
"            &&&iiiiiiiiiiiiiiiiiiiiiiiiiiiiiiiiii&&&            ",
"          &&&iiiiiiiiiiiiiiidiiiiiiiiiiiidiiiiiiiii&&;          ",
"        &&&iiiiiidiiiiiiiiiiiiiiiiiiiiiiiiiiiiiiiiiii&&&        ",
"      &&&iiiiiiiiiiiiiiiiiiiiiiiiiiiiiiiiiiiiiiiiiiiiii;&;      ",
"    &&&iiiiiiiiiiiiiiiiiiiiiiiiiiiiiiiiiiiiiiiiiiiiiiiiii&&&    ",
"  &&&iiiiiiiiiiiiiiiiidiiiiiiiiiiiiiiiiiiiiiiiiiiiiiiiiiiii&&&  ",
"&&%iiiiiiiiiiiiiiiyyyyyyiiiiiiiiiiiiiiiiyyyyyyyyiiiiiiiiiiyyy%%%",
"&t%%%iiiiiiiiidiiiyyyyyyiiiiisiiiiiiiiiiyyyydyyydiiiiiiiiiyy%%%%",
"&tww%%%iiiiiiiiiiyyyyyyyiiiiiiiiiiiidiiiyyyyyyyyiiiiiiiiii&%%00%",
"&twwww%%%iiiiiiiiiyyyyyyiiiiiiiiiiiiiiiiyyyyyyyyiiiiiiii&&&q000%",
"%wwwwwww%%%iiiiiiyyyyyyyiiiiiiiiiiiiiiiiyyyyyyyyiiiiii&&%000000%",
"%wwwwwwwww%%%iiiidyyyyyyiiiiiiiiiiiiiiiiyyiiyyyyiiii&&%q0000000%",
"%wwwwwwwwwww%%%iiiyyyyyydiiiiiiiiiiiiiiiiiiiyyiiii&&&qqq0000000%",
"%wwtwwwwwwwwww%%&iyyyyyyiiiiiiiiiiiiiiiiiiiiiiii&&&qqq990000000%",
"%0wwwwwwwwwtwwww&%%iiiiiiiiiiiiiiiiiiiiidyyyyy%%%000qqqq00000q6&",
"%X00wtwwwwwwwwwwtw%%%iiiiiiiiiiiiiiiiiiiiiyy%%%00000qqqq00qq66O&",
"&:XX9qttwwwwwwwwwwww%%%iiiiiiiiidiiiiiiiii%%%0000000qqqq0q66OXX&",
"&:::XXqqwwwwwwwwwwwwwt%%&iiiiiiiiiiiiiii%%%000000000qqqq66O.X@@&",
"&:<<<<..00ttttwwwwwwwwww&&&yyyiiyyyyii&&%00q00000000qq77o..+@@@&",
"&:<<<<:<XX99ttwwwwwewwwwwt&&%yiiyyyy&&&80000q00000q077Ooo+++@@@&",
"&<3:<<<<::..00wwwwwwwwwwtwww&%&iyy&&&0q8000000000q55Ooo@@@++@@3&",
"&<<<<<<<::::..09wwwwwwwwwwwwtw&&%%&00qqq0000000q55OXo$@@@@+:@@@&",
"&<<<<<<<<<<<::XX00wwwwwtwwwwwww&%%00000000000066O..@+@:+++.++++%",
"&<<<<<<3<<<<:::<..00wwwtwwwwwww&%%000000qq0866O..@@@@@+++++++++%",
"&<<<<<<<<<<<::<<<<..00ttwwwwwww&%&q00000qq66O..@++@@@@@++++++++%",
"&<<.<<<<<.<<<<<<<<<<..qqwwwwwww&%&00000066OX.+@@++:@@@3++++3+++%",
"&<<<<<<<<<<<<3<<<<<<<<..00wwwww&%%q00q55OXX@+++++++++++++++++++&",
"&<<<<<<<<<<<<<<<<<<<<<<<..00www&%%0q55OXX@@@++++++.+++++++++++@&",
"&3<<<<<<<<<<<<<:<<<<<<<<::..00t&%%q6OXX@@@@++++3++++++++.+++@@.&",
"&<<<<<<<<<<<<<<,<<<<<<<<::::..q&%%6XX@@@@@@+++++++++++++++:@@@@&",
"&<<<<<3<<<<<<X,,<<<<<<<<<<<<<<.&%&X@@@@+++++++++++++@@@++++++++&",
"&<<<<<<<<<<<<<,<<<<<3<<<<<<<<<<&%%@@@+@:+++.++++++++@@@++++++++&",
"&<<<<<<<<<<<<<<<,<<<<<<<<<.<<<<&%%@@++++3+++++++++++@3++++++@@3&",
"&<<.<<<<<<<<<<<<<<<<<<<<<<<<<<<&%%+:.+++++++++++++++:@+++++.@@+&",
"&<<<<<<<<<<<<<<<<<<<<<<<<<<<<<<&%%++++++++++3+:+.+++++++++++@+@&",
"&<<<<<<<<<<<<3<<<<<<<<<<<<<<<<<&%%++++++++++++@@+++++++++++++@@&",
"&<<<<<<<.<<<<<<<<<<<<<X<<<<<3<<&%%++++++++++@@@@++++++++++++@@@&",
"&<<3<<<<<<<<<<<<<<<<<<<<<<<<<<<&%%++++++++++@@@+++++++.++++:@@@&",
"&<<<<<<<<<<<<<<<<.<<<<<<<<<<<<<&%%+.@@@@@.@++++++@@@+++++3+++.+&",
"&&<<<<<<<<<<<<<<<<<<<<<<<<<<<<<&%%++@@3+@@@+++++++3@++++++++++&&",
" &&&<<<<<<3<<<<<<<<<<<3<<<<<<<<&%%++@@++@@+++.++++@@++@@++++&&& ",
"   &&;<<<<<<<<<<<<<<<<<<<<<<<<<&%%++:@+++:+++++++:@@++:@++%%&   ",
"     &&&&<<<<<<<<<<<<<<<<<<.<<<&%%+++.+++2++++++++++++@@&&&     ",
"        &&&<<.<<<<<<<<<<<<<<<<<&%%++++++++++++++++.+++&&&       ",
"          &&&<<<<<3<<<<<<<<<<<<&&&++++++++++++3@++++&%%         ",
"            &&&<<<<<<<<<<<<<<<<&&&+++++++++.+:@@++%%&           ",
"              &&&<<<<.<<<<<<<<<&&&+3++++:+++++@@&&&             ",
"                &&&<<<<<<<3<<<<&&&++++++@@+++%&&&               ",
"                  &&&<<<<<<<<<<&&&++@@+3@@@&%&                  ",
"                    &&&&<<<<<<:&&&++@@++@&&&                    ",
"                       &&&<<<X:&&&@X@++%&&                      ",
"                         &&&<<:&&&@@:%%%                        ",
"                           &&&<&&&@&&&                          ",
"                             &&&&&&&                            "
};
