/* XPM */
static char *_1646851423[] = {
/* columns rows colors chars-per-pixel */
"64 64 6 1 ",
"  c None",
". c #8BBCFF",
"X c #B2D2FF",
"o c #D1E5FF",
"O c #D9E9FF",
"+ c white",
/* pixels */
"                                                                ",
"                              OOOO                              ",
"                            OOOOOOOO                            ",
"                          OOOOOOOOOOOO                          ",
"                        OOOOOOOOOOOOOoOO                        ",
"                      OOOOOOOOOOOOOOOOOOOO                      ",
"                    OOOOOOOOOOOOOOOOOOOOOOOO                    ",
"                  OOOOOOOOOOOOOOOOOOOOOOOOOOOO                  ",
"                OOOOOOOOOOOOOOOOOOOOOOOOOOOOOOOO                ",
"              OOOOOOOOOOOOOOOOOOOOOOOOOOOOOOOOOOOO              ",
"            OOOOoOOOOOOOOOOOOOOOOOOOOOOOOOOOOOOOOOOO            ",
"          OOOOOOOOOOOOOoOOOOOOOOOOOOOOOOOOOOOOoOoOOOOO          ",
"        OOOOOOOOOOOOOOOOOOOOOOOOOOOOOOOOOOOOOoOoOOOOOOOO        ",
"      OOOOOOOOoOOOOOOOOOOOOOOOOOOOOOOOoOOOOOOOOOOOOOOOOOOO      ",
"    OOOOOOOOOOOOOOOOOOoOOOOOOOOOOOOOOOOOOOOOOoOOOOOOOOOoOOOO    ",
"  OOOOOOOOOOOOOOOOOOOOOOOOOOOOOOOOOOOOOOOOOOOOOOOOoOOOOOOOOOOO  ",
"++OOOOOOOOOOOOOOOOOoOOOOOOOOOOOOOOOOOOOOOOOOOOoOOOOOOOOOOOOOOOOX",
"OO++OOOOOOOOOOOOOOOOOOOOOOOOOOOOOOOOOOOOOOOOoOOOOOOOOOOOOOOOOXX.",
"OOOO++OOOOOOOoOOOOOOOOOOOOOOOOOOOoOOOOOOOOOOOOOOOOOOOOOOOOOXX...",
"OOOOOO++OOooOOOOOOOOOOOOOOOOOOOOOOOOOOOOOoOOOOOOOOOOOOOOOXX.....",
"OOOOOOOO++OOOOOOoOooOOOoOOOOOOOOOOOOOOOOOOOOOOOOOOOOOOOXX.......",
"OOOOOOOOOO++OOOoOOOOOOOOOOOOOOOOOOOOOOOOOOOOOOOOOOOOOXX.........",
"OOOOOOOOOOOO++OOOOOOOOOOOOOOOOOOOOOOoOOOOOOOOOoOOOOXX.......X...",
"OOOOOOXOOOOOOO++OOOOOOOOOoOOOOOOOOOOOOOOOOOOOOOOOXX.............",
"OOOXOOOOOOOOOOOO++OOOOOOOOOOOOOOOOOOOOOOOOOOOOOXX...............",
"OOOOOOXOOOOOOOOOOO++OOOOOOOOOOOOoOOOOOOOOOOOOXX.................",
"OOOXOOOOOOOOOOOOOOOO++OOOOOOOOoOOOoOOOOoOOOXX...................",
"OOOOOOOOOOOOOOOOOXOOOO++OOOOOOOOOOOOOOOOOXX........X............",
"OOOOOOOOOOOOOOOOOOOOOOOO++OoOOOOOOOOOOOXX.......................",
"OOOOOOOOOOOOOOOOOOOOOOOOOO++OOOOOOOOOXX..............X..........",
"OOXOOOOOOOOOOOOOOOOOOOOOOOOO++OOOOOXX......X.X..................",
"OOOOOOOOOXOOOOOOOOOOOOOOOOOOOO++XXX..........................XX.",
"OOOOOOOOOOOOOOOXOOOOOOOOOOOOOOOO+.........................X.....",
"OOOOOOOXOOOOOOOOOOOOOOOOOOOOOOOO+................X..............",
"OOOOOOOOOXOOOOOOOOOOOXOOOXOOOOOO+...............................",
"OOOXOOOOOXOOOXOOOOOOOOOOOOOOOOOO+X....................X....X....",
"OOOOOOOOOOOOOXOOOOOOOOOOOOOOOOOO+...............................",
"OOXOOOOOOOOOOOOOOOOOOOOOOOOOOOOO+.........X.......X.............",
"OOOOOOOOOOOOOOOOOOOOOOOOOOOOOOOO+..............X................",
"OOOOOOOOOOOOOOOOOOOOOOOOOOOOOOOO+...X.......X...................",
"OOOOOOOXOOOOOXOOOXOOOOOOOOOOOOOO+...............................",
"OOOOOOOOOOOOOOOOOOOOXOOOOOOOOOOO+..........X.....X..............",
"OOOOOOOOOOOOOOOOOOOOOOOOXOXOOOOO+.......X.X.....................",
"OOOOOOOOOOOOOOOOOOOOOOOOOOOOOOOO+X..X...........................",
"OOOOOOOOOXOOOOOOOOOOOOOOOOOOOOOO+...........X..........X...X....",
"OXOXOOOOOOOOOOOOOOOOOXOOOOOOOOOO+..........................X....",
"XOOOOOOOOXOOOOOOOOOXOOOOOOOOXOOO+..X............................",
"OOOOOOOOOOOOOOOOOOOOOOOOOOOOOOOO+.........................X.....",
"OOOOOOOOOOOOOOOOOOOXOOOOXOOOOOOO+..XX....X......X...............",
"OOOOOOOOOOOOOOOOOOOOOOOOOOOOOOOO+...............................",
" OOOOOOOOOOOOOOOOOOOOOXOOOOOOOOO+.............................. ",
"   OOOOOOOOOOOXOOOOOOOOOOOOOOOOO+............................   ",
"     OOOOOOOOOOOOOOOXOOOOOOOOOOO+..........................     ",
"        OOOOOOOOOOOOOOOOOOOOOOOO+........................       ",
"          OOOOOOOOOOOOOOXOOOOOOO+...........XX.........         ",
"            OOOOOOOOXOOOOOOOOOOO+....................           ",
"              OOOOOOOOOOOOOOOOOO+X.................             ",
"                OOOOOOOOOOOOOOOO+................               ",
"                  OOOOOOOOOOOOOO+.............                  ",
"                    OOOOOOOOOOOO+...........                    ",
"                       OOOOOOOOO+.X.......                      ",
"                         OOXOOOO+.....X.                        ",
"                           OOOOO+.....                          ",
"                             OOO+...                            "
};
