/* XPM */
static char *__h1646852821[] = {
/* columns rows colors chars-per-pixel */
"64 64 28 1 ",
"  c None",
". c #FE3434",
"X c #FF3434",
"o c #FE3534",
"O c #FF3534",
"+ c #FE3435",
"@ c #FF3435",
"# c #FF3535",
"$ c #8ABCFE",
"% c #8BBCFE",
"& c #8BBDFE",
"* c #8ABCFF",
"= c #8BBCFF",
"- c #8ABDFF",
"; c #8BBDFF",
": c #B2D2FE",
"> c #B2D3FE",
", c #B2D2FF",
"< c #B2D3FF",
"1 c #D0E5FF",
"2 c #D1E5FF",
"3 c #D9E8FE",
"4 c #D8E9FE",
"5 c #D9E9FE",
"6 c #D8E8FF",
"7 c #D9E8FF",
"8 c #D8E9FF",
"9 c #D9E9FF",
/* pixels */
"                                                                ",
"                              ....                              ",
"                            ...99...                            ",
"                          ...999999...                          ",
"                        ...9999999999...                        ",
"                      .X.99999999999999.XO                      ",
"                    ..X999999999999999999O..                    ",
"                  ...9999999999999999999999...                  ",
"                XXX99999999999999999999999999XXX                ",
"              ..X999999996999499999999999999999X..              ",
"            ...9299999999999999999999999999999999...            ",
"          ...99999999992999499999999999999999929299...          ",
"        ..O999994999999999999999999999999999929299999OXO        ",
"      ...9999929999999999499999999999929969999999999999X..      ",
"    ...99999999999999929999499999999999999999299999999929...    ",
"  ...999999999999999999999999999999999999999999999299999999...  ",
"...9999999999999999299999999999999999999999999299999999999999XXX",
".9...9999999999999999999999999999999999999992999999999999999XXXX",
".999...999999296999999999999999992999999999999999999999999..X=*X",
".99999..X92296999999996999999999969999999299999999999999...=*=*X",
".9999999XXX6999929229992999999999999999999999999999996..X======X",
".999999999XXX992999999999999999999999999999999699999XX.=*=====*X",
".99999999999XXO99999999999999999999929999999992999XXX=====*=,==O",
".99999,9999999XXX9999999929999999999999999999999XXX**=========*X",
".99,999999999699XXO999999999999999999999999999XXO========*=====O",
".99999,99999999999XXX99999999999299999999999XXX=*=============*O",
"X99,9999999999999999XXX9999999299929999299XXX==================O",
"X9999999999999999,9969XXX999999999999999XXX=*======,==========*X",
"X99999999999999999999969XXX29999999999XXX*=====================X",
"X9999999999999999999999999XXX9999999XXX*====*========,========*X",
".9,9999999999996999999999999XXX999XXX=**===,*,===============*=X",
".99999999,96999999999994499999..XXX=*========================,,X",
"X99999999999999,999999999999999XXX========================>====O",
"X999999,94999999999999999999999XXX===============,=============O",
"X49999999,99999999999,999,99999XXX*=========================**=O",
"X99,99999,999,99999969999996999XXX==*=*===============>====>***X",
"X999999999999,99999999999999699XXX====%%==================*=*==X",
"X9,9999999999999999999999999996XXX========,=======>=========*=*X",
"X996399999999999999999999999999XXX=============>===============O",
"X969999999999999999999999999999XXX==,=======,=================*X",
"X999999,99999,999,9999999999999XXX**===========================X",
"X9999999999999999999,9999999999XXO=========,=====,============*X",
"X99999999999949999999999,9,9999OXX======,=,====================X",
"X999999999999999999999999999999.XX==>=========================*O",
"X93999999,999999999999999999999XXX==========>==========,===,===O",
"X,9,99999999999999999,999999999XXX=========================,==*O",
"X99999999,999999999,99999999,99XXX*,===========================X",
"X999999999999999999999399999999XXX*=======================,===*X",
"X999999999999999999,9999,999999XOO=,>====,======,==============.",
"OX99999999999999999999999999999XXO============================..",
" .XX999999999999999999,99999999XXX==========================... ",
"   X..99999999,9999999999999999OXX========================...   ",
"     ....99999999999,9999999999XXO**====================...     ",
"        ...99999999999999999999XXX=*==================...       ",
"          ...99999999999,999999XXX==========,,======OOO         ",
"            ...99999,9999999999XOX================OOO           ",
"              ...99999999999999.XX==============...             ",
"                ...999999999999.XX===========....               ",
"                  ...9999999999.XO*========...                  ",
"                    ....9999999.XX=======...                    ",
"                       .O.99999...,==*=X..                      ",
"                         ...999...===XXX                        ",
"                           ...9...=...                          ",
"                             .......                            "
};
