/* XPM */
static char *_1646851423[] = {
/* columns rows colors chars-per-pixel */
"64 64 7 1 ",
"  c None",
". c #29AD10",
"X c #51FF00",
"o c #52D620",
"O c #7BFF30",
"+ c #B3F270",
"@ c #D1F270",
/* pixels */
"                                                                ",
"                              OOOO                              ",
"                            OOOOOOOO                            ",
"                          OOOOOOOOOOOO                          ",
"                        OOOOOOOOOOOOOOOO                        ",
"                      OOOOOOOOOO@OOOOOOOOO                      ",
"                    OOOOOOOOOOOOOOOOOOOOOOOO                    ",
"                  OOOOOOOOOOOOOOOOOOOOOOOOOOOO                  ",
"                OOOOOOOOOOOOOOOOOOOOOOOOOOOOOOOO                ",
"              OOOOOOOOO@OOOOOOOOOOOOOOOOOOOOOOOOOO              ",
"            OOOOOOOOOOOOOOOOOOOOOOOOOOOOOOOOOOOOOOOO            ",
"          OOOOOOOOOOOOOOOOOO@OOOOOOOOOOOO@OOOOOOOOOOOO          ",
"        OOOOOOOOO@OOOOOOOOOOOOOOOOOOOOOOOOOOOOOOOOOOOOOO        ",
"      OOOOOOOOOOOOOOOOOOOOOOOOOOOOOOOOOOOOOOOOOOOOOOOOOOOO      ",
"    OOOOOOOOOOOOOOOOOOOOOOOOOOOOOOOOOOOOOOOOOOOOOOOOOOOOOOOO    ",
"  OOOOOOOOOOOOOOOOOOOO@OOOOOOOOOOOOOOOOOOOOOOOOOOOOOOOOOOOOOOO  ",
"OOOOOOOOOOOOOOOOOOOOOOOOOOOOOOOOOOOOOOOOOOOOOOOOOOOOOOOOOOOOOOOO",
"ooOOOOOOOOOOOO@OOOOOOOOOOOOOO+OOOOOOOOOOOOOO@OOO@OOOOOOOOOOOOOO.",
"ooooOOOOOOOOOOOOOOOOOOOOOOOOOOOOOOOO@OOOOOOOOOOOOOOOOOOOOOOOO...",
"ooooooOOOOOOOOOOOOOOOOOOOOOOOOOOOOOOOOOOOOOOOOOOOOOOOOOOOOO.....",
"ooooooooOOOOOOOOOOOOOOOOOOOOOOOOOOOOOOOOOOOOOOOOOOOOOOOOO.......",
"ooooooooooOOOOOOO@OOOOOOOOOOOOOOOOOOOOOOOOOOOOOOOOOOOOO.........",
"ooooooooooooOOOOOOOOOOOO@OOOOOOOOOOOOOOOOOOOOOOOOOOOO...........",
"ooooooooooooooOOOOOOOOOOOOOOOOOOOOOOOOOOOOOOOOOOOOO.............",
"ooooooooooooooooOOOOOOOOOOOOOOOOOOOOOOOO@OOOOOOOO...............",
"ooooooooooooooooooOOOOOOOOOOOOOOOOOOOOOOOOOOOOO.................",
"ooooooooooooooooooooOOOOOOOOOOOO@OOOOOOOOOOOO...................",
"ooooooooooooooooooooooOOOOOOOOOOOOOOOOOOOOO.....................",
"ooooooooooooooooooooooooOOOOOOOOOOOOOOOOO.......................",
"ooooooooooooooooooooooooooOOOOOOOOOOOOO.........................",
"ooooooooooooooooooooooooooooOOOOOOOOO...........................",
"ooooooooooooooooooooooooooooooOOOOO.............................",
"ooooooooooooooooooooooooooooooooX...............................",
"ooooooooooooooooooooooooooooooooX...............................",
"ooooooooooooooooooooooooooooooooX...............................",
"ooooooooooooooooooooooooooooooooX...............................",
"ooooooooooooooooooooooooooooooooX...............................",
"ooooooooooooooooooooooooooooooooX...............................",
"ooooooooooooooooooooooooooooooooX...............................",
"ooooooooooooooooooooooooooooooooX...............................",
"ooooooooooooooooooooooooooooooooX...............................",
"ooooooooooooooooooooooooooooooooX...............................",
"ooooooooooooooooooooooooooooooooX...............................",
"ooooooooooooooooooooooooooooooooX...............................",
"ooooooooooooooooooooooooooooooooX...............................",
"ooooooooooooooooooooooooooooooooX...............................",
"ooooooooooooooooooooooooooooooooX...............................",
"ooooooooooooooooooooooooooooooooX...............................",
"ooooooooooooooooooooooooooooooooX...............................",
"ooooooooooooooooooooooooooooooooX...............................",
" oooooooooooooooooooooooooooooooX.............................. ",
"   oooooooooooooooooooooooooooooX............................   ",
"     oooooooooooooooooooooooooooX..........................     ",
"        ooooooooooooooooooooooooX........................       ",
"          ooooooooooooooooooooooX......................         ",
"            ooooooooooooooooooooX....................           ",
"              ooooooooooooooooooX..................             ",
"                ooooooooooooooooX................               ",
"                  ooooooooooooooX.............                  ",
"                    ooooooooooooX...........                    ",
"                       oooooooooX.........                      ",
"                         oooooooX.......                        ",
"                           oooooX.....                          ",
"                             oooX...                            "
};
