/* XPM */
static char *__h1646852821[] = {
/* columns rows colors chars-per-pixel */
"64 64 22 1 ",
"  c None",
". c #FE3434",
"X c #FF3434",
"o c #FF3534",
"O c #FE3435",
"+ c #FF3435",
"@ c #29AC10",
"# c #28AD10",
"$ c #29AD10",
"% c #29AD11",
"& c #52D620",
"* c #53D620",
"= c #52D720",
"- c #53D720",
"; c #52D621",
": c #7BFE30",
"> c #7AFF30",
", c #7BFF30",
"< c #7BFF31",
"1 c #B2F270",
"2 c #D0F270",
"3 c #D1F270",
/* pixels */
"                                                                ",
"                              XXXX                              ",
"                            XOX,,XXX                            ",
"                          XXO,,,,,,XXX                          ",
"                        XXX,,,,,,,,,,XXX                        ",
"                      X.X,,,,,,,3,,,,,,XXX                      ",
"                    XX.,,,,,,,,,,,<,,,,,,XXX                    ",
"                  XXX,,,,,,,,,,,,,,,,,,,,,,XXX                  ",
"                ...,,,,,,,,,,,,,,,,,,,,,,,,,,XXX                ",
"              XX.,,,,,,3,,,,,,,,,,,,,,,,,,,,,,,XXX              ",
"            XXX,,,,,,,,,,,,,,,,,,,,,,,,,,,,,,<,,,XXX            ",
"          XXX,,,,,,,,,,,,,,,3,,,,,,,,,,<,2,,,,,,,,,XXX          ",
"        XXX,,,,,,3,,,,,,,,,,,,,,,,,,,,,,,,,,,,,,,,,,,XXX        ",
"      XXX,,,,,,,,,,,,,,,,,,,,,,,,,,,,,,,,,,,,,,,,,,,,,,XXX      ",
"    XXX,,,,,,,,,,,,,,,,,,,,,,,,,,,,,,,,,,,,,,,,,,,,,,,,,,XXX    ",
"  XXX,,,,,,,,,,,,,,,,,3,,,,,,,,,,,,,,,,,,,,,,,,,,,,,,,,,,,,XXX  ",
"XX.,,,,,::::::::::::::::,,,,,,,,,,,,,,,,,,,,,,,,,,,,,,,,,,,,,XXX",
"X;...,,,::::::3:::::::::,,,,,1,,,,,,,,,,,,,,3,,,2,,,,,,,,,,,XXXX",
"X&&&..X,::::::::::::::::,,,,,,,,,,,,3,,,,,,,,,,,,,,,,,,,,,XX.#%.",
"X;&&&;XX.:::::::::::::::,,,,,,,,,,,,,,,,,,,,,,,,,,,,,,,,XXX####.",
".&&&&&&&XXX:,,,,,,,,::::::,,::::,,,,,,,,,,,,,,,,,,,,,,XX.$$$#$$.",
".&&&&&&&&&XX.,,,,2,,::::::,,::::,,,,,,,,,,,,,,,,,,,,XX.##$$$#$#.",
".&&&&&&&&&&&...,,,,,,,::3:::::::,,,,,,,,,,,,,,,,<,XXX%%###$$$##.",
".&&&&&&&&&&&;;..X,,,,,,:::::::::,,,,,,,,,,,,,,,,XXX%%%%%$$$$$##.",
".&&&;&&&&&&&&&&&X..:,,,,,,,,::::,,,,,,,,3,,,,,...$$$$$$$$$$$$$$.",
".&&&&&&-&&&-&&&&;;...,,,,,,,::::,,,,,,,,,,,,XX.$$$$$$$$$$$$$$##.",
".&&;&&&&&&&&&&&&&&&&...:,,,,::::3,,,,,,,,,XXX###$$$$$$$$$#$$$##.",
"X&&&&&&&&&&-&&&&&&&&&&...,,,::::,,,,,,,,XXX$%%##$$$$$$$$$$$$$##.",
"X;&&&&&&&&&--*&&&&&&;&&&.XX,,,::::::,,..X$$$$$$$$$$$$$$$@$$$$$$X",
".&&&&&&-&&&&**&&&&&&&&&-;;XX.,,,::::..X%$$$$$$$$$$$$%%$$$$$$$$#X",
".&&&&&&&&&&&**&&&&&&&&-&&&&&.X.,::XXX$##$$$$$$$$$$$$@@@$$$$$###X",
".&&&&;&&&&&&**&&-&&&&&&&&&;&;;..XXX##$##$$$$$$$$$$$$@@@@$$$$###X",
"X&&&&;&&&&&&&&&&&&&&&&&&;&&&&&&.XX#$$$$$$$$$$$$$$$$$$$$$$$$$$$$X",
"X&&&&&&&&&&&&&&&&&&&&&&&&&&&-&&.XX##$$$$$$$$$$#$$$$$$$$$$$$$$$#X",
"X&&&&&&&&&&&&&&&&-&&&&&&&&&&&&&.XX%#$#$$$$$$$$$$$$$$$$$$$$$$###X",
"X&&&&&&&&&&&&&&&&&&&&&&&&&&&&&&.XX%#$#$$$$$$$$$$$$$$#$$$$$$$###X",
"X&&&&&&&&&&&*&&&&&&&&-&&&&&&;;&...$%$$$$$$$$$$$#$$$@$$$@$$$$$@@X",
"X&&&&;&&&&&&**&&&&&&&&&&&&&&&&&...$$$$$$$$$$$$$$$$$$$$$$$$$$$$%X",
"X&&&&&&&&&&&**&&&&&&&&&&&&&&&&&...$$%@$$$$$$$$$$$$$$$$$$$$$$###.",
"X&&&&&&&&&&&**-&&&&&&&&&&&&&&&&...$$$@@@$$$#$$$$$$$$$$#$$$$$$##.",
"X&&&&&&&-&&&&;&&&&&&&&&&&&&-&&&...$$$$$$$$$$$$$$$$$$$$$$$$$$$$$.",
"X&&&&&&&-&&&&&&&&&&&&&&&&&&&&&&...$$$$$$$$$$$$$$$$$$$$$$$$#$$$#.",
"X&&&&&&&&&&&&&&&&&&&&&&&&&&&&&&...$$$$$$$$$$$$$$$$$$$$$$$$$$$##.",
"X&&&&&&&&&&&&&&&&&&&&&&&-&&&&&&...$$$$$$$$$$$$$$$$$$$$$$$$$$$##.",
"X&&&&&;&&&&&&&&&&&&&&&&&&&&&&&-...$$$$$$$$$$$$$$$$$$$$#$$$$$$$$.",
"X&&&&&&&&&&&&&&&-&&&-&-&&&&&-&&.o.$$#$$$$$$$$$$$$$$$$$$$$$$$$$#.",
"X&&&&&&&&&&&&&&&&&&&&&&&&&&&&&-...$$#$$$$$$#$$$$$$$$$$$$$$$$$##.",
"X&&&&&&&&&&&&&-&&&&&&&&&&&&-&&&...$$##$$$$$$$$$$$$$$$$$$$$$$$##.",
"X&&&&&&&&&&&&&&&&&&&&&&&&&&&&&&...##$$$$$$$$$$@$$$@$$$$$%##$$$$.",
"XX&&&;&&&&&&&&&&&&-&&&&&&-&&&&&...$#$$$$$$$$$$%$$$$$$$$$##%#$$..",
" XXX;&&&&&&&&&&&&&&&&&&&&&&&&&-...%#$$$$$$$$$$$$@@$$$$$$#$$#XX. ",
"   XXX&;&&&&&&&&&&&&&&&&&;&&&&&...$$$$$$$$$$$$$$@@@$$$$$#$..X   ",
"     XXX.&&&&&&&&&&&&&&&&&&&&&&..o$$$$$$$$$$$$$$@@$$$$$$XXX     ",
"        ...;&&&&&&&&&&&&&&&&&&&...$$$$$$$$$$$$$$$%$$$$XXX       ",
"          XX.&&&&&&&&&&&&&&&&&&...$$$$$$$$$$$$##$$$$.XX         ",
"            ...&&&&&&&&&&&&&&&&...$$$$$$$$$$%@##$$...           ",
"              XXX=;&&&&-&-&&;&&...%###$$#$$$$$%#XXX             ",
"                XX.&&&&&;&&&&&&.X.$$##$$##$$#.XXX               ",
"                  XX.&&-&&&&&&&.XX$$$$$$##%X.X                  ",
"                    ....&&&&&&&.XX$$$$$$%XXX                    ",
"                       X.X;&&&&.X.##$##.XX                      ",
"                         X..;=&.X.###...                        ",
"                           XXX=XXX%.XX                          ",
"                             XXXXXXX                            "
};
