/* XPM */
static char *__h1646852821[] = {
/* columns rows colors chars-per-pixel */
"64 64 20 1 ",
"  c None",
". c #242524",
"X c #252524",
"o c #252425",
"O c #242525",
"+ c #252525",
"@ c #333332",
"# c #333233",
"$ c #323333",
"% c gray20",
"& c gray25",
"* c #414040",
"= c #404140",
"- c #404041",
"; c #404141",
": c #FE3434",
"> c #FF3434",
", c #FE3534",
"< c #FF3534",
"1 c #FF3435",
/* pixels */
"                                                                ",
"                              >>>>                              ",
"                            >>>*;>>>                            ",
"                          <>>&&*;&&>>>                          ",
"                        >1>;;;**&&&&&>><                        ",
"                      >>>&&&;;*;&&&&&&&>>>                      ",
"                    >>>&&;&&-;;;&;&&&&&&&>><                    ",
"                  >>>&&&&&&&-%;;&&&&&&&&&&&>>>                  ",
"                >>>&&&&&&&&&&&&&&&&;&&&&&&&&&>>>                ",
"              >>>&&&&&&&&&&&&&&&&&&&&&&&&&&&&&&>>>              ",
"            >>>&&&&&&&&&&&&&&&&&&&&&&&&&&&&&&&&&&>>>            ",
"          >>>&&&&&&&&&&&&&&&&&&&&&&&&&&&&&&&&&&&&&&>>>          ",
"        >>>&&&&&&&&&&&&&&&&&&&&&&&&&&&&&&;&&&&&&&&&;&>>>        ",
"      >>>&&&&&&&&&&&&&&&&&&&&&&&&&&&&&&&&&&&&&&&&&&&&&&>>>      ",
"    >>>&&&&&&&&&&&&&&&&&&&&&&&&&&&&&&&&&&&;&&&&&&&&&&&&;&>>>    ",
"  >>>&&&&&&&&&&&&&&&&&&&&&&&&&&&&&&&&&&&&&&&&&&&&&&&&&&&&&&>>>  ",
">>>&&&&&&&&&&&&&&&&&&&&&&&&&&&&&&&&&&&&&&&&&&&&&&&&&&&;&&&&&&>>>",
">%>>>&&&&&&&&&&&&&&&&&&&&&&&&&&&&&&&*&&&&&&&&&&&&&&&&&&&&&&&>>>>",
">%$%>>>&&&&&&&&&&&&&&&&&&&&&&&&&&&&&&&&&&&&&&&&&&&&&&&&&&;>>>OO>",
">%$%$$>>>&&&&&&&&&&&&&&&&&&&&&&&&&&&&&&&&&&&&&&&&&&&&&&&>>>OOOO1",
">%%%%%%$>>>&&&&&&&&&&&&&&&&&&&&&&&&&&&&&&&&&&&&&&&&&&&>>>+++O++>",
">%%%%%%%%%>>>&&&&&&&&&&&&&&&&&&&&&&&&&&&&&&&&&&&&&&&><>+O+++OOO>",
">$%%%%%%%%%%>>>&&&&&&&&&&&&&&&&&&&&&&&&&&&&&&&&&&&>>>+++OO++OOO>",
">%%%%%%%%%%%%$>>>&&&&&&*&&&&&&&&*&&&&&&&&&&&&&&&>>>+++++++++OOO>",
">%%%%%%%%%%%%%%%>>>&&&&&&&&&&&&&&&&&&&&&&&&&&&>>>++++++++++++++>",
">$%%%%%%%%$%%%%%$%>>>&&&&&&&&&&&&&&&&&&&&&&&>>>+++++++++++++++O>",
">%%%%%%%%%%%%%%%%%$%>>>&&&&&&&&&&&&&&*&&&&>>>+++++++++++++++OOO>",
">%%%%%%%%%%%%%%%%%%%%$>>>&&&&&&&&&&&&&&&>>>++++++++++++++++OOOO>",
">$%$%%%%%%%%%$%%%%%%%%%%>>>&&&&&&&&&&&>>>++++++++++++++++++++++>",
">%%%%%%%%%%%%%%%%%%%%%%%%$>>>&&&&&&&>>>+++++++++++++++++++++++O>",
">%%%%%%%%%%%%%%%%%%%%%%%%%%%>>>&&&>>>+++++++++++++++++++++++OOO>",
">$%%%%%%%%%%%%%%%%%%%%%%$%%%%%>>>>>+++++++++++++++++++++++++OOO>",
">%@%%%%%%%@%%%%%%%%%%%%%%%%%%%$>>>++++++++++++++++++++++.+++++O>",
">%@%%$%%$%%%%%#%%%%%%%%%%%%%%%%>>>+++++++++++++++++++++++++o+++>",
">$%%%%%%%%%%%%%%%%%%%%%%%%%%%%%>>>++++++++O+++++++++++++++++O++>",
">%%%%%#%%%%%%%#%%%%%%%%%%%%%%%$>>>+++++++++++++++++++++++++++++>",
">%%%#%%%%%%%%%%%%%%%%%%%%%%%%%%>>>+++++++++++++++++++++++++++++>",
">$%%%%%%%%%%%%%%%%%%%%%%%%%%%%%>>>+++++++++++++++++++o+++++++++>",
">%%%%%%%%%%%%%%%%%%%%%%%%%%%%%$>>>++++++++++++++O++++++++++++++>",
">%%%%%%%%#%%%%%%%%%%%%%%$%%%%%%>>>++++++++++++++++++++o+++O++++>",
">$$%%%%%%%%%%%%#%%%%%%%%%%%%%%%>>>++++++++++++++++.++++++++++++>",
">%%%%%%%%%%%%%%%%%%%%%%%%%%%%%$>>>++++++++++O++++++++++++++++++>",
">%%%%%#%%%%%%%%%%%%%%%%%%%%%%%%>>>++++++O+++++O++++O+++++++++++>",
">$%%%%%%%%%%%%%%$%%%%%%%%%%%%%%>><+++++++++++++++++++++++++++++>",
">%%%%%%%%%%%$%%%%%%%%%%%%%%%%%$>>>++++++++++++++++++++++++++++.>",
">%%%%%%%%%%%%%%%%%$%%%%%%%%%%%$1>>+++++++++++++++++++++++++++O.>",
">$%%%%%@%%%%$%%%%%%%%%%%%%%%%%%1>>O++++++++++++++++++++++++++++>",
">%%%%%%%%%%%%%%%%%%%%%%%%%%%%%%1>>++++++++++O++++++++++++++++++>",
">$%@%%%%%%%%%%%%%%%%%%%%%%%%%%%1>>+++++++++++++++++.+++++++++++>",
">>%%%%%%%%%%%%%%%%%%%%%%%%%%%%%1>>++++++++++++++++++++++++++++>>",
" >>>%%%%%%%%%%%%%%%%%%%%%%%%%%%>>>+++.++++++++++++++++++++++>>> ",
"   >>>%$%%%%%%%%%%%%%%%%%%%%%%%>>>++++++++.+++++++o++++.++>>>   ",
"     >>>>$%$%%%%%%%%%%%%%%%%%%%>>>++++++++++++++++++++++>>>     ",
"        >>>$%%%%%%%%%%%%%%%%%%%>>>++++++++++++++++++++>>>       ",
"          >>>$%%%%%%%%%%%%%%%%%>>>+++++++.+++++++++.>>>         ",
"            >11%%%%%%%%%%%%%%%%>>>++++++++++++++++>>>           ",
"              >>>%%%%%%%%%%%%%%>>>++++++++++++++>>>             ",
"                >>>%%%%%%%%%%%%>>>+++++++++++>>>>               ",
"                  >>>%%%%%%%%%%>>>+++++++++>>>                  ",
"                    >>>>%%%%%%%>>>+++++++>>>                    ",
"                       >>>%%%%%>>>+++++>>>                      ",
"                         >>>%%%>>>+++>>>                        ",
"                           >>>%>>>+>>>                          ",
"                             >>>>>>>                            "
};
