/* XPM */
static char *_1646851423[] = {
/* columns rows colors chars-per-pixel */
"64 64 13 1 ",
"  c None",
". c #252525",
"X c gray20",
"o c gray25",
"O c #833100",
"+ c #E60000",
"@ c #FE0000",
"# c #D84812",
"$ c #E5621D",
"% c #FF9835",
"& c #FFDE00",
"* c #FFFF3A",
"= c gray58",
/* pixels */
"                                                                ",
"                              oooo                              ",
"                            oooooooo                            ",
"                          oooooooooooo                          ",
"                        oooooooooooOO#oo                        ",
"                      ooooooooooooO##ooooo                      ",
"                    ++OOoooooooooO#ooooooooo                    ",
"                  ooo+++OOooooooO#oooooooooooo                  ",
"                ooooooo+#+OoooOO#ooooooooooooooo                ",
"              ooooooooooo+OOOO+ooooooooooooooooooo              ",
"            oooooooooooooo#+%+OOoooooooooooooooOOOOO            ",
"          oooOOoooooooooooO%%%+#OOOooooooooooOO++++++o          ",
"        ooooO++OoooooooooOO+#o#+#+#OOooooOOOO++ooooooooo        ",
"      oooooO+%%+OoooooooO+++oooo+#+++OOOO++++ooooooooooooo      ",
"    +++OOoOO++%++OOooooO+++oooooooo+#+#+%+++oooooooooooooooo    ",
"  ooooo++O++ooo++++OOOOO++Ooooooooooo+++%%+ooooooooooooooooooo  ",
"ooooooooo+oooooO++++++++++Oooooooooooooo#%+ooooooooooooooooooooo",
"XXooooooooooOOO++ooo++++++OooooooooooooO++++ooooooooooooooooooo.",
"XXXXooooooOO++++oooooooooo+OoooooooooOO+++#+OOOOOOOOOoooooooo...",
"XXXXXXooOO+++++oooooooooooo+OooooooOO++++ooo+++++++++Oooooo.....",
"XXXXXXXXO+oooooooooooooooooo+OOOOOO+#+#oooooooooooooo+Ooo.......",
"XXXXXXXX+XoooooooooooooOOOOOO++++++++oooooooooooooooo++.........",
"XXXXXXXX+XXXooooooooooO+++++++%%%++oooooooooooooooooo.+.........",
"XXXXXXXX*XXXXXoooooooO++*+++%%%%%%+oooooooooooooooo...+.........",
"XXXXXXXX$XXXXXXXoooooO++++%%%%%%%++oooooooooooooo....+..........",
"XXXXXXXX*XXXXXXXXXooO+*+*+*%%%%%*+*oooooooooooo......+..........",
"XXXXXXXX$XXXXXXXXXXX+ooo+*+++*+++*+oooooooooo.........+.........",
"XXXXXXXX*XXXXXXXXXX+XXooo+*+*+*+*+*oooooooo..........+..........",
"XXXXXXXX$XXXXXXXXXX*XXXXoooo+*+*+*+OOoooo...........+...........",
"XXXXXXXX*XXXXXXXXXX*XXXXXXoooo**ooo**Oo.............*...........",
"XXXXXXXX*XXXXXXXXXX*XXXXXXXXooooooooo*..............*...........",
"XXXXXXXX*XXXXXXXXXX*XXXXXXXXXXooooo..*..............*...........",
"XXXXXXXX**XXXXXXXXXX*XXXXXXXXXXX=....*..............*...........",
"XXXXXXXX**XXXXXXXXXX*XXXXXXXXXXX=....*..............*...........",
"XXXXXXXX*X*XXXXXXXXX*XXXXXXXXXXX=....*.............*............",
"XXX@XXX*XX*XXXXXXXXX*XXXXXXXXXXX=...*..............*............",
"@@X@@X*XXX*XXXXXXXXX*XXXXXXXXXXX=...*...............*...........",
"@@@@X*XXXX*XXXXXXXX*XXXXXXXXXXXX=...**..............*.......@...",
"@@@@**XXXX*XXXXXXXX**XXXXXXXXXXX=...**..............*......@@.%%",
"%%@*@X*XXXXXXXXXXXX**XXXXXXXXXXX=...**...............**....@.@%%",
"&%*@@XX*XXXXXXXXXXX*X*XXXXXXXXXX=...*.*.............**.*.@@@@@@%",
"%&*%%XX@*XXXXXXXXX*XX*XXXXXXXXXX=...*..*............*@@.*@@%@%%%",
"&%&*&@@@*X@XXXXXXX*XXX*XXXXXXXXX=...*...*...........*@@@@*&%&%&%",
"%&%*%%@X*X@XX@XXX**XXXX*XXXXXXXX=...*....*........@@*@@@%**%%%%&",
"&&&*&@&%*@@X@@@@*X*XXXXX*XXXXXXX=...*....*.......@@@*%@@@%*%&%&%",
"&&%*%&%&*%@@@@@@*X*XXXXX*XXXXXXX=...*....*......@@@@*@%%%&*&%&%&",
"&&&*&&&%*%&%X@@X*@*@@XX*XXXXXXXX=...*....*.....@@%@%%%&%&%*%&&&&",
"&&&&*&%&%*%%%%%*@@@*@@X*XXXXXXXX=...*....**.....%@%%%%%&%&*&%&&&",
"&&&&&&&&&*&%&%&*&@%*@%%*@XXXXXXX=..**....**..@@%&%&%&%&%&&*&&&&&",
"&&&&&&&&&&%&%&%*%%%%*@@@*@@@XXXX=..*....*.*.@@%%%&%&%&%&%&*&&&&&",
" &&&&&&&&&&&&%&*&%&%*%@@*@@XXXXX=..*.@..*.*.@%&%&%&%&%&&&&&&&&& ",
"   &&&&&&&&&%&%*%%%%*%%@*%@XXXXX=..*@@..*.*@%%%&%&%&%&%&&&&&&   ",
"     &&&&&&&&&&*&&&%&*%%%*@%X@@X=..*.@@@*@*%&%&%&&&&&&&&&&&     ",
"        &&&&&&&&%&%&%*%%@*@@@@@@=....@.*@%*%%&%&%&%&&&&&&       ",
"          &&&&&&&&&&&*&%%*@@@@@X=...@@@*&%*%&%&&&&&&&&&         ",
"            &&&&&&&&%*%&%*%%@%%@=..@@@*%%%*&%&%&%&&&&           ",
"              &&&&&&&*&%&*&%&%@@=.@@@*&%&&*&&&&&&&&             ",
"                &&&&&&%&%*%&%%%%=%@@*&%&%&%&&&&&&               ",
"                  &&&&&&&*&%&%&@=@@*&%&&&&&&&&                  ",
"                    &&&&&&%&%&%%=%%*%&%&%&&&                    ",
"                       &&&&&&&&%=%&*&&&&&&                      ",
"                         &&&&&%&=&%&&&&&                        ",
"                           &&&&&=%&&&&                          ",
"                             &&&=&&&                            "
};
