/* XPM */
static char *__h1646852821[] = {
/* columns rows colors chars-per-pixel */
"64 64 43 1 ",
"  c None",
". c #252524",
"X c #252425",
"o c #242525",
"O c #252525",
"+ c #333332",
"@ c #333233",
"# c #323333",
"$ c gray20",
"% c gray25",
"& c #414040",
"* c #404140",
"= c #404041",
"- c #414041",
"; c #823100",
": c #833100",
"> c #E60000",
", c #E70000",
"< c #E60100",
"1 c #E60001",
"2 c #FE0000",
"3 c red",
"4 c #FE0100",
"5 c #FE0001",
"6 c #FE3434",
"7 c #FF3434",
"8 c #FE3534",
"9 c #FF3534",
"0 c #FF3435",
"q c #D84812",
"w c #E5621D",
"e c #FF9834",
"r c #FE9835",
"t c #FF9835",
"y c #FF9935",
"u c #FEDE00",
"i c #FFDE00",
"p c #FFDF00",
"a c #FFDE01",
"s c #FFFE3A",
"d c #FEFF3A",
"f c #FFFF3A",
"g c #FFFF3B",
/* pixels */
"                                                                ",
"                              7777                              ",
"                            777%%777                            ",
"                          777%%%%%%777                          ",
"                        777%%%%%%%%::777                        ",
"                      777%%%%%%%%%:qq%%777                      ",
"                    777:%%%%%%%%%:q%%%%%%777                    ",
"                  777<<<::%%%%%%:q%%%%%%%%%777                  ",
"                777%%%%<q<:%%%::q%%%%%%%%%%%%777                ",
"              777%%%%%%%%<::::<%%%%%%%%%%%%%%%%777              ",
"            777%%%%%%%%%%%q<t<::%%%%%%%%%%%%%%=::777            ",
"          777::%%%%%%%%%==:ttt<q:::%%%%%%%%%=::<<<<777          ",
"        777=:<<:=%%=%%%==::<q%q<q<q::==%%::::<<=%%%%%777        ",
"      777%%:<tt<:=%%%%%=:<<<%%%%<q<<<::::,<<<=%%%%%%%%%777      ",
"    777::=::<<t<<::=%%=:<<<=%%%%%%%<q,q<t<<<=%%%%%%%%%%%%777    ",
"  777%=<<:<<===<<<<:::::<<:%%%%%%%%%=<<<tt<=%%%%%%%%%%%%%%%777  ",
"777%%%%%%<=%%%=:<<<<<<<<<<:%%%%%%%%%%%%%qt<%%%%%%%%%%%%%%%%%%777",
"7@777%%%=%%%:::<<=%%<<<<<<:%%%%%%%%%%%%:<<<<%%%%%%%%%%%%%%%%7777",
"7##$777%%=::<<<<=%%%%%==%%<:%%%%%%%%%::<<<q<:::::::::%%%%%777OX7",
"7@$$##777:<<<<<=%%%=%%%%%%%<:%%%%%%::<<<<%%%<<<<<<<<<:%%777XOXX7",
"9$$$$$$$997%%%%%%%%%%%%%%%%%<::::::<q<q%%%%%%%%%=%%%%<777OOOOOO7",
"9$$$$$$$<#777%%%%%%%%%%::::::<<<<<<<<%%%%%%%%%%%%=%%777XOOOOOOO7",
"7@$$$$$$<@#+779%%%%%%%:<<<<<<<ttt<<%%%%%%%%%%%%%%%797X<XOOOOOOO7",
"9@$$$$#@s$#@@@997%%%%:<<f<<<tttttt<%%%%%%%%%%%%%777XXX<XOXOOOOO7",
"9@#$$$$$w#$$$$$$777%%:<<<<ttttttt<<%%%%%%%%%%%977OOOX<OOOOOOOOO7",
"7@$$$$$$s@$$#$$$@@777<f<f<ftttttf<f%%%%%%%%%777OOOOOX<OOOOOOOOO7",
"9$$$$$$$w$$$$$$$$$#$777%<f<<<f<<<f<%%%%%%%777OXOOOOOOO<XOOOOOOX7",
"7$$$$$$$s$$$$#$$$$$<$#777<f<f<f<f<f%%%%%777OOOOOOOOOX<OOOOOOOOO7",
"7@$$$$$$w#$#$$$$$$#f@#$$777%<f<f<f<::%777OOXOOOOOOOO<XXXOOOOOOO7",
"9@$$$$$$s$$$$$$$$$@f$$#$@@777%ff%%%f777oOOOOOOOOOOOOfXXXOOOOOOO7",
"9@#$$$$$s#$$$$$$$$$f$$$$@@$$777%%%777fXXOOOOOOOOOOOOfXOOOOOOOOO9",
"7@$$$$$$s#$$$$$$$$$f$$$$$$$$@$77777XXfXXOOOXOOOOOOOOfOOOOOOOOOO7",
"7$$$$$$$ff$$$$$$$$$$f$$$$$$$$$$777XOOfXXOOOoOXOOOOOOfXXXOOOOOOO9",
"7$$$$$$$ff$#$$$$$$$$f$$$$$$$$$$777XXOfXXOOOOOOOOOOOOfOXXoOOOOOX9",
"7@$$$$#$f@f@$$$$$$$$f@$$@$$$$$$777oXXfXOOOOOOOOOXXOfOOOOOOOOOOX9",
"7@$4$$@f$#f$$$$$$$#@f#$$$$$$$$$777XXfOOOOOOOOOoOOXXfOOOOOOOOOXX9",
"74@44@f$$$f@$$$$$@##f@#$$$$$$$$777XOfXXXOOOOOOOOOOXOfXOOOOOOOOO7",
"7444@f@#$$f#$$$$$$@f$#$$$$$$$$$777OXffXXOOOOOOOOOOOOfXXXOOoX4Xo7",
"7444ff$$$$f@$$$$$$#ff@###$$$$$$779XXffOOOOOOOOOOOXOOfoXXOOX44ot7",
"7t4f4@f$$$$#$$$$$#@ff$$##$$$$$$777XXffOOOOOOOOOOOOOOXffXOOX4X4t7",
"7tf44@@f@#$$$$$$$$@f@f@#$$$$$$@777oOfofXXXXOOOOOOXXXffXfO4444447",
"7uftt@@4f#$$$$$$$$f$#f$$$$$$$$$777OOfXXfXXOOOOOOOXXXf44Xf44t4tt7",
"7tufu444f@4@$$$$$@f#$$f@$$$$$$$779OOfXOOfXoOOOOOOOXXf4444fututu7",
"7utftt4@f$4@#4$$$ff@$#@f$$$$$$$777OOfOOOXfoOOOOOXo44f444tfftttt7",
"7uufu4utf44@4444f#f@$$$$f@$$$$$777OOfXOOXfOOOOOOO444ft444tftutu7",
"7utftutuft444444f@f@$$#$f$$$$$$777OOfXOOXfXXOOOX4444f4tttufutut7",
"7uufuuutftut@44@f4f44@$f$$$$$$$777oOfXXOXfXXOOO44t4tttututftuuu7",
"7uuufututftttttf444f44@f$$$$$$$777OOfXXXXffXOOOOt4tttttutufutuu7",
"7uuuuuuuufututufu4tg4ttf4@@@$$$777XffOOXXffXX44tututututuufuuuu7",
"77uuuuuuuutututfttttf444f444@$$777XfXOOXfXfX44tttututututufuuu77",
" 777uuuuuuuuutufututft44f44@$$@777XfX4XXfXfX4tututututuuuuuu777 ",
"   777uuuuuututgttttftt4ft4@$$@777Xf44XXfXg4tttututututuuu777   ",
"     7777uuuuuufuuutuftttf4t@44777XgX444f4ftututuuuuuuuu777     ",
"        777uuuuutututgtt4f44444777XXX4Xf4tfttutututuuu777       ",
"          777uuuuuuuufuttf44444777XO444futftutuuuuuu777         ",
"            777uuuuutftutftt4tt777X444ftttfutututu777           ",
"              777uuuufutugutut4777444futuufuuuuu777             ",
"                777uuututgtuttt77744futututuu7777               ",
"                  777uuuufututu7774gutuuuuu777                  ",
"                    7777uututut777tgtutut777                    ",
"                       777uuuuu777ufuuu777                      ",
"                         777uut777tuu777                        ",
"                           777u777u777                          ",
"                             7777777                            "
};
