/* XPM */
static char *__h1646852821[] = {
/* columns rows colors chars-per-pixel */
"64 64 27 1 ",
"  c None",
". c #FE3434",
"X c #FF3434",
"o c #FF3534",
"O c #FF3435",
"+ c #FE3535",
"@ c #BA5C06",
"# c #BA5D06",
"$ c #BA5C07",
"% c #BB5C07",
"& c #BA5D07",
"* c #DD8434",
"= c #DD8534",
"- c #DD8435",
"; c #DC8535",
": c #DD8535",
"> c #FEAD62",
", c #FFAD62",
"< c #FEAC63",
"1 c #FFAC63",
"2 c #FEAD63",
"3 c #FFAD63",
"4 c #FFCFA4",
"5 c #FECEA5",
"6 c #FFCEA5",
"7 c #FECFA5",
"8 c #FFCFA5",
/* pixels */
"                                                                ",
"                              XXXX                              ",
"                            XXX33XXX                            ",
"                          XXX333333XoX                          ",
"                        XXX3333333333XXo                        ",
"                      XXX<3333333333333XXX                      ",
"                    XXX3<<<33333333333333XXo                    ",
"                  XXX8887<33333333333337773XXX                  ",
"                XXX888:8838<33333333377777777...                ",
"              XXO*8888884:8883333337377:7:77777.XX              ",
"            XXX8888888883888888337777737:77737737XXX            ",
"          XXX88::888<88888888888777777:77:377777777XXX          ",
"        XXX338888888:888888388;337377777777:737373733XXo        ",
"      XXX33333388838888:388883333<373777777377773333<33XXX      ",
"    XXX33333333338888888:8:333333<33377737777773333333333XXX    ",
"  XXX333333333333338883883333333333333377777733333333333333XXX  ",
"XX.333333333333333333:73333333333333333337:333333333333333333XXX",
"X:...3333333333333377777833333333333333777777333333333333337XXXX",
"X:::...333<<3333337777778:8333333333377377777773333<333337XXX$$X",
"X:::::..X3<<333377377737838883333337777774377:7773333337XXX$$$$X",
"O:@:::::XXX<<8:87337777788;888833774377377777373377<37XXX$$$$$$X",
"O:::::::::XXX:887777777:88888:33777777737:7477777777XXX$$$$$$$:X",
"X::::::::$::XXO877377773888888833777777777:7777777XXX$$$$$$:$$$X",
"X::@::::::::::OO.73777:788888333333777:777737777XXX#$$$$$$&$&$&X",
"X:::::::::::::;:...774:73773333333333777777777XXX$$#$:$$$:#$$$$X",
"X*@:::$::::::*::::...877733333333333333377<7XXX$$$$$$$$$$$$$$$$X",
"O::::::::::::::$::::...33333333333333333<7XXX$$$$$$$#$$$$$$$$$$X",
"O$::::::$:::::::::::::...333333333333337XXX$$$$$$$$:$$$$$$$$:$$X",
"X:::::**:*$::$::::=#::::.XX33333333337..X$$$$:$$$$$$$$$$$$$$$$$X",
"X:*:::@::::;::::::::::::::XXX3333338...7$$$$$$$$:$$#$$$:$$$$$$$X",
"X:::::::::::::::::::::::::::XXX338OXO$##$$$$$$$$$$$$$$$$$$$$$$$X",
"X:::@:::::::::::#:::::::::::::XXXXO$@$$#$:$$$$$$$$#$$$$$$$:$$$$X",
"O:$::::$:::::::::$:::::$:::::::XXX$$@$$$$%$$:$$$$$#$$$$$$$$%$$$O",
"O::::::::$::*::::::::::::::::::XXX$$$:$$$$$$$$$$$$$:$$$$$$$$$$@O",
"O:::::::::::$*:::::::$:::::::::XXX@$$$$$:$$$$$$$$%$$$$$$$$$$:$:O",
"O:::::::$:::::*::$:::::;:::@:*:XXO@$$$$$%$$$$:$$:$$$$$$:$$$$$@@X",
"O::::*-:::::::::::::::::::;::::XXO:$$$$$$$$$$$$#$$$$$$$$$$$$$$$O",
"O:@::::::::::::::::*$::@:::::::XXO$$$$$$$$$$$$$$$$$:$$$$$$$$$$#O",
"X::::$:::$::$::::::*:::::::::::XXX$$$$$$$$$:$$$$$$$$$$$$$$$$:$$O",
"X::::::::::::::$:::::*:::::::=:XXX$$$$$$$$$$$$$$$$$$$$$:$$$$$@@O",
"X::::::::::::::::::;$::::::$*::OXX@@$$$$$$$$$$$$$$$$$$$$$$$$$$$O",
"X::@::#::::::::::::::::$:::::::OXX$$$@$$$:$$$$%:$$$$$$$#$$$$$$@O",
"X::::::::::$:::::::::::::::*:$:OXO$:$$$$$$$$$$$$$$$$$$$$@$$:$$@O",
"X:::$:::$:::::::::$*::*::::::::O.O$$$$$$$$$$$$$$$$$$$$:$$$$$$@#O",
"O:::::::::::$:::::::::;:@::::::X..$$$$$$$$$$$$$$$$$$$$$$$$$$$$$O",
"O:::*::::$::::;$:::::::::::::::X..$$$$:$$$$$$$$$$:$$$$$$$$$$$$@O",
".::::::::;:::::::::::::::::::::O..#$$$$$$$$$$$$$$$$$$$$$$$$$$@:O",
".:$:::::;::::$:::::::$:::::@::#...@$$$$$$$$:$$$$$#$$$$$:$%$$$@@X",
".:::::$:::::::::::;:::::#::::::.XX$$$$$$$$$$$$$$$:$$$$$$$$$:$@$O",
"..::$::::::$:::::$:::$:::::::::.XX$:$$$$:$$$$$#$$$$$$$$$$$$@$$OO",
" X..**:::::::::::::::::::::::::.XX$$$$$$$$:$$$$:$$$$$$$$$$$@XXX ",
"   .OO:#::::::::$::::::::::::::.XX$$$$$$$$#$$$$$$$$$$$:$$$OOX   ",
"     XXXX;::::*:::::::::::#::::OXX$$$:$$$$$$$$$$$$$$$$#@XXX     ",
"        XOO#::::::$:::::::::::@OXX$$$$$$$$$$$$$$#$@@$$XXX       ",
"          XXO@:::::::$:$:::::::OXX$$$$$$$$$$$$$$$$$:OXX         ",
"            XOO::::::::::::;:::OXX$$$$$$$$$$$:$$$$OOO           ",
"              XXX::$::::$:::::$XXX$$$$$$$$$$#$$$XXX             ",
"                XXX::::::::::::XXX$$$$:$$$:$$XXXX               ",
"                  XXX::::::::$:XXX$$:$$$$$#XXX                  ",
"                    XXXX:::::::+XX$$$:$$$XXX                    ",
"                       XXX:::::XXX$$$$$XXX                      ",
"                         XXX:::XXX$$$XXX                        ",
"                           XXX:XXX$XXX                          ",
"                             X+XXXXX                            "
};
