/* XPM */
static char *_1646851423[] = {
/* columns rows colors chars-per-pixel */
"64 64 5 1 ",
"  c None",
". c #BA5C07",
"X c #DD8535",
"o c #FFAD63",
"O c #FFCFA5",
/* pixels */
"                                                                ",
"                              OOOO                              ",
"                            OOOOOOOO                            ",
"                          OOOOOOOXOOOO                          ",
"                        OOOOOOOOOOoOOOOO                        ",
"                      OOOOOOoOOXOOOoOOOoOO                      ",
"                    OOOOOOOoooOOOXOOOoOOOOOO                    ",
"                  OOOOOOOOOOOOOOXOOOOOOOOOoOOO                  ",
"                OOOOOOXOOoOOOOOOOOOOOOOOOOOOOOOO                ",
"              OOOXOOOOOOOXOOOOOXOOOOoOOXOXOOOOOOOO              ",
"            OOOOOOOOOOOOoOOOOOOOOOOOOOoOXOOOoOOoOOOO            ",
"          OOOOOXXOOOoOOOOOOOOOOOOOOOOOXOOXoOOOOOOOOOOO          ",
"        OOOOOOOOOOOOXOOOOOOoOOXOXOoOOOOOOOOXOoOoOoOOOOOO        ",
"      OOOOOOOOOOOOoOOOOXoOOOOOOoOXOOoOOOOOOoOOOOoOOOOOOOOO      ",
"    OOOOOOOOXOOoOOOOOOOOXOXOOOOOOOOOOOOOoOOOOOOOOOOOoOOOOOOO    ",
"  OOOOOoOOOoOOoOOOoOOOoOOOXOOOOOOOOoOOXOOOOOOOOOOOOOOOOOOoOOOO  ",
"OOOOOOOOOOOOOOOOOXOXOXOXOOOOOoOOOXOoOOOOOOXXoOOOOoOOoXXOOoOOOOOO",
"XXOOOOOOoOOOOOOoOOOOOOOOOOOOOOOOOOOOOOOOOOOOOOOXOOOOOOOOOOOOOOO.",
"XXXXOOXOOOOOOOoOOoOOOOOOOXOOOoOOOOOOXOOoOOOOOOOOOOOOOOoOOOOOO...",
"XXXXXXOOOOOOOOOoOOoOOOoOOoOOOOOoOoOOOOOOOOoOOXOOOOOoXoOOOOO.....",
"XX.XXXXXOOOOOOXOOooOOOOOOOXOOOOOoOOOoOOoOOOOOoOooOOXOOoOO.......",
"XXXXXXXXXXOOOXOOOOOOOOOXOOOOOXooOOOOOOOoOXOOOOOOOOOOOOO.......X.",
"XXXXXXXXX.XXOOOOOOoOOOOoOOOOOOOOOOOOOOOOOOXOOOOOOOOOO......X....",
"XXX.XXXXXXXXXXOOOOoOOOXOOOOOOOOXOOXOOOXOOOOoOOOOOOO............X",
"XXXXXXXXXXXXXXXXOOOOOOXOoOOOOoOOOXOOOOOOOOOOOOOOO....X...X......",
"XX.XXX.XXXXXXXXXXXOOOOOOOoOOOOOOXOOXOOOoOOoOOOO.................",
"XXXXXXXXXXXXXXX.XXXXOOOOOOOOOOOOOOOOXOOOOOOOO...................",
"X.XXXXXX.XXXXXXXXXXXXXOOoOOOOOOOOOOOOOOOOOO........X........X...",
"XXXXXXXXXX.XX.XXXXX.XXXXOOOOOXOOOOOoOOOOO....X..................",
"XXXXXX.XXXXXXXXXXXXXXXXXXXOOOOXOOOXOOOOO........X......X........",
"XXXXXXXXXXXXXXXXXXXXXXXXXXXXOOOOOOOOO...........................",
"XXXX.XXXXXXXXXXX.XXXXXXXXXXXXXOOOOO......X................X.....",
"XX.XXXX.XXXXXXXXX.XXXXX.XXXXXXXXo...........X...................",
"XXXXXXXXX.XXXXXXXXXXXXXXXXXXXXXXo....X.............X............",
"XXXXXXXXXXXX.XXXXXXXX.XXXXXXXXXXo.......X...................X.X.",
"XXXXXXXX.XXXXXXXX.XXXXXXXXX.XXXXo............X..X......X........",
"XXXXXXXXXXXXXXXXXXXXXXXXXXXXXXXXo.X.............................",
"XX.XXXXXXXXXXXXXXXXX.XX.XXXXXXXXo..................X............",
"XXXXX.XXX.XX.XXXXXXXXXXXXXXXXXXXo..........X................X...",
"XXXXXXXXXXXXXXX.XXXXXXXXXXXXXXXXo......................X.......X",
"XXXXXXXXXXXXXXXXXXXX.XXXXXX.XXXXo...............................",
".XX.XX.XXXXXXXXXXXXXXXX.XXXXXXXXo........X.....X................",
"XXXXXXXXXXX.XXXXXXXXXXXXXXXXX.XXo..X.......................X....",
"XXXX.XXX.XXXXXXXXX.XXXXXXXXXXXXXo.....................X.........",
"XXXXXXXXXXXX.XXXXXXXXXXX.XXXXXXXo...............................",
"XXXXXXXXX.XXXXX.XXXXXXXXXXXXXXXXo.....X..........X..............",
"XXXXXXXXXXXXXXXXXXXXXXXXXXXXXXXXo.............................X.",
"XX.XXXXXXXXXX.XXXXXXX.XXXXX.XX.Xo..........X...........X........",
"XXXXXX.XXXXXXXXXXXXXXXXX.XXXXXXXo................X.........X....",
"XXXX.XXXXXX.XXXXX.XXX.XXXXXXXXXXo..X....X.......................",
" XXXXXXXXXXXXXXXXXXXXXXXXXXXXXXXo.........X....X............... ",
"   XXXX.XXXXXXXX.XXXXXXXXXXXXXXXo.....................X......   ",
"     XXXXXXXXXXXXXXXXXXXXX.XXXXXo....X.....................     ",
"        XXX.XXXXXX.XXXXXXXXXXX.Xo........................       ",
"          XXX.XXXXXXX.X.XXXXXXXXo..................X...         ",
"            XXXXXXXXXXXXXXXXXXX.o............X.......           ",
"              XXXXX.XXXX.XXXXX.Xo..................             ",
"                XX.XXXXXXXXXXXXXo.....X...X......               ",
"                  X.XXXXXXXXX.XXo...X.........                  ",
"                    XX.XXXXXXXXXo....X......                    ",
"                       XXXXXXXXXo.........                      ",
"                         XX.XXXXo.......                        ",
"                           XXXXXo.....                          ",
"                             XXXo...                            "
};
