/* XPM */
static char *__h1646852822[] = {
/* columns rows colors chars-per-pixel */
"64 64 21 1 ",
"  c None",
". c #FE3434",
"X c #FF3434",
"o c #FF3534",
"O c #FF3435",
"+ c #FF3535",
"@ c #BA5C06",
"# c #BA5C07",
"$ c #BB5C07",
"% c #BA5D07",
"& c #BB5D07",
"* c #DD8534",
"= c #DD8435",
"- c #DC8535",
"; c #DD8535",
": c #FFAD62",
"> c #FFAD63",
", c #FFCFA4",
"< c #FFCEA5",
"1 c #FECFA5",
"2 c #FFCFA5",
/* pixels */
"                                                                ",
"                              XXXX                              ",
"                            XXX22XXX                            ",
"                          XXX2222;2XXX                          ",
"                        XXX2222222>22XXX                        ",
"                      X.X222>22;222>222XXX                      ",
"                    XXO2222>>>222;222>222XXX                    ",
"                  XXX22222222222;222222222:XXX                  ",
"                O..222;22:2222222222222222222OO.                ",
"              XXO;2222222;22222=2222>22-2-22222OXX              ",
"            XXX222222222:2222222222222>2;222>22>2XXX            ",
"          XXX22;;222:22222222222222222;22;>22222222XXX          ",
"        XXX222222222;222222>22=2;2>22222222;2>2>2>222XXX        ",
"      XXX222222222>2222;>222222>2;22>222222>2222>222222XXX      ",
"    XXX22222;22:22222222;2;2222222222222>22222222222>2222XXX    ",
"  XXX22>222>22:222:222:222;22222222>22;222222222222222222>2XXX  ",
"XX.2,222222222222;2;2;2;22222>222;2>222222;;>2222:22>-;22>222..O",
"X;OO.222:222222>2222222222222222222222222222222;222222222222....",
"X;;;...2222222:22>2222222;222>222222;22:22222222222222:222...$$.",
"X;;;;;...222222>22>222:22>22222>2>22222222>22;22222>-:22OO.$$$$.",
".;$;;;;;...222;,2:>2222222;22222>222>22>22222:2>>22;22O.O###$$@O",
".;;;;;;;;;...;222222222;22222;::2222222>2-2222222222.OO@$###$$-.",
".=;;;;;;;$;;...222>2222>222222222222222222;2222222XXO%$$@##-@@$.",
".;;$;;;;;;;;;;..O2>222;22222222;22;222-2222>2222XXX%$$$$#####$$.",
".;;;;;;;;;;;;;;;O..222;2:2222:222;222222222222XXX####;###-#####O",
".;$;;;$-;;;;;*;;;;...2222:222222;22;222>22:2XXX###############$O",
".;;=;;;;;;;;;;-$;;;;...2222222222222;22222XXX################@@O",
".$;*;;;;$;;;;;*;;;;;;;.OO222222222222222XXX########;########-@$.",
".;;;;;;;-;$-;$;;;;;$;;;;OO.,2=22222:22O.X####;##########@$#####O",
".;;;;;$;;;;;;-;;;;;;;;;;=-...2;222-2OX.2########;######-#%####%O",
".;;;;;;;;;;;;;;;;;;;;;;;=;;;...222...$$$####################$%$.",
"X;;;$;;;;;;;;;;;$;;;;;;*;;;;;;X..OO@$$$$#;################-@@$$.",
".;$;;;-$-*;;;;;;-$*;;;-$;;;;;;;...$$@#######;##################X",
"X;-;;;;;;$;;;;;;;;;;;;;;;;;=;;;...$$@-#############;###########X",
"X;;;;;;;;*;;$-;;;;;;;$;;;;;;;;;...$$####;###################;#;X",
"X;;;;;;;$;;;;;;;-$;;;-;;;;;$;;=..O$%#########;##;######;#######X",
"X-;;;*;;-;;;;;;;;;;;;;;-;;;;=;;.XX-############################X",
"X;%;;-*;;;;;;;;;;=;;$;;$;;;;;;;.XX#################;###########X",
".;;;;$;;-$;;$---;;;;;;;;=;=;;;;.XX#########-################;##X",
".;;;;;;;;;;;;;;$;;;;;;;;;;;;;;;.XX#####################;#######X",
".;;;;;;;;;;;;=;;;;;;$;;;;;;$;;;OXX#############################X",
".;;$;;$;;;;;;;;;;;;;-;-$;;;;;;;.XX#######;%%###-###############X",
".;;;;;;*-;-$;;;;;=;;;;;;;;*;*$-.XX#;####@$%%############%##;###X",
".;;;$;;;$;;;;;;;;;$-;;-;;-*;;;;.XX#######$$%##########-########+",
".;=;;;;;;;;;$;=-;*;;;;;;$;;;;;;.XX########@##@##########@$$$###X",
".;;;-;;;-$;;-;;$;;;-;;;;;*;-;;;OXX####-###$%#####;######@$$$###X",
".;;;;-;;;;;;;;;;;;;;;-;;;;;;;;;.XX########################%%%%;X",
".;%;;;;;;;;--$;;;;;;;$;;;;;$;;%XXX#########-###########-##%%%##X",
".;;;;;#;;;;;;;;;;;;;;;;;$;;;;;;XXX###############;#########-###X",
"..;;#;;;;;;#;;;;;%;;=%;;;;;;;;;XXX#-####-#####################XX",
" X..;;;;;;;;;;;;;;;;;;;;;;;=;;;XXX########-####-####@@$$####XXX ",
"   .XX;#;;;;;;;;%;;;;;;;;;;;;;;XXX##################$$-$##XXX   ",
"     XXXX;;;;;;;;;;;;;;;;;$-;;;.XX###-####$$$$@###$$$@%$XXX     ",
"        XXX#;;;;;;%;;;;;;;;;;;$.XX########$$%$@###$$#@XXX       ",
"          XXX#;;;;;;;%;#;;;;;=;.XX########@#$$%%##$;OXX         ",
"            XXX;;;;;;;;;;;;;;;;OXX##########$;%###O.O           ",
"              XXX;;#;;;;#;;;;;#XXX##############XXX             ",
"                XXX;;;;;;;;;;;;XXX####-###;##XXXX               ",
"                  XXX;;;;;;;;#;XXX##;######XXX                  ",
"                    XXX+;;;;;;;XXX###;###XXX                    ",
"                       XXX;;;;;XXX#####XXX                      ",
"                         XXX;;;XXX###XXX                        ",
"                           XXX;XXX#XXX                          ",
"                             XXXXXXX                            "
};
