/* XPM */
static char *_01646851423[] = {
/* columns rows colors chars-per-pixel */
"64 64 7 1 ",
"  c None",
". c gray20",
"X c gray32",
"o c #7C7C7C",
"O c gray58",
"+ c #A5A5A5",
"@ c gray80",
/* pixels */
"                                                                ",
"                              @@@@                              ",
"                            @@++++@@                            ",
"                          @@++++++++@@                          ",
"                        @@++++++++++++@@                        ",
"                      @@++++++++++++OOOo@@                      ",
"                    @@++++++++++++OOOooXX@@@                    ",
"                  @@+++++++++++++OOooXX@@OO+@@                  ",
"                @@+XX++++++++O+OOooXX@@OO+++++@@                ",
"              @@+++++XX+++O+++OooXX@@OO++++++++O@@              ",
"            @@+++++++++XXOOOOooXX@@OO++++++++++OOO@@            ",
"          @@+++++++++++++XXooXX@@OO++++++++++++OOOOo@@          ",
"        @@+++++++++++++OOooXX@@OO+++++++++++++OOOooXX@@@        ",
"      @@+++++++++++++OOooXX@@OO++++++++++++++OOooXX@@OO+@@      ",
"    @@++++++++++++OOOooXX@@OO++++++++++++++OOooXX@@OO+++++@@    ",
"  @@++++++++++++OOOooXX@@XX+++++++++++++OOOooXX@@OO+++++++OO@@  ",
"@@+++++++++OO++OOooXX@@OO++XX+++++++OOOOOooXX@@OO+++++++++OOOo@@",
"oo@@++++++++OOOooXX@@OO++++++XX+++++OOOooXX@@OO+++++++++OOOoo@@X",
"oooo@@+++++OOOoXX@@OO++++++++++XX+OOOooXX@@OO++++++++++OOoo@@XXX",
"oooooo@@+OOooXX@@OO++++++++++++++XXooXX@@OO+++++OO+++OOOo@@XXXXX",
"oooooooo@@oXX@@OO++++++++++++++++++XX@@OO++++++++++OOoo@@XXXXXXX",
"oooooooooo@@@OO++++++++++++++++++++++XX+++++++++OO+oo@@XXXXXXXXX",
"ooooooooooXO@@+++++++++++++++++++++++++XX+++++OO+oo@@XXXXXXXXXXX",
"ooooooooooXooo@@+++++++++++++++++++++++++XX+OOOoo@@XXXXXXXXXXXXX",
"ooooooooooXoOooo@@++++++++++++++++++++++++OXXoo@@XXXXXXXXXXXXXXX",
"ooooooooooXOOOoooo@@+++++++++++++++++++++OOoo@@XXXXXXXXXXXXXXXXX",
"ooooooooooXOoooooooo@@+++++++++++++++O+OOoo@@.oXXXXXXXXXXXXXXXXX",
"ooooooooooXoOOoooooooo@@+++++++++++++OOoo@@XX.XoXXXXXXXXXXXXXXXX",
"XXooooooooXOoooOoooooooo@@+++++++++OOoo@@XXXX.oXXXXXXXXXXXXXXXX.",
"ooXXooooooXOOooooooooooooo@@++++OOOoo@@XXXXXX.XoXXXXXXXXXXXXX..X",
"ooooXXooooXOOoOooooooooooooo@@+OOoo@@XXXXXXXX.oXXXXXXXXXXXX..XXX",
"ooooooXXooXOoooooooooooooooooo@@@@@XXXXXXXXXX.XXoXXXXXXXX..XXXXX",
"ooooooooXXXOooOoooooooooooooooooOXXXXXXXXXXXX.oXXXXXXXX..XXXXXXX",
"ooooooooooXXooooooooooooooooooooOXXXXXXXXXXXX.oXXXXXX..oXXXXXXXX",
"ooooooooooooXXooooooooooooooooooOXXXXXXXXXXXX.XXXXX..X.oXXXXXXXX",
"ooooooooooooooXXoooooooooooooooooXXXXXXXXXXXX.ooX..XXX.oXXXXXXXX",
"ooooooooooooooooXXoooooooooooooooXXXXXXXXXXXX.o..XXXXX.oXXXXXXXX",
"ooooooooooooooooooXXooooooooooooOXXXXXXXXXXXX..XXXXXXX.XXXXXXXXX",
"oooooooooooooooooXOoXXooooooooooOXXXXXXXXXX..XXXXXXXXX.XXXXXXXXX",
"XXoooooooooooooooXooooXXooooooooXXXXXXXXX..XXXXXXXXXXX.oXXXXXXXX",
"ooXXoooooooooooooXOOoOooXXoooooooXXXXXX..XXXXXXXXXXXXX.XXXXXXXX.",
"ooooXXoooooooooooXOoOoooooXXooooOXXXX..XXXXXXXXXXXXXXX.oXXXXX..X",
"ooooooXXoooooooooXooooooooooXXoooXX..XXXXXXXXXXXXXXXXX.oXXX..XXX",
"ooooooooXXoooooooXOOOOooooooooXXo..XXXXXXXXXXXXXXXXXXX.oX..XoXXX",
"ooooooooooXXoooooXooooooooooooooOXXXXXXXXXXXXXXXXXXXXX...XX.oXXX",
"ooooooooooooXXoooXOoOoooooooooooXXXXXXXXXXXXXXXXXXXXX..XXXX.oXXX",
"oooooooooooXOoXXoXOOooooooooooooOXXXXXXXXXXXXXXXXXX..XXXXXX.XoXX",
"oooooooooooXOOooXXOooOooooooooooOXXXXXXXXXXXXXXXX..XXXXXXXX.oXXX",
"oooooooooooXOOooooXXooooooooooooXXXXXXXXXXXXXXX..XXXXXXXXXX.ooXX",
"XXoooooooooXooooooooXXoooooooooooXXXXXXXXXXXX..XXXXXXXXXXXX.oX..",
" oXXoooooooXOoOoooooooXXooooooooOXXXXXXXXXX..XXXXXXXXXXXXXX...X ",
"   oXXoooooXOoooooooooooXXooooooXXXXXXXXX..XoXXXXXXXXXXXXX..o   ",
"     oXXoooXOOoOooooooooooXXooooOXXXXXX..XX.ooXoXXXXXXXX..X     ",
"        XXoXoooooooooooooXOoXXooOXXXX..XXXX.oXXXXXXXXX..X       ",
"          XXOoOooooooooooXOoooXXoXX..XXXXXX.oXoXXXXX..X         ",
"            XXOooooooooooXOoOoooo..XXXXXXXX.ooXXXX..X           ",
"              XXoooooooooXOoooooOXXXXXXXXXX.oXXX..X             ",
"                XXoooooooXOOooOoOXXXXXXXXXX.oo..X               ",
"                  XXoooooXOooOooXXXXXXXXXXX...                  ",
"                    XXXooXOoooooOXXXXXXXXX..                    ",
"                       XXXOOooooXXXXXXXX..                      ",
"                         XXooOooOXXXXX..                        ",
"                           XXooooXXX..                          ",
"                             XXX....                            "
};
