/* XPM */
static char *_0_h1646852822[] = {
/* columns rows colors chars-per-pixel */
"64 64 31 1 ",
"  c None",
". c #333332",
"X c #333233",
"o c gray20",
"O c gray32",
"+ c #535252",
"@ c #525352",
"# c #535352",
"$ c #525253",
"% c #525353",
"& c #7C7C7C",
"* c #7D7C7C",
"= c #7C7D7C",
"- c #7C7C7D",
"; c #FE3434",
": c #FF3434",
"> c #FF3534",
", c #FF3435",
"< c #FE3535",
"1 c #FF3535",
"2 c gray58",
"3 c #959494",
"4 c #949594",
"5 c #949495",
"6 c #A5A5A4",
"7 c #A5A4A5",
"8 c #A4A5A5",
"9 c #A5A5A5",
"0 c gray80",
"q c #CDCCCC",
"w c #CDCDCC",
/* pixels */
"                                                                ",
"                              ::::                              ",
"                            :::99:::                            ",
"                          :::899999:::                          ",
"                        :::9999999969>>>                        ",
"                      :;:99999899996522;>>                      ",
"                    ::;99999999899222**$$:::                    ",
"                  :::99999999999922&&$$0025:::                  ",
"                ;;;$$669999662622&&$$00229999;;;                ",
"              ::>9996$$69926662&&$$002269999999;::              ",
"            :::99999699$$2222&&$$0022999999999625>>;            ",
"          :::999999999996$$&&$$00226999999999662225:::          ",
"        :::99999999966622&&$$00226999999679799222&&$$>;>        ",
"      :::99999999999922&&$O00226969999999999922&*$$0022;::      ",
"    :::99999999969222&&OO00229999999999999952&&$$00259999:>;    ",
"  :::99999999999222&&$O00O$6999999999999222*&$$002269999995:::  ",
":::99999999229622&&$O002599$$969996622222**$$0022999999996222;;>",
":&:::9999999222*&$$0022699996$$69996222&&$$0022966999999222*;;;;",
":&&&:::9666222*$$00229669999999$$9222&&$O0022699999969622*;>;O$;",
":&&&&&::;22**$$002269996979999896$O&&$$00229999922996222;;;$OO$;",
":&&&&&&&>;;O$0022999999999999999999$$0022699999999922&;>;OOOO$O>",
":&&&&&&&&&;;>226999999999999999999666$$666999699229&;>>OOOOOO$O;",
":&&&&&&&*&$2;;>699999999999999999999996$$66966229&:>:$$OOOOOOOO;",
":&&&&&&&&&$&**>>;999999999999999699999666$$9222*>::$$$$$OOOOOOO;",
":&&&&&&&&&O&2&&&;::999999999999989969799662$$*;;>OOOOOOOOOOOOOO;",
":&&&&&&&&&O222&&*&:::9999999999999999999622*;;;OOOOOOOOOOOOO$OO;",
":&&&&&&&&&O2&&&&&&&&:::999999999999992922*;>;.*$OOOOOOOOOOOO+OO>",
":&&&&&&&&&O&22&&&&&&&&:::99999999999922&;;;O$.$*OOOOOOOOOOOOOOO;",
":$&&&&&&&&O2&&&2&&&&&&&&:::9999966622*;;;OOO$.&OOOOOOOOOOOOO$$O;",
":&$$&&&&&&O22&&&&&&&&&&&&&:::999222*>;;$OOO$$.O&OOOOOOOOOOO$O..;",
":&&&$$&&&&O22&2&&&&&&&&&&&&&:::52*;;;O$$OOOOO.*OOOOOOOOOOO$..O$;",
":&&&&&$O&&O2&&&&&&&&&&&&&&&&&&::;>;$OOOOOOO$$.OO*OOOOOO$$..O$OO;",
">&&&&&&&OOO2&&2&&&&&&&&&&&&&&&*;;;OOOOOOOOOOO.&+OOOO$OO..$OOO#O>",
">&&&&&&&&&OO&&&&&&&&&&&&&&&&&**;;;O$O+OOOOOO$.&OOOOO$..&$$OOOO$>",
">*&&&&&&&&&&$O&&&&&&&&&&&&&&&&*;;;+$OOOOO#OO$.$$$$O..$.&OOOOOOO;",
";*&&&&&&&&&&&&OO&&&&&&&&&&&&&&*;;:$$OOOOOO$OO.&&O..$$$.&OOOOOOO;",
";**&&&&&&&&&&&&&OO&&&&&&&&&&&&&;;;OOOOOOOOOO$.&..$OOOO.&OOOOOOO>",
";*&&&&&&&&&&&&&&&&OO&&&&&&&&&&&;;>OOOOOOOOOO$..OOOOOOO.$OOOOOOO;",
";&&&&&&&&&&&&&&&&O2&$$&&&&&&&&*;;;+OOOOO$O$..$OOOOO$OO.$OOOO$OO;",
";$&&&&&&&&&&&&&&&O&&&&$$&&&&&**;;;OOOO$O$..$$#OOO+OOOO.&OO+OOOO;",
";*$O&&&&&&&&&&&&&O22&2&&$$&&&&*;;;OOOOO..$OOOOOOOOOO$$.$OOOOO$O>",
";*&&OO&&&&&&&&&&&O2&2&&&&&$O&&*;;;OO$..$$$OOOOOOOOOO$$.&OO$#O..>",
";**&*&OO&&&&&&&&&O&&&&&&*&&&OO&;;;O..$OOOOOOOOO$OOOOOO.&O$O..O$;",
";*&&*&&&OO&&&&&&&O2222&&&&&&&&O;;;.$OOOOOOOOOOOOOOO$OO.&$..$*OO;",
";&&&&&&&&&OO&&&&&O&&&&&&&&&&&&*;;;OOOOOO$OO+OOOOOOOO$O...O$.*OO;",
";&&&&&&&&&&&OO&&&$2&2&&&&&&&&**;;;OOO$OOOOOOOOOOOOO+$..$$$$.*$O;",
";*&&&&&&&&&O2&$O&O22&&&&&&&&&**;;;$OOOOOOOOOOOOO$$O..$OOOOO.O*O;",
";*&&&&&&&&&O22&&O#2&&2&&&&&&&&*;;;+OOOOOO$OOOO+OO..$OOOOOO$.&OO;",
";***&&&&&&&$22&&&&$$&&&&&&&&&&&;;>OOOOOOOOOO$$$..O+OOOOOOO$.*&O;",
";;&&&&&&&&&$&&&&&&&&$$&&&&&&&&&;;>OOOOOOOOO$O..O$O#OOOOOOO$.*$;;",
" >>;&&&&&&&$2&2&&&&&&&$$&&&&&&*;;;OOOOOOOO$..$OOOOOOOO$$OOO.::; ",
"   ;::&&&&&$2&&&&&&&&&&&OO&&&&&>;;OOOOO$$..O&OOOOOO#OOO$OO>>:   ",
"     :::;*&$22&2&&&&&&&&&&O#&&&;;>OOOOO..OO.&&O&OOOOOO$$:::     ",
"        ;;>$&&&&&&&&&&&&&O2&OO*>;;$O$..$$O$.&#OOOOOOOO:::       ",
"          ::;*2&&&&&&&&&&+2&&&O>;;$..$OOOO$.&O&$#OOO;>;         ",
"            ;>>&&&&&&&&&&O2&2&&>;;.$OOOOO$$.&&$$OO>>;           ",
"              :::&&&&&&&&$2&&**;;;OOOOOO$OO.*$$$:::             ",
"                :::&&&&&&$22&*2;;;OOOOOOO$O.*;:::               ",
"                  :::&&&&$2&&2*;;;$OOOOO$$$:;:                  ",
"                    ::::&$2&&&*;;;$OOOO+$;>:                    ",
"                       :>;22***;;;$$OOO;::                      ",
"                         >>>*2&;;;$$O;;;                        ",
"                           >>;*;;;$>::                          ",
"                             ;;;;;::                            "
};
