/* XPM */
static char *wall_2_h1646859473[] = {
/* columns rows colors chars-per-pixel */
"64 64 26 1 ",
"  c None",
". c #FE3434",
"X c #FF3434",
"o c #FE3534",
"O c #FF3534",
"+ c #FE3435",
"@ c #FF3435",
"# c #FE3535",
"$ c #FF3535",
"% c #29AC10",
"& c #28AD10",
"* c #29AD10",
"= c #29AD11",
"- c #50FE00",
"; c #51FE00",
": c #50FF00",
"> c #51FF00",
", c #51FE01",
"< c #50FF01",
"1 c #51FF01",
"2 c #52D620",
"3 c #53D620",
"4 c #52D720",
"5 c #53D720",
"6 c #52D621",
"7 c #52D721",
/* pixels */
"                                                                ",
"                                                                ",
"                                                                ",
"                                                                ",
"                                                                ",
"                                                                ",
"                                                                ",
"                                                                ",
"                                                                ",
"                                                                ",
"                                                                ",
"                                                                ",
"                                                                ",
"                                                                ",
"                                                                ",
"                                                                ",
"                                                                ",
"                                                                ",
"                                                                ",
"                                                                ",
"                                                                ",
"                              XXXX                              ",
"                            XX.11XXX                            ",
"                          XXX111111XXX                          ",
"                        XXX1111111111...                        ",
"                      XXX11111111111111.XX                      ",
"                    ...111111111111111111XXX                    ",
"                  XX.111-111111111111111111XXX                  ",
"                XXX1111111111-111111111111111XXX                ",
"              XXX1111111111111111111111111111-1XXX              ",
"            XXX1111111111-11111111111111111111111XXX            ",
"          XXX1111111111111111-111111111111111-11111XXX          ",
"        ...1111111111111111111;;11111111-111111111111XXX        ",
"      X..11-1-1111111111111111;;11111111-11111111111111XXX      ",
"    XX.11111111111111111111111;;1111111111111111111111111XXX    ",
"  XXX1111111111111111111111111;;11111111111111-111111111111XXX  ",
"XXX1111111111111111111111111;;;;111-1111111111111111111111111XXX",
"X4XX.1111111-111111111111111;;;;111111111111111111111111111-XXXX",
".644...111111111111111111111;;;;11111111-11111111111111--1XXX**X",
".44436...1111111111111111111;;;;11111111-111111111111111XXX%&**X",
".2222222...1111111111111111;;;;;1111111111111111111111XXX&===**X",
".262222222...11-11111111111-;;;;-111--11111111111111XXX%%%&&***X",
".622222222&4...11111111-1111;;;;1-1111111111111111XXX%4%%&&&***X",
".432322226&362...1111111111-;;;;1111111111111111..X%%%3*%&&&***X",
".644362222%32322...11-111111111111111-111-1111XX.%%%**5******&%X",
".443342222%3222362...11111111--1111111111111XXX%*%%%**3******%&X",
".633262262&222332266...11-111111-111111-11..X%%%**&&**5***=*&&&X",
".232226244&2223333644%...111111111111111...3**%%*=&&**5***==&&&X",
".XX4444222*3333222222&26...11-11111111OXX**3*******=**5***%%%XXX",
"  ...44622%3332222224&2222...1111111XXX*%**4%*********3***%XXX  ",
"    XX.422%3222222224&422222...111XXX***%%*5&=********7&*XXX    ",
"      .X.6%3222222324&62636626..XXX%****&&*5****&*****7XXX      ",
"        XX.4222222223%222222526.XX******&=*5&==*=*&&&&XX        ",
"          .X.32222223%262222224.XX******&&*5=&=***&XXXX         ",
"            XX.332233*662322233.XX****&&%%*5&&&&*XXX            ",
"              X..3233*642232333.XX****=&%**4&&&XXX              ",
"                XXX44%442222444XXX&&&&&&&&&7%XXX                ",
"                  XXX%442222444XXX%%&&==%&&XXX                  ",
"                    XX442222664.XX%%&%==&XXX                    ",
"                     X.X.226224XXX%%&**XXO                      ",
"                        .XX4774XXX&&&XXX                        ",
"                          ..X74XOX&XXX                          ",
"                            OXXXXXXX                            ",
"                              XXXX                              "
};
