/* XPM */
static char *wall_6_h1646925668[] = {
/* columns rows colors chars-per-pixel */
"64 64 28 1 ",
"  c None",
". c #252424",
"X c #252524",
"o c #252425",
"O c #242525",
"+ c #252525",
"@ c #333232",
"# c #323332",
"$ c #333332",
"% c #323233",
"& c #333233",
"* c #323333",
"= c gray20",
"- c gray25",
"; c #414040",
": c #404140",
"> c #414140",
", c #404041",
"< c #414041",
"1 c #404141",
"2 c #FE3434",
"3 c #FF3434",
"4 c #FE3534",
"5 c #FF3534",
"6 c #FE3435",
"7 c #FF3435",
"8 c #FE3535",
"9 c #FF3535",
/* pixels */
"                                                                ",
"                                                                ",
"                                                                ",
"                                                                ",
"                                                                ",
"                                                                ",
"                                                                ",
"                                                                ",
"                                                                ",
"                                                                ",
"                                                                ",
"                                                                ",
"                                                                ",
"                                                                ",
"                                                                ",
"                                                                ",
"                                                                ",
"                                                                ",
"                                                                ",
"                                                                ",
"                                                                ",
"                                                                ",
"                              3333                              ",
"                            333-1393                            ",
"                          332---11>333                          ",
"                        333-:1--11>>-333                        ",
"                      339---11->:111---333                      ",
"                    333->>--1>->=111-----333                    ",
"                  333----------------------333                  ",
"                333---------->-----1---------333                ",
"              333----------->------------------333              ",
"            333--------------->------------------333            ",
"          3331-1------>>---------------------------373          ",
"        333--------->->>--1--------11-->--1----------333        ",
"      3331------------1>-----------------1-----------1>337      ",
"    333--1------>-----11----------------------1----------333    ",
"  333----------------<=1----1----1-1--------------------:11333  ",
"3331------------>-----11---------->---->----------------:-11-733",
"3*333-1-----1----------------------->-------------------=1113333",
"3**=322---1----------------<------------1---------------11333OO3",
"3*====333-1-------<<<----<----------------------11=<-111993OO++3",
"3*=====*337-------<<<---------1-----------------111--1339O++O+O3",
"3=========333-----><---<---<---<----------------1<<<223+OO++OO+3",
"3*========*=333----1->-------------------------->>222+++OO++OOO3",
"3==$==========333----=11--------------1---------333++++++++++++3",
"3============**=333--<11-------->---------1--1733++++++++++++++3",
"3=======*==*====**333-11------------------1-373+++++++O++++++++3",
"3==================*333>------------------337++++++++++++++++++3",
"3=====================222>>>--------1=:1333++++++++++++++++++++7",
"333=====================222:-<---->-11233++++++++++++++++++++333",
"  333===========$====$=$$$222<-<----993++++++++++++++++++++333  ",
"    333=================$===222<--399O+++++++++++++++++++333    ",
"      332===============$$====22339O+++++++++++++++++++333      ",
"        222==============$=$==$233OO+++++++O++++++++++33        ",
"          332==$===============233OO+++++O+++++++O+3333         ",
"            222================233OO+++++++++++++333            ",
"              333*==*=========*337O++++++++++++333              ",
"                333*===========933OO+++++++++333                ",
"                  333==========973OO+++++++333                  ",
"                    33=====**=*973+O+++++337                    ",
"                     3393*=====333++++ 333                      ",
"                        393=**=333+++337                        ",
"                          333**393+333                          ",
"                            93333333                            "
};
