/* XPM */
static char *wall_3_h1646859473[] = {
/* columns rows colors chars-per-pixel */
"64 64 36 1 ",
"  c None",
". c #E60000",
"X c #E70000",
"o c #E60100",
"O c #E70100",
"+ c #E60001",
"@ c #FE3434",
"# c #FF3434",
"$ c #FE3534",
"% c #FF3534",
"& c #FE3435",
"* c #FF3435",
"= c #FE3535",
"- c #FF3535",
"; c #FE4200",
": c #FF4200",
"> c #FE4300",
", c #FF4300",
"< c #FE4201",
"1 c #FF4201",
"2 c #FF4301",
"3 c #FFAD62",
"4 c #FFAC63",
"5 c #FEAD63",
"6 c #FFAD63",
"7 c #FFCEA4",
"8 c #FECFA4",
"9 c #FFCFA4",
"0 c #FECEA5",
"q c #FFCEA5",
"w c #FECFA5",
"e c #FFCFA5",
"r c #F4EEDA",
"t c #F4EFDA",
"y c #F5EFDA",
"u c #F4EFDB",
/* pixels */
"                                                                ",
"                                                                ",
"                                                                ",
"                                                                ",
"                                                                ",
"                                                                ",
"                                                                ",
"                                                                ",
"                                                                ",
"                                                                ",
"                                                                ",
"                                                                ",
"                                                                ",
"                                                                ",
"                                                                ",
"                                                                ",
"                                                                ",
"                                                                ",
"                                                                ",
"                                                                ",
"                                                                ",
"                              #*##                              ",
"                            ##*ee###                            ",
"                          ###8eeeee###                          ",
"                        ###eeeeeeeeee###                        ",
"                      ###eeeeeeeeeeeeee###                      ",
"                    ***eeeeeee8eeeeeeeeee###                    ",
"                  ##*e8eeeeeeeeeeeeeeeeeeee###                  ",
"                ##*eeeeee8eeeeeeeeeeeee8eeeee###                ",
"              ###8eeeeeee8eeeeeeeeeeeeeeeeeeeee###              ",
"            ###88eeeeeeeee8eee8eeeeeee88eeeeeeeee#*#            ",
"          ###88888eeee8eeeeeeeeeeeeee888eeeeee8ee8e##*          ",
"        ***88eeeeeeeq8eqqee8eeeeeeeeeeeeeeeeeee8eeee8***        ",
"      #**e8eeq8eeeeqeqe8eqeeeeeeeee8ee8e8eeeeeeeee8eee8***      ",
"    ##*888eeeeeeeee8eeeeeeeeeeeeee8eeeeqeeeeeeeeq8eeeeee8***    ",
"  ###8ee88eeeeeeeqeeeeeeeeeeeeqeeeeeeee8eeeeeeeeeeeeeeee888###  ",
"###e888eeee8eeeeeeeeee8eeeeeeeeeeee8eeee0eeeeeeeeqe8eeqee8888###",
"#,##*88eeeeeeeeeeee8eqeee8e8eee8ee8eeeeqeee8eeeeeeeqeeeee888####",
"*,,,***8qeeeee88eeeeeqee8eeeeeeeeeeeeeeeeeeeeeeeeeeeeee8ee###++#",
"*,<,<,***eeeeee8q8eeeeqeeeeeeeeqeeeeee8eeeeeeeeeeeeeeeee#*#++6+#",
"*,<<<<<r###88888eeeee8eeeeqeeeeeee8eeeeee8eeeeeeeeeeee###++++3+#",
"*,<<<<,r<<##*8q8e88eeeeqeeeeeqeeeeeeeeeeeeeee8eeeeee###++++++3+#",
"*,<<<<<r<<<<**#8q8eeeeeeeeeeeeee8eeeeeeee8ee8888ee###++++++++3+#",
"*,<<<<,r<,<<,<##*8eeee8eeeeeeee8eqeee8eeeeee8888###+3++++++++3+#",
"#<<<<<<r<<<<<<<<##*8eeeee8eeeeeeeeeee8ee8e888e###+++3++++++++3+#",
"#<<,<<,r<<,<<<<<<<##*8eeeeq8eeeeeeeqeeeee888**#+++++3++++++++3+#",
"#rr,,,,r<<<<<<<<<<<<***88eeeee8eeeeeeeeqe8***+++++++3++++++++33#",
"*,,rr,,r,<<<<<<<<<<<<,***ee8ee88eeeee8q8***+++++++++3+++++++33+#",
"###r,rrr,,,<<<<,<<<,<<r,*##8888qeeeeee%##+++++++++++3+++++33+###",
"  ##*,,rr,,,<<<<<<<<<,r,<<#**888eeee###+3+++++++++++3+++33+###  ",
"    ###,,rr,<<<<<<<<<<r,<<<<#*#7ee#%#+++3++O++++++o+6+63+###    ",
"      ##*,,rr<<<<<<<<<r,<<<<<<####%+++++3+O+++++++++33+###      ",
"        ##*,,rr,,<,<,,r,<<<<<<<###++++++3+++++++o+33++##        ",
"          ##*<,rr,<<,,r,<<<<<<<###++++++6+++++++33+####         ",
"            #**r<rr,,<r,<<<<<,<###++++++3+++++63+###            ",
"              ##*<,rr,r,,<<<<<<*##++++++3+++63+###              ",
"                ###,,rr,<<<<,,,###++++o+6+33+###                ",
"                  ##*,,rr,<,,,,###o+++++33+###                  ",
"                    ##,,,rr,,<,###++++33+###                    ",
"                     #*#*,,rr<,###++33+###                      ",
"                        ###r2tt#$#63+###                        ",
"                          ###22#$#+###                          ",
"                            $#######                            ",
"                              ####                              "
};
