/* XPM */
static char *wall_4_h1646859473[] = {
/* columns rows colors chars-per-pixel */
"64 64 29 1 ",
"  c None",
". c #FE3434",
"X c #FF3434",
"o c #FE3534",
"O c #FF3534",
"+ c #FE3435",
"@ c #FF3435",
"# c #FE3535",
"$ c #FF3535",
"% c #BA5C06",
"& c #BA5D06",
"* c #BA5C07",
"= c #BB5C07",
"- c #BA5D07",
"; c #BB5D07",
": c #DD8434",
"> c #DC8534",
", c #DD8534",
"< c #DC8435",
"1 c #DD8435",
"2 c #DC8535",
"3 c #DD8535",
"4 c #FFCEA4",
"5 c #FECFA4",
"6 c #FFCFA4",
"7 c #FECEA5",
"8 c #FFCEA5",
"9 c #FECFA5",
"0 c #FFCFA5",
/* pixels */
"                                                                ",
"                                                                ",
"                                                                ",
"                                                                ",
"                                                                ",
"                                                                ",
"                                                                ",
"                                                                ",
"                                                                ",
"                                                                ",
"                                                                ",
"                                                                ",
"                                                                ",
"                                                                ",
"                                                                ",
"                                                                ",
"                                                                ",
"                                                                ",
"                                                                ",
"                                                                ",
"                                                                ",
"                              XXXX9                             ",
"                            XX@90XXX9                           ",
"                          XXX994000XXX9                         ",
"                        XXX0999900999@XX9                       ",
"                      XXX09099990099999XXX9                     ",
"                    XX@999999999999994999XXX9                   ",
"                  XXX9999999999999999499999XXX9                 ",
"                XX@99999999999999999999999999XXX9               ",
"              XXX999999999999999999999999999000XXX9             ",
"            XXX9999999999999999999999999999900000XXX9           ",
"          XXX99999999999999999994949999999499900099XXX9         ",
"        XXX000009999000000000000994999999999999999990XXX0       ",
"      XXX0000005999900000090000099999999999999999999000XXX0     ",
"    XXX00050000099000000000050009999999999999999499900000XXX0   ",
"  XXX000000000009900000000000000999999994999999999990000000XXX9 ",
"XXX0000000000000999900005000500599999999999949999999994099490XXX",
"X2XXX0000000000099990000000000009999999949999999999999999999XXXX",
"X222XXX000090000999950000000000099999999999999999999999999@X@9-X",
"X22222XXX00000009999000490000000999999999999999999999999XX@9%=-X",
"X2333333XXX0000094999999000000009999999999999999999999X@X9*****X",
"X233333333XXX000909999990000000099999999999999999999XXX9%%*=***X",
"$33333333333XXX09999994005005000999999994999999999@XX9-=%-==***X",
"X333>333333333XXX9999900050000009999999999999999XX@9=-**==%=***X",
"X3333>33,3331333XXX999990000000099999999999999@XX9==**-****=***X",
"X*333333,331333122XXX99900000000999999999999XX@9%%==**=**=*****X",
"X3**3>33333333112:22XXX9050000009994999999XXX9=%**==********--*X",
"X333**333333331222222:XXX000000099999999XXX9%%==***********==22X",
"$XX322*=2213321313333333XXX00000990900XXX0***********=*****22XXX",
"  XXX222==2232331233333333XXX0004000XXX9**********=*****=22XXX* ",
"    XXX322==333,223333333333XXX000XXX0*****************22XXX*   ",
"      XXX222==3323333333333>22XXXXX0*****&***********22XXX*     ",
"        XXX3>3**333311113233332XXX**===********=***22*XX*       ",
"          XXX333**3311112233332XXX**==-=********=22XXXX*        ",
"            XXX333*=33222133333XXX**-=--&******22@XX*           ",
"              XXX333==222233333XXX&*---&*****22XX@%             ",
"                XXX222=-2222333XXX*********22XXX                ",
"                  XXX222==22333XXX*-*****22XXX*                 ",
"                    XX2221--332XXX--***22XXX*                   ",
"                     XXXX122--2XXX--*22XXX*                     ",
"                        XXX222-XXX*22XXX                        ",
"                          XXX22XXX2XXX*                         ",
"                            XXXXXXXX*                           ",
"                              XXXX*                             "
};
