/* XPM */
static char *wall_1_h1646859473[] = {
/* columns rows colors chars-per-pixel */
"64 64 28 1 ",
"  c None",
". c #7C7C7C",
"X c #7D7C7C",
"o c #7C7C7D",
"O c #FE3434",
"+ c #FF3434",
"@ c #FE3534",
"# c #FF3534",
"$ c #FE3435",
"% c #FF3435",
"& c #FE3535",
"* c #FF3535",
"= c gray58",
"- c #959494",
"; c #949594",
": c #949495",
"> c #A5A5A4",
", c #A4A5A5",
"< c #A5A5A5",
"1 c gray80",
"2 c #CDCCCC",
"3 c #CCCDCC",
"4 c #CCCCCD",
"5 c #FFFEFE",
"6 c #FFFFFE",
"7 c #FFFEFF",
"8 c #FEFFFF",
"9 c white",
/* pixels */
"                                                                ",
"                                                                ",
"                                                                ",
"                                                                ",
"                                                                ",
"                                                                ",
"                                                                ",
"                                                                ",
"                                                                ",
"                                                                ",
"                                                                ",
"                                                                ",
"                                                                ",
"                                                                ",
"                                                                ",
"                                                                ",
"                                                                ",
"                                                                ",
"                                                                ",
"                                                                ",
"                                                                ",
"                              +O++                              ",
"                            ++$11+++                            ",
"                          +++999999+++                          ",
"                        +++9999999999+++                        ",
"                      +++99999999999999+++                      ",
"                    ++$999999999999999999+++                    ",
"                  +++9999999999999999999999+++                  ",
"                ++$99999999999999999999999999+++                ",
"              +++999999999999999999999999999999+++              ",
"            +++9999999999999999999999999999999999+++            ",
"          +++99999999999999999999999999999999999999+++          ",
"        ++$999995555555555555555999999995555555555555&&+        ",
"      +++9999999555555555555555599999999555555555555555&++      ",
"    +++99999999955555555555555559999999955555555555555559+++    ",
"  +++999999999995555555555555555999999995555555555555555999+++  ",
"+++9299999999999555555555555555599999999995599995555555599993+++",
"+<+++9999999999955555555555555559999999995559999555555559999++++",
"+1<<$++999999999555555555555559999999999999999995555555599+++..+",
"+111,,$++99999995555555555555999999999999999999955555555OO+..==+",
"+11111<<+++9999955555555999999999999999999999999999999++O..====$",
"+1<11111<<+++999555555559999959999999599999999999999+++..;===.=+",
"+111111111<<+++95555555599999999999999999999999999+++..=;======+",
"+111111111<1<<++&5555555999999999999999999999999+$+..=.========+",
"+111111111<111<,+++955559999999999999999999999+++..===X========+",
"+111111111<11113,,++&55599999999999999999999+++..=====X========+",
"+111111111<1111111,,++&5999999999995999999+++..=======X========+",
"+111111111<111111111,,+&$999999999999999+++..====;====X========$",
"+++3333444<1111111111<<<OOO99999999999OO+X..==========X======+++",
"  +++33422<1112111111<11<<OO+9999999OOO.o;;.==========.;===+++  ",
"    +++311<1111111111<1111<<+++919OOO..=;==o==========o==+++    ",
"      +++1<1111111111<111111<<++OOO..;=====o========;;o+++      ",
"        ++$3112111111<11111111<+OO.;=======X==========++        ",
"          +++11111111<111111113+OO======;==X=======++++         ",
"            +++111121<2111111<1++$=X=======.=====+++            ",
"              O++2111<241111111++$=========.===+++              ",
"                +++33<441111111+++==;======o=+++                ",
"                  +++<433111111+$+=========+++                  ",
"                    ++331111111+$+=======+++                    ",
"                     ++++111111+$+=====$++                      ",
"                        +++3111+++===OOO                        ",
"                          +++11+++=+OO                          ",
"                            ++++++++                            ",
"                              ++++                              "
};
