/* XPM */
static char *wall_61646925668[] = {
/* columns rows colors chars-per-pixel */
"64 64 22 1 ",
"  c None",
". c #252424",
"X c #252524",
"o c #252425",
"O c #242525",
"+ c #252525",
"@ c #333232",
"# c #323332",
"$ c #333332",
"% c #333233",
"& c #323333",
"* c gray20",
"= c gray25",
"- c #414040",
"; c #404140",
": c #414140",
"> c #404041",
", c #414041",
"< c #404141",
"1 c gray58",
"2 c #949594",
"3 c #949595",
/* pixels */
"                                                                ",
"                                                                ",
"                                                                ",
"                                                                ",
"                                                                ",
"                                                                ",
"                                                                ",
"                                                                ",
"                                                                ",
"                                                                ",
"                                                                ",
"                                                                ",
"                                                                ",
"                                                                ",
"                                                                ",
"                                                                ",
"                                                                ",
"                                                                ",
"                                                                ",
"                                                                ",
"                                                                ",
"                                                                ",
"                              ==:=                              ",
"                            ========                            ",
"                          ======<=====                          ",
"                        ================                        ",
"                      ====================                      ",
"                    ==================:=====                    ",
"                  ============================                  ",
"                ===================<============                ",
"              =======================:============              ",
"            ===========================<===:=:======            ",
"          ===<====================<=:=================          ",
"        ===========================<=======:============        ",
"      =,==========:==:===============================<====      ",
"    ====,<====<<=:=======================================<<=    ",
"  ======,,,,::<<<=====================:=======================  ",
"========,,==::<<=<=================,===:========:=:============<",
"**==========::,,==================,,:=====================<===:+",
"****========*,,,==================,,,=====:==================+++",
"******====<===,,===========================================+++++",
"********=<====<==========================================+++++++",
"**********====================>========================+++++++++",
"*$**********====<====================================+++++++++++",
"***$**$*******===============,=====================+++++++++++++",
"$*$*************===<=============================+++++++++++++++",
"*******$**********=============================+++++++++++++++++",
"***$$***************=========================+++++++++++++++++++",
"****$**************$$$================<<::*+o+++++++++++++++++++",
"  ******************$$**========:====<<::+++++++++++++++++++++  ",
"    ***************$***$**============:++++++++o++++++++++++    ",
"      ********************$*=========+++++++++++++++++++++      ",
"        *******$**************==<==+++++++++++++++++++++        ",
"          *****************$**$*3++++++++++++++++++++++         ",
"            ********************3+++++++++++++++++++            ",
"              ******************3+++++++++++++++++              ",
"                ****************3o+o++++++++++++                ",
"                  **************3++++++++++++++                 ",
"                    ************3o++++o+++++                    ",
"                     ***********3o++++++++                      ",
"                        ********1+++++                          ",
"                          ******1+++++                          ",
"                            *$*$1+++                            ",
"                              *$1+                              "
};
