/* XPM */
static char *wall_41646859019[] = {
/* columns rows colors chars-per-pixel */
"64 64 22 1 ",
"  c None",
". c #BA5C06",
"X c #BB5C06",
"o c #BA5C07",
"O c #BB5C07",
"+ c #BA5D07",
"@ c #BB5D07",
"# c #DD8434",
"$ c #DD8534",
"% c #DC8435",
"& c #DD8435",
"* c #DC8535",
"= c #DD8535",
"- c #FFAD62",
"; c #FEAD63",
": c #FFAD63",
"> c #FFCEA4",
", c #FFCFA4",
"< c #FECEA5",
"1 c #FFCEA5",
"2 c #FECFA5",
"3 c #FFCFA5",
/* pixels */
"                                                                ",
"                                                                ",
"                                                                ",
"                                                                ",
"                                                                ",
"                                                                ",
"                                                                ",
"                                                                ",
"                                                                ",
"                                                                ",
"                                                                ",
"                                                                ",
"                                                                ",
"                                                                ",
"                                                                ",
"                                                                ",
"                                                                ",
"                                                                ",
"                                                                ",
"                                                                ",
"                                                                ",
"                              3333                              ",
"                            333,3333                            ",
"                          333323333333                          ",
"                        3313333333333333                        ",
"                      33333333333331333333                      ",
"                    33133333333,3333,3,13313                    ",
"                  3333333333333333333313333333                  ",
"                33333333333333333333333333313333                ",
"              333333333313333333333,33333333333333              ",
"            3333333333313333333313,33333313333333333            ",
"          1133,,333333313333,3333,3333331,331333333333          ",
"        1333333333333333,2333333333333333233333333333323        ",
"      1333313333311313333113333333333333232332333333331333      ",
"    33333333333333233333333,333333331333333333333333333,3333    ",
"  333333333333333133333333333133333133123333133,33233333313331  ",
"3333333333333333333333,,333,3333333333333133333333333,3333333333",
"$$3333333333333333333332333333333333333333333333333333331333331+",
"**$$333333133333333,33333332333333333133333333333333332313131o++",
"**$$%%1333333333333333,331333333133333331133333333333333331o+ooo",
"**&&=&==11133133,2233,3333333333,333333333333323333333113+ooo+oo",
"=*&&====*=33333133333333333113333,333333332333333333313oo+oooooo",
"=*=&========333333333,33211333313333332332333333,3133+oo+ooooooo",
"==*&========$*3333311333,33333333333333333333333331oo+oooooooooo",
"==**==========**333313333333333333333333133333213ooooooooooooooo",
"@=*$=========***$$333333333333333333333333333,1o++o+oooooooOoooo",
"*@o$==========**$$$$3,333333333333,333331,33,+.oooooooooooOOoo#$",
"=*$@@=========$$$$#***333333333333333331333...+ooooo+oooooOO$$o+",
"=====@O*===*&=====*=====11133333133333313oooooooo+ooOoooo.$$OOOO",
"  ==*=*OO=***===========**3333333333313+ooooooooooooOOoo%%ooOO  ",
"    =*==&OO*&&===========***333333133+++oooooooo+oooOO$$+oo+    ",
"      =*$*$O@&&&=========*****31331oo++ooooo@ooooooo$$Oo++      ",
"        ===&$@@**===&&&&===*===*-+++oo+ooooooooooo$$OOo+        ",
"          =&*=*O@*==&&&=========-++oo@oooooooooo%%o+OOo         ",
"            &&*=*@@$&&==========-oOooooooooooo$$+oo+            ",
"              &&**$@@===========-+oooooooooo**oo+o              ",
"                =====OO*=&======-Oooo+ooOO%%ooo                 ",
"                  ==*$*@O==*=*==-oooo.o+$$oooo                  ",
"                    ====*OO*===&;OOo++%%OOoo                    ",
"                     ====**OO=&*;OOO$%oo+o                      ",
"                        *====@O*;O$$o+                          ",
"                          ==***O-$Oooo                          ",
"                            **$$;O+o                            ",
"                              *$;O                              "
};
