/* XPM */
static char *wall_11646859019[] = {
/* columns rows colors chars-per-pixel */
"64 64 21 1 ",
"  c None",
". c #28AC10",
"X c #29AC10",
"o c #28AD10",
"O c #29AD10",
"+ c #29AC11",
"@ c #28AD11",
"# c #29AD11",
"$ c #50FE00",
"% c #51FE00",
"& c #50FF00",
"* c #51FF00",
"= c #51FE01",
"- c #50FF01",
"; c #51FF01",
": c #52D620",
"> c #53D620",
", c #52D720",
"< c #53D720",
"1 c #52D621",
"2 c #52D721",
/* pixels */
"                                                                ",
"                                                                ",
"                                                                ",
"                                                                ",
"                                                                ",
"                                                                ",
"                                                                ",
"                                                                ",
"                                                                ",
"                                                                ",
"                                                                ",
"                                                                ",
"                                                                ",
"                                                                ",
"                                                                ",
"                                                                ",
"                                                                ",
"                                                                ",
"                                                                ",
"                                                                ",
"                                                                ",
"                              ****                              ",
"                            ********                            ",
"                          ************                          ",
"                        ********-*******                        ",
"                      **************--****                      ",
"                    ******************-***-*                    ",
"                  ***********************-****                  ",
"                ********************************                ",
"              ************************************              ",
"            *************$******************-***$***            ",
"          ************$***************************$$**          ",
"        *******************************-$***************        ",
"      *****=****************************$*****************      ",
"    ******************=*****-*******************************    ",
"  ****************************-***************$***************  ",
"****************************-**********************-************",
",,*****$*$*********************-***********$***$*******$*******+",
"11,,***********************-******-**************************o++",
"111,,,*******************=*********************************O++++",
">>::::::**********-******-***************=***************+OOOOOO",
">>::::::::***********************-*********************O++OOOOOO",
">:::::::::+,***********=*********=*******************+>OO+OOOOOO",
">:::::::::.>,,**************-*********-***=********+++:OOoOOOOOO",
",,::::::::.:::::******$****$***********-*********OOOOO:OOOOOOOOO",
",,,:::::::O:::::11**$*****-****$***************O++OOOO:OOOOOOOOO",
"1>::11::::.>:,::1111***$**$******************+++OOOOOO:OOOOoOOOO",
"::::111:::.>1,::::1,,+*********$*=*********1++++OOOOOO:O.OOOOOOO",
".+::::,,,,O::::::::::.:,****$*****$******Oo:OO+oOOOOOO:OOOOOO+:>",
"  OO::,,1,+::::::::::.::,,*************O+OO,+OOoOOOoOO:OOOO+::  ",
"    +O::>>.:,,::::>>:+::>>1>**$$*****.OOOOO,OOO+OOOOOO:OOO:,    ",
"      O+>1.:1,::>1>1,.:::>1>,,*$*$*+++oOOOO,OOOO+OOOOO:+:>      ",
"        O+O:>:::>>>,:.>1::::::::*OOOOOOOOOO:+OOOOOOOOO,,        ",
"          O+>:::1,:::.>1::::::::*+OOOOOOOOO,O+OOOOO+::,         ",
"            O+::,,:::.,,:>::::::*OOOOOOOOOO:OOO+OO:,            ",
"              ..,::::O,,::>:::::*OO+OOOOOOO:OOO+,:              ",
"                +O:::O,,::::>1,,*+OOOOOOOOO:OO>,                ",
"                  OO:O,,>:::>,,,*+O+OOOOOO+:>:                  ",
"                    OO::::::1>:,*OOOO+OO++,,                    ",
"                     +OO::>>>>::*+OOOOOO,,                      ",
"                        .+::::::*OO+OO,,                        ",
"                          OO>:::*OO+,:                          ",
"                            +O::*+,,                            ",
"                              O+*,                              "
};
