/* XPM */
static char *wall_31646859019[] = {
/* columns rows colors chars-per-pixel */
"64 64 33 1 ",
"  c None",
". c #E60000",
"X c #E70000",
"o c #E60100",
"O c #E70100",
"+ c #E60001",
"@ c #FE4200",
"# c #FF4200",
"$ c #FE4300",
"% c #FF4300",
"& c #FE4201",
"* c #FF4201",
"= c #FF4301",
"- c #FE8F68",
"; c #FF8F68",
": c #FF8F69",
"> c #FFAD62",
", c #FFAC63",
"< c #FEAD63",
"1 c #FFAD63",
"2 c #FECEA4",
"3 c #FFCEA4",
"4 c #FECFA4",
"5 c #FFCFA4",
"6 c #FECEA5",
"7 c #FFCEA5",
"8 c #FECFA5",
"9 c #FFCFA5",
"0 c #F4EEDA",
"q c #F5EEDA",
"w c #F4EFDA",
"e c #F5EFDA",
"r c #F4EFDB",
/* pixels */
"                                                                ",
"                                                                ",
"                                                                ",
"                                                                ",
"                                                                ",
"                                                                ",
"                                                                ",
"                                                                ",
"                                                                ",
"                                                                ",
"                                                                ",
"                                                                ",
"                                                                ",
"                                                                ",
"                                                                ",
"                                                                ",
"                                                                ",
"                                                                ",
"                                                                ",
"                                                                ",
"                                                                ",
"                              9999                              ",
"                            99999999                            ",
"                          999999999999                          ",
"                        9999999999999999                        ",
"                      99999999999994949999                      ",
"                    999999999949944499999999                    ",
"                  9999999999999924449999999999                  ",
"                99999999999999499999999999999999                ",
"              999999999999999944999994999999999999              ",
"            9999999999999929992499999999999999999999            ",
"          99999999999999999992449999999999999999999999          ",
"        996999999999999969929999999999969999999999692999        ",
"      9999999999999992999999999999999966999999999999999999      ",
"    99999999992999929999999999999999999299999699999999992929    ",
"  999999999999999696999999999999699999999999999999699999999999  ",
"9999999699929999999999299999999999929999999999999692999999449999",
"%%2999999999999999929999929299929929999999999999999699999944999+",
"**%%299929999999999999992999699999992999999999999999999999442+++",
"**%%%%99929929999299999999999996999999299999999999999999994++>++",
"*******09999999999999299999999999929999992994449999944459+++O>++",
"******%0**999992992999999999999999999999999942499999944++++++>++",
"*%%****0****99999299999999999999299999994299999999999++++++++>++",
"******%0*%****9999999999999999699999929249999999999+1++++++++>++",
"***%***0********699999999299999999999999449999999+++>++++++++>++",
"0**%**%0***@******99999999999999999999994499994+++++>++++++++>++",
"%00%%%%0************9999999999999999999949949+++++++>++++++++>>>",
"%%%00%%0*************%999999999999999299499+++++++++>+++++++>>++",
"*%%0%000%%*********%**0%99999999999999999++++++++++O>+++++>>++++",
"  %0%%%00%*%**********0***9929999999999+>+++++++++++>+++>>++++  ",
"    %%%%%00%**********0%****299699449+++>++O++++++++>+>>++++    ",
"      %%**%00*%*******0%@*****99994+++++>+O+++++++++>>++>+      ",
"        %%%%%00%%*%**%0*******@*-+++++++>+++++++O+>>++++        ",
"          %%**%00%***%0%********-++++++O>+++++++>>+++++         ",
"            %%%0*00%**0%*****%**-+++++++>+++++11++++            ",
"              %0%%%00%0*%*@**@**-+++++++>+++1>+1++              ",
"                %%%**00%********-++++O++>+>>+++>                ",
"                  %%*%%00%*%****-O+++++O>>++++                  ",
"                    *%%*%00%****-+++++>>++++                    ",
"                     %*%*%%00**%-+++>>++++                      ",
"                        *%%0%00%-+>>++++                        ",
"                          %0%%%0->++++                          ",
"                            %%%%-+++                            ",
"                              %%-+                              "
};
