/* XPM */
static char *wall_21646859018[] = {
/* columns rows colors chars-per-pixel */
"64 64 21 1 ",
"  c None",
". c #7C7C7C",
"X c #7C7D7C",
"o c #7C7C7D",
"O c gray58",
"+ c #959494",
"@ c #949594",
"# c #949495",
"$ c #A5A5A4",
"% c #A5A4A5",
"& c #A4A5A5",
"* c #A5A5A5",
"= c gray80",
"- c #CDCCCC",
"; c #CCCDCC",
": c #CCCCCD",
"> c #FEFFFE",
", c #FFFFFE",
"< c #FFFEFF",
"1 c #FEFFFF",
"2 c white",
/* pixels */
"                                                                ",
"                                                                ",
"                                                                ",
"                                                                ",
"                                                                ",
"                                                                ",
"                                                                ",
"                                                                ",
"                                                                ",
"                                                                ",
"                                                                ",
"                                                                ",
"                                                                ",
"                                                                ",
"                                                                ",
"                                                                ",
"                                                                ",
"                                                                ",
"                                                                ",
"                                                                ",
"                                                                ",
"                              2222                              ",
"                            222==222                            ",
"                          222222222222                          ",
"                        2222222222222222                        ",
"                      22222222222222222222                      ",
"                    222222222222222222222222                    ",
"                  2222222222222222222222222222                  ",
"                22222222222222222222222222222222                ",
"              222222222222222222222222222222222222              ",
"            2222222222222222222222222222222222222222            ",
"          22222222222222222222222222222222222222222222          ",
"        22222222222222222222222222222222>>>>>>>>>>>>>>>>        ",
"      2222222222222222222222222222222222>>>>>>>>>>>>>>>>22      ",
"    222222222222222222222222222222222222>>22>>>>>>>>>>>>2222    ",
"  222222222222222222222222222222222222222222>>>>>>>>>>>>222222  ",
"2222=2222222222222222222222222222222222222222222>>>>>>>>2222=222",
"**2222222222222222222222222222222222222222>22222>>>>>>>>2222222.",
"*=**22222222222222222222222222222,22222222222222>>>>>>>>22222...",
"*===&&222222222222222222222222222222222222222222>>>>>>>>222..OO.",
"*=====**2222222222222222222222222222222222222222222222222X.OOOO.",
"*=*=====**2222222222222222222222222222222,2222222222222.XOOOO.O.",
"*=========**22222222222222222222222222222222222222222..OOOOOOOO.",
"*=========*=%*2222222222222222222222222222222222222..O.OOOOOOOO.",
"*=========$===**222222222222222222222222222222222..OOO.OOOOOOOO.",
"*=========*=====*$2222222222222222222222,222222.XOOOOO.OOOOOOOO.",
"*=========*=======$$2222222222222222222222222..OOOOOOO.OOOOOOOO.",
"*=========*=========&&222222222222222222222..OOOOOOOOO.OOOOOOOO.",
"**========*==========***22222222222222222...OOOOOOOOOO.OOOOOOO..",
"  **======*==========*==**2222222222222..OO.OOOOOOOOOO.OOOOO..  ",
"    **====*==========*====**2222=2222..OOOO.OOOOOOOOOO.OOO..    ",
"      **==*==========*======**22222..OOOOOO.OOOOOOOOOO.O..      ",
"        ***==========*========**2..OOOOOOOO.OOOOOOOOOO..        ",
"          **=========*=========*2.OOOOOOOOO.OOOOOOOO...         ",
"            **=======*=======*=*2.O.OOOOOOO.OOOOOO..            ",
"              **=====*=========*2.OOOOOOOOO.OOOO..              ",
"                **===*=========*2.OOOOOOOOO.OO..                ",
"                  **=*=========*2.OOOOOOOOO...                  ",
"                    **=========*2.OOOOOOOO..                    ",
"                     ***=======*2.OOOOOO..                      ",
"                        **=====*2.OOOO..                        ",
"                          **===*2.OO..                          ",
"                            **=*2...                            ",
"                              **2.                              "
};
