/* XPM */
static char *wall_51646859019[] = {
/* columns rows colors chars-per-pixel */
"64 64 36 1 ",
"  c None",
". c #333232",
"X c #333332",
"o c #323233",
"O c #333233",
"+ c #323333",
"@ c gray20",
"# c gray32",
"$ c #535252",
"% c #525352",
"& c #525253",
"* c #535253",
"= c #525353",
"- c #535353",
"; c #7C7C7C",
": c #7D7C7C",
"> c #7C7D7C",
", c #7D7D7C",
"< c #7C7C7D",
"1 c gray58",
"2 c #949495",
"3 c #A4A4A4",
"4 c #A5A4A4",
"5 c #A4A5A4",
"6 c #A5A5A4",
"7 c #A4A4A5",
"8 c #A5A4A5",
"9 c #A4A5A5",
"0 c #A5A5A5",
"q c gray80",
"w c #CDCCCC",
"e c #CCCDCC",
"r c #CDCDCC",
"t c #CCCCCD",
"y c #CDCCCD",
"u c #CCCDCD",
/* pixels */
"                                                                ",
"                                                                ",
"                                                                ",
"                                                                ",
"                                                                ",
"                                                                ",
"                                                                ",
"                                                                ",
"                                                                ",
"                                                                ",
"                                                                ",
"                                                                ",
"                                                                ",
"                                                                ",
"                                                                ",
"                                                                ",
"                                                                ",
"                                                                ",
"                                                                ",
"                                                                ",
"                                                                ",
"                              ####                              ",
"                            ##qq0q##                            ",
"                          ##qq000000=#                          ",
"                        ##qq00000000#e##                        ",
"                      ##qq=qq00000##ee00##                      ",
"                    ##qqqqq##t00##qe000000##                    ",
"                  ##qq0qq0000###qq0030000000##                  ",
"                ##qqqq000000040##eqq30000003#e##                ",
"              ##qq#qqqq0e00300000##e000030*#ee30##              ",
"            ##qqq00#*qqq00004000000##00#**qqeq0000#*            ",
"          ##qq0000000*#qe000000000000#=eqqqq00000300##          ",
"        ##qqe0000000000##qqq00000000000##q000000000000#*        ",
"      #*q#qq0000700000000###q000000000000##q000004000000##      ",
"    ##qqqq##ee00000700000000#qq030000000000##q04400000000##*    ",
"  #*qq000000##ee3000000000##q##qe00000400#*qq##40000000*#qqq#*  ",
"##qq000000000q=*ee000000##044qq##tt00000#qq4000#**00###qee70qq##",
"#qqq0000000#==q0##qeq0##q0040000q##tqq##qq00040000##qqq00300000@",
"00qqq000#*=qq00000##q#qq40000000300#*#qq000000000#qq#0000000000;",
";000qqq#qqq000000000#*qq0000000000000**qq0000040#qq00##000755;;#",
";;;;88q;qq000000000000#qqq4000003040407##eet00##e000000=037;X;#=",
";;;;;8=0qqq000080000400#qqqqq000000000007##q##qq00000077#,;;;X=#",
";;;;;0=000yqq88800000000####qq0000000040300#qee00000557;;###X###",
";;;;;0=;;888qqqq003000##qqqt##qq000000000000*##ee705;;;#####;X##",
"#;;;;0=;;;;;00qq00####qqe00eqq##qq0400000000030#e55,#####*##;X=#",
"0##;;00#<;;;;;00q;qqqqq000070qqq##qq0000000003==;;;@=###*###=;@X",
"0;0##0*;;;;;;;;0#0qq000000000000qq##qt0300303=-,;##;@##=####@@;;",
"00;00##;;<;;;;0*;000qq00000000000#qq**tq003===,####;@######@;;##",
";;;00;0*#;;;;;0#;;;000qq0000000#=e00ee=770=*;######;@###@##;####",
"  ;;;;000*;;;;0=;;;;;000qq00###qee00000====;#######X*@@@;@@;##  ",
"    ;;;;00#;,,0#;;;;;;;000qq0qq3030577=@;;##*######@XX;;;#=X    ",
"      ;;;;#;##=;;;;;;;;;;;000q000055;;;@#=####=###@#;;;=##      ",
"        ;;;#000#*;;;;;;;;;0#00ee35,;;##;X#=##*##X@;;####        ",
"          ;#::000#=;;;;;;0*;,00033,=*##;X######@;;#**#*         ",
"            ;;;;;00;#;;;;0#;,;;;1#######@###@@#@;###            ",
"              ;;;;0#0##;;0=;,;;;,####**@##@X;;@;;#              ",
"                ;;0#000##0#;;;;;,######X@@;;;;#@                ",
"                  ;#0,000*;;;;;;;#=###XX;;####                  ",
"                    ,;;;00#;#;;;##=#@@;;####                    ",
"                     ;;;,00#0##;;#XX;;;*##                      ",
"                        :;#0000#2@;;;#                          ",
"                          #;;;002;;###                          ",
"                            ;;,#2;##                            ",
"                              ;,2=                              "
};
