/* XPM */
static char *wall_5_h1646859473[] = {
/* columns rows colors chars-per-pixel */
"64 64 38 1 ",
"  c None",
". c #333332",
"X c #323233",
"o c #333233",
"O c #323333",
"+ c gray20",
"@ c gray32",
"# c #535252",
"$ c #525352",
"% c #525253",
"& c #535253",
"* c #525353",
"= c #7C7C7C",
"- c #7D7C7C",
"; c #7C7D7C",
": c #7D7D7C",
"> c #7C7C7D",
", c #FE3434",
"< c #FF3434",
"1 c #FE3534",
"2 c #FF3534",
"3 c #FE3435",
"4 c #FF3435",
"5 c #FE3535",
"6 c #FF3535",
"7 c #A5A4A4",
"8 c #A4A5A4",
"9 c #A5A5A4",
"0 c #A4A4A5",
"q c #A5A4A5",
"w c #A4A5A5",
"e c #A5A5A5",
"r c gray80",
"t c #CDCCCC",
"y c #CCCDCC",
"u c #CCCCCD",
"i c #CDCCCD",
"p c #CCCDCD",
/* pixels */
"                                                                ",
"                                                                ",
"                                                                ",
"                                                                ",
"                                                                ",
"                                                                ",
"                                                                ",
"                                                                ",
"                                                                ",
"                                                                ",
"                                                                ",
"                                                                ",
"                                                                ",
"                                                                ",
"                                                                ",
"                                                                ",
"                                                                ",
"                                                                ",
"                                                                ",
"                                                                ",
"                                                                ",
"                              <<<<                              ",
"                            <<4tw<<<                            ",
"                          <<<t99www<<<                          ",
"                        <<<twww9wwww&<<<                        ",
"                      <<<t%rtw999w%%rrw<<<                      ",
"                    <<<rrrr%&tww&&tt99www<<<                    ",
"                  <<<rwrrwwww&&&ttww99wwwww<<<                  ",
"                <<<ttr9w9weeeee&*rtt99eewwww*<<<                ",
"              <<<t&trrrwrw99eeeew**t99eeww&&tte<<<              ",
"            <<<trww&%ttrw999eeeewww&&we&**rtrrw9w<<<            ",
"          <<<rwwwwwww%%rrw99eeeewwwww&&trtrtwwwwwww<<<          ",
"        <<<tt9wweeee999&%rtt9wwqwweeeee&&twwwwww9w999<<<        ",
"      6<<%ttw99wweeq99ww9%%&twww99eeee9ww&%r9www9q9999w<<<      ",
"    <<<trr&&ttww9eqe99w9wwww&ttq9999eeeewwq*&r9qqe9ewq99w<<<    ",
"  6<<t9wwwww*&tteee999w99q%%t%*ttw99eeeeq%*tr&&7eeeeww9%%tt<<<  ",
"<<<rwww9wwwwwt**ttwwwwww&%9wqtt*%rtweeee*ttq999&&&ww&%&rtt8wt<<<",
"<t<<<wwwwww#&&tw&&tttw&%r9wqeeeer%%ttt*&ttww9wwwww%%rrrwwww8<<<<",
"<9rr<<<9&&&rtwwwww*&t%tt99w9eeww77q%**tieeee99www&tt%999ww<<<88<",
"<999tt<<<rr9999w9wwq%%tt9999e99wwwwwq**itee999qw&ttw9%%9<<<88=><",
"<>=;wwr=<<<wwwww99ee9e&trrqwwwwwwwqwq9e&&tttww%%t9ww99<<<w9=.=%<",
"6>;>=w*9tt<<<wwwe99wqew&rtrrtwwwqwww9weew*%t%%rrwwww<<<8%====.*<",
"6>>>=w*w99rr<<<weeew9www***&ttqq99w999qqwww%tttw99,,<89;=%%@.%%<",
"<>>>=w#=>999tt<<<eww9w&&tttt**tr999999w9wwww%%%t<<,8=;=%%%%%=.@<",
"<====w#===-=wwtt<<<*&*tttw9ttt*#itwqwww999www9<<<w9=@@@@@%@@=.%<",
"<##==ww#>====>wqr><<<trqww998ttt&&rtwwww99ww<<<*>>=.@%@@%@@%$=.<",
"<=9##w#===>===>w%wtt<<<wwwwwwwwwtt&%rr999w<<<**>=%%=.%@@@@%%..;<",
"<w=ww*#==>====w%>wwwrt<<<99wwwwww&tt%%rr<<<***>*%%%=.@@@@@%.==%<",
"<<<99=9**=====w#===999tt6<<ewww%*t99rr<<<9**=@@@%%@=+%%%.%%>%<<<",
"  <<<=99w*====w*=====9eett<<<*%tpt99<<<****=@@@@@@%.*+..=.+<,,  ",
"    <<<=ww%===w&=:=====9wwrr<<<w99<<<8*.==@@#@@@%@%..+===<<<    ",
"      <<<=%=#*#===========wewt<<<<28===.@%@@@@@%@%.%===<<<      ",
"        <<<*www##=========w*wwt<<<>>=%@=.%$%%%%%..==%%<<        ",
"          <<<=www##======w&==ww<<<=*%$@=.%@@%%%.==%<<<<         ",
"            <<<==ww=#====e*====<<<**@@@%.%@@++%.=<<<            ",
"              <<<=w#w#*==9*====<<<@%@%@.%%..==.<<<              ",
"                <<<*www#*9*====<<<%%@@@...>==,<<                ",
"                  <<<=ww9#=====<<<*%%%..=;%,,,                  ",
"                    <<==9w%=*==<<<%%..==%<<<                    ",
"                     <<<<w9*w**<<<..===<<<                      ",
"                        <<<wwww<<<===<<<                        ",
"                          <<<>w<<<=<<<                          ",
"                            <<<<<<<<                            ",
"                              <<<<                              "
};
