/* XPM */
static char *_7653612e4394eb1a22b19da8fd21d5d4IR87Tzf3AI2aoAO[] = {
/* columns rows colors chars-per-pixel */
"64 32 124 2 ",
"   c None",
".  c #040509",
"X  c #1D573F",
"o  c #1F5841",
"O  c #205942",
"+  c #215A42",
"@  c #245C45",
"#  c #255D46",
"$  c #296049",
"%  c #2A604A",
"&  c #2B614B",
"*  c #326651",
"=  c #356954",
"-  c #376A55",
";  c #386B56",
":  c #3A6C57",
">  c #2A7254",
",  c #41725D",
"<  c #43735F",
"1  c #447460",
"2  c #477663",
"3  c #517D6B",
"4  c #527E6C",
"5  c #537F6D",
"6  c #54806E",
"7  c #578270",
"8  c #688F7F",
"9  c #6A9080",
"0  c #709585",
"q  c #719586",
"w  c #729687",
"e  c #7A9C8E",
"r  c #7C9E90",
"t  c #7E9F91",
"y  c #80A093",
"u  c #81A194",
"i  c #82A294",
"p  c #82A295",
"a  c #83A396",
"s  c #84A497",
"d  c #86A598",
"f  c #87A699",
"g  c #88A69A",
"h  c #89A79A",
"j  c #8AA89B",
"k  c #8CAA9D",
"l  c #8DAA9E",
"z  c #90ACA1",
"x  c #93AFA4",
"c  c #94B0A4",
"v  c #95B0A5",
"b  c #96B1A6",
"n  c #97B2A7",
"m  c #98B2A7",
"M  c #9AB4A9",
"N  c #9AB4AA",
"B  c #9BB5AA",
"V  c #9FB8AD",
"C  c #A0B8AE",
"Z  c #A2BAB0",
"A  c #A3BBB1",
"S  c #A5BCB3",
"D  c #A8BEB5",
"F  c #A9BFB6",
"G  c #ABC1B8",
"H  c #AEC3BA",
"J  c #AFC3BB",
"K  c #B0C4BC",
"L  c #B1C5BC",
"P  c #B3C7BF",
"I  c #B4C7BF",
"U  c #B5C8C0",
"Y  c #B6C9C1",
"T  c #B7C9C2",
"R  c #B8CAC2",
"E  c #B9CBC3",
"W  c #B9CBC4",
"Q  c #BACCC5",
"!  c #C0D0C9",
"~  c #C1D1CB",
"^  c #C2D2CB",
"/  c #C3D3CC",
"(  c #C4D3CD",
")  c #C5D4CE",
"_  c #C6D5CE",
"`  c #CFDBD6",
"'  c #D0DCD7",
"]  c #D1DDD8",
"[  c #D3DEDA",
"{  c #D4DFDB",
"}  c #D5E0DB",
"|  c #D6E0DC",
" . c #D8E2DE",
".. c #D9E3DF",
"X. c #DAE4E0",
"o. c #DBE4E1",
"O. c #DCE5E1",
"+. c #DEE6E3",
"@. c #DFE7E4",
"#. c #E0E8E5",
"$. c #E4EBE8",
"%. c #E8EEEB",
"&. c #E9EFED",
"*. c #EAF0ED",
"=. c #EBF0EE",
"-. c #ECF1EF",
";. c #EDF2F0",
":. c #EFF3F1",
">. c #F0F4F2",
",. c #F0F4F3",
"<. c #F1F5F3",
"1. c #F2F6F4",
"2. c #F3F6F5",
"3. c #F4F7F6",
"4. c #F5F8F6",
"5. c #F7F9F8",
"6. c #F8FAF9",
"7. c #F9FBFA",
"8. c #FAFCFB",
"9. c #FBFCFC",
"0. c #FCFDFC",
"q. c #FDFEFD",
"w. c #FEFEFE",
"e. c white",
/* pixels */
"                                                                                                                                ",
"                                                                                                                                ",
"    . . . . . . . . . . . . . . . . . . . . . . . . . . . . . . . . . . . . . . . . . . . . . . . . . . . . . . . . . . . .     ",
"  . X > > > > > > > > > > > > > > > > > > > > > > > > > > > > > > > > > > > > > > > > > > > > > > > > > > > > > > > > > > X .   ",
". X > X X X X X X X X X X X X X X X X X X X X X X X X X X X X X X X X X X X X X X X X X X X X X X X X X X X X X X X X X X > X . ",
". > X X > X > X X X X X X X X X X X X X X X X X X X X X X X X X X X X X X X X X X X X X X X X X X X X X X X X X X > X > X X > . ",
". > X > > X X X X X X X X X X X X X X X X X X X X X X X X X X X X X X X X X X X X X X X X X X X X X X X X X X X X X X > > X > . ",
". > X X X X X X X X X X X X X X X X X X X X X X X X X X X X X X X X X X X X X X X X X X X X X X X X X X X X X X X X X X X X > . ",
". > X > X X X X X X X X X X X X X X X X X X X X X X X X X X X X X X X X X X X X X X X X X X X X X X X X X X X X X X X X > X > . ",
". > X X X X X X X X X X X X X X X X X X X X X X X X X X X X X X X X X X X X X X X X X X X X X X X X X X X X X X X X X X X X > . ",
". > X X X X X X X X X X X X X X X X X X X X X X X X X X X X X X X X X X o X X X X X X X X X X o X X X X X X X X X X X X X X > . ",
". > X X X X X X X X X X X B w.9.6.E w.w.w.k X X X X e 8.w.w.-.4 X X X @.w.w.w.w...= X X X ; { w.w.w.I O X X X X X X X X X X > . ",
". > X X X X X X X X X X v w.8.w.w.w.w.8.w.w.0 X X 8 6.w.0.0.w.<., X X 5.w.w.w.w.w.X.# X $ #.w.w.w.w.w.G X X X X X X X X X X > . ",
". > X X X X X X X X X X <.w.X.A 6.w.$.B &.w.^ X X ^ 9.2.V G w.w.s X o 6.w.[ v E w.w.5 X 5 0.w.Q v } w.-.X X X X X X X X X X > . ",
". > X X X X X X X X X X 5.w.a X ' w.F X Y w./ X o ( w.Y X X 4.w.d X X 6.w.v X 1 w.w.4 X 4 0.w.1 o e w.=.X X X X X X X X X X > . ",
". > X X X X X X X X X X 6.w.y X [ w.F X I w.^ X X ( 6...z c w.8.d X X 9.w.v X 7 4.8.4 X 4 w.w.H j k 8 - X X X X X X X X X X > . ",
". > X X X X X X X X X X 6.0.y X { 6.D X I 8.^ X X ( w.w.w.w.w.6.j X X 4.8.w.w.w.w.w.1 X $ @.8.8.w.w.<.1 X X X X X X X X X X > . ",
". > X X X X X X X X X X 8.0.a X ' w.A X I w.^ X O ( w.w.0.w.0.w.h X X 5.w.w.w.8.w.h X X X : O.w.w.w.w.| X X X X X X X X X X > . ",
". > X X X X X X X X X X 6.w.a X ` w.A X P 9.^ X X ( w.Q X X 2.0.d X X 8.w./ k k 9 X X X & s a O o B w.-.X X X X X X X X X X > . ",
". > X X X X X X X X X X 8.w.a X ` w.C X P w.^ X X ( 8.Y X X 2.0.d X X 6.w.y X X X X X X 6 w.w., X s w.<.X X X X X X X X X X > . ",
". > X X X X X X X X X X 8.w.a X ' w.C X P w./ X X / w.Y X X <.w.d X X 5.w.y X X X X X X 4 w.w.Q v @.w.<.X X X X X X X X X X > . ",
". > X X X X X X X X X X 8.w.y X [ w.V X I w./ X X ^ w.Y X X 4.w.d X X 4.w.y X X X X X X # { w.w.w.w.w.A X X X X X X X X X X > . ",
". > X X X X X X X X X X -.w.0 X ( w.z X C w.P X X R w.H X X %.w.t X X =.w.0 X X X X X X X * ..w.w.9.P o X X X X X X X X X X > . ",
". > X X X X X X X X X X X X X X X X X X X X X X X X X X X X X X X X X X X X X X X X X X X X X X o X X X X X X X X X X X X X > . ",
". > X X X X X X X X X X X X X X X X X X X X X X X X X X X X X X X X X X X X X X X X X X X X X X X X X X X X X X X X X X X X > . ",
". > X > X X X X X X X X X X X X X X X X X X X X X X X X X X X X X X X X X X X X X X X X X X X X X X X X X X X X X X X X > X > . ",
". > X X X X X X X X X X X X X X X X X X X X X X X X X X X X X X X X X X X X X X X X X X X X X X X X X X X X X X X X X X X X > . ",
". > X > > X X X X X X X X X X X X X X X X X X X X X X X X X X X X X X X X X X X X X X X X X X X X X X X X X X X X X X > > X > . ",
". > X X > X > X X X X X X X X X X X X X X X X X X X X X X X X X X X X X X X X X X X X X X X X X X X X X X X X X X > X > X X > . ",
". X > X X X X X X X X X X X X X X X X X X X X X X X X X X X X X X X X X X X X X X X X X X X X X X X X X X X X X X X X X X > X . ",
"  . X > > > > > > > > > > > > > > > > > > > > > > > > > > > > > > > > > > > > > > > > > > > > > > > > > > > > > > > > > > X .   ",
"    . . . . . . . . . . . . . . . . . . . . . . . . . . . . . . . . . . . . . . . . . . . . . . . . . . . . . . . . . . . .     "
};
