/* XPM */
static char *e47918508b134c4da517b6977585f9e7M5XTsaSHKqLXwx2L[] = {
/* columns rows colors chars-per-pixel */
"64 32 122 2 ",
"   c None",
".  c #040509",
"X  c #226248",
"o  c #2A7254",
"O  c #37946E",
"+  c #39956F",
"@  c #3A9570",
"#  c #3A9670",
"$  c #3D9772",
"%  c #3E9873",
"&  c #419975",
"*  c #429A76",
"=  c #439A77",
"-  c #499E7B",
";  c #4C9F7D",
":  c #4EA07F",
">  c #4FA17F",
",  c #50A180",
"<  c #57A585",
"1  c #58A686",
"2  c #59A687",
"3  c #5AA687",
"4  c #5CA889",
"5  c #65AC8F",
"6  c #66AD90",
"7  c #67AE91",
"8  c #68AE91",
"9  c #6AAF93",
"0  c #79B79E",
"q  c #7BB89F",
"w  c #80BBA3",
"e  c #81BCA4",
"r  c #82BCA4",
"t  c #8AC0AA",
"y  c #8BC1AB",
"u  c #8DC2AC",
"i  c #8EC3AD",
"p  c #8FC3AE",
"a  c #90C4AF",
"s  c #91C4AF",
"d  c #92C4B0",
"f  c #92C5B0",
"g  c #94C6B1",
"h  c #95C6B2",
"j  c #96C7B3",
"k  c #97C7B4",
"l  c #99C9B5",
"z  c #9AC9B6",
"x  c #9DCAB8",
"c  c #A0CCBA",
"v  c #A1CDBB",
"b  c #A2CDBC",
"n  c #A3CEBC",
"m  c #A4CEBD",
"M  c #A5CFBE",
"N  c #A6CFBE",
"B  c #A7D0BF",
"V  c #AAD2C1",
"C  c #ABD2C2",
"Z  c #ACD3C3",
"A  c #ADD3C4",
"S  c #AED4C4",
"D  c #AFD4C5",
"F  c #B2D6C7",
"G  c #B3D7C8",
"H  c #B5D7C9",
"J  c #B7D9CB",
"K  c #B8D9CC",
"L  c #B9DACC",
"P  c #BADACD",
"I  c #BCDBCE",
"U  c #BDDCCF",
"Y  c #BEDCD0",
"T  c #BFDDD1",
"R  c #C0DDD1",
"E  c #C1DED2",
"W  c #C2DFD3",
"Q  c #C7E1D6",
"!  c #C9E2D8",
"~  c #CAE3D9",
"^  c #CBE3D9",
"/  c #CCE4DA",
"(  c #D4E8E0",
")  c #D5E9E1",
"_  c #D6E9E1",
"`  c #D7EAE2",
"'  c #D8EAE3",
"]  c #D9EBE4",
"[  c #DAEBE4",
"{  c #DBECE5",
"}  c #DCEDE6",
"|  c #DDEDE6",
" . c #DEEDE7",
".. c #DFEEE8",
"X. c #E0EFE9",
"o. c #E2EFEA",
"O. c #E2F0EA",
"+. c #E4F1EC",
"@. c #E7F2EE",
"#. c #EAF4F0",
"$. c #ECF5F1",
"%. c #EDF5F2",
"&. c #EDF6F2",
"*. c #EEF6F3",
"=. c #EFF7F4",
"-. c #F1F7F5",
";. c #F1F8F5",
":. c #F2F8F6",
">. c #F3F9F6",
",. c #F4F9F7",
"<. c #F5FAF8",
"1. c #F6FAF9",
"2. c #F8FBFA",
"3. c #F8FCFA",
"4. c #F9FCFB",
"5. c #FAFDFC",
"6. c #FBFDFC",
"7. c #FCFDFD",
"8. c #FCFEFD",
"9. c #FDFEFE",
"0. c #FEFFFE",
"q. c white",
/* pixels */
"    . . . . . . . . . . . . . . . . . . . . . . . . . . . . . . . . . . . . . . . . . . . . . . . . . . . . . . . . . . . .     ",
"  . X o o o o o o o o o o o o o o o o o o o o o o o o o o o o o o o o o o o o o o o o o o o o o o o o o o o o o o o o o o X .   ",
". X o O O O O O O O O O O O O O O O O O O O O O O O O O O O O O O O O O O O O O O O O O O O O O O O O O O O O O O O O O O o X . ",
". o O O o O o O O O O O O O O O O O O O O O O O O O O O O O O O O O O O O O O O O O O O O O O O O O O O O O O O O o O o O O o . ",
". o O o o O O O O O O O O O O O O O O O O O O O O O O O O O O O O O O O O O O O O O O O O O O O O O O O O O O O O O O o o O o . ",
". o O O O O O O O O O O O O O O O O O O O O O O O O O O O O O O O O O O O O O O O O O O O O O O O O O O O O O O O O O O O O o . ",
". o O o O O O O O O O O O O O O O O O O O O O O O O O O O O O O O O O O O O O O O O O O O O O O O O O O O O O O O O O O o O o . ",
". o O O O O O O O O O O O O O O O O O O O O O O O O O O O O O O O O O O O O O O O O O O O O O O O O O O O O O O O O O O O O o . ",
". o O O O O O O O O O O O O O O O O O + + O O O O O O + O + O + O O O O # + O # + O O O O O O + O O O O O O O O O O O O O O o . ",
". o O O O O O O O O O O O B 7.7.4.Q 7.7.7.l O O O O t 7.7.7.=.7 O O O O.7.7.7.7.} ; O O O > ] 7.7.7.U + O O O O O O O O O O o . ",
". o O O O O O O O O O O n 7.7.7.7.7.7.5.7.7.r O O q 4.7.7.7.7.,.< O O 4.7.7.7.7.7.O.% O * +.7.7.7.7.7.J O O O O O O O O O O o . ",
". o O O O O O O O O O O ,.7.X.D 4.7.@.B &.7.! O O Q 7.1.V J 7.7.f O O 4.7.] n E 7.7.7 O 9 7.7.Q n } 7.;.O O O O O O O O O O o . ",
". o O O O O O O O O O O 4.7.g + ( 7.J O E 7.! O O / 7.Y + O 1.7.g O O 4.7.n + 2 7.7.7 O 5 7.7.4 O y 7.-.O O O O O O O O O O o . ",
". o O O O O O O O O O O 4.7.i O { 7.G O Y 7.! O O / 5...x n 7.7.g O O 7.7.m # 9 4.7.7 O 5 7.7.P k l 0 > O O O O O O O O O O o . ",
". o O O O O O O O O O O 4.7.s O { 5.F O Y 7.! O # / 7.7.7.7.7.4.j O O 1.7.7.7.7.7.7.3 O * O.7.7.7.7.;.2 O O O O O O O O O O o . ",
". o O O O O O O O O O O 5.7.s O ( 7.Z + Y 7.! O + / 7.7.7.7.7.7.j O O 4.7.7.7.7.7.l + O O , ..7.7.7.7.} O O O O O O O O O O o . ",
". o O O O O O O O O O O 4.7.s O ( 7.D O U 7.~ O O / 7.Q O O 1.7.g O + 5.7.~ l l q O O O = f s # $ m 7.=.O O O O O O O O O O o . ",
". o O O O O O O O O O O 7.7.s O ( 7.V O U 7.! O + / 7.U O O 1.7.g O O 1.7.p O O O O O O 9 7.7.2 + g 7.;.O O O O O O O O O O o . ",
". o O O O O O O O O O O 7.7.g O ' 7.Z O U 7.! O O ~ 7.Y O O ;.7.g + O 4.7.s O O O O O O 7 7.7.Q m O.7.1.O O O O O O O O O O o . ",
". o O O O O O O O O O O 7.7.f O { 7.V O U 7.~ O O ~ 7.E O O ,.7.g O O 1.7.p O O O O O O % { 7.7.7.7.7.F O O O O O O O O O O o . ",
". o O O O O O O O O O O *.7.w O / 7.x O D 7.P + O E 7.J O O #.7.i O O &.7.w O O O O O O O - } 7.7.7.P # O O O O O O O O O O o . ",
". o O O O O O O O O O O + O O O + O O O + O O O O O + O O O + O O O O O O O O O O O O O O O O O + + O O O O O O O O O O O O o . ",
". o O O O O O O O O O O O O O O O O O O O O O O O O O O O O O O O O O O O O O O O O O O O O O O O O O O O O O O O O O O O O o . ",
". o O o O O O O O O O O O O O O O O O O O O O O O O O O O O O O O O O O O O O O O O O O O O O O O O O O O O O O O O O O o O o . ",
". o O O O O O O O O O O O O O O O O O O O O O O O O O O O O O O O O O O O O O O O O O O O O O O O O O O O O O O O O O O O O o . ",
". o O o o O O O O O O O O O O O O O O O O O O O O O O O O O O O O O O O O O O O O O O O O O O O O O O O O O O O O O O o o O o . ",
". o O O o O o O O O O O O O O O O O O O O O O O O O O O O O O O O O O O O O O O O O O O O O O O O O O O O O O O O o O o O O o . ",
". X o O O O O O O O O O O O O O O O O O O O O O O O O O O O O O O O O O O O O O O O O O O O O O O O O O O O O O O O O O O o X . ",
". X X o o o o o o o o o o o o o o o o o o o o o o o o o o o o o o o o o o o o o o o o o o o o o o o o o o o o o o o o o o X X . ",
". X X X X X X X X X X X X X X X X X X X X X X X X X X X X X X X X X X X X X X X X X X X X X X X X X X X X X X X X X X X X X X . ",
"  . X X X X X X X X X X X X X X X X X X X X X X X X X X X X X X X X X X X X X X X X X X X X X X X X X X X X X X X X X X X X .   ",
"    . . . . . . . . . . . . . . . . . . . . . . . . . . . . . . . . . . . . . . . . . . . . . . . . . . . . . . . . . . . .     "
};
