/* XPM */
static char *_e39051092fa4c2ea14e91a73d8e1cbeCFBjMAdS5F45YS5J[] = {
/* columns rows colors chars-per-pixel */
"64 64 25 1 ",
"  c None",
". c #202020",
"X c #212020",
"o c #202120",
"O c #212120",
"+ c #202021",
"@ c gray19",
"# c #313030",
"$ c #303130",
"% c #313130",
"& c #303031",
"* c #3E3E3E",
"= c #3F3E3E",
"- c #3E3F3E",
"; c #3E3E3F",
": c #3F3E3F",
"> c #E60000",
", c #E70000",
"< c #E70100",
"1 c #E70001",
"2 c #FE3434",
"3 c #FF3434",
"4 c #FE3534",
"5 c #FF3534",
"6 c #FF3435",
/* pixels */
"                                                                ",
"                              3333                              ",
"                            33211222                            ",
"                          333,,1111233                          ",
"                        3321111111,,1222                        ",
"                      333111111111,,11,222                      ",
"                    332,1111111111,,,,,,1233                    ",
"                  333***-111111111,,,,,-**-333                  ",
"                222***-****1111111111********333                ",
"              332******=*****111111-***********333              ",
"            333****************11*************-*-333            ",
"          333**********-*****************-********-333          ",
"        22211******************11*-***********-****11223        ",
"      332111111**-***********111111-*****-*******11111,333      ",
"    223,,,1111111-*********1111111111*-********,111111111222    ",
"  33211,,,111111111******11111111111111******,,,11111111111333  ",
"333111111111111111111**111111111,,,,,,,,,**,,,,,1111111111,,,333",
"3$33211111111111111******1111111,,,,,,,******,,,1111111111,*3333",
"3@@@222111,,11111**********11111,,,,,**********,111111111*223..3",
"3@@@##223,,,111*************-11111,*=***-;**;***-111111*222O...3",
"3@@@#@@@222,,******************11******************,,*333......3",
"3@@@#@@@##223***************************************333........3",
"3@@@@@@@@@@@332****************11*****************223..........3",
"3@@@@@@@@@@&$$223************111111*************222O...........3",
"3@@@@@@@@@@@@@@@333*-******,111111111***;*****333..............3",
"3@@@@@@@@@@@@@@@$$332****,,,1111111111,*--**333................3",
"3@@@@@@@@@@@@@@@@@$&2221,,,,11111111,,,,1-333..................3",
"3@@@@@@@@@@@@@@@@@@@##223,,,11111111,,,=353....................3",
"3@@@@@@@@@@@@@@@@@@@@@@@333111111111,*333......................3",
"3@@@@@@@#@@@@@#&#@@@@@@@$$33211,111*333........................3",
"3$&@&@@@#@@@@@@$@@@@@@@@&@@@222,1-333..........................3",
"3$&&@@@@##@@@@@$@@@@@@@@&@@@##22223............................3",
"3@@@@@@@@@@@@@#@@@@@@@@&@@@@@@@322..................O.++.......3",
"3@@@@@@@@@@@@@@@@@@@@@@@@@@@@@@322.............................3",
"3@@@@@@@@@@@@#@@@@@#@@@@@@@@@@@323.............................3",
"3@@@@@@@@@@@@@@@$@@@&@@&@@@@@@@323.................+...........3",
"3@@@@@@@@@@@@@@@&@@@@$$&@@@@@@@333...............+.............3",
"3@@@@@@@@@@@@@@@@@@@@@$$@@@@@@@333.............................3",
"3@@@@@@@@@@@@@@@@@@@@@@@@@@@@@#233.............................3",
"3@@@@@@@@@@@@@@@@@##@@@@@@@@@##233.........................+...3",
"3@@@@@@@@@@@@#@@@@@@@@@@@@@@@@#233o............................3",
"3@@@@@@@@@@@@@@@@@@@@@@@@@@@@@#233..................+.........+3",
"3@@@@@@@@@@@@@@@@@@@@@@@@@@@@@@233.............................3",
"3@@@@@@@@@@@@@@@@@@@@@@@@@@@@#@233......................+......3",
"3@@@@@@@@@@@@@@@@@@@@@@@@@@@@@#233.............................3",
"3@@@@@@@@@@@@@@@@@@#@@@@@@@@@##233.............................3",
"3@@$@@@@@@@@@@@@@@@@@@@@@@@@@##233o............................3",
"3@@@@@@@@@@@@@@@@@@@@@@@@@@@@@#233.............................3",
"3@@@@@@@@@@@@@@@@@@@@@@@@@@@#@@233...........+O................3",
"33@@@@@@@@@@@@@@@@@@#@@@@@@@@@@233..................+.........33",
" 333@@@@@@@@@@$@@@&$@@#@@@@@@@#233................+.........333 ",
"   333@@@@@@@@@@@@&$@@@@@@@@@##233......oO................333   ",
"     3533$$$@@@@@@@@@@@@@@@@@@@332O....+ooo+............633     ",
"        333$@$@@@@@@@@@@@@@@@@@333......ooo+..........333       ",
"          333@@@@@@@@@@@@@@@@&&333...+.+..++........333         ",
"            333@@@@@@@@@@@@@@$@333.+.....+++......333           ",
"              333$&#@@@@&$@@@@#233........O.....333             ",
"                333&@@##@$@@@##233...........3333               ",
"                  332###@@@@@@#233+........333                  ",
"                    2222@@@@@@@333+......353                    ",
"                       333$&&&@333...O.333                      ",
"                         322&$@333...233                        ",
"                           333$333.333                          ",
"                             3333333                            "
};
