/* XPM */
static char *_645125113951[] = {
/* columns rows colors chars-per-pixel */
"64 64 6 1 ",
"  c #252525",
". c gray20",
"X c gray25",
"o c #E60000",
"O c gray58",
"+ c None",
/* pixels */
"++++++++++++++++++++++++++++++++++++++++++++++++++++++++++++++++",
"++++++++++++++++++++++++++++++XXXX++++++++++++++++++++++++++++++",
"++++++++++++++++++++++++++++XXXooXXX++++++++++++++++++++++++++++",
"++++++++++++++++++++++++++XXXooooooXXX++++++++++++++++++++++++++",
"++++++++++++++++++++++++XXXooooooooooXXX++++++++++++++++++++++++",
"++++++++++++++++++++++XXXooooooooooooooXXX++++++++++++++++++++++",
"++++++++++++++++++++XXXooooooooooooooooooXXX++++++++++++++++++++",
"++++++++++++++++++XXXXXXXooooooooooooooXXXXXXX++++++++++++++++++",
"++++++++++++++++XXXXXXXXXXXooooooooooXXXXXXXXXXX++++++++++++++++",
"++++++++++++++XXXXXXXXXXXXXXXooooooXXXXXXXXXXXXXXX++++++++++++++",
"++++++++++++XXXXXXXXXXXXXXXXXXXooXXXXXXXXXXXXXXXXXXX++++++++++++",
"++++++++++XXXXXXXXXXXXXXXXXXXXXXXXXXXXXXXXXXXXXXXXXXXX++++++++++",
"++++++++XXXooXXXXXXXXXXXXXXXXXXooXXXXXXXXXXXXXXXXXXooXXX++++++++",
"++++++XXXooooooXXXXXXXXXXXXXXooooooXXXXXXXXXXXXXXooooooXXX++++++",
"++++XXXooooooooooXXXXXXXXXXooooooooooXXXXXXXXXXooooooooooXXX++++",
"++XXXooooooooooooooXXXXXXooooooooooooooXXXXXXooooooooooooooXXX++",
"XXXooooooooooooooooooXXooooooooooooooooooXXooooooooooooooooooXXX",
"..XXXooooooooooooooXXXXXXooooooooooooooXXXXXXooooooooooooooXXXX ",
"....XXXooooooooooXXXXXXXXXXooooooooooXXXXXXXXXXooooooooooXXXX   ",
"......XXXooooooXXXXXXXXXXXXXXooooooXXXXXXXXXXXXXXooooooXXXX     ",
"........XXXooXXXXXXXXXXXXXXXXXXooXXXXXXXXXXXXXXXXXXooXXXX       ",
"..........XXXXXXXXXXXXXXXXXXXXXXXXXXXXXXXXXXXXXXXXXXXXX         ",
"............XXXXXXXXXXXXXXXXXXXooXXXXXXXXXXXXXXXXXXXX           ",
"..............XXXXXXXXXXXXXXXooooooXXXXXXXXXXXXXXXX             ",
"................XXXXXXXXXXXooooooooooXXXXXXXXXXXX               ",
"..................XXXXXXXooooooooooooooXXXXXXXX                 ",
"....................XXXooooooooooooooooooXXXX                   ",
"......................XXXooooooooooooooXXXX                     ",
"........................XXXooooooooooXXXX                       ",
"..........................XXXooooooXXXX                         ",
"............................XXXooXXXX                           ",
"..............................XXXXX                             ",
"................................O                               ",
"................................O                               ",
"................................O                               ",
"................................O                               ",
"................................O                               ",
"................................O                               ",
"................................O                               ",
"................................O                               ",
"................................O                               ",
"................................O                               ",
"................................O                               ",
"................................O                               ",
"................................O                               ",
"................................O                               ",
"................................O                               ",
"................................O                               ",
"................................O                               ",
"................................O                               ",
"+...............................O                              +",
"+++.............................O                            +++",
"+++++...........................O                          +++++",
"++++++++........................O                        +++++++",
"++++++++++......................O                      +++++++++",
"++++++++++++....................O                    +++++++++++",
"++++++++++++++..................O                  +++++++++++++",
"++++++++++++++++................O                +++++++++++++++",
"++++++++++++++++++..............O             ++++++++++++++++++",
"++++++++++++++++++++............O           ++++++++++++++++++++",
"+++++++++++++++++++++++.........O         ++++++++++++++++++++++",
"+++++++++++++++++++++++++.......O       ++++++++++++++++++++++++",
"+++++++++++++++++++++++++++.....O     ++++++++++++++++++++++++++",
"+++++++++++++++++++++++++++++...O   ++++++++++++++++++++++++++++"
};
