/* XPM */
static char *_645124676536[] = {
/* columns rows colors chars-per-pixel */
"64 64 10 1 ",
"  c #29AD10",
". c #51FF00",
"X c #52D620",
"o c #64A5FF",
"O c #8BBCFF",
"+ c #B2D2FF",
"@ c #D1E5FF",
"# c #D9E9FF",
"$ c white",
"% c None",
/* pixels */
"%%%%%%%%%%%%%%%%%%%%%%%%%%%%%%%%%%%%%%%%%%%%%%%%%%%%%%%%%%%%%%%%",
"%%%%%%%%%%%%%%%%%%%%%%%%%%%%%%####%%%%%%%%%%%%%%%%%%%%%%%%%%%%%%",
"%%%%%%%%%%%%%%%%%%%%%%%%%%%%########%%%%%%%%%%%%%%%%%%%%%%%%%%%%",
"%%%%%%%%%%%%%%%%%%%%%%%%%%############%%%%%%%%%%%%%%%%%%%%%%%%%%",
"%%%%%%%%%%%%%%%%%%%%%%%%#############@##%%%%%%%%%%%%%%%%%%%%%%%%",
"%%%%%%%%%%%%%%%%%%%%%%####################%%%%%%%%%%%%%%%%%%%%%%",
"%%%%%%%%%%%%%%%%%%%%########################%%%%%%%%%%%%%%%%%%%%",
"%%%%%%%%%%%%%%%%%%############################%%%%%%%%%%%%%%%%%%",
"%%%%%%%%%%%%%%%%################################%%%%%%%%%%%%%%%%",
"%%%%%%%%%%%%%%####################################%%%%%%%%%%%%%%",
"%%%%%%%%%%%%####@###################################%%%%%%%%%%%%",
"%%%%%%%%%%#############@######################@#@#####%%%%%%%%%%",
"%%%%%%%%#####################################@#@########%%%%%%%%",
"%%%%%%########@#######################@###################%%%%%%",
"%%%%##################@######################@#########@####%%%%",
"%%################################################@###########%%",
"$$#################@##########################@################+",
"##$$########################################@################++O",
"####$$#######@###################@#########################++OOO",
"######$$##@@#############################@###############++OOOOO",
"########$$######@#@@###@###############################++OOOOOOO",
"##########$$###@#####################################++OOOOOOOOO",
"############$$######################@#########@####++OOOOOOOOOOO",
"##############$$#########@#######################++OOOOOOOOOOO O",
"++##############$$#############################++OOOOOOOOOOOOOOo",
"OO++####X#########$$############@############++OOOOOOOOOOOOOOoo ",
"XXOO+###############$$########@###@####@###++OOOOOOOOOOOOOO o   ",
"XXXXO#################$$#################++OOOOOOOOOOOOOOo      ",
"XXXXXO#O++##############$$#@###########++OOOOOOOOOOOO O         ",
"XXXXXOOXOO++##############$$#########++OOOOOOOOOOOOOOo          ",
"XX+XXXOXXOOO++###X##########$$#####++OOOOOOOOOOOOOOoo           ",
"XXXXXXXXXXXXOO++##############$$+++OOOOOOOOOOOOOOoo           + ",
"XXXXXXXXXXXXXXOO+###############$OOOOOOOOOOOOOOoo         +     ",
"XXXXXXX+XXXXXXXXO##+#XX#########$OOOOOOOOOO Ooo                 ",
"XXXXXXXXXXXXXXXXO#OO++###X######$OOOOOOOOOO                     ",
"XXX+XXXXX+XXXXXXOOOXOO++########$OOOOOOOOoo           +    +    ",
"XXXXXXXXXXXXX+XXXXXXXXOO++######$OOOOOOoo                       ",
"XXXXXXXXXXXXXXXXXXXXXXXXOOO+####$OOOOoo           +             ",
"XXXXXXXXXXXXXXXXXXXXXXXXXXXO++##+OOoo          +                ",
"XXXXXXXXXXXXXXXXXXXXXXXXXXXXOO+++oo         +                   ",
"XXXXXXX+XXXXX+XXX+XXXXXXXXXXXXOOO                               ",
"XXXXXXXXXXXXXXXXXXXX+XXXXXXXXXXX.          +     +              ",
"XXXXXXXXXXXXXXXXXXXXXXXX+X+XXXXX.       +                       ",
"XXXXXXXXXXXXXXXXXXXXXXXXXXXXXXXX.   +                           ",
"XXXXXXXXXXXXXXXXXXXXXXXXXXXXXXXX.           +                   ",
"XXXXXXXXXXXXXXXXXXXXX+XXXXXXXXXX.                               ",
"XXXXXXXXXXXXXXXXXXXXXXXXXXXX+XXX.  +                            ",
"XXXXXXXXXXXXXXXXXXXXXXXXXXXXXXXX.                               ",
"XXXXXXXXXXXXXXXXXXXXXXXXXXXXXXXX.  +     +                      ",
"XXXXXXXXXXXXXXXXXXXXXXXXXXXXXXXX.                               ",
"%XXXXXXXXXXXXXXXXXXXXXXXXXXXXXXX.                              %",
"%%%XXXXXXXXXXXXXXXXXXXXXXXXXXXXX.                            %%%",
"%%%%%XXXXXXXXXXXXXXXXXXXXXXXXXXX.                          %%%%%",
"%%%%%%%%XXXXXXXXXXXXXXXXXXXXXXXX.                        %%%%%%%",
"%%%%%%%%%%XXXXXXXXXXXXXXXXXXXXXX.                      %%%%%%%%%",
"%%%%%%%%%%%%XXXXXXXXXXXXXXXXXXXX.                    %%%%%%%%%%%",
"%%%%%%%%%%%%%%XXXXXXXXXXXXXXXXXX.                  %%%%%%%%%%%%%",
"%%%%%%%%%%%%%%%%XXXXXXXXXXXXXXXX.                %%%%%%%%%%%%%%%",
"%%%%%%%%%%%%%%%%%%XXXXXXXXXXXXXX.             %%%%%%%%%%%%%%%%%%",
"%%%%%%%%%%%%%%%%%%%%XXXXXXXXXXXX.           %%%%%%%%%%%%%%%%%%%%",
"%%%%%%%%%%%%%%%%%%%%%%%XXXXXXXXX.         %%%%%%%%%%%%%%%%%%%%%%",
"%%%%%%%%%%%%%%%%%%%%%%%%%XXXXXXX.       %%%%%%%%%%%%%%%%%%%%%%%%",
"%%%%%%%%%%%%%%%%%%%%%%%%%%%XXXXX.     %%%%%%%%%%%%%%%%%%%%%%%%%%",
"%%%%%%%%%%%%%%%%%%%%%%%%%%%%%XXX.   %%%%%%%%%%%%%%%%%%%%%%%%%%%%"
};
