/* XPM */
static char *a796fcc84690431db2ebfc1e27155216rflt3DPZgoFzieRC[] = {
/* columns rows colors chars-per-pixel */
"64 64 62 1 ",
"  c None",
". c #FE3434",
"X c #FF3434",
"o c #FE3534",
"O c #FF3534",
"+ c #FE3435",
"@ c #FF3435",
"# c #FF3535",
"$ c #28AC10",
"% c #29AC10",
"& c #28AD10",
"* c #29AD10",
"= c #28AC11",
"- c #29AC11",
"; c #28AD11",
": c #29AD11",
"> c #52D620",
", c #53D620",
"< c #52D720",
"1 c #53D720",
"2 c #52D621",
"3 c #53D621",
"4 c #52D721",
"5 c #53D721",
"6 c #64A4FE",
"7 c #64A5FE",
"8 c #65A5FE",
"9 c #64A4FF",
"0 c #65A4FF",
"q c #64A5FF",
"w c #65A5FF",
"e c #8ABCFE",
"r c #8BBCFE",
"t c #8ABDFE",
"y c #8BBDFE",
"u c #8ABCFF",
"i c #8BBCFF",
"p c #8ABDFF",
"a c #8BBDFF",
"s c #B2D2FE",
"d c #B2D3FE",
"f c #B3D3FE",
"g c #B2D2FF",
"h c #B3D2FF",
"j c #B2D3FF",
"k c #B3D3FF",
"l c #D0E4FE",
"z c #D1E4FE",
"x c #D0E5FE",
"c c #D1E5FE",
"v c #D0E4FF",
"b c #D1E4FF",
"n c #D0E5FF",
"m c #D1E5FF",
"M c #D8E8FE",
"N c #D9E8FE",
"B c #D8E9FE",
"V c #D9E9FE",
"C c #D8E8FF",
"Z c #D9E8FF",
"A c #D8E9FF",
"S c #D9E9FF",
/* pixels */
"                                                                ",
"                              XXXX                              ",
"                            XXXAAXXX                            ",
"                          XXXNAAAAZXXX                          ",
"                        XXXAAZNNAVAAA...                        ",
"                      XXXAZZNANAAVVAAZZ.XX                      ",
"                    XXXAAAANANAAVVNAAAZAAXXX                    ",
"                  X..AAAAAVAAANAANANAZAAAAAXXX                  ",
"                XXXAAAZNNNNNZNAZAZAZAAAZAAAAAXXX                ",
"              XXXVZAAZANNAAVANAVVNAZVANVZZAVAZAXXX              ",
"            ..XAzAVAZNAAVVZAVVVVNNAVAZVVVNVZAAZZAXXX            ",
"          XX.AAANVNAZZNzNVVVVAVANNNVVVVAVVAAMZlZzAAXXX          ",
"        XXXVZAAZANZAAAZZVZAVNVVVNNAAAAAZAAVVVzVMAAAAAXXX        ",
"      XXXZZAAAzAAANZZAAZNNVVVVNANAZZAAzNANNAAAAAAANVVAZXXX      ",
"    XXXAAZVZVVAANZZZAAMZAVAANNAAVVVZAVANANVANzZAVVNAAZAzAXXX    ",
"  XXXAANNNAZVVAAZAZZAANAVAVVVAVAVAZZAAAVVVVVZZAAVAzZAAAAAAAXXX  ",
"XXXXAAZNANAANNVVNVVbVVVNVNVAZZAAAVNAVANVVVAAZAMVZAZAZAZAZANANXXX",
".AXXXZAAAAAAAAVAVVAVVAZAAAZZAAANVAVVVZVNAAVAzZZAAZVAZAAANAANXXXX",
".AZZXXXNAANNAzAANNAVVNAVZZAZZAAAVMVNZAVVVZAAZCNVNAZAAZZANAXXXrpX",
".AAAANXXXAzzNAAAVAVAAVVNAVANZNAZZMVNNVAVZzAAACAZNNNAAZAZXXXpeppX",
"XAVANAZAXXXAAAAZMAzbAVAbVANVNANVCAZZVNZAAAVNNNVZVVAZAZ...yeeeerX",
"XAVNAANZNAXXXAZzZAAVNVANVAAVVVNVAAAAVVZAAAVNAAANNAAAXX.rryreyypX",
"XZNAAANAAVZZXXXAZZVNVVVZVVAAAVVVAAZZbVZVVNNVAVzAVA..Xeerrrpepey.",
"XZAAZNNAAZAAAAXXXZAVVAVAAzAVVVVAAANZVAAANAVAAAAA...rppprreeerp%.",
"XsAAAZAAZAAVAAVNXXXZAZZAAAZNAAANAAZNAAZZAAAVNN...yyeerrpyyyrrpr.",
"XeffAAZZ,AVAZVANAZXXXANNAANNNNNAMVAAAAVAAAAAXX.yepryerryyyppy00.",
"X,ersACCVVVVAAZANZZAXXXZVAAVANzAZMlANNAbAA..Xyepreeyrrpyrpp%0%%X",
"X,,,pAACVAZVVVAAAAAZANXXXVVANZAAMZAANVVNXX.ypryrerrrrpppe0%%%%%X",
"X,,,4pMeffAAAAAAANAANAZAXXXzAAAAAAZANZXX.rrrreeyryyep%p*;;;%%%&X",
"X4,4,pp,rrssZAZANAAANAZNAAXXXAAAAAAA...eyryreeeerrrpy0%*%;%%%%;X",
"X4j,,2p,,eepfsAZC>ZNAVVNAZZZXXXNAAXX.eeperrreeyrppr00***;*;;%;&X",
"X,4,,,,,,,,,erffAAANNAVAAZZZAAXXXXXerrrrpyrryepep00%%****%%&%;jX",
"X><<224,,,2,44ppsZZZAAAAVVAZAAAXXXypprrpyyypprp0q%;%%%;;;%k%;**X",
"X<<24,,s4><2,1,4rAAfZ,,ANNNVAAAXXXerreyyyyy%y00%;%%%%%;%%;;***%X",
"X><,,4,44<22,,,,yAressAAV,AVZZZXXXpprerrpyp&%%%%&%%%%%*;%;%;;;;X",
"X>2j2,,44s,,,,<4yye,pyssVAVAAAAXXXpepprep70*%%;%%%%%%%k;;;*k%%;X",
"X>,,,,,,<4,4,s>>,,,,,4ppffZAAZZX..yyrey00%%*%%%%;;;%%;%%;%;%%**X",
"X><24,,,,,<44>>>,,,,444,yryfAAZXX.ypr0q%%%%*;;%%%;j;;;*:%%;;;;%X",
"X2<<,,41,4,,<<>4,4,4>,4,4,,rssCXXXp0q;;%*%*%;%*k%%;%;;:*%%;%*;%X",
"X<<<4,4,,,,,<>>,4,,,4,44,,,,epsXXX0%;%%%**;%k;**;%%&::%;;;;%**%X",
"X>,,2,2s444,4j,,2j<>>4,4,4,,,2eXXX%%**;*****::*;%%;%;%%***%;%%*X",
".,,,,,44,,4,4,44,24,j<,,4,,2>2<XXX;%*;*;***k;;%;%k%;;%%;%&;%;*%X",
".,,,><,,<,,44,,,242>,,4>s,j,>,,oXX%;%**;k%**%%%%%;;*%*%%%*&%&%%X",
".,,,><444,,,,,4442<>,>4>,44,<<4XXX%%j%%;%%**;;;%***%;;**;;%&;%&X",
"X,4,>24,<,<1<44,>4,,44,4,,,4>4>XXX%%;;%;%%*;k%%%%**%;***&%**;%;O",
"X2,,,,22><<<24,,>,4,<s><,,,4,4>XXX%%%%;%;;;*;%%%;;%*%;**%%&*%;;X",
"X24<<42<><4,<2>,,,,,>>>>>>4,s,<XXX%j&;;;;%%;******%%%;%%%;**%**X",
"X>,>2,,>4>>,><><4,,>>4,><44,4,4XXX;%;;%;;%%******;;;;%%;;%;;&**X",
"X,22<<>,,44,,,2<<<222,>,,,2,<>>XXX*k****;k%%;;*;*%%;&&%%%;%;;;;X",
"XX24>>,,,44,,4,>2,<<22>22442<>>XXX**%*:*%%%%%*%%;%*;%%;;%;;;%%XX",
" XXX44,4,44,>>22>,<<<2<<>>4>><,XXX;*;%;:**;%*%%%%;**&&*;*;%%XOX ",
"   XXX4,4,,2><<<><2<<2<<4><>2,2XXX;%%;;;*;*%*%;%*;%*&%*;%*XXX   ",
"     XXXX,,4,2,2,,2244>>,4,,,4,XXX%%%;;%%;%;:**%;***%;;%XXX     ",
"        XXX,,242,,424,,1,,,4><,XXX%;%%;*%;%%:;%%;%;*;%XXX       ",
"          XXX,444,,,4>,44,4,>,4XXX;%%%;%;%%%**;;**%;XXX         ",
"            XXX<,,,,414,4,4,,44XXX&%:;;;%;%%%*;;;%XXX           ",
"              XXX4><<>4,,,4><44XXX&;%%;%;%%;%%%;XXX             ",
"                XXX>>>1<4>><>,,XXX%%%;&%%;;;;XXXX               ",
"                  XXX<44,,44,,>XOX;%;;&;%%;XXX                  ",
"                    XXXX444,,44XXX%;*;%;;XXX                    ",
"                       XXX44,44XXX%;***XXX                      ",
"                         XXX44,XOX;;;XXX                        ",
"                           XXX4OXX%OXX                          ",
"                             XXXXXXX                            "
};
