/* XPM */
static char *f272a23d047d4be2a6c6399e45546090kDeL0rX4obURSiLe[] = {
/* columns rows colors chars-per-pixel */
"64 64 24 1 ",
"  c None",
". c #252424",
"X c #252524",
"o c #252425",
"O c #242525",
"+ c #252525",
"@ c #333232",
"# c #333332",
"$ c #333233",
"% c #323333",
"& c gray20",
"* c gray25",
"= c #414040",
"- c #404140",
"; c #404041",
": c #FE3434",
"> c #FF3434",
", c #FE3534",
"< c #FF3534",
"1 c #FF3435",
"2 c #7BFE30",
"3 c #7AFF30",
"4 c #7BFF30",
"5 c #7BFF31",
/* pixels */
"                                                                ",
"                              >>>>                              ",
"                            >>>45>>>                            ",
"                          >>>444444>>>                          ",
"                        >>>4444444445>>>                        ",
"                      >>>54444444454444>>>                      ",
"                    >>>454444444444444444>>>                    ",
"                  >>>;***44444444444444***;>>>                  ",
"                >>>*******=4555544444*******;>>>                ",
"              >>>***********=555444************>>>              ",
"            >>>;************=;=54***;*;;********;>>>            ",
"          >>>**;***********=*;==****;;;;**********;>>>          ",
"        >>>44******;********---54*&---;;*=*********44>>>        ",
"      >>>444444****;********&455544*--==****=****444444>>>      ",
"    >>>4444444444**********4444444445===*******4444444445>>>    ",
"  >>>44444444444444******44444444444555=****=54444444444445>>>  ",
">>>554444444445555554**444444444444444444**455554444444454555>>>",
">&>>>44444444455555;*****44444444444444*****;55544444444445->>>>",
">&&&>>>4444444455===*******4444444444*******;*;5444444554&11>OX>",
">&&&%%>>>444444&====****;****444444*******=***;;*444455*>>1+OOO>",
"1&&&%&&&11>44******************44***********===;***54*11>+O+O++>",
"1&&&##&&&&>>>**********=********************=-==****>>1OO+++OOX>",
">%&&&&&&&$&&1>>*****;**********44***********--;;**>>>XXoOO++OOO>",
">%&&&&&&&&&##%11>**=*********544444********=--&;>>>XXXXO++++OOO>",
">##&&&&&&&&&&&&&>>>;*******4444444444*********111X++++++++++o++1",
">%&&&&&&&&&&&&&&##>>>****44444444444444*****>11oX+++++++++++++X1",
"1#&&&&&&&&&&&&&&&&&&>>>444444444444444445*11>XXXOO++++++++++OOX1",
"1#&&&&&&&&&&&&&&&&&&#%>1>44444444444444*111+XXoX+O++++++++++OXX1",
">%&&&&&&&&#&&&&&&&&&&&%%>1>4445445554*>>1XO+++++++++++++++O+O++1",
"1#&&&&#&&&%&&&&&&&&&&&&&#%11>444455;>>>X++OO++++++++++++++++O+X1",
">##&&&&&&&&&&&&&&&&&&&&&#&&&>>>44*>>>OXX+o++++OO+++++++o++O+OXX1",
">%&&&&&&&&&&&&&&&&&&&&&&&&&&%%>>>>>OOXXXO+++++++++++++++++OOOXX1",
"1&&&&&&&&&&&&&&&&&&&&&&&&&&&&&%>>>OOO++++++++++++++++++++++++++>",
"1&&&&&&&&$&&&&&&&&&&&&&&&&&&&##1>>OXO+++++++++++++++++++++++++X>",
">%&&&&&&&&&&&&&&&&#&&%&&&&&&&&#1>>XX++++++++++++++++++++++++XXX1",
">%&&&&&&&&&&&&&&&&#%%%&&&&&#&&%>>>XX+O+++++++++++o+++++++++oXXX>",
">##&&&&&&&&&&%$&&&#&&&&&&&&&&&&111o+++++++++++++++++++++++o+XOO1",
">%&&&&&&&&&&&&#&&&&&&&&&&&&&&&#111+O++++++++++++++++.+++++++OOX1",
"1&&&&&&&&&&&&&%%&&&&&&&&&&#&&&%>>>++++++++++++++++++++.+++O+OXX1",
"1&&&&&&&&&&&#%%&&&&&&&&&&&&&&##>>>++++++++++++++++++++++++OOOXX1",
">%&&&&&&&&&&&&&&&&&&&&&&&&&&&&#1>>XX++++++++++++++++++o++++++++1",
"1#&&&&&&&&&&&&&&&&&&&&&&&&&&&&%>>>XX++++o+++++++++++++++++++++X1",
">##&&&&&&&&&&&&&&#&&&&&&&&&&&#&1>>XO+++++++o+++oXO++++++++++OXX1",
">%&&&&&&&&&&&&&&&&&&&&&&&#%&&&&1>>OO+++++++++++++o++o++o++++OXX1",
"1&&&&&&&&&&&&&&&&&$&&&&&&&&&&&&>>>+++++++++++++++++O+++O++O+O++1",
"1&&&&&&&&&&&&&&$&&&&&&&&&&&&&&&>>>+O++++++++++++++++o+++++++OOX1",
">%&&&&&&&&&&&&&&&&&&&&&&&&&&&%&>1>OO++O++++++++++++++++++++oOOX1",
"1#&&&&&&&&&&&&&&&&&&&&&&&&&&&#&>>>OO++++++++++++++++++++++OOOXX1",
">%##&&&&&&&&&&&&&&&&&&&%&&&&&&&>11++X+++++++++++++++++++++O++++1",
">>&&&&&&&&&&&&&&&&&&&&&&&&&&&&&>11++Oo+++++++++++++++++++OOO++11",
" 111&&##&&&&&&&&&&&&&&&&&&&&&&%>1>+++++o+++++++++O++++OO+++O>>1 ",
"   >>>&%&&&&&&&&&&&&&&&&&&&&##%>>>++++++++++++++++++++OO++>>>   ",
"     >>>>&&&&&&&&&&&&&&&&&&%%##1>>XX+++++o+++O++++XOOOXO>>>     ",
"        >>>&&&&&&&&&&&&&&&&&&#%>>>XX+++++++++O++++XX+O>>>       ",
"          >>>&&&&&&&&&&&&&&&&&&1>>XX++OX++++++OO+++X1>>         ",
"            >>>&&&&&&&&&&&&&&&&1>>OO++++++++++OO++111           ",
"              >>>&&&&&&&&&&&&&&>>>++O+++OOO+++XO>>>             ",
"                >>>&&&&&&&&&&&&>1>+O++++OXO+X1>>>               ",
"                  >>>&&&&&&&&&&>>>OO++++XXX>1>                  ",
"                    >>>>&&&&&&&>>>OO++++X11>                    ",
"                       >>>&&&&&>1>OO+XO>>>                      ",
"                         >>>&&&>>>OO+>>1                        ",
"                           >>>&>>>O>>>                          ",
"                             >>>>>>>                            "
};
