/* XPM */
static char *ceaa504bf3194a43cfb4bd9c34cc21e7eKO19hkMgoH8v9Gv[] = {
/* columns rows colors chars-per-pixel */
"64 64 54 1 ",
"  c None",
". c #333232",
"X c #323332",
"o c #333332",
"O c #333233",
"+ c #323333",
"@ c gray20",
"# c gray32",
"$ c #535252",
"% c #525352",
"& c #535352",
"* c #525253",
"= c #535253",
"- c #525353",
"; c #535353",
": c #7C7C7C",
"> c #7D7C7C",
", c #7C7D7C",
"< c #7D7D7C",
"1 c #7C7C7D",
"2 c #7D7C7D",
"3 c #7C7D7D",
"4 c gray49",
"5 c #FE3434",
"6 c #FF3434",
"7 c #FE3534",
"8 c #FF3534",
"9 c #FE3435",
"0 c #FF3435",
"q c #FE3535",
"w c #FF3535",
"e c gray58",
"r c #959494",
"t c #949594",
"y c #959594",
"u c #949495",
"i c #959495",
"p c #949595",
"a c #959595",
"s c #A4A4A4",
"d c #A5A4A4",
"f c #A4A5A4",
"g c #A5A5A4",
"h c #A4A4A5",
"j c #A5A4A5",
"k c #A4A5A5",
"l c #A5A5A5",
"z c gray80",
"x c #CDCCCC",
"c c #CCCDCC",
"v c #CDCDCC",
"b c #CCCCCD",
"n c #CDCCCD",
"m c #CDCDCD",
/* pixels */
"                                                                ",
"                                                                ",
"                                                                ",
"                                                                ",
"                                                                ",
"                                                                ",
"                                                                ",
"                                                                ",
"                                                                ",
"                                                                ",
"                                                                ",
"                                                                ",
"                                                                ",
"                                                                ",
"                                                                ",
"                                                                ",
"                                                                ",
"                                                                ",
"                                                                ",
"                                                                ",
"                                                                ",
"                              8888                              ",
"                            888fj889                            ",
"                          888jkkjjj998                          ",
"                        888jgkkkjjjjf899                        ",
"                      888jjjjkjjjjjjyyr688                      ",
"                    888jggfjfjjjfjtue::&-888                    ",
"                  888kjkkkjfjjfhjtt,:&&zbty888                  ",
"                888-;jjjkkjjjtjte:,;&zzeyjkjd969                ",
"              888jjkj;&kgkyjjju,:&&nzeuhkjkljdd989              ",
"            888hjhhkjhk;&yyyt,,&&zcythhjkgkkjjjyr989            ",
"          889jhjjjjjjjjgj&;,,;&nzeykkjjhkkkjjjjyuuu888          ",
"        888kjjjhjhhjjjjte:,&;nnyehgfffjgjhfkkkuuu::&&889        ",
"      888jjkjjjjjjhhjuy::&&bbttjjjkjjgkkjjjjfty,:&&nctt898      ",
"    888jjjjjkkjhjfuyt,,&&bctthkkffjjllkljjjut,,&&cnrtfjfd896    ",
"  888jkjhjfkjfhjttu,,&&cb&;jhhkjhjjflfjlrer:,&&nxuudkkgjjjt688  ",
"8989jjjjjfjtehhet,,&;ccythj&-hjjjjddttttr::&&bctrfjhjjjjfheeu666",
"99698jjjkkjfeet:,&&ncttfhhjhj--jhjddytr::&&zbytkjdjfjjjjeee:6866",
"9:::668jjjktee:&&bzttjkkgjhjjjl--huuu::&&zcttsjjjjjjfjjyt,669&&6",
"9:,:,,888yy,:&&bntujfjjjjhjjjjjlj-&::&&nxttjfjfhttjfftty669&&&&6",
"6:,,:::2999&&nneejgjfjkfgkgggglljhj-;ncttjjkhjjjddsru:666&**&##6",
"9:,:::,,::996uydjjkgjjffkkgglllljhhjj&;jfjfgjhjjeed:696*&&**#&#5",
"9:::22,:,,&u666djjfjjkjkjkggljklkkkjkkj-;fjkhdteh,666&*&##&&&-#8",
"9,::,2::::&:::668jjjkjjkjgkgjjggkjfjkkkjf;&ktee:996****-#&##&&&9",
"6:::2:::,,&:y:::668jkjjjjjkkkkjjffgkkgjjffu&&:666&&&#&**&####*#9",
"62:2,:::,,&uuu,,::898fkkkjggkjkfgjkjggjjjyu:696&&&*&#######&#&&9",
"6,::,,,:::&i::::::,:888jjkkkkgjjkjkllyjyt,986.:&*&*&-&#*##**&&&9",
"6:>,2:2,::&:iu,:::,,,,888ggkgkjfkkgfjyy,886&&.&:*&###*&###*&*&&9",
"889:,,::::&u:::r::2:2::2899jjjjjjsdre:999#-#&O:**#&*&&**#&&&**66",
"  696::::,&ur:::::,,:,:2::986fjjeru:969##&&#&O-:***&***##*&&966 ",
"    899,::-uy:r:2::222::,:::969ue:666&*####*#+:&##*#**&&#*668   ",
"      988,&u:,,::,2:::,2:::,::99669&*&&-#####.*&:###&&&&666     ",
"        988u::y::222::::::2,,,:966&&**####*#&O:-&&&&**898       ",
"          688,,:::,2,:::,:22:,:966&&&-&#**##&O:&&&&&668         ",
"            999:,:,2,:,,:,:,2,:966&&*-&-#*-#&O&&*#696           ",
"              999::2::,:,:,22,2966**##*-###&&.:,666             ",
"                899:,:::::::,::666****##&**&&.998               ",
"                  669,::::::::,666*&*##*-&*&698                 ",
"                    989:::::,::669&*####&&986                   ",
"                      669::::::666*&####866                     ",
"                        989::,,669&&&&668                       ",
"                          996,:969&&669                         ",
"                            966666968                           ",
"                              99698                             "
};
